<svg width="72" height="71" viewBox="0 0 72 71" fill="none" xmlns="http://www.w3.org/2000/svg">
<path d="M1.492 52L5.41 42.1H6.544L10.462 52H9.148L8.05 49.114H3.904L2.8 52H1.492ZM4.318 48.04H7.636L5.974 43.726L4.318 48.04ZM14.7772 52.192C14.2092 52.192 13.6932 52.052 13.2292 51.772C12.7692 51.492 12.4032 51.106 12.1312 50.614C11.8632 50.122 11.7292 49.56 11.7292 48.928C11.7292 48.3 11.8612 47.742 12.1252 47.254C12.3932 46.762 12.7572 46.374 13.2172 46.09C13.6812 45.806 14.2092 45.664 14.8012 45.664C15.3132 45.664 15.7792 45.78 16.1992 46.012C16.6232 46.244 16.9592 46.566 17.2072 46.978V41.674H18.3712V52H17.2072V50.848C16.9432 51.268 16.5992 51.598 16.1752 51.838C15.7512 52.074 15.2852 52.192 14.7772 52.192ZM15.0892 51.19C15.5092 51.19 15.8812 51.094 16.2052 50.902C16.5292 50.706 16.7832 50.438 16.9672 50.098C17.1512 49.758 17.2432 49.37 17.2432 48.934C17.2432 48.494 17.1512 48.104 16.9672 47.764C16.7832 47.42 16.5292 47.152 16.2052 46.96C15.8812 46.764 15.5112 46.666 15.0952 46.666C14.6792 46.666 14.3092 46.764 13.9852 46.96C13.6612 47.152 13.4052 47.42 13.2172 47.764C13.0332 48.104 12.9412 48.494 12.9412 48.934C12.9412 49.37 13.0332 49.758 13.2172 50.098C13.4012 50.438 13.6552 50.706 13.9792 50.902C14.3032 51.094 14.6732 51.19 15.0892 51.19ZM23.4257 52.192C22.8577 52.192 22.3417 52.052 21.8777 51.772C21.4177 51.492 21.0517 51.106 20.7797 50.614C20.5117 50.122 20.3777 49.56 20.3777 48.928C20.3777 48.3 20.5097 47.742 20.7737 47.254C21.0417 46.762 21.4057 46.374 21.8657 46.09C22.3297 45.806 22.8577 45.664 23.4497 45.664C23.9617 45.664 24.4277 45.78 24.8477 46.012C25.2717 46.244 25.6077 46.566 25.8557 46.978V41.674H27.0197V52H25.8557V50.848C25.5917 51.268 25.2477 51.598 24.8237 51.838C24.3997 52.074 23.9337 52.192 23.4257 52.192ZM23.7377 51.19C24.1577 51.19 24.5297 51.094 24.8537 50.902C25.1777 50.706 25.4317 50.438 25.6157 50.098C25.7997 49.758 25.8917 49.37 25.8917 48.934C25.8917 48.494 25.7997 48.104 25.6157 47.764C25.4317 47.42 25.1777 47.152 24.8537 46.96C24.5297 46.764 24.1597 46.666 23.7437 46.666C23.3277 46.666 22.9577 46.764 22.6337 46.96C22.3097 47.152 22.0537 47.42 21.8657 47.764C21.6817 48.104 21.5897 48.494 21.5897 48.934C21.5897 49.37 21.6817 49.758 21.8657 50.098C22.0497 50.438 22.3037 50.706 22.6277 50.902C22.9517 51.094 23.3217 51.19 23.7377 51.19ZM6.898 67.192C6.154 67.192 5.46 67.062 4.816 66.802C4.176 66.538 3.614 66.174 3.13 65.71C2.65 65.242 2.276 64.696 2.008 64.072C1.74 63.448 1.606 62.776 1.606 62.056C1.606 61.336 1.74 60.664 2.008 60.04C2.28 59.416 2.656 58.872 3.136 58.408C3.616 57.94 4.176 57.576 4.816 57.316C5.456 57.052 6.148 56.92 6.892 56.92C7.508 56.92 8.088 57.01 8.632 57.19C9.18 57.366 9.658 57.608 10.066 57.916L9.514 58.942C9.186 58.678 8.802 58.476 8.362 58.336C7.922 58.192 7.458 58.12 6.97 58.12C6.382 58.12 5.842 58.22 5.35 58.42C4.858 58.62 4.43 58.9 4.066 59.26C3.706 59.616 3.426 60.034 3.226 60.514C3.03 60.99 2.932 61.504 2.932 62.056C2.932 62.608 3.03 63.124 3.226 63.604C3.426 64.08 3.706 64.498 4.066 64.858C4.43 65.214 4.858 65.492 5.35 65.692C5.842 65.892 6.382 65.992 6.97 65.992C7.458 65.992 7.922 65.922 8.362 65.782C8.802 65.638 9.186 65.434 9.514 65.17L10.066 66.196C9.666 66.496 9.194 66.738 8.65 66.922C8.106 67.102 7.522 67.192 6.898 67.192ZM14.3856 67.192C13.3976 67.192 12.6896 66.98 12.2616 66.556C11.8336 66.128 11.6196 65.418 11.6196 64.426V60.856H12.7836V64.186C12.7836 64.922 12.9056 65.446 13.1496 65.758C13.3936 66.07 13.8056 66.226 14.3856 66.226C14.9696 66.226 15.3836 66.07 15.6276 65.758C15.8716 65.446 15.9936 64.922 15.9936 64.186V60.856H17.1576V64.426C17.1576 65.418 16.9436 66.128 16.5156 66.556C16.0876 66.98 15.3776 67.192 14.3856 67.192ZM21.0828 67.192C20.5708 67.192 20.1168 67.082 19.7208 66.862C19.3288 66.638 19.0168 66.32 18.7848 65.908L19.3428 65.188C19.5548 65.544 19.8108 65.82 20.1108 66.016C20.4108 66.212 20.7328 66.31 21.0768 66.31C21.3008 66.31 21.5028 66.266 21.6828 66.178C21.8668 66.09 22.0128 65.964 22.1208 65.8C22.2288 65.632 22.2828 65.434 22.2828 65.206C22.2828 64.986 22.2268 64.814 22.1148 64.69C22.0068 64.562 21.8448 64.45 21.6288 64.354C21.4168 64.258 21.1508 64.148 20.8308 64.024C20.5748 63.92 20.3268 63.802 20.0868 63.67C19.8468 63.538 19.6488 63.372 19.4928 63.172C19.3408 62.968 19.2648 62.71 19.2648 62.398C19.2648 62.062 19.3548 61.764 19.5348 61.504C19.7188 61.244 19.9708 61.04 20.2908 60.892C20.6108 60.744 20.9748 60.67 21.3828 60.67C21.7148 60.67 22.0368 60.736 22.3488 60.868C22.6608 61 22.9568 61.19 23.2368 61.438L22.7688 62.146C22.3528 61.706 21.8928 61.486 21.3888 61.486C21.0848 61.486 20.8388 61.564 20.6508 61.72C20.4628 61.872 20.3688 62.07 20.3688 62.314C20.3688 62.502 20.4368 62.66 20.5728 62.788C20.7088 62.912 20.8828 63.02 21.0948 63.112C21.3068 63.204 21.5268 63.294 21.7548 63.382C22.0988 63.51 22.3988 63.642 22.6548 63.778C22.9148 63.914 23.1168 64.09 23.2608 64.306C23.4048 64.518 23.4768 64.804 23.4768 65.164C23.4768 65.584 23.3768 65.946 23.1768 66.25C22.9808 66.554 22.7028 66.788 22.3428 66.952C21.9828 67.112 21.5628 67.192 21.0828 67.192ZM27.0551 67.192C26.5511 67.192 26.1591 67.026 25.8791 66.694C25.5991 66.358 25.4591 65.888 25.4591 65.284V61.738H24.7751V60.856H25.4591V58.558H26.6231V60.856H28.0991V61.738H26.6231V65.212C26.6231 65.516 26.6831 65.75 26.8031 65.914C26.9231 66.078 27.0951 66.16 27.3191 66.16C27.5431 66.16 27.7431 66.094 27.9191 65.962L28.2131 66.892C28.0571 66.984 27.8751 67.056 27.6671 67.108C27.4631 67.164 27.2591 67.192 27.0551 67.192ZM32.9969 67.192C32.3449 67.192 31.7569 67.054 31.2329 66.778C30.7129 66.502 30.2989 66.118 29.9909 65.626C29.6869 65.134 29.5349 64.568 29.5349 63.928C29.5349 63.284 29.6869 62.718 29.9909 62.23C30.2989 61.738 30.7129 61.354 31.2329 61.078C31.7569 60.802 32.3449 60.664 32.9969 60.664C33.6489 60.664 34.2349 60.802 34.7549 61.078C35.2789 61.354 35.6929 61.738 35.9969 62.23C36.3049 62.718 36.4589 63.284 36.4589 63.928C36.4589 64.568 36.3049 65.134 35.9969 65.626C35.6929 66.118 35.2789 66.502 34.7549 66.778C34.2349 67.054 33.6489 67.192 32.9969 67.192ZM33.0029 66.178C33.4309 66.178 33.8149 66.082 34.1549 65.89C34.4949 65.698 34.7629 65.432 34.9589 65.092C35.1549 64.752 35.2529 64.364 35.2529 63.928C35.2529 63.488 35.1549 63.1 34.9589 62.764C34.7629 62.424 34.4949 62.158 34.1549 61.966C33.8149 61.774 33.4309 61.678 33.0029 61.678C32.5709 61.678 32.1849 61.774 31.8449 61.966C31.5049 62.158 31.2369 62.424 31.0409 62.764C30.8449 63.1 30.7469 63.488 30.7469 63.928C30.7469 64.364 30.8449 64.752 31.0409 65.092C31.2369 65.432 31.5049 65.698 31.8449 65.89C32.1849 66.082 32.5709 66.178 33.0029 66.178ZM38.4058 67V60.856H39.5698V61.648C39.8298 61.32 40.1238 61.074 40.4518 60.91C40.7798 60.746 41.1438 60.664 41.5438 60.664C42.0398 60.664 42.4758 60.778 42.8518 61.006C43.2278 61.23 43.4898 61.536 43.6378 61.924C43.8938 61.532 44.2018 61.224 44.5618 61C44.9218 60.776 45.3438 60.664 45.8278 60.664C46.2678 60.664 46.6578 60.754 46.9978 60.934C47.3378 61.114 47.6058 61.374 47.8018 61.714C47.9978 62.054 48.0958 62.466 48.0958 62.95V67H46.9318V63.274C46.9318 62.762 46.7978 62.356 46.5298 62.056C46.2618 61.756 45.9058 61.606 45.4618 61.606C45.1538 61.606 44.8758 61.674 44.6278 61.81C44.3838 61.942 44.1898 62.116 44.0458 62.332C43.9058 62.544 43.8358 62.768 43.8358 63.004V67H42.6718V63.196C42.6718 62.712 42.5398 62.326 42.2758 62.038C42.0118 61.75 41.6598 61.606 41.2198 61.606C40.9118 61.606 40.6318 61.672 40.3798 61.804C40.1318 61.932 39.9338 62.1 39.7858 62.308C39.6418 62.516 39.5698 62.734 39.5698 62.962V67H38.4058ZM54.83 67L51.914 57.1H53.27L55.568 65.374L58.232 57.1H59.162L61.832 65.374L64.124 57.1H65.48L62.564 67H61.202L58.7 59.476L56.198 67H54.83ZM69.0762 67.192C68.5042 67.192 67.9862 67.052 67.5222 66.772C67.0622 66.488 66.6962 66.1 66.4242 65.608C66.1562 65.116 66.0222 64.554 66.0222 63.922C66.0222 63.298 66.1542 62.742 66.4182 62.254C66.6822 61.762 67.0442 61.374 67.5042 61.09C67.9642 60.806 68.4882 60.664 69.0762 60.664C69.5962 60.664 70.0702 60.78 70.4982 61.012C70.9302 61.244 71.2642 61.566 71.5002 61.978V60.856H72.6642V67H71.5002V65.848C71.2322 66.272 70.8882 66.602 70.4682 66.838C70.0482 67.074 69.5842 67.192 69.0762 67.192ZM69.3882 66.19C69.8082 66.19 70.1782 66.094 70.4982 65.902C70.8222 65.706 71.0762 65.438 71.2602 65.098C71.4442 64.758 71.5362 64.368 71.5362 63.928C71.5362 63.488 71.4442 63.098 71.2602 62.758C71.0762 62.418 70.8222 62.152 70.4982 61.96C70.1782 61.764 69.8082 61.666 69.3882 61.666C68.9722 61.666 68.6022 61.764 68.2782 61.96C67.9542 62.152 67.6982 62.418 67.5102 62.758C67.3262 63.098 67.2342 63.488 67.2342 63.928C67.2342 64.364 67.3262 64.754 67.5102 65.098C67.6982 65.438 67.9542 65.706 68.2782 65.902C68.6022 66.094 68.9722 66.19 69.3882 66.19ZM75.1206 67V56.68H76.2846V67H75.1206ZM78.7417 67V56.68H79.9057V67H78.7417ZM85.2608 67.192C84.6168 67.192 84.0388 67.05 83.5268 66.766C83.0148 66.482 82.6108 66.096 82.3148 65.608C82.0188 65.116 81.8708 64.562 81.8708 63.946C81.8708 63.49 81.9548 63.064 82.1228 62.668C82.2908 62.272 82.5248 61.924 82.8248 61.624C83.1248 61.32 83.4728 61.084 83.8688 60.916C84.2648 60.748 84.6888 60.664 85.1408 60.664C85.7808 60.664 86.3408 60.796 86.8208 61.06C87.3048 61.324 87.6808 61.692 87.9488 62.164C88.2208 62.636 88.3568 63.184 88.3568 63.808C88.3568 63.86 88.3548 63.902 88.3508 63.934C88.3468 63.966 88.3388 64.008 88.3268 64.06H83.0468C83.0468 64.488 83.1428 64.866 83.3348 65.194C83.5308 65.522 83.7988 65.78 84.1388 65.968C84.4828 66.152 84.8768 66.244 85.3208 66.244C85.7408 66.244 86.1168 66.158 86.4488 65.986C86.7808 65.814 87.0688 65.558 87.3128 65.218L88.1648 65.662C87.8728 66.146 87.4708 66.522 86.9588 66.79C86.4508 67.058 85.8848 67.192 85.2608 67.192ZM83.1068 63.202H87.1868C87.1308 62.886 87.0068 62.61 86.8148 62.374C86.6268 62.134 86.3888 61.948 86.1008 61.816C85.8168 61.68 85.5028 61.612 85.1588 61.612C84.7988 61.612 84.4728 61.678 84.1808 61.81C83.8928 61.938 83.6548 62.122 83.4668 62.362C83.2828 62.598 83.1628 62.878 83.1068 63.202ZM91.9418 67.192C91.4378 67.192 91.0458 67.026 90.7658 66.694C90.4858 66.358 90.3458 65.888 90.3458 65.284V61.738H89.6618V60.856H90.3458V58.558H91.5098V60.856H92.9858V61.738H91.5098V65.212C91.5098 65.516 91.5698 65.75 91.6898 65.914C91.8098 66.078 91.9818 66.16 92.2058 66.16C92.4298 66.16 92.6298 66.094 92.8058 65.962L93.0998 66.892C92.9438 66.984 92.7618 67.056 92.5538 67.108C92.3498 67.164 92.1458 67.192 91.9418 67.192Z" fill="white"/>
<circle cx="13.5" cy="13.5" r="13.5" fill="#64B857"/>
<path d="M8.16667 10.9583H14.875" stroke="white" stroke-miterlimit="10" stroke-linecap="round" stroke-linejoin="round"/>
<path opacity="0.4" d="M10.5 15.625H11.6667" stroke="white" stroke-miterlimit="10" stroke-linecap="round" stroke-linejoin="round"/>
<path opacity="0.4" d="M13.125 15.625H15.4583" stroke="white" stroke-miterlimit="10" stroke-linecap="round" stroke-linejoin="round"/>
<path d="M19.8333 13.0176V15.3976C19.8333 17.4451 19.3142 17.9584 17.2433 17.9584H10.7567C8.68584 17.9584 8.16667 17.4451 8.16667 15.3976V10.6026C8.16667 8.55508 8.68584 8.04175 10.7567 8.04175H14.875" stroke="white" stroke-linecap="round" stroke-linejoin="round"/>
<g opacity="0.4">
<path d="M16.625 9.646H19.8333" stroke="white" stroke-linecap="round"/>
<path d="M18.2292 11.2501V8.04175" stroke="white" stroke-linecap="round"/>
</g>
</svg>
