<svg width="72" height="15" viewBox="0 0 72 15" fill="none" xmlns="http://www.w3.org/2000/svg">
<path d="M20.3 12.18C19.108 12.18 18.092 11.776 17.252 10.968C16.42 10.16 16.004 9.088 16.004 7.752C16.004 6.424 16.428 5.352 17.276 4.536C18.124 3.72 19.128 3.312 20.288 3.312C21.312 3.312 22.152 3.572 22.808 4.092C23.472 4.612 23.908 5.272 24.116 6.072L22.76 6.528C22.624 5.976 22.348 5.528 21.932 5.184C21.516 4.84 20.968 4.668 20.288 4.668C19.528 4.668 18.868 4.94 18.308 5.484C17.756 6.02 17.48 6.776 17.48 7.752C17.48 8.704 17.756 9.452 18.308 9.996C18.86 10.532 19.524 10.8 20.3 10.8C20.964 10.8 21.512 10.62 21.944 10.26C22.376 9.9 22.672 9.456 22.832 8.928L24.152 9.36C23.944 10.152 23.504 10.82 22.832 11.364C22.168 11.908 21.324 12.18 20.3 12.18ZM26.7686 8.568V12H25.3766V3.312H26.7686V6.72C27.1446 6.232 27.7006 5.988 28.4366 5.988C29.1246 5.988 29.6526 6.204 30.0206 6.636C30.3886 7.068 30.5726 7.624 30.5726 8.304V12H29.1806V8.544C29.1806 8.152 29.0846 7.84 28.8926 7.608C28.7006 7.368 28.3966 7.248 27.9806 7.248C27.6126 7.248 27.3206 7.372 27.1046 7.62C26.8966 7.868 26.7846 8.184 26.7686 8.568ZM31.9072 10.416C31.9072 9.92 32.0672 9.524 32.3872 9.228C32.7152 8.924 33.1432 8.732 33.6712 8.652L35.1712 8.424C35.4592 8.384 35.6032 8.244 35.6032 8.004C35.6032 7.74 35.5112 7.528 35.3272 7.368C35.1432 7.2 34.8672 7.116 34.4992 7.116C34.1472 7.116 33.8672 7.216 33.6592 7.416C33.4512 7.608 33.3312 7.86 33.2992 8.172L32.0272 7.884C32.0832 7.356 32.3352 6.908 32.7832 6.54C33.2312 6.164 33.7992 5.976 34.4872 5.976C35.3352 5.976 35.9592 6.18 36.3592 6.588C36.7672 6.996 36.9712 7.52 36.9712 8.16V11.064C36.9712 11.448 36.9952 11.76 37.0432 12H35.7472C35.7072 11.88 35.6872 11.632 35.6872 11.256C35.3032 11.872 34.7032 12.18 33.8872 12.18C33.2952 12.18 32.8152 12.008 32.4472 11.664C32.0872 11.312 31.9072 10.896 31.9072 10.416ZM34.1512 11.088C34.5832 11.088 34.9312 10.972 35.1952 10.74C35.4672 10.5 35.6032 10.112 35.6032 9.576V9.312L34.0792 9.54C33.5592 9.628 33.2992 9.892 33.2992 10.332C33.2992 10.54 33.3752 10.72 33.5272 10.872C33.6792 11.016 33.8872 11.088 34.1512 11.088ZM40.3945 4.368V6.156H41.6065V7.392H40.3945V10.104C40.3945 10.36 40.4545 10.548 40.5745 10.668C40.6945 10.78 40.8825 10.836 41.1385 10.836C41.2985 10.836 41.4585 10.82 41.6185 10.788V11.94C41.4105 12.028 41.1265 12.072 40.7665 12.072C40.2225 12.072 39.7945 11.92 39.4825 11.616C39.1705 11.304 39.0145 10.876 39.0145 10.332V7.392H37.9345V6.156H38.2345C38.5305 6.156 38.7545 6.072 38.9065 5.904C39.0585 5.736 39.1345 5.516 39.1345 5.244V4.368H40.3945ZM53.2498 12H51.7498L47.5498 5.556V12H46.1098V3.492H47.9458L51.8098 9.528V3.492H53.2498V12ZM56.5462 10.44C56.8662 10.768 57.2542 10.932 57.7102 10.932C58.1662 10.932 58.5502 10.768 58.8622 10.44C59.1822 10.112 59.3422 9.656 59.3422 9.072C59.3422 8.496 59.1822 8.048 58.8622 7.728C58.5502 7.4 58.1662 7.236 57.7102 7.236C57.2542 7.236 56.8662 7.4 56.5462 7.728C56.2342 8.048 56.0782 8.496 56.0782 9.072C56.0782 9.648 56.2342 10.104 56.5462 10.44ZM57.7102 5.976C58.5902 5.976 59.3142 6.268 59.8822 6.852C60.4582 7.436 60.7462 8.176 60.7462 9.072C60.7462 9.968 60.4582 10.712 59.8822 11.304C59.3142 11.888 58.5902 12.18 57.7102 12.18C56.8382 12.18 56.1142 11.888 55.5382 11.304C54.9702 10.712 54.6862 9.968 54.6862 9.072C54.6862 8.176 54.9702 7.436 55.5382 6.852C56.1142 6.268 56.8382 5.976 57.7102 5.976ZM65.2628 6.156H66.7028L68.0828 10.2L69.2468 6.156H70.6628L68.7908 12H67.3988L65.9468 7.8L64.5308 12H63.1028L61.2068 6.156H62.6948L63.8828 10.2L65.2628 6.156Z" fill="#5AAC4E"/>
<path d="M4.25 11.5H4C2 11.5 1 11 1 8.5V6C1 4 2 3 4 3H8C10 3 11 4 11 6V8.5C11 10.5 10 11.5 8 11.5H7.75C7.595 11.5 7.445 11.575 7.35 11.7L6.6 12.7C6.27 13.14 5.73 13.14 5.4 12.7L4.65 11.7C4.57 11.59 4.385 11.5 4.25 11.5Z" stroke="#5AAC4E" stroke-width="1.3" stroke-miterlimit="10" stroke-linecap="round" stroke-linejoin="round"/>
<path d="M3.5 6H8.5" stroke="#5AAC4E" stroke-width="1.3" stroke-linecap="round" stroke-linejoin="round"/>
<path d="M3.5 8.5H6.5" stroke="#5AAC4E" stroke-width="1.3" stroke-linecap="round" stroke-linejoin="round"/>
</svg>
