<svg width="14" height="14" viewBox="0 0 14 14" fill="none" xmlns="http://www.w3.org/2000/svg">
<path d="M6.4165 1.16669H5.24984C2.33317 1.16669 1.1665 2.33335 1.1665 5.25002V8.75002C1.1665 11.6667 2.33317 12.8334 5.24984 12.8334H8.74984C11.6665 12.8334 12.8332 11.6667 12.8332 8.75002V7.58335" stroke="#5AAC4E" stroke-width="1.16667" stroke-linecap="round" stroke-linejoin="round"/>
<path d="M9.3566 1.76169L4.75993 6.35836C4.58493 6.53336 4.40993 6.87753 4.37493 7.12836L4.1241 8.88419C4.03076 9.52002 4.47993 9.96336 5.11576 9.87586L6.8716 9.62503C7.1166 9.59003 7.46076 9.41503 7.6416 9.24003L12.2383 4.64336C13.0316 3.85003 13.4049 2.92836 12.2383 1.76169C11.0716 0.595025 10.1499 0.968359 9.3566 1.76169Z" stroke="#5AAC4E" stroke-width="1.16667" stroke-miterlimit="10" stroke-linecap="round" stroke-linejoin="round"/>
<path d="M8.69775 2.42084C9.08859 3.815 10.1794 4.90584 11.5794 5.3025" stroke="#5AAC4E" stroke-width="1.16667" stroke-miterlimit="10" stroke-linecap="round" stroke-linejoin="round"/>
</svg>
