<svg width="65" height="27" viewBox="0 0 65 27" fill="none" xmlns="http://www.w3.org/2000/svg">
<path d="M36.536 18V8.1H41.678V9.174H37.754V12.504H41.534V13.572H37.754V16.926H41.678V18H36.536ZM46.5927 18.192C45.6047 18.192 44.8967 17.98 44.4687 17.556C44.0407 17.128 43.8267 16.418 43.8267 15.426V11.856H44.9907V15.186C44.9907 15.922 45.1127 16.446 45.3567 16.758C45.6007 17.07 46.0127 17.226 46.5927 17.226C47.1767 17.226 47.5907 17.07 47.8347 16.758C48.0787 16.446 48.2007 15.922 48.2007 15.186V11.856H49.3647V15.426C49.3647 16.418 49.1507 17.128 48.7227 17.556C48.2947 17.98 47.5847 18.192 46.5927 18.192ZM51.6988 18V11.856H52.8628V12.756C53.0668 12.4 53.3268 12.13 53.6428 11.946C53.9588 11.758 54.3168 11.664 54.7168 11.664C54.9088 11.664 55.1028 11.688 55.2988 11.736C55.4988 11.78 55.6708 11.84 55.8148 11.916L55.3348 12.9C55.2108 12.832 55.0668 12.778 54.9028 12.738C54.7388 12.698 54.5848 12.678 54.4408 12.678C54.1728 12.678 53.9168 12.748 53.6728 12.888C53.4328 13.024 53.2368 13.202 53.0848 13.422C52.9368 13.642 52.8628 13.878 52.8628 14.13V18H51.6988ZM60.1531 18.192C59.5011 18.192 58.9131 18.054 58.3891 17.778C57.8691 17.502 57.4551 17.118 57.1471 16.626C56.8431 16.134 56.6911 15.568 56.6911 14.928C56.6911 14.284 56.8431 13.718 57.1471 13.23C57.4551 12.738 57.8691 12.354 58.3891 12.078C58.9131 11.802 59.5011 11.664 60.1531 11.664C60.8051 11.664 61.3911 11.802 61.9111 12.078C62.4351 12.354 62.8491 12.738 63.1531 13.23C63.4611 13.718 63.6151 14.284 63.6151 14.928C63.6151 15.568 63.4611 16.134 63.1531 16.626C62.8491 17.118 62.4351 17.502 61.9111 17.778C61.3911 18.054 60.8051 18.192 60.1531 18.192ZM60.1591 17.178C60.5871 17.178 60.9711 17.082 61.3111 16.89C61.6511 16.698 61.9191 16.432 62.1151 16.092C62.3111 15.752 62.4091 15.364 62.4091 14.928C62.4091 14.488 62.3111 14.1 62.1151 13.764C61.9191 13.424 61.6511 13.158 61.3111 12.966C60.9711 12.774 60.5871 12.678 60.1591 12.678C59.7271 12.678 59.3411 12.774 59.0011 12.966C58.6611 13.158 58.3931 13.424 58.1971 13.764C58.0011 14.1 57.9031 14.488 57.9031 14.928C57.9031 15.364 58.0011 15.752 58.1971 16.092C58.3931 16.432 58.6611 16.698 59.0011 16.89C59.3411 17.082 59.7271 17.178 60.1591 17.178Z" fill="#494C54"/>
<circle cx="13.5" cy="13.5" r="13.5" fill="#FF6F40"/>
<path d="M14.4715 18.186C13.6795 18.186 12.9395 18.03 12.2515 17.718C11.5675 17.402 10.9775 16.964 10.4815 16.404C9.9895 15.84 9.6395 15.188 9.4315 14.448H8.3755V13.704H9.2695C9.2535 13.6 9.2395 13.492 9.2275 13.38C9.2195 13.268 9.2155 13.158 9.2155 13.05C9.2155 12.946 9.2195 12.84 9.2275 12.732C9.2395 12.624 9.2535 12.52 9.2695 12.42H8.3755V11.676H9.4315C9.5875 11.124 9.8275 10.62 10.1515 10.164C10.4795 9.704 10.8675 9.308 11.3155 8.976C11.7635 8.64 12.2555 8.38 12.7915 8.196C13.3315 8.012 13.8915 7.92 14.4715 7.92C15.0675 7.92 15.6435 8.008 16.1995 8.184C16.7595 8.356 17.2515 8.602 17.6755 8.922L17.1175 9.954C16.7735 9.686 16.3855 9.48 15.9535 9.336C15.5255 9.192 15.0835 9.12 14.6275 9.12C14.0515 9.12 13.5135 9.228 13.0135 9.444C12.5135 9.656 12.0795 9.954 11.7115 10.338C11.3435 10.718 11.0655 11.164 10.8775 11.676H15.8515V12.42H10.6075C10.5875 12.532 10.5715 12.642 10.5595 12.75C10.5475 12.854 10.5415 12.954 10.5415 13.05C10.5415 13.15 10.5475 13.254 10.5595 13.362C10.5715 13.47 10.5875 13.584 10.6075 13.704H15.8515V14.448H10.8715C11.0515 14.964 11.3235 15.412 11.6875 15.792C12.0515 16.172 12.4835 16.466 12.9835 16.674C13.4875 16.882 14.0355 16.986 14.6275 16.986C15.0875 16.986 15.5335 16.914 15.9655 16.77C16.3975 16.626 16.7835 16.424 17.1235 16.164L17.6815 17.19C17.2655 17.506 16.7775 17.752 16.2175 17.928C15.6615 18.1 15.0795 18.186 14.4715 18.186Z" fill="white"/>
</svg>
