<svg width="71" height="71" viewBox="0 0 71 71" fill="none" xmlns="http://www.w3.org/2000/svg">
<circle cx="35.5" cy="35.5" r="17.25" fill="white" stroke="#E5EAE5"/>
<path d="M42.5 38.6875H38.125" stroke="#3C444B" stroke-width="1.2" stroke-miterlimit="10" stroke-linecap="round" stroke-linejoin="round"/>
<path d="M31.875 38.6875H30" stroke="#3C444B" stroke-width="1.2" stroke-miterlimit="10" stroke-linecap="round" stroke-linejoin="round"/>
<path d="M42.5 31.8125H40.625" stroke="#3C444B" stroke-width="1.2" stroke-miterlimit="10" stroke-linecap="round" stroke-linejoin="round"/>
<path d="M34.375 31.8125H30" stroke="#3C444B" stroke-width="1.2" stroke-miterlimit="10" stroke-linecap="round" stroke-linejoin="round"/>
<path d="M33.125 36.8125H36.875C37.5625 36.8125 38.125 37.125 38.125 38.0625V39.3125C38.125 40.25 37.5625 40.5625 36.875 40.5625H33.125C32.4375 40.5625 31.875 40.25 31.875 39.3125V38.0625C31.875 37.125 32.4375 36.8125 33.125 36.8125Z" stroke="#3C444B" stroke-width="1.2" stroke-miterlimit="10" stroke-linecap="round" stroke-linejoin="round"/>
<path d="M35.625 29.9375H39.375C40.0625 29.9375 40.625 30.25 40.625 31.1875V32.4375C40.625 33.375 40.0625 33.6875 39.375 33.6875H35.625C34.9375 33.6875 34.375 33.375 34.375 32.4375V31.1875C34.375 30.25 34.9375 29.9375 35.625 29.9375Z" stroke="#3C444B" stroke-width="1.2" stroke-miterlimit="10" stroke-linecap="round" stroke-linejoin="round"/>
</svg>
