<svg width="335" height="136" viewBox="0 0 335 136" fill="none" xmlns="http://www.w3.org/2000/svg">
<rect width="335" height="136" rx="17" fill="#5AAC4E"/>
<mask id="mask0_712_2018" style="mask-type:alpha" maskUnits="userSpaceOnUse" x="173" y="14" width="162" height="122">
<rect x="173" y="14" width="162" height="122" rx="17" fill="white"/>
</mask>
<g mask="url(#mask0_712_2018)">
<g style="mix-blend-mode:hard-light">
<path d="M205.506 132.472L196.052 42.2838C195.906 40.9472 196.884 39.8633 198.22 39.8633H250.698C252.035 39.8633 253.233 40.9472 253.38 42.2838L262.834 132.472C262.98 133.808 262.002 134.9 260.666 134.9H208.188C206.851 134.9 205.653 133.808 205.506 132.472Z" fill="#6880E4"/>
<path d="M201.374 46.3181H248.897L257.137 124.876H209.622L201.374 46.3181Z" fill="#D4DFFF"/>
<path opacity="0.2" d="M208.481 44.8918C214.338 83.3707 231.247 105.503 259.207 111.29L262.124 127.785H205.017L196.33 44.9163L208.481 44.8918Z" fill="#6880E4"/>
<path d="M227.014 131.005L226.819 129.171C226.737 128.405 227.291 127.786 228.066 127.786H239.296C240.071 127.786 240.755 128.405 240.837 129.171L241.024 131.005C241.106 131.771 240.551 132.398 239.785 132.398H228.546C227.78 132.398 227.088 131.771 227.014 131.005Z" fill="#1B3D9E"/>
<path d="M230.013 73.5146C229.973 72.6507 230.584 71.9172 231.35 71.8928C237.813 71.7216 264.398 71.143 264.749 72.993C265.148 75.1039 266.762 103.409 265.662 103.898C264.561 104.387 232.458 104.183 231.855 103.466C231.342 102.846 230.291 79.8146 230.013 73.5146Z" fill="#FE8E9C"/>
<path d="M232.206 103.433C231.154 104.485 201.431 104.754 200.095 104.419C198.75 104.085 194.292 72.9197 196.786 70.5643C199.288 68.2171 226.827 71.1674 228.294 71.526C229.272 71.7705 229.826 72.1726 229.956 72.7322C232.157 92.4933 232.907 102.727 232.206 103.433Z" fill="#FE8E9C"/>
<path d="M230.119 77.3778C228.783 77.606 198.775 74.8594 199.166 74.4927C199.565 74.1259 228.742 75.9026 230.136 76.0738C231.065 76.1879 241.701 76.0873 262.043 75.7722C263.983 76.9784 231.456 77.1577 230.119 77.3778Z" fill="#FC476A"/>
<path d="M200.07 76.4894C220.038 77.7336 230.087 78.4997 230.217 78.7877C230.421 79.2196 232.377 100.222 231.619 100.833C230.861 101.445 203.086 101.746 202.67 101.42C202.255 101.086 198.978 78.5106 200.07 76.4894Z" fill="#FC476A"/>
<path d="M198.163 70.0264C197.495 72.1346 197.28 75.1365 197.519 79.0322C197.764 82.9224 199.065 91.412 201.423 104.501L200.095 104.419C199.035 101.991 198.169 97.8777 197.495 92.0803C196.484 83.3843 195.164 73.5309 196.786 70.5643C197.074 70.222 197.533 70.0427 198.163 70.0264Z" fill="#FC476A"/>
<path d="M265.531 79.888C265.849 81.1594 265.89 92.2434 266.175 96.0576C266.452 99.8636 266.028 103.507 265.93 103.849C265.871 104.077 265.414 104.134 264.561 104.02C264.751 104.009 264.955 103.284 265.173 101.844C265.499 99.6762 264.847 79.9776 264.569 76.3835C264.385 73.9874 264.121 72.6861 263.779 72.4796C265.865 72.3411 265.213 78.6247 265.531 79.888Z" fill="#FC476A"/>
<path d="M232.035 78.641C252.708 78.152 263.083 78.0759 263.159 78.4128C263.265 78.9262 263.624 82.936 263.437 83.5228C263.249 84.1096 232.573 84.5823 232.263 84.0526C231.953 83.5228 231.35 79.2115 232.035 78.641Z" fill="#FC476A"/>
<path d="M228.864 79.8309L228.848 79.6923C228.815 79.6923 228.772 79.6896 228.718 79.6842L228.726 79.5212C228.829 79.5266 228.9 79.532 228.938 79.5375L229.003 79.5456L229.027 79.8146L228.864 79.8309Z" fill="#FE8E9C"/>
<path d="M209.296 100.654H209.117V100.491H209.524V100.654H209.296ZM209.94 100.654V100.491H210.348V100.654H209.94ZM208.718 100.654H208.31V100.491H208.718V100.654ZM210.755 100.654V100.491H211.163V100.654H210.755ZM207.903 100.654L207.495 100.646V100.483L207.903 100.491V100.654ZM211.57 100.646V100.483H211.978V100.646H211.57ZM207.088 100.646H206.68V100.483H207.088V100.646ZM212.385 100.646V100.483L212.793 100.475V100.638L212.385 100.646ZM206.273 100.646C206.131 100.646 205.995 100.643 205.865 100.638V100.475C206.001 100.48 206.137 100.483 206.273 100.483V100.646ZM213.2 100.646V100.483L213.608 100.475V100.638L213.2 100.646ZM214.015 100.638V100.475H214.423V100.638H214.015ZM205.458 100.638C205.316 100.638 205.18 100.635 205.05 100.63L205.058 100.467C205.183 100.472 205.319 100.475 205.466 100.475L205.458 100.638ZM214.822 100.63V100.467H215.229V100.63H214.822ZM204.643 100.622C204.49 100.616 204.355 100.611 204.235 100.605V100.442C204.36 100.448 204.496 100.453 204.643 100.459V100.622ZM215.637 100.622V100.459L216.036 100.45L216.044 100.532V100.613L215.637 100.622ZM216.444 100.613V100.45L216.851 100.442L216.859 100.605L216.444 100.613ZM217.259 100.605V100.442L217.666 100.434V100.597L217.259 100.605ZM203.811 100.605C203.518 100.589 203.469 100.573 203.444 100.564C203.404 100.54 203.379 100.507 203.371 100.475L203.518 100.41C203.518 100.41 203.518 100.412 203.518 100.418C203.55 100.418 203.624 100.426 203.819 100.442L203.811 100.605ZM218.074 100.597V100.434L218.473 100.426L218.481 100.589L218.074 100.597ZM218.881 100.589V100.426L219.288 100.418V100.581L218.881 100.589ZM219.696 100.573V100.41L220.103 100.401V100.564L219.696 100.573ZM220.511 100.556V100.393L220.918 100.385V100.548L220.511 100.556ZM221.326 100.54V100.377L221.733 100.369V100.532L221.326 100.54ZM222.141 100.524V100.361L222.548 100.353V100.516L222.141 100.524ZM222.956 100.499L222.947 100.336L223.355 100.328L223.363 100.491L222.956 100.499ZM223.771 100.475L223.762 100.312L224.17 100.304L224.178 100.467L223.771 100.475ZM224.586 100.442L224.577 100.279L224.985 100.271L224.993 100.434L224.586 100.442ZM225.401 100.41L225.392 100.247C225.528 100.241 225.664 100.236 225.8 100.23L225.808 100.393C225.672 100.399 225.536 100.404 225.401 100.41ZM226.216 100.377L226.207 100.214C226.343 100.209 226.479 100.203 226.615 100.198L226.623 100.361C226.487 100.366 226.351 100.372 226.216 100.377ZM227.031 100.344L227.022 100.181C227.158 100.176 227.294 100.168 227.43 100.157L227.438 100.32C227.302 100.331 227.166 100.339 227.031 100.344ZM227.846 100.304L227.837 100.141C227.973 100.13 228.106 100.122 228.237 100.116L228.253 100.279C228.123 100.285 227.987 100.293 227.846 100.304ZM228.661 100.247L228.644 100.084C228.786 100.073 228.921 100.062 229.052 100.051L229.068 100.214C228.938 100.225 228.802 100.236 228.661 100.247ZM229.476 100.181L229.459 100.018C229.606 100.002 229.739 99.9858 229.859 99.9695L229.883 100.133C229.764 100.149 229.628 100.165 229.476 100.181ZM230.291 100.059L230.25 99.8962C230.364 99.8717 230.405 99.8473 230.413 99.8391C230.421 99.831 230.421 99.7984 230.429 99.725L230.592 99.7332C230.584 99.8228 230.576 99.8717 230.568 99.9125C230.535 99.9777 230.462 100.018 230.291 100.059ZM203.257 100.051C203.23 99.9369 203.203 99.8011 203.176 99.6435L203.339 99.6191C203.366 99.7712 203.39 99.9043 203.412 100.018L203.257 100.051ZM230.437 99.3175C230.437 99.198 230.435 99.0622 230.429 98.91H230.592C230.598 99.0622 230.6 99.198 230.6 99.3175H230.437ZM203.118 99.236C203.097 99.1111 203.075 98.9752 203.053 98.8285L203.216 98.8122C203.238 98.9535 203.26 99.0866 203.281 99.2116L203.118 99.236ZM230.413 98.5025C230.402 98.3776 230.394 98.2417 230.388 98.095L230.551 98.0869C230.557 98.2282 230.565 98.364 230.576 98.4944L230.413 98.5025ZM202.996 98.4292C202.974 98.2988 202.955 98.163 202.939 98.0217L203.102 97.9972C203.118 98.1385 203.137 98.2743 203.159 98.4047L202.996 98.4292ZM230.364 97.6957C230.353 97.5599 230.345 97.424 230.339 97.2882L230.502 97.2719C230.508 97.4132 230.516 97.549 230.527 97.6794L230.364 97.6957ZM202.882 97.6223C202.866 97.4919 202.85 97.3588 202.833 97.223L202.988 97.1985C203.01 97.3398 203.029 97.4756 203.045 97.606L202.882 97.6223ZM230.307 96.8807C230.301 96.7503 230.293 96.6145 230.282 96.4732L230.445 96.465C230.456 96.6009 230.464 96.7367 230.47 96.8725L230.307 96.8807ZM202.776 96.8073C202.76 96.6769 202.744 96.5438 202.727 96.408L202.89 96.3835C202.907 96.5194 202.923 96.6552 202.939 96.791L202.776 96.8073ZM230.25 96.0575L230.225 95.65L230.388 95.6419L230.413 96.0494L230.25 96.0575ZM202.678 95.9923L202.629 95.5848L202.784 95.5685L202.833 95.976L202.678 95.9923ZM230.201 95.2425L230.168 94.835L230.331 94.8187L230.364 95.2262L230.201 95.2425ZM202.589 95.1855L202.54 94.778L202.703 94.7617L202.744 95.161L202.589 95.1855ZM230.144 94.4357L230.111 94.0282L230.274 94.02L230.307 94.4275L230.144 94.4357ZM202.499 94.3705L202.45 93.9711L202.613 93.9548L202.662 94.3542L202.499 94.3705ZM230.079 93.6207L230.046 93.2132L230.209 93.1969L230.242 93.6044L230.079 93.6207ZM202.409 93.5636L202.361 93.1561L202.524 93.1398L202.564 93.5473L202.409 93.5636ZM230.022 92.8057L229.989 92.3982L230.152 92.39L230.185 92.7975L230.022 92.8057ZM202.32 92.7486L202.279 92.3411L202.442 92.3248L202.483 92.7323L202.32 92.7486ZM229.948 91.9907L229.916 91.5832L230.079 91.5669L230.111 91.9744L229.948 91.9907ZM202.238 91.9418L202.189 91.5343L202.352 91.518L202.393 91.9255L202.238 91.9418ZM229.891 91.1838L229.859 90.7763L230.022 90.76L230.054 91.1675L229.891 91.1838ZM202.157 91.1268L202.116 90.7274L202.279 90.7111L202.32 91.1105L202.157 91.1268ZM229.818 90.3688L229.785 89.9613L229.948 89.9532L229.981 90.3525L229.818 90.3688ZM202.075 90.3199L202.035 89.9206L202.189 89.9043L202.23 90.3036L202.075 90.3199ZM229.761 89.562L229.72 89.1545L229.883 89.1382L229.916 89.5457L229.761 89.562ZM202.002 89.5131L201.961 89.1056L202.124 89.0893L202.165 89.4968L202.002 89.5131ZM229.696 88.747L229.655 88.3476L229.818 88.3313L229.859 88.7388L229.696 88.747ZM201.92 88.6981L201.888 88.2906L202.043 88.2743L202.083 88.6818L201.92 88.6981ZM229.622 87.932L229.582 87.5245L229.745 87.5163L229.785 87.9238L229.622 87.932ZM201.847 87.8749L201.806 87.4756L201.969 87.4593L202.01 87.8668L201.847 87.8749ZM229.549 87.1088L229.508 86.7013L229.671 86.685L229.712 87.0925L229.549 87.1088ZM201.766 87.0599L201.725 86.6524L201.888 86.6443L201.929 87.0436L201.766 87.0599ZM229.476 86.302L229.435 85.8945L229.598 85.8782L229.639 86.2857L229.476 86.302ZM201.692 86.2531L201.651 85.8456L201.814 85.8293L201.855 86.2368L201.692 86.2531ZM229.402 85.4951L229.361 85.0876L229.524 85.0713L229.565 85.4788L229.402 85.4951ZM201.619 85.4462L201.578 85.0387L201.741 85.0224L201.782 85.4299L201.619 85.4462ZM229.329 84.6883L229.288 84.2808L229.451 84.2645L229.492 84.672L229.329 84.6883ZM201.546 84.6394L201.513 84.2319L201.676 84.2156L201.709 84.6231L201.546 84.6394ZM229.247 83.8733L229.215 83.4739L229.378 83.4576L229.41 83.8651L229.247 83.8733ZM201.48 83.8162C201.469 83.6804 201.459 83.5446 201.448 83.4087L201.611 83.4006C201.622 83.5364 201.632 83.6723 201.643 83.8081L201.48 83.8162ZM229.174 83.0501L229.141 82.6508L229.304 82.6345L229.337 83.042L229.174 83.0501ZM201.415 82.9931C201.404 82.8573 201.393 82.7214 201.383 82.5856L201.546 82.5774C201.556 82.7078 201.567 82.8437 201.578 82.9849L201.415 82.9931ZM229.101 82.227L229.06 81.8276L229.223 81.8113L229.264 82.2188L229.101 82.227ZM201.35 82.1699C201.339 82.0341 201.331 81.8983 201.325 81.7624L201.48 81.7543C201.491 81.8847 201.502 82.0205 201.513 82.1618L201.35 82.1699ZM229.027 81.412L228.987 81.0045L229.15 80.9882L229.182 81.3957L229.027 81.412ZM201.301 81.3549C201.29 81.2137 201.282 81.0778 201.277 80.9474L201.44 80.9393C201.445 81.0697 201.453 81.2055 201.464 81.3468L201.301 81.3549ZM228.954 80.597L228.913 80.1895L229.076 80.1732L229.117 80.5807L228.954 80.597ZM201.252 80.5399C201.241 80.3987 201.233 80.2628 201.228 80.1324L201.391 80.1243C201.396 80.2547 201.404 80.3905 201.415 80.5318L201.252 80.5399ZM201.211 79.7168C201.206 79.5755 201.201 79.4397 201.195 79.3093H201.358C201.364 79.4343 201.369 79.5701 201.374 79.7168H201.211ZM228.441 79.6027L228.033 79.5782L228.049 79.4152L228.457 79.4397L228.441 79.6027ZM227.626 79.5456L227.218 79.513L227.234 79.35L227.642 79.3826L227.626 79.5456ZM226.811 79.4886L226.403 79.456L226.411 79.293L226.819 79.3256L226.811 79.4886ZM225.996 79.4234L225.588 79.3989L225.604 79.2359L226.012 79.2604L225.996 79.4234ZM225.181 79.3663L224.773 79.3419L224.789 79.1789L225.189 79.2033L225.181 79.3663ZM224.374 79.3093L223.966 79.2767L223.974 79.1137L224.382 79.1463L224.374 79.3093ZM223.559 79.2522L223.151 79.2196L223.167 79.0566L223.575 79.0892L223.559 79.2522ZM222.744 79.1952L222.336 79.1626L222.352 78.9996L222.752 79.0322L222.744 79.1952ZM221.937 79.1381L221.529 79.1137L221.537 78.9507L221.945 78.9751L221.937 79.1381ZM221.122 79.0811L220.722 79.0566L220.731 78.8936L221.138 78.9181L221.122 79.0811ZM220.307 79.024L219.899 78.9996L219.916 78.8366L220.315 78.861L220.307 79.024ZM219.5 78.967L219.092 78.9425L219.101 78.7795L219.508 78.804L219.5 78.967ZM218.685 78.9181L218.277 78.8855L218.294 78.7225L218.701 78.7551L218.685 78.9181ZM201.179 78.9018C201.179 78.842 201.179 78.7823 201.179 78.7225C201.179 78.641 201.181 78.5649 201.187 78.4943H201.35C201.344 78.5649 201.342 78.641 201.342 78.7225C201.342 78.7768 201.342 78.8366 201.342 78.9018H201.179ZM217.87 78.861L217.462 78.8284L217.471 78.6654L217.878 78.698L217.87 78.861ZM217.063 78.804L216.656 78.7795L216.664 78.6165L217.071 78.641L217.063 78.804ZM216.248 78.7469L215.841 78.7225L215.857 78.5595L216.256 78.5839L216.248 78.7469ZM215.441 78.698L215.034 78.6736L215.042 78.5106L215.449 78.535L215.441 78.698ZM214.626 78.641L214.219 78.6165L214.227 78.4535L214.634 78.478L214.626 78.641ZM213.819 78.5921L213.412 78.5676L213.42 78.4046L213.828 78.4291L213.819 78.5921ZM213.004 78.5432L212.597 78.5106L212.613 78.3476L213.021 78.3802L213.004 78.5432ZM212.189 78.4861L211.782 78.4617L211.79 78.2987L212.198 78.3231L212.189 78.4861ZM211.374 78.4372L210.967 78.4128L210.983 78.2498L211.391 78.2742L211.374 78.4372ZM210.559 78.3883L210.152 78.3639L210.16 78.2009L210.568 78.2253L210.559 78.3883ZM209.744 78.3394L209.337 78.315L209.345 78.152L209.753 78.1764L209.744 78.3394ZM208.938 78.2905L208.53 78.2661L208.538 78.1031L208.946 78.1275L208.938 78.2905ZM208.123 78.2498L207.715 78.2253L207.723 78.0623L208.131 78.0868L208.123 78.2498ZM207.308 78.2009L206.9 78.1764L206.908 78.0134L207.316 78.0379L207.308 78.2009ZM206.501 78.1601L206.093 78.1357L206.101 77.9727L206.509 77.9971L206.501 78.1601ZM205.686 78.1194L205.278 78.0949L205.286 77.9319L205.694 77.9564L205.686 78.1194ZM201.383 78.1031L201.228 78.0786C201.244 77.9727 201.268 77.9156 201.309 77.8912C201.334 77.8667 201.383 77.8504 201.611 77.8341L201.619 77.9971C201.48 78.0053 201.423 78.0134 201.407 78.0216C201.399 78.0297 201.391 78.0542 201.383 78.1031ZM204.871 78.0786C204.729 78.0732 204.594 78.0678 204.463 78.0623L204.471 77.8993C204.602 77.9048 204.738 77.9102 204.879 77.9156L204.871 78.0786ZM204.056 78.046C203.914 78.0352 203.779 78.0297 203.648 78.0297L203.656 77.8667C203.787 77.8667 203.923 77.8722 204.064 77.883L204.056 78.046ZM203.241 78.0134C203.094 78.008 202.958 78.0026 202.833 77.9971V77.8341C202.964 77.8396 203.099 77.845 203.241 77.8504V78.0134ZM202.426 77.989C202.295 77.989 202.179 77.989 202.075 77.989H202.018V77.826H202.075C202.184 77.826 202.303 77.826 202.434 77.826L202.426 77.989Z" fill="#FE8E9C"/>
<path d="M262.956 84.8594C263.771 85.9841 263.95 100.915 263.738 101.445C263.518 101.966 234.667 101.355 233.934 101.437C233.257 101.51 232.613 87.8423 232.515 85.5766C232.507 85.3892 232.638 85.2343 232.825 85.2262C235.314 85.0578 245.357 84.9355 262.956 84.8594Z" fill="#FC476A"/>
<path d="M231.35 71.8928C230.448 72.1862 230.234 74.8105 230.706 79.7657L229.956 72.7323C230.25 72.1618 230.714 71.882 231.35 71.8928Z" fill="#FC476A"/>
<path d="M231.961 103.547C232.255 103.156 232.404 102.659 232.41 102.056C232.41 101.458 232.377 100.312 232.312 98.6166C232.784 101.523 232.831 103.189 232.45 103.613L231.961 103.547Z" fill="#FC476A"/>
<path d="M257.609 100.948H257.202V100.785H257.609V100.948ZM258.017 100.948V100.785L258.424 100.776V100.939L258.017 100.948ZM256.794 100.948H256.387V100.785H256.794V100.948ZM258.832 100.948V100.785H259.239V100.948H258.832ZM255.979 100.948H255.572V100.785H255.979V100.948ZM255.164 100.948H254.757V100.785H255.164V100.948ZM259.647 100.948V100.785C259.788 100.779 259.924 100.776 260.054 100.776V100.939C259.924 100.939 259.788 100.942 259.647 100.948ZM254.349 100.939H253.942V100.776H254.349V100.939ZM253.534 100.939H253.127V100.776H253.534V100.939ZM260.462 100.939V100.776C260.603 100.776 260.739 100.774 260.869 100.768V100.931C260.739 100.937 260.603 100.939 260.462 100.939ZM252.719 100.931H252.312V100.768H252.719V100.931ZM251.904 100.931L251.497 100.923V100.76L251.904 100.768V100.931ZM261.285 100.931L261.277 100.768C261.424 100.763 261.559 100.76 261.684 100.76L261.693 100.923C261.562 100.923 261.426 100.926 261.285 100.931ZM251.089 100.923H250.682V100.76H251.089V100.923ZM250.274 100.915H249.867V100.752H250.274V100.915ZM249.459 100.915L249.052 100.907V100.744L249.459 100.752V100.915ZM262.1 100.907V100.744C262.252 100.744 262.388 100.741 262.508 100.736L262.516 100.891C262.396 100.901 262.258 100.907 262.1 100.907ZM248.644 100.907L248.237 100.899V100.736L248.644 100.744V100.907ZM247.829 100.899L247.422 100.891V100.728L247.829 100.736V100.899ZM247.014 100.891L246.607 100.882V100.719L247.014 100.728V100.891ZM246.199 100.882L245.792 100.874V100.711L246.208 100.719L246.199 100.882ZM245.376 100.874L244.969 100.866L244.977 100.703L245.384 100.711L245.376 100.874ZM244.561 100.866L244.154 100.858V100.695L244.561 100.703V100.866ZM262.923 100.858L262.891 100.703C262.891 100.708 262.891 100.711 262.891 100.711C262.891 100.711 262.891 100.708 262.891 100.703V100.695C262.891 100.695 262.893 100.695 262.899 100.695C262.907 100.67 262.923 100.597 262.939 100.41L263.102 100.418C263.07 100.752 263.037 100.801 262.997 100.833C262.98 100.842 262.956 100.85 262.923 100.858ZM243.746 100.858L243.339 100.85V100.687L243.746 100.695V100.858ZM242.931 100.85L242.524 100.842V100.679L242.931 100.687V100.85ZM242.116 100.833H241.709V100.67H242.116V100.833ZM241.301 100.825H240.894V100.662H241.301V100.825ZM240.486 100.817L240.079 100.809L240.087 100.646L240.494 100.654L240.486 100.817ZM239.663 100.809L239.256 100.801L239.264 100.638L239.671 100.646L239.663 100.809ZM238.848 100.793L238.441 100.785V100.622L238.848 100.63V100.793ZM238.033 100.785L237.626 100.776V100.613L238.033 100.622V100.785ZM237.218 100.768L236.811 100.76V100.597L237.218 100.605V100.768ZM236.403 100.752L235.996 100.744V100.581L236.403 100.589V100.752ZM235.588 100.736C235.425 100.736 235.289 100.733 235.181 100.728V100.565C235.289 100.57 235.428 100.573 235.596 100.573L235.588 100.736ZM234.749 100.573C234.716 100.483 234.683 100.353 234.651 100.157L234.814 100.133C234.846 100.312 234.876 100.44 234.903 100.516L234.749 100.573ZM263.119 100.01L262.956 100.002C262.961 99.8826 262.964 99.7495 262.964 99.6028H263.127C263.127 99.7495 263.124 99.8853 263.119 100.01ZM234.594 99.7495C234.577 99.6246 234.561 99.4887 234.545 99.342L234.708 99.3257C234.724 99.4724 234.74 99.6083 234.757 99.7332L234.594 99.7495ZM263.135 99.1872H262.972V99.0568C262.972 98.9698 262.972 98.8775 262.972 98.7797H263.135C263.135 98.8775 263.135 98.9698 263.135 99.0568V99.1872ZM234.504 98.9345C234.488 98.8041 234.474 98.6683 234.463 98.527L234.626 98.5107C234.637 98.652 234.648 98.7878 234.659 98.9182L234.504 98.9345ZM262.972 98.3722C262.972 98.2418 262.969 98.1059 262.964 97.9647H263.127C263.132 98.1059 263.135 98.2418 263.135 98.3722H262.972ZM234.431 98.1114C234.42 97.981 234.409 97.8451 234.398 97.7039L234.561 97.6957C234.572 97.8316 234.583 97.9674 234.594 98.1032L234.431 98.1114ZM262.956 97.549C262.956 97.4186 262.953 97.2828 262.948 97.1415H263.111C263.116 97.2774 263.119 97.4132 263.119 97.549H262.956ZM234.366 97.2882C234.355 97.1578 234.344 97.022 234.333 96.8807L234.496 96.8726C234.507 97.0084 234.518 97.1442 234.529 97.2801L234.366 97.2882ZM262.939 96.7259C262.939 96.59 262.937 96.4542 262.931 96.3184H263.094C263.1 96.4542 263.102 96.59 263.102 96.7259H262.939ZM234.3 96.4651C234.295 96.3292 234.287 96.1934 234.276 96.0576L234.439 96.0494C234.45 96.1852 234.458 96.3211 234.463 96.4569L234.3 96.4651ZM262.915 95.9027C262.915 95.7669 262.912 95.6311 262.907 95.4952L263.07 95.4871C263.075 95.6283 263.078 95.7669 263.078 95.9027H262.915ZM234.251 95.6419L234.219 95.2344L234.382 95.2263L234.406 95.6338L234.251 95.6419ZM262.899 95.0796L262.882 94.6721L263.045 94.6639L263.062 95.0714L262.899 95.0796ZM234.203 94.8269L234.178 94.4194L234.341 94.4113L234.366 94.8188L234.203 94.8269ZM262.866 94.2646L262.858 93.8571H263.021L263.029 94.2564L262.866 94.2646ZM234.154 94.0119L234.129 93.6044L234.292 93.5963L234.317 94.0038L234.154 94.0119ZM262.842 93.4496L262.817 93.0421L262.98 93.0339L263.005 93.4496H262.842ZM234.105 93.1888L234.08 92.7813L234.243 92.7731L234.268 93.1806L234.105 93.1888ZM262.801 92.6264L262.785 92.2189L262.948 92.2108L262.964 92.6183L262.801 92.6264ZM234.056 92.3738L234.031 91.9663L234.194 91.9581L234.219 92.3656L234.056 92.3738ZM262.768 91.8114L262.744 91.4039L262.907 91.3958L262.931 91.8033L262.768 91.8114ZM234.007 91.5588L233.991 91.1513L234.154 91.1431L234.17 91.5506L234.007 91.5588ZM262.728 90.9964L262.703 90.5889L262.866 90.5808L262.891 90.9883L262.728 90.9964ZM233.966 90.7438L233.942 90.3363L234.105 90.3281L234.129 90.7356L233.966 90.7438ZM262.687 90.1814L262.662 89.7739L262.825 89.7658L262.85 90.1733L262.687 90.1814ZM233.925 89.9206L233.901 89.5131L234.064 89.505L234.088 89.9125L233.925 89.9206ZM262.638 89.3664C262.632 89.2306 262.624 89.0947 262.613 88.9589L262.776 88.9508C262.782 89.0866 262.79 89.2224 262.801 89.3583L262.638 89.3664ZM233.877 89.1056L233.86 88.6981L234.023 88.69L234.04 89.0975L233.877 89.1056ZM262.589 88.5514C262.578 88.4156 262.57 88.2797 262.565 88.1439L262.728 88.1358C262.733 88.2662 262.741 88.402 262.752 88.5433L262.589 88.5514ZM233.836 88.2906L233.82 87.8831L233.983 87.875L233.999 88.2825L233.836 88.2906ZM262.532 87.7364C262.521 87.5951 262.513 87.4593 262.508 87.3289L262.671 87.3208C262.676 87.4512 262.684 87.587 262.695 87.7283L262.532 87.7364ZM233.803 87.4675L233.779 87.06L233.942 87.0518L233.966 87.4593L233.803 87.4675ZM262.475 86.9214C262.464 86.7747 262.45 86.6389 262.434 86.5139L262.597 86.4976C262.608 86.6226 262.622 86.7584 262.638 86.9051L262.475 86.9214ZM233.762 86.6525L233.746 86.2368L233.909 86.2287L233.925 86.6443L233.762 86.6525ZM234.015 86.2205L233.983 86.0657C234.08 86.0385 234.219 86.014 234.398 85.9923L234.414 86.1553C234.246 86.177 234.113 86.1988 234.015 86.2205ZM234.822 86.1146L234.806 85.9516C234.931 85.9407 235.066 85.9271 235.213 85.9108L235.221 86.0738C235.08 86.0901 234.947 86.1037 234.822 86.1146ZM262.393 86.1146C262.377 85.9407 262.361 85.8076 262.345 85.7152L262.499 85.6826C262.521 85.7804 262.54 85.9163 262.556 86.0901L262.393 86.1146ZM235.629 86.0494L235.621 85.8945C235.751 85.8837 235.887 85.8728 236.028 85.8619L236.036 86.0249C235.895 86.0358 235.759 86.0439 235.629 86.0494ZM236.444 86.0005L236.436 85.8375C236.566 85.832 236.702 85.8266 236.843 85.8212L236.851 85.9842C236.71 85.9896 236.574 85.995 236.444 86.0005ZM237.259 85.9597L237.251 85.7967C237.386 85.7913 237.522 85.7858 237.658 85.7804L237.666 85.9434C237.53 85.9488 237.395 85.9543 237.259 85.9597ZM238.074 85.9271L238.066 85.7641L238.473 85.7397L238.481 85.9027L238.074 85.9271ZM238.889 85.8945L238.881 85.7315L239.288 85.7234L239.296 85.8864L238.889 85.8945ZM239.704 85.8619L239.696 85.6989L240.103 85.6826L240.111 85.8456L239.704 85.8619ZM240.519 85.8375L240.511 85.6745L240.926 85.6582V85.8212L240.519 85.8375ZM241.334 85.813V85.65L241.741 85.6419V85.8049L241.334 85.813ZM242.149 85.7886V85.6256L242.556 85.6174V85.7804L242.149 85.7886ZM242.964 85.7641V85.6011L243.371 85.593V85.756L242.964 85.7641ZM243.779 85.7397V85.5767L244.186 85.5685V85.7315L243.779 85.7397ZM244.594 85.7234V85.5604L245.001 85.5522V85.7152L244.594 85.7234ZM245.409 85.6989V85.5359L245.816 85.5278V85.6908L245.409 85.6989ZM246.232 85.6826L246.224 85.5196L246.631 85.5115L246.639 85.6745L246.232 85.6826ZM247.047 85.6745L247.039 85.5115L247.446 85.5033L247.454 85.6663L247.047 85.6745ZM247.862 85.6582L247.854 85.4952L248.269 85.487V85.65L247.862 85.6582ZM248.677 85.6419V85.4789H249.084V85.6419H248.677ZM249.492 85.6256V85.4626L249.899 85.4544V85.6174L249.492 85.6256ZM250.307 85.6174V85.4544L250.714 85.4463V85.6093L250.307 85.6174ZM251.122 85.6093V85.4463L251.529 85.4381V85.6011L251.122 85.6093ZM262.124 85.6011C262.021 85.5957 261.888 85.5902 261.725 85.5848V85.4218C261.894 85.4272 262.032 85.4327 262.141 85.4381L262.124 85.6011ZM251.929 85.6011V85.4381L252.336 85.43V85.593L251.929 85.6011ZM252.744 85.593V85.43H253.151L253.159 85.593H252.744ZM253.559 85.5848L253.551 85.4218L253.958 85.4137L253.966 85.5767L253.559 85.5848ZM261.301 85.5848C261.176 85.5794 261.041 85.5767 260.894 85.5767V85.4137C261.041 85.4137 261.176 85.4164 261.301 85.4218V85.5848ZM254.374 85.5767V85.4137H254.781V85.5767H254.374ZM255.189 85.5685V85.4055H255.596V85.5685H255.189ZM260.494 85.5604C260.364 85.5604 260.228 85.5604 260.087 85.5604V85.3974C260.228 85.3974 260.364 85.3974 260.494 85.3974V85.5604ZM256.012 85.5604L256.004 85.3974H256.411L256.419 85.5604H256.012ZM256.827 85.5604V85.3974L257.234 85.3892V85.5522L256.827 85.5604ZM259.679 85.5604H259.272V85.3974H259.679V85.5604ZM257.642 85.5604V85.3974H258.049V85.5604H257.642ZM258.864 85.5604H258.457V85.3974H258.864V85.5604Z" fill="#FE8E9C"/>
<path opacity="0.5" d="M227.756 80.6296C228.563 81.0779 229.622 98.1032 229.231 99.0649C228.84 100.027 205.376 99.5295 204.708 99.2116C204.268 98.9997 203.741 92.5558 203.127 79.8798C203.078 78.8529 226.941 80.1895 227.756 80.6296Z" fill="#FE8E9C"/>
<path opacity="0.2" d="M215.36 78.3476L212.825 88.3395L216.542 78.3802L225.384 78.8936L223.648 92.333L227.031 79.0974L229.524 79.2278L229.598 86.9703L226.224 100.304L214.789 100.548L218.302 86.4324L212.238 100.499L204.594 100.271L210.25 87.3044L203.029 95.8456L202.075 89.5783L208.815 78.7551L215.36 78.3476Z" fill="white"/>
<path d="M217.462 75.2669C220.76 68.2742 224.944 64.6664 230.013 64.4437C235.077 64.2155 238.767 68.084 241.081 76.0493L230.397 76.1145L217.462 75.2669Z" fill="#68A9FD"/>
<path opacity="0.3" d="M227.128 64.1747C228.829 68.0813 230.152 70.4502 231.097 71.2815C232.048 72.1128 235.683 72.9632 242.002 73.8325L242.238 77.394C233.311 76.704 228.275 76.4025 227.128 76.4894C225.987 76.5709 222.352 76.2367 216.224 75.4869C217.647 71.6945 218.715 69.4641 219.427 68.7958C220.138 68.1221 222.706 66.5817 227.128 64.1747Z" fill="#6880E4"/>
<path d="M262.85 62.2595C268.734 65.8292 288.498 87.3697 288.408 88.2662C288.319 89.1708 278.693 93.0502 277.683 93.254C276.672 93.4577 273.013 104.599 272.646 104.558C272.336 104.517 267.308 106.84 265.588 107.631C265.246 107.794 264.838 107.72 264.578 107.443C261.652 104.419 245.034 86.9377 241.032 75.9189C238.109 67.8558 234.436 64.0308 230.013 64.4437C230.641 63.5961 256.974 58.6817 262.85 62.2595Z" fill="#7DB9F9"/>
<path d="M257.137 61.0289C261.228 61.0533 266.558 66.3264 267.781 67.1414C269.003 67.9564 285.784 87.1904 285.922 87.4512C286.061 87.7201 275.979 91.8114 275.295 92.3575C274.618 92.9035 271.611 102.561 271.473 102.904C271.334 103.246 267.308 104.908 266.036 105.251C264.765 105.593 257.593 95.9435 251.953 89.562C246.313 83.1806 245.091 78.6899 241.423 71.7624C238.978 67.1441 236.009 64.4492 232.516 63.6776C242.01 60.6214 253.045 61.0044 257.137 61.0289Z" fill="#97C7FA"/>
<path opacity="0.2" d="M278.791 76.4894L271.693 109.432L257.74 108.478L260.975 85.6011L254.985 99.6273L246.534 89.2605L254.097 68.7388L243.575 84.8595L231.961 68.1846L248.432 59.8145L265.996 60.4095L270.992 66.0004L267.137 87.3778L273.2 68.1846L278.791 76.4894Z" fill="#F6F9FF"/>
<path d="M255.906 68.8773C258.612 66.9621 261.44 69.4315 263.274 71.3468C265.311 73.4739 266.794 76.5057 265.792 79.4642C265.466 80.434 264.814 81.3142 263.926 81.8114C261.872 82.9687 259.223 82.0151 257.552 80.6215C255.906 79.2523 254.781 77.2311 254.317 75.161C253.877 73.1724 253.991 70.4584 255.678 69.0566C255.748 68.9914 255.825 68.9317 255.906 68.8773Z" fill="#68A9FD"/>
<path d="M223.974 64.3051H182.426C181.888 64.3051 181.382 63.865 181.309 63.3271L177.682 36.6848C177.609 36.1469 177.984 35.7068 178.53 35.7068H220.079C220.617 35.7068 221.122 36.1469 221.195 36.6848L224.822 63.3271C224.895 63.865 224.52 64.3051 223.974 64.3051Z" fill="#F9C438"/>
<path d="M200.021 43.3271H181.961C181.782 43.3271 181.619 43.1804 181.594 43.0092L181.065 39.1624C181.04 38.9831 181.17 38.8364 181.35 38.8364H199.41C199.589 38.8364 199.752 38.9831 199.777 39.1624L200.299 43.0092C200.323 43.1804 200.201 43.3271 200.021 43.3271Z" fill="#F6AB36"/>
<path d="M183.819 45.7721L184.333 46.5789C184.349 46.6115 184.382 46.6278 184.414 46.636L185.327 46.7664C185.408 46.7745 185.457 46.8805 185.4 46.9375L184.838 47.5651C184.822 47.5895 184.814 47.6221 184.822 47.6547L185.099 48.5431C185.123 48.6246 185.05 48.6898 184.968 48.649L184.113 48.2334C184.08 48.2171 184.047 48.2171 184.015 48.2334L183.273 48.649C183.208 48.6898 183.11 48.6246 183.118 48.5431L183.151 47.6547C183.151 47.6221 183.135 47.5895 183.11 47.5651L182.377 46.9375C182.303 46.8805 182.328 46.7745 182.401 46.7664L183.281 46.636C183.314 46.6278 183.338 46.6115 183.347 46.5789L183.64 45.7721C183.664 45.6987 183.77 45.6987 183.819 45.7721Z" fill="#F6AB36"/>
<path d="M189.426 45.7721L189.94 46.5789C189.956 46.6115 189.989 46.6278 190.021 46.636L190.934 46.7664C191.016 46.7745 191.065 46.8805 191.016 46.9375L190.453 47.5651C190.429 47.5895 190.429 47.6221 190.437 47.6547L190.714 48.5431C190.739 48.6246 190.657 48.6898 190.584 48.649L189.72 48.2334C189.687 48.2171 189.655 48.2171 189.63 48.2334L188.889 48.649C188.815 48.6898 188.726 48.6246 188.726 48.5431L188.758 47.6547C188.758 47.6221 188.742 47.5895 188.717 47.5651L187.984 46.9375C187.919 46.8805 187.935 46.7745 188.016 46.7664L188.897 46.636C188.929 46.6278 188.954 46.6115 188.962 46.5789L189.247 45.7721C189.28 45.6987 189.386 45.6987 189.426 45.7721Z" fill="#F6AB36"/>
<path d="M195.042 45.7721L195.555 46.5789C195.572 46.6115 195.604 46.6278 195.637 46.636L196.55 46.7664C196.631 46.7745 196.68 46.8805 196.623 46.9375L196.069 47.5651C196.044 47.5895 196.036 47.6221 196.044 47.6547L196.321 48.5431C196.346 48.6246 196.272 48.6898 196.191 48.649L195.335 48.2334C195.303 48.2171 195.27 48.2171 195.237 48.2334L194.496 48.649C194.431 48.6898 194.333 48.6246 194.341 48.5431L194.373 47.6547C194.373 47.6221 194.357 47.5895 194.333 47.5651L193.599 46.9375C193.526 46.8805 193.55 46.7745 193.632 46.7664L194.504 46.636C194.536 46.6278 194.561 46.6115 194.577 46.5789L194.862 45.7721C194.887 45.6987 194.993 45.6987 195.042 45.7721Z" fill="#F6AB36"/>
<path d="M200.657 45.7721L201.162 46.5789C201.187 46.6115 201.211 46.6278 201.244 46.636L202.157 46.7664C202.246 46.7745 202.287 46.8805 202.238 46.9375L201.676 47.5651C201.66 47.5895 201.651 47.6221 201.66 47.6547L201.937 48.5431C201.961 48.6246 201.88 48.6898 201.806 48.649L200.942 48.2334C200.918 48.2171 200.877 48.2171 200.853 48.2334L200.111 48.649C200.046 48.6898 199.948 48.6246 199.948 48.5431L199.981 47.6547C199.981 47.6221 199.964 47.5895 199.94 47.5651L199.206 46.9375C199.141 46.8805 199.158 46.7745 199.239 46.7664L200.119 46.636C200.152 46.6278 200.176 46.6115 200.184 46.5789L200.478 45.7721C200.502 45.6987 200.608 45.6987 200.657 45.7721Z" fill="#F6AB36"/>
<path d="M206.264 45.7721L206.778 46.5789C206.794 46.6115 206.827 46.6278 206.859 46.636L207.772 46.7664C207.854 46.7745 207.902 46.8805 207.854 46.9375L207.291 47.5651C207.267 47.5895 207.259 47.6221 207.275 47.6547L207.544 48.5431C207.568 48.6246 207.495 48.6898 207.413 48.649L206.558 48.2334C206.525 48.2171 206.493 48.2171 206.468 48.2334L205.718 48.649C205.653 48.6898 205.563 48.6246 205.563 48.5431L205.596 47.6547C205.596 47.6221 205.58 47.5895 205.555 47.5651L204.822 46.9375C204.757 46.8805 204.773 46.7745 204.854 46.7664L205.726 46.636C205.759 46.6278 205.783 46.6115 205.8 46.5789L206.085 45.7721C206.109 45.6987 206.215 45.6987 206.264 45.7721Z" fill="white"/>
<path d="M216.281 53.0256H183.208C183.069 53.0256 182.939 52.9196 182.923 52.7811L182.719 51.2978C182.703 51.1592 182.8 51.0451 182.939 51.0451H216.012C216.15 51.0451 216.273 51.1592 216.297 51.2978L216.501 52.7811C216.517 52.9196 216.419 53.0256 216.281 53.0256Z" fill="#F6AB36"/>
<path d="M216.737 56.3507H183.656C183.518 56.3507 183.395 56.2366 183.379 56.1062L183.175 54.6148C183.159 54.4844 183.249 54.3703 183.387 54.3703H216.468C216.607 54.3703 216.729 54.4844 216.745 54.6148L216.949 56.1062C216.965 56.2366 216.876 56.3507 216.737 56.3507Z" fill="#F6AB36"/>
<path d="M200.942 59.6759H184.21C184.023 59.6759 183.844 59.5129 183.819 59.3255L183.64 58.0459C183.615 57.8503 183.754 57.6955 183.941 57.6955H200.673C200.869 57.6955 201.048 57.8503 201.073 58.0459L201.244 59.3255C201.277 59.5129 201.138 59.6759 200.942 59.6759Z" fill="#F6AB36"/>
<path d="M274.138 59.1054H234.341C233.738 59.1054 233.176 58.6164 233.086 58.0215L231.586 48.5186C231.489 47.9155 231.896 47.4346 232.499 47.4346H272.296C272.899 47.4346 273.461 47.9155 273.551 48.5186L275.05 58.0215C275.148 58.6164 274.741 59.1054 274.138 59.1054Z" fill="#F9C438"/>
<path d="M235.767 55.4705C235.262 54.8674 234.903 54.1421 234.781 53.3597C234.455 51.2977 235.865 49.6188 237.927 49.6188C239.997 49.6188 241.937 51.2977 242.263 53.3597C242.385 54.1421 242.255 54.8674 241.945 55.4705C241.521 54.2562 240.454 53.2945 239.223 53.0011C239.467 52.781 239.59 52.4387 239.533 52.0557C239.427 51.3792 238.791 50.8332 238.123 50.8332C237.446 50.8332 236.99 51.3792 237.096 52.0557C237.161 52.4387 237.389 52.781 237.707 53.0011C236.566 53.2945 235.8 54.2562 235.767 55.4705Z" fill="#F6AB36"/>
<path d="M235.767 55.4705C235.8 54.2562 236.566 53.2945 237.707 53.0011C237.389 52.781 237.161 52.4387 237.096 52.0557C236.99 51.3792 237.446 50.8332 238.123 50.8332C238.791 50.8332 239.427 51.3792 239.533 52.0557C239.59 52.4387 239.467 52.781 239.223 53.0011C240.454 53.2945 241.521 54.2562 241.945 55.4705C241.423 56.4567 240.397 57.1005 239.109 57.1005C237.829 57.1005 236.59 56.4567 235.767 55.4705Z" fill="white"/>
<path d="M270.552 52.7322H246.802C246.517 52.7322 246.248 52.504 246.207 52.2106L245.833 49.8797C245.792 49.5944 245.987 49.3662 246.273 49.3662H270.022C270.307 49.3662 270.576 49.5944 270.617 49.8797L270.992 52.2106C271.032 52.504 270.837 52.7322 270.552 52.7322Z" fill="#F6AB36"/>
<path d="M271.252 57.1739H247.503C247.218 57.1739 246.949 56.9375 246.908 56.6523L246.542 54.3214C246.493 54.0361 246.688 53.8079 246.974 53.8079H270.723C271.008 53.8079 271.277 54.0361 271.318 54.3214L271.693 56.6523C271.733 56.9375 271.538 57.1739 271.252 57.1739Z" fill="#F6AB36"/>
<path d="M249.362 51.1836C249.41 51.4933 249.199 51.746 248.889 51.746C248.571 51.746 248.278 51.4933 248.229 51.1836C248.18 50.8739 248.392 50.6213 248.71 50.6213C249.019 50.6213 249.313 50.8739 249.362 51.1836Z" fill="#F9C438"/>
<path d="M252.116 51.1836C252.165 51.4933 251.953 51.746 251.635 51.746C251.326 51.746 251.032 51.4933 250.983 51.1836C250.934 50.8739 251.146 50.6213 251.464 50.6213C251.774 50.6213 252.067 50.8739 252.116 51.1836Z" fill="#F9C438"/>
<path d="M254.871 51.1836C254.92 51.4933 254.708 51.746 254.39 51.746C254.08 51.746 253.787 51.4933 253.738 51.1836C253.689 50.8739 253.901 50.6213 254.211 50.6213C254.529 50.6213 254.822 50.8739 254.871 51.1836Z" fill="#F9C438"/>
<path d="M257.626 51.1836C257.675 51.4933 257.454 51.746 257.145 51.746C256.835 51.746 256.542 51.4933 256.493 51.1836C256.444 50.8739 256.656 50.6213 256.965 50.6213C257.283 50.6213 257.569 50.8739 257.626 51.1836Z" fill="#F9C438"/>
<path d="M260.372 51.1836C260.421 51.4933 260.209 51.746 259.899 51.746C259.59 51.746 259.296 51.4933 259.247 51.1836C259.199 50.8739 259.41 50.6213 259.72 50.6213C260.03 50.6213 260.323 50.8739 260.372 51.1836Z" fill="#F9C438"/>
<path d="M263.127 51.1836C263.176 51.4933 262.964 51.746 262.654 51.746C262.344 51.746 262.051 51.4933 262.002 51.1836C261.953 50.8739 262.165 50.6213 262.475 50.6213C262.785 50.6213 263.078 50.8739 263.127 51.1836Z" fill="#F9C438"/>
<path d="M265.882 51.1836C265.93 51.4933 265.719 51.746 265.409 51.746C265.099 51.746 264.806 51.4933 264.757 51.1836C264.708 50.8739 264.92 50.6213 265.23 50.6213C265.539 50.6213 265.833 50.8739 265.882 51.1836Z" fill="#F9C438"/>
<path d="M268.636 51.1836C268.685 51.4933 268.473 51.746 268.164 51.746C267.846 51.746 267.56 51.4933 267.512 51.1836C267.463 50.8739 267.675 50.6213 267.984 50.6213C268.294 50.6213 268.587 50.8739 268.636 51.1836Z" fill="#F9C438"/>
<path d="M250.038 55.4869C250.087 55.8047 249.875 56.0574 249.565 56.0574C249.256 56.0574 248.962 55.8047 248.913 55.4869C248.864 55.1772 249.076 54.9245 249.386 54.9245C249.696 54.9245 249.989 55.1772 250.038 55.4869Z" fill="#F9C438"/>
<path d="M252.793 55.4869C252.842 55.8047 252.63 56.0574 252.32 56.0574C252.01 56.0574 251.717 55.8047 251.668 55.4869C251.619 55.1772 251.831 54.9245 252.141 54.9245C252.45 54.9245 252.744 55.1772 252.793 55.4869Z" fill="#F9C438"/>
<path d="M255.547 55.4869C255.596 55.8047 255.384 56.0574 255.075 56.0574C254.757 56.0574 254.472 55.8047 254.423 55.4869C254.366 55.1772 254.586 54.9245 254.895 54.9245C255.205 54.9245 255.499 55.1772 255.547 55.4869Z" fill="#F9C438"/>
<path d="M258.302 55.4869C258.351 55.8047 258.139 56.0574 257.829 56.0574C257.512 56.0574 257.218 55.8047 257.169 55.4869C257.12 55.1772 257.332 54.9245 257.65 54.9245C257.96 54.9245 258.253 55.1772 258.302 55.4869Z" fill="#F9C438"/>
<path d="M261.057 55.4869C261.106 55.8047 260.894 56.0574 260.576 56.0574C260.266 56.0574 259.973 55.8047 259.924 55.4869C259.875 55.1772 260.087 54.9245 260.405 54.9245C260.714 54.9245 261.008 55.1772 261.057 55.4869Z" fill="#F9C438"/>
<path d="M263.811 55.4869C263.86 55.8047 263.648 56.0574 263.331 56.0574C263.021 56.0574 262.728 55.8047 262.679 55.4869C262.63 55.1772 262.842 54.9245 263.151 54.9245C263.469 54.9245 263.763 55.1772 263.811 55.4869Z" fill="#F9C438"/>
<path d="M266.566 55.4869C266.615 55.8047 266.403 56.0574 266.085 56.0574C265.776 56.0574 265.482 55.8047 265.433 55.4869C265.384 55.1772 265.596 54.9245 265.906 54.9245C266.224 54.9245 266.517 55.1772 266.566 55.4869Z" fill="#F9C438"/>
<path d="M269.313 55.4869C269.37 55.8047 269.15 56.0574 268.84 56.0574C268.53 56.0574 268.237 55.8047 268.188 55.4869C268.139 55.1772 268.351 54.9245 268.661 54.9245C268.979 54.9245 269.264 55.1772 269.313 55.4869Z" fill="#F9C438"/>
<path d="M260.348 40.2463C260.242 40.1404 260.193 39.9937 260.217 39.847C260.486 38.2985 262.491 30.1159 268.074 27.622C273.298 25.2911 279.68 20.6782 280.56 20.1729C281.448 19.6676 283.062 25.8534 283.942 26.1061C284.83 26.3587 288.775 28.82 289.125 29.7736C289.484 30.7353 276.175 35.2096 275.067 37.6057C273.966 40.01 272.336 45.5683 271.693 45.8209C271.057 46.0736 265.939 44.6881 265.018 44.305C264.219 43.9709 261.106 40.9798 260.348 40.2463Z" fill="#7DB9F9"/>
<path d="M261 39.6025C262.325 34.6908 264.08 31.4254 266.265 29.8062C269.533 27.3857 271.636 26.8559 274.032 25.3808C276.42 23.9056 280.462 20.9553 280.568 21.1591C280.674 21.371 282.638 26.261 282.956 26.4321C283.274 26.6114 288.367 29.4965 288.441 29.741C288.514 29.9855 275.678 34.2724 274.521 36.7663C273.363 39.2684 271.815 45.0304 271.497 45.169C271.179 45.3157 265.376 43.7509 264.993 43.5064C264.602 43.2619 260.682 39.6677 261 39.6025Z" fill="#97C7FA"/>
<path opacity="0.2" d="M279.451 20.4663L282.76 34.6473L276.688 38.8038L274.969 29.6758L275.067 40.3605L273.38 45.8536L266.713 35.1934L269.875 46.4974L263.706 44.028L261.358 33.9301L265.319 27.6791L270.315 33.8486L268.75 25.8779L274.708 22.0963L277.169 28.1599L276.444 21.1509L279.451 20.4663Z" fill="#F6F9FF"/>
<path d="M291.008 86.2694L289.256 87.3452L288.319 88.0624L286.599 86.1064C284.605 85.7152 283.537 85.4517 283.396 85.3158C282.565 84.5334 287.121 84.5905 287.226 84.566C287.297 84.5552 287.881 84.1721 288.979 83.4169L291.008 86.2694Z" fill="#FE8E9C"/>
<path d="M286.599 86.1064C288.18 86.5193 288.949 86.7448 288.905 86.7828C288.84 86.8399 286.672 86.4487 286.64 86.4324C286.612 86.4161 286.599 86.3074 286.599 86.1064Z" fill="#E57492"/>
<path d="M325.841 134.077L319.264 115.772C319.395 120.711 319.601 126.813 319.884 134.077H312.002C309.601 113.941 308.349 102.436 308.245 99.562C307.941 91.4718 308.411 84.6475 309.655 79.0892L326.151 78.2253C327.642 82.4633 326.183 89.8717 324.562 96.0412L333.144 131.469L325.841 134.077Z" fill="#1B3D9E"/>
<path d="M329.712 132.822C329.664 132.822 329.623 132.798 329.598 132.749C329.15 131.608 318.547 104.835 318.294 102.423C318.042 100.018 319.297 80.108 319.346 79.2604C319.354 79.1952 319.411 79.1463 319.476 79.1463C319.541 79.1545 319.598 79.2115 319.59 79.2767C319.574 79.4886 318.294 100.018 318.539 102.398C318.783 104.778 329.721 132.382 329.826 132.659C329.851 132.716 329.826 132.79 329.761 132.814C329.745 132.819 329.729 132.822 329.712 132.822Z" fill="#1C056D"/>
<path d="M315.743 134.68C315.678 134.68 315.629 134.632 315.621 134.574C315.58 134.289 311.497 105.707 311.416 103.067C311.342 100.426 311.579 80.9067 311.579 80.7111C311.579 80.6459 311.636 80.5889 311.701 80.5889C311.774 80.5889 311.823 80.6459 311.823 80.7111C311.823 80.9149 311.587 100.426 311.66 103.058C311.742 105.683 315.825 134.248 315.866 134.542C315.874 134.607 315.825 134.672 315.76 134.68C315.754 134.68 315.749 134.68 315.743 134.68Z" fill="#1C056D"/>
<path d="M313.901 83.3598C313.999 93.781 314.211 99.6843 314.537 101.07C314.005 98.8802 313.649 96.8861 313.469 95.0877C313.29 93.2838 312.967 89.1735 312.5 82.7567C311.429 82.1482 310.41 81.3495 309.443 80.3606L309.655 79.0892C310.938 79.1925 312.304 79.331 313.755 79.5049C315.211 79.6842 319.332 79.1599 326.118 77.9319C326.509 79.3174 326.716 80.4775 326.738 81.412C319.538 83.0637 315.26 83.713 313.901 83.3598Z" fill="#1C056D"/>
<path d="M319.264 115.772L319.468 122.61C317.784 121.214 316.406 115.506 315.336 105.487L319.264 115.772Z" fill="#1C056D"/>
<path d="M318.767 45.5846C323.271 48.7196 325.928 51.3548 326.738 53.4901C327.547 55.6254 326.879 64.0226 324.733 78.6817C315.703 79.8988 310.677 80.0346 309.655 79.0892C308.131 77.6711 308.082 56.31 308.408 54.2888C308.631 52.9359 310.068 50.2844 312.72 46.3344L318.767 45.5846Z" fill="white"/>
<path d="M311.978 50.059C311.75 55.9596 311.22 65.6635 310.389 79.1708C308.732 79.7413 307.599 79.9831 306.99 79.8961C306.819 79.8717 306.705 79.0974 306.615 77.8423C304.04 79.888 293.429 88.2825 292.858 88.2662C292.214 88.2499 288.571 82.8464 288.408 82.5449C288.245 82.2433 299.574 73.5636 300.462 72.4796C301.269 71.4935 305.866 56.8479 306.713 54.1258C306.746 53.99 306.792 53.846 306.852 53.6939C307.536 51.8954 309.492 49.4423 312.72 46.3344C313.021 46.3915 312.076 47.5569 311.978 50.059Z" fill="#7DB9F9"/>
<path d="M297.21 65.1691L293.388 65.2343C293.249 65.2343 293.119 65.112 293.094 64.9572L291.668 55.8373C291.644 55.6825 291.733 55.5602 291.872 55.5521L295.694 55.4869C295.833 55.4869 295.963 55.6091 295.988 55.764L297.422 64.8838C297.447 65.0387 297.349 65.1609 297.21 65.1691Z" fill="#6880E4"/>
<path d="M297.732 66.5057L295.971 65.3484C294.521 65.1908 293.665 65.0387 293.404 64.892C293.013 64.6719 292.834 64.3459 292.768 63.9792C292.725 63.7347 292.804 63.5418 293.005 63.4005C292.864 63.3462 292.728 63.2212 292.597 63.0256C292.461 62.8354 292.51 62.5719 292.744 62.2351L292.475 62.0395C292.236 61.8113 292.26 61.4608 292.548 60.9881C292.125 60.711 292.051 59.8716 292.182 59.7819C292.32 59.6923 296.143 60.7436 296.33 60.7192C296.517 60.6866 296.167 58.3475 296.42 58.372C297.438 58.4535 297.593 62.1373 297.618 62.2432C297.634 62.3138 298.128 62.667 299.101 63.3027L297.732 66.5057Z" fill="#FE8E9C"/>
<path d="M328.669 79.0159C328.441 79.4804 322.288 80.7111 321.742 80.7111C321.497 80.7111 320.764 76.742 320.055 72.0802C317.911 74.6719 315.735 76.4649 314.203 76.1797C311.307 75.6418 305.238 72.9903 295.996 68.2253L299.093 60.9962C307.069 64.7181 311.481 66.3209 312.328 65.8047C313.225 65.2587 316.681 57.1331 318.637 52.3817C318.691 50.1106 318.734 47.8449 318.767 45.5846C322.646 46.1714 325.955 49.8063 327.544 53.0011C329.476 56.8886 328.906 78.5595 328.669 79.0159Z" fill="#7DB9F9"/>
<path opacity="0.3" d="M314.024 71.8765C311.269 71.8765 297.683 64.6067 297.08 64.2807C297.023 64.2562 296.998 64.1747 297.031 64.1177C297.063 64.0606 297.137 64.0362 297.194 64.0688C302.442 66.8805 312.76 72.0802 314.227 71.6075C314.993 71.363 317.072 68.4127 319.941 63.5227C322.255 59.57 324.407 55.4705 324.651 54.7126C324.676 54.6474 324.741 54.6066 324.806 54.6311C324.871 54.6474 324.904 54.7207 324.888 54.7859C324.635 55.552 322.475 59.6759 320.152 63.645C316.387 70.0753 314.888 71.6483 314.301 71.8439C314.225 71.8656 314.132 71.8765 314.024 71.8765Z" fill="#6880E4"/>
<path opacity="0.3" d="M326.909 61.1022C326.893 61.1022 326.879 61.0995 326.868 61.094C326.803 61.0696 326.77 61.0044 326.795 60.9392C326.803 60.9066 327.879 57.6629 324.684 54.8348C323.013 53.3597 321.465 52.7973 320.462 52.5936C319.37 52.3735 318.669 52.5039 318.661 52.5039C318.596 52.5121 318.531 52.4713 318.522 52.4061C318.506 52.3409 318.547 52.2757 318.62 52.2594C318.734 52.2431 321.554 51.7378 324.847 54.6555C326.583 56.1877 327.08 57.834 327.194 58.9424C327.316 60.1486 327.031 60.9881 327.023 61.0207C327.007 61.0696 326.958 61.1022 326.909 61.1022Z" fill="#6880E4"/>
<path opacity="0.3" d="M320.055 72.0802C324.439 65.3429 326.936 61.1131 327.545 59.3907C323.877 68.6382 321.527 73.7972 320.495 74.8675L320.055 72.0802Z" fill="#6880E4"/>
<path d="M310.756 55.7069C311.048 55.7069 311.285 55.4697 311.285 55.1771C311.285 54.8846 311.048 54.6474 310.756 54.6474C310.463 54.6474 310.226 54.8846 310.226 55.1771C310.226 55.4697 310.463 55.7069 310.756 55.7069Z" fill="white"/>
<path d="M310.381 59.9205C310.673 59.9205 310.91 59.6833 310.91 59.3907C310.91 59.0981 310.673 58.861 310.381 58.861C310.088 58.861 309.851 59.0981 309.851 59.3907C309.851 59.6833 310.088 59.9205 310.381 59.9205Z" fill="white"/>
<path d="M310.381 64.134C310.673 64.134 310.91 63.8968 310.91 63.6043C310.91 63.3117 310.673 63.0745 310.381 63.0745C310.088 63.0745 309.851 63.3117 309.851 63.6043C309.851 63.8968 310.088 64.134 310.381 64.134Z" fill="white"/>
<path opacity="0.3" d="M311.277 64.0444L311.196 65.7314C309.566 65.3511 308.207 64.9246 307.121 64.4519L305.808 63.9303C306.825 57.0843 307.352 53.6042 307.39 53.4901C307.438 53.3353 307.178 62.3492 307.129 64.1422C308.992 64.6909 310.375 64.6583 311.277 64.0444Z" fill="#6880E4"/>
<path opacity="0.3" d="M310.829 75.1121L310.65 76.8073L306.615 74.7372V77.8423L305.214 78.9589C305.262 75.8401 305.325 74.1368 305.401 73.8488C305.477 73.5609 304.078 72.5502 301.204 70.817L306.615 73.3435L310.829 75.1121Z" fill="#6880E4"/>
<path d="M315.531 40.0182C317.482 43.2401 318.56 45.0956 318.767 45.5846C319.232 46.6604 313.331 49.7737 313.119 49.0728C312.964 48.5675 312.076 44.8267 311.839 43.1804C310.878 43.6286 309.875 43.8568 309.003 43.6205C307.055 43.0826 308.058 36.6441 308.579 33.9138C308.808 32.6995 309.729 31.7296 310.927 31.4688C313.062 31.0124 315.735 31.8845 316.485 32.7239C317.528 33.8812 315.963 38.8853 315.531 40.0182Z" fill="#FE8E9C"/>
<path d="M307.854 33.2292C308.025 32.7565 314.146 32.5446 314.48 32.6668C314.703 32.7429 314.828 33.7915 314.855 35.8127C315.463 36.1061 315.463 36.1061 314.855 35.8127C314.246 35.5193 313.918 34.7587 313.869 33.5307C312.798 34.2751 311.973 34.7179 311.391 34.8592C310.81 35.0059 310.359 34.9298 310.038 34.631C309.688 35.0792 308.147 35.5356 308.074 35.5601C307.813 34.3158 307.74 33.5389 307.854 33.2292Z" fill="#E57492"/>
<path d="M308.579 40.0671C309.221 40.5561 309.989 40.4392 310.886 39.7166C310.837 40.4229 310.5 40.8304 309.875 40.9391C309.049 41.0858 308.618 40.7951 308.579 40.0671Z" fill="white"/>
<path d="M310.593 34.8592C309.033 36.9565 308.422 38.1165 308.759 38.3392C309.101 38.5674 309.818 38.4289 310.91 37.9236C310.886 38.1436 310.739 38.3392 310.527 38.4126C309.916 38.6326 308.718 38.9994 308.465 38.5104C308.167 37.9345 308.876 36.7174 310.593 34.8592Z" fill="#E57492"/>
<path d="M311.839 43.1803C313.127 42.2838 313.98 41.5693 314.399 41.0369C314.051 42.857 313.279 44.0279 312.084 44.5495L311.839 43.1803Z" fill="#E57492"/>
<path d="M314.162 33.2048C314.227 32.8054 311.725 34.2072 310.071 34.1909C309.989 34.1909 309.892 34.1746 309.859 34.1013C309.843 34.0605 309.851 34.0116 309.859 33.9709C309.924 33.7427 310.038 33.5226 310.193 33.3433C309.443 34.0524 308.563 34.6147 307.61 34.9896C307.357 35.0874 307.104 35.1689 306.835 35.1689C306.566 35.1608 306.289 35.063 306.134 34.8429C306.029 34.6881 305.988 34.4925 305.971 34.2969C305.89 33.3352 306.265 32.349 306.917 31.6318C307.569 30.9146 308.474 30.4419 309.419 30.2463C308.848 30.8413 307.985 31.3058 307.161 31.4036C307.023 31.4199 306.876 31.4281 306.754 31.371C306.452 31.2243 306.436 30.8087 306.509 30.4908C306.672 29.7736 307.055 29.1053 307.601 28.6163C308.09 28.1762 308.694 27.8828 309.297 27.6383C309.875 27.4183 310.478 27.2308 311.09 27.1738C313.119 26.9782 315.197 28.2659 315.931 30.1648C315.996 29.7981 316.371 29.5454 316.738 29.5454C317.104 29.5536 317.439 29.7655 317.667 30.0507C317.895 30.336 318.025 30.6946 318.123 31.045C318.563 32.5935 318.514 34.2724 318.042 35.8209C317.561 37.3613 316.681 38.8853 315.531 40.0182C315.287 38.4045 315.197 37.4781 315.262 37.239C316.284 36.712 316.659 36.0057 316.387 35.12C316.116 34.2344 315.605 34.4653 314.855 35.8128C314.295 34.6935 314.064 33.8242 314.162 33.2048Z" fill="#1B3D9E"/>
<path d="M318.416 134.077V137.468C317.955 138.147 317.409 138.514 316.778 138.568C316.154 138.622 315.281 138.31 314.162 137.631L313.755 134.077H318.416Z" fill="#FE8E9C"/>
<path d="M312.491 138.486C312.595 136.802 312.956 135.884 313.575 135.732C314.496 135.495 314.871 135.838 315.108 136.93C315.26 137.658 314.428 138.207 312.614 138.576C314.021 137.799 314.735 137.313 314.757 137.117C314.79 136.824 314.407 135.976 314.17 135.976C313.934 135.976 313.266 136.107 313.192 136.327C313.119 136.539 312.695 138.405 312.491 138.486Z" fill="#1C056D"/>
<path d="M331.677 131.991L332.622 134.746C332.405 135.544 332.008 136.071 331.432 136.327C330.856 136.582 329.93 136.568 328.653 136.286L327.113 133.059L331.677 131.991Z" fill="#FE8E9C"/>
<path d="M332.622 134.746C333.111 134.86 333.431 134.993 333.584 135.145C333.82 135.373 335.491 138.975 335.344 139.269C335.214 139.546 324.325 144.2 322.597 144.933C322.475 144.982 322.337 144.917 322.312 144.786C322.223 144.412 322.076 143.694 322.092 143.336C322.098 143.004 324.276 140.641 328.628 136.245C330.579 136.767 331.91 136.267 332.622 134.746Z" fill="#1B3D9E"/>
<path d="M330.144 137.305C329.818 137.305 329.476 137.264 329.117 137.166C328.506 137.003 328.074 136.767 328.058 136.759L328.139 136.612C328.156 136.62 329.851 137.549 331.188 136.938C332.532 136.319 333.266 134.754 333.274 134.737L333.421 134.811C333.396 134.876 332.655 136.441 331.253 137.085C330.927 137.231 330.552 137.305 330.144 137.305Z" fill="#1C056D"/>
<path d="M327.357 137.639C326.906 136.014 326.947 135.028 327.479 134.68C328.278 134.159 328.743 134.363 329.313 135.316C329.699 135.952 329.093 136.74 327.496 137.68C328.577 136.49 329.096 135.8 329.052 135.609C328.987 135.316 328.343 134.64 328.123 134.721C327.895 134.794 327.316 135.137 327.308 135.365C327.308 135.593 327.512 137.492 327.357 137.639Z" fill="#1C056D"/>
<path d="M288.017 37.1249C289.549 37.4183 293.046 38.16 294.056 38.5919C294.464 38.7631 295.344 39.4069 297.267 41.4852C297.87 42.1453 299.557 44.1747 299.859 44.517C300.226 44.9489 299.777 44.7452 298.465 45.9432C298.286 46.1062 298.017 46.2774 297.936 46.367C297.854 46.7745 297.553 48.0622 297.536 48.1193L297.414 48.649L296.958 48.3638C296.615 48.1519 296.02 47.6955 295.344 47.1657C294.072 46.1959 292.157 44.7207 291.513 44.5985C291.236 44.5414 290.609 44.4436 289.883 44.3295C288.669 44.1421 287.161 43.9057 286.045 43.6857C285.588 43.6042 285.238 43.5308 284.993 43.4575C284.635 43.3678 284.382 43.2863 284.292 43.0418C284.244 42.9033 284.276 42.7566 284.374 42.6425C284.627 42.3409 285.751 40.8332 285.89 40.499C285.922 40.3931 285.947 39.9367 285.971 39.5781C285.996 39.1298 286.028 38.6245 286.085 38.1926C286.175 37.5895 286.297 37.2553 286.501 37.076C286.615 36.9701 286.762 36.9212 286.917 36.9375C287.104 36.9538 287.618 37.0434 288.017 37.1249Z" fill="#7DB9F9"/>
<path d="M297.161 48.0296C296.159 47.402 292.671 44.4273 291.587 44.2154C290.495 44.0116 284.439 43.164 284.667 42.8951C284.896 42.6261 286.077 41.0532 286.248 40.6375C286.411 40.23 286.306 37.2716 286.884 37.3205C287.463 37.3694 292.687 38.4289 293.901 38.9423C295.116 39.4639 299.109 44.0442 299.272 44.5088C299.435 44.9733 297.626 45.935 297.569 46.2366C297.531 46.4376 297.395 47.0353 297.161 48.0296Z" fill="#97C7FA"/>
<path opacity="0.2" d="M294.252 46.1796C294.062 46.0057 294.526 45.4352 295.645 44.4681C293.575 45.1798 292.516 45.5221 292.467 45.495C292.402 45.4542 290.112 44.8919 289.9 44.7289C289.758 44.6148 290.196 43.6694 291.212 41.8927C289.402 43.5118 288.444 44.3349 288.335 44.3621C288.172 44.411 285.368 43.8568 285.222 43.7509C285.124 43.6802 286.966 41.6183 290.747 37.565C291.997 37.7986 292.82 37.9834 293.217 38.1192C293.608 38.255 293.418 39.2385 292.646 41.0695C294.064 40.1458 294.898 39.6677 295.148 39.6351C295.531 39.5781 297.267 41.4852 297.284 41.746C297.289 41.9198 296.425 42.6262 294.692 43.865C296.691 42.9739 297.827 42.4985 298.099 42.4387C298.514 42.3572 299.623 44.248 299.696 44.3295C299.739 44.3838 298.291 45.2396 295.352 46.8968C294.814 46.5871 294.447 46.348 294.252 46.1796Z" fill="#F6F9FF"/>
<path d="M290.869 41.6726C290.984 41.0532 291.725 40.6783 292.524 40.8332C293.323 40.988 294.447 41.9579 293.869 42.724C293.486 43.2211 292.711 42.7973 291.913 42.6425C291.114 42.4958 290.747 42.292 290.869 41.6726Z" fill="#7DB9F9"/>
</g>
</g>
<path d="M38.74 52H36.377V39.947H43.993V42.174H38.723V45.149H43.415V47.308H38.74V52ZM47.9807 52H45.7197V43.636H47.9807V52ZM45.4477 40.899C45.4477 40.5137 45.5837 40.185 45.8557 39.913C46.1277 39.6297 46.4564 39.488 46.8417 39.488C47.227 39.488 47.5557 39.624 47.8277 39.896C48.0997 40.168 48.2357 40.5023 48.2357 40.899C48.2357 41.273 48.0997 41.596 47.8277 41.868C47.5557 42.14 47.227 42.276 46.8417 42.276C46.4564 42.276 46.1277 42.14 45.8557 41.868C45.5837 41.596 45.4477 41.273 45.4477 40.899ZM52.6623 47.189V52H50.4013V43.636H52.5943V44.673C52.8323 44.265 53.1723 43.9533 53.6143 43.738C54.0563 43.5227 54.521 43.415 55.0083 43.415C55.9943 43.415 56.7423 43.7267 57.2523 44.35C57.7737 44.962 58.0343 45.7553 58.0343 46.73V52H55.7733V47.121C55.7733 46.6223 55.643 46.22 55.3823 45.914C55.133 45.608 54.7477 45.455 54.2263 45.455C53.7503 45.455 53.3707 45.6193 53.0873 45.948C52.804 46.2767 52.6623 46.6903 52.6623 47.189ZM68.3021 39.692V50.487C68.3021 51.0423 68.3247 51.5467 68.3701 52H66.2111C66.1544 51.7167 66.1261 51.3937 66.1261 51.031C65.9334 51.3823 65.6274 51.6657 65.2081 51.881C64.8001 52.0963 64.3241 52.204 63.7801 52.204C62.5901 52.204 61.6097 51.7903 60.8391 50.963C60.0797 50.1243 59.7001 49.0703 59.7001 47.801C59.7001 46.5657 60.0741 45.5287 60.8221 44.69C61.5814 43.8513 62.5447 43.432 63.7121 43.432C64.9134 43.432 65.7011 43.7777 66.0751 44.469V39.692H68.3021ZM61.9781 47.801C61.9781 48.5377 62.1707 49.1213 62.5561 49.552C62.9414 49.9713 63.4401 50.181 64.0521 50.181C64.6527 50.181 65.1457 49.9657 65.5311 49.535C65.9164 49.1043 66.1091 48.5207 66.1091 47.784C66.1091 47.0587 65.9164 46.492 65.5311 46.084C65.1457 45.6647 64.6527 45.455 64.0521 45.455C63.4514 45.455 62.9527 45.6647 62.5561 46.084C62.1707 46.5033 61.9781 47.0757 61.9781 47.801ZM77.505 52H75.125V39.947H77.505V52ZM82.8729 41.137V43.636H84.5559V45.642H82.8729V49.144C82.8729 49.4953 82.9523 49.7447 83.1109 49.892C83.2696 50.0393 83.5189 50.113 83.8589 50.113C84.1649 50.113 84.3973 50.0903 84.5559 50.045V51.915C84.2273 52.051 83.8023 52.119 83.2809 52.119C82.4649 52.119 81.8189 51.8923 81.3429 51.439C80.8669 50.9743 80.6289 50.3397 80.6289 49.535V45.642H79.1159V43.636H79.5409C79.9603 43.636 80.2776 43.517 80.4929 43.279C80.7196 43.0297 80.8329 42.7067 80.8329 42.31V41.137H82.8729ZM93.6359 43.007C92.8879 43.6983 92.5139 44.6843 92.5139 45.965C92.5139 47.2457 92.8879 48.2373 93.6359 48.94C94.3839 49.6313 95.2623 49.977 96.2709 49.977C97.2909 49.977 98.1749 49.6313 98.9229 48.94C99.6709 48.2373 100.045 47.2457 100.045 45.965C100.045 44.6843 99.6709 43.6983 98.9229 43.007C98.1749 42.3043 97.2909 41.953 96.2709 41.953C95.2623 41.953 94.3839 42.3043 93.6359 43.007ZM90.0829 45.982C90.0829 44.1007 90.6893 42.582 91.9019 41.426C93.1146 40.27 94.5709 39.692 96.2709 39.692C97.9823 39.692 99.4443 40.27 100.657 41.426C101.87 42.582 102.476 44.1007 102.476 45.982C102.476 47.852 101.87 49.365 100.657 50.521C99.4443 51.677 97.9823 52.255 96.2709 52.255C94.5709 52.255 93.1146 51.677 91.9019 50.521C90.6893 49.365 90.0829 47.852 90.0829 45.982ZM109.814 52C109.768 51.7733 109.746 51.473 109.746 51.099C109.53 51.473 109.207 51.7563 108.777 51.949C108.357 52.1303 107.91 52.221 107.434 52.221C106.448 52.221 105.671 51.9093 105.105 51.286C104.538 50.6513 104.255 49.8637 104.255 48.923V43.636H106.516V48.464C106.516 48.9627 106.646 49.3707 106.907 49.688C107.167 49.994 107.547 50.147 108.046 50.147C108.533 50.147 108.918 49.9997 109.202 49.705C109.485 49.399 109.627 48.9967 109.627 48.498V43.636H111.888V50.487C111.888 51.0197 111.916 51.524 111.973 52H109.814ZM117.089 41.137V43.636H118.772V45.642H117.089V49.144C117.089 49.4953 117.168 49.7447 117.327 49.892C117.485 50.0393 117.735 50.113 118.075 50.113C118.381 50.113 118.613 50.0903 118.772 50.045V51.915C118.443 52.051 118.018 52.119 117.497 52.119C116.681 52.119 116.035 51.8923 115.559 51.439C115.083 50.9743 114.845 50.3397 114.845 49.535V45.642H113.332V43.636H113.757C114.176 43.636 114.493 43.517 114.709 43.279C114.935 43.0297 115.049 42.7067 115.049 42.31V41.137H117.089ZM134.975 52H132.612V47.002H127.359V52H125.013V39.947H127.359V44.792H132.612V39.947H134.975V52ZM139.754 49.569C140.173 49.9883 140.677 50.198 141.267 50.198C141.856 50.198 142.355 49.9883 142.763 49.569C143.182 49.1497 143.392 48.566 143.392 47.818C143.392 47.07 143.182 46.4863 142.763 46.067C142.355 45.6477 141.856 45.438 141.267 45.438C140.677 45.438 140.173 45.6477 139.754 46.067C139.346 46.4863 139.142 47.07 139.142 47.818C139.142 48.566 139.346 49.1497 139.754 49.569ZM138.122 44.639C138.96 43.8003 140.009 43.381 141.267 43.381C142.525 43.381 143.567 43.8003 144.395 44.639C145.233 45.4777 145.653 46.5373 145.653 47.818C145.653 49.0987 145.233 50.1583 144.395 50.997C143.567 51.8357 142.525 52.255 141.267 52.255C140.009 52.255 138.96 51.8357 138.122 50.997C137.294 50.1583 136.881 49.0987 136.881 47.818C136.881 46.5373 137.294 45.4777 138.122 44.639ZM151.965 43.636H154.345L156.147 49.025L157.694 43.636H159.938L157.32 52H155.059L153.104 46.288L151.183 52H148.888L146.219 43.636H148.599L150.146 49.008L151.965 43.636ZM45.251 66.174H41.443V76H39.08V66.174H35.272V63.947H45.251V66.174ZM47.366 73.569C47.7854 73.9883 48.2897 74.198 48.879 74.198C49.4684 74.198 49.967 73.9883 50.375 73.569C50.7944 73.1497 51.004 72.566 51.004 71.818C51.004 71.07 50.7944 70.4863 50.375 70.067C49.967 69.6477 49.4684 69.438 48.879 69.438C48.2897 69.438 47.7854 69.6477 47.366 70.067C46.958 70.4863 46.754 71.07 46.754 71.818C46.754 72.566 46.958 73.1497 47.366 73.569ZM45.734 68.639C46.5727 67.8003 47.621 67.381 48.879 67.381C50.137 67.381 51.1797 67.8003 52.007 68.639C52.8457 69.4777 53.265 70.5373 53.265 71.818C53.265 73.0987 52.8457 74.1583 52.007 74.997C51.1797 75.8357 50.137 76.255 48.879 76.255C47.621 76.255 46.5727 75.8357 45.734 74.997C44.9067 74.1583 44.493 73.0987 44.493 71.818C44.493 70.5373 44.9067 69.4777 45.734 68.639ZM72.867 76H70.555V67.551L67.087 76H65.132L61.664 67.619V76H59.42V63.947H62.514L66.135 72.651L69.671 63.947H72.867V76ZM74.9099 73.722C74.9099 73.008 75.1422 72.4357 75.6069 72.005C76.0716 71.5743 76.6722 71.3023 77.4089 71.189L79.4659 70.883C79.8852 70.8263 80.0949 70.628 80.0949 70.288C80.0949 69.9707 79.9702 69.71 79.7209 69.506C79.4829 69.302 79.1372 69.2 78.6839 69.2C78.2079 69.2 77.8282 69.3303 77.5449 69.591C77.2729 69.8517 77.1199 70.1747 77.0859 70.56L75.0799 70.135C75.1592 69.4097 75.5162 68.7693 76.1509 68.214C76.7856 67.6587 77.6242 67.381 78.6669 67.381C79.9136 67.381 80.8316 67.6813 81.4209 68.282C82.0102 68.8713 82.3049 69.6307 82.3049 70.56V74.674C82.3049 75.1727 82.3389 75.6147 82.4069 76H80.3329C80.2762 75.7507 80.2479 75.4163 80.2479 74.997C79.7152 75.8243 78.8936 76.238 77.7829 76.238C76.9216 76.238 76.2246 75.9887 75.6919 75.49C75.1706 74.9913 74.9099 74.402 74.9099 73.722ZM78.2589 74.555C78.7916 74.555 79.2279 74.4077 79.5679 74.113C79.9192 73.807 80.0949 73.3083 80.0949 72.617V72.243L78.2079 72.532C77.5166 72.634 77.1709 72.9853 77.1709 73.586C77.1709 73.858 77.2672 74.0903 77.4599 74.283C77.6526 74.4643 77.9189 74.555 78.2589 74.555ZM92.693 67.636L89.344 71.155L92.761 76H89.99L87.78 72.804L86.845 73.79V76H84.584V63.692H86.845V70.747L89.735 67.636H92.693ZM95.3472 70.866H99.0872C99.0645 70.4013 98.8945 70.0103 98.5772 69.693C98.2712 69.3757 97.8179 69.217 97.2172 69.217C96.6732 69.217 96.2312 69.387 95.8912 69.727C95.5512 70.067 95.3699 70.4467 95.3472 70.866ZM99.3082 73.042L101.195 73.603C100.969 74.3737 100.521 75.0083 99.8522 75.507C99.1949 76.0057 98.3732 76.255 97.3872 76.255C96.1859 76.255 95.1659 75.8527 94.3272 75.048C93.4885 74.232 93.0692 73.144 93.0692 71.784C93.0692 70.492 93.4772 69.438 94.2932 68.622C95.1092 67.7947 96.0725 67.381 97.1832 67.381C98.4752 67.381 99.4839 67.7663 100.209 68.537C100.946 69.3077 101.314 70.3673 101.314 71.716C101.314 71.8067 101.309 71.9087 101.297 72.022C101.297 72.1353 101.297 72.226 101.297 72.294L101.28 72.413H95.2962C95.3189 72.957 95.5342 73.4103 95.9422 73.773C96.3502 74.1357 96.8375 74.317 97.4042 74.317C98.3675 74.317 99.0022 73.892 99.3082 73.042ZM120.912 76H118.6V67.551L115.132 76H113.177L109.709 67.619V76H107.465V63.947H110.559L114.18 72.651L117.716 63.947H120.912V76ZM125.692 73.569C126.112 73.9883 126.616 74.198 127.205 74.198C127.795 74.198 128.293 73.9883 128.701 73.569C129.121 73.1497 129.33 72.566 129.33 71.818C129.33 71.07 129.121 70.4863 128.701 70.067C128.293 69.6477 127.795 69.438 127.205 69.438C126.616 69.438 126.112 69.6477 125.692 70.067C125.284 70.4863 125.08 71.07 125.08 71.818C125.08 72.566 125.284 73.1497 125.692 73.569ZM124.06 68.639C124.899 67.8003 125.947 67.381 127.205 67.381C128.463 67.381 129.506 67.8003 130.333 68.639C131.172 69.4777 131.591 70.5373 131.591 71.818C131.591 73.0987 131.172 74.1583 130.333 74.997C129.506 75.8357 128.463 76.255 127.205 76.255C125.947 76.255 124.899 75.8357 124.06 74.997C123.233 74.1583 122.819 73.0987 122.819 71.818C122.819 70.5373 123.233 69.4777 124.06 68.639ZM135.637 71.189V76H133.376V67.636H135.569V68.673C135.807 68.265 136.147 67.9533 136.589 67.738C137.031 67.5227 137.496 67.415 137.983 67.415C138.969 67.415 139.717 67.7267 140.227 68.35C140.748 68.962 141.009 69.7553 141.009 70.73V76H138.748V71.121C138.748 70.6223 138.618 70.22 138.357 69.914C138.108 69.608 137.722 69.455 137.201 69.455C136.725 69.455 136.345 69.6193 136.062 69.948C135.779 70.2767 135.637 70.6903 135.637 71.189ZM144.953 70.866H148.693C148.67 70.4013 148.5 70.0103 148.183 69.693C147.877 69.3757 147.423 69.217 146.823 69.217C146.279 69.217 145.837 69.387 145.497 69.727C145.157 70.067 144.975 70.4467 144.953 70.866ZM148.914 73.042L150.801 73.603C150.574 74.3737 150.126 75.0083 149.458 75.507C148.8 76.0057 147.979 76.255 146.993 76.255C145.791 76.255 144.771 75.8527 143.933 75.048C143.094 74.232 142.675 73.144 142.675 71.784C142.675 70.492 143.083 69.438 143.899 68.622C144.715 67.7947 145.678 67.381 146.789 67.381C148.081 67.381 149.089 67.7663 149.815 68.537C150.551 69.3077 150.92 70.3673 150.92 71.716C150.92 71.8067 150.914 71.9087 150.903 72.022C150.903 72.1353 150.903 72.226 150.903 72.294L150.886 72.413H144.902C144.924 72.957 145.14 73.4103 145.548 73.773C145.956 74.1357 146.443 74.317 147.01 74.317C147.973 74.317 148.608 73.892 148.914 73.042ZM155.474 79.298H153.077L155.049 74.946L151.496 67.636H154.029L156.256 72.532L158.313 67.636H160.727L155.474 79.298ZM47.682 96.277L49.858 87.947H52.255L48.923 100H46.509L43.755 91.415L41.001 100H38.553L35.204 87.947H37.686L39.896 96.243L42.565 87.947H44.996L47.682 96.277ZM55.9328 100H53.6718V91.636H55.9328V100ZM53.3998 88.899C53.3998 88.5137 53.5358 88.185 53.8078 87.913C54.0798 87.6297 54.4085 87.488 54.7938 87.488C55.1792 87.488 55.5078 87.624 55.7798 87.896C56.0518 88.168 56.1878 88.5023 56.1878 88.899C56.1878 89.273 56.0518 89.596 55.7798 89.868C55.5078 90.14 55.1792 90.276 54.7938 90.276C54.4085 90.276 54.0798 90.14 53.8078 89.868C53.5358 89.596 53.3998 89.273 53.3998 88.899ZM61.1415 89.137V91.636H62.8245V93.642H61.1415V97.144C61.1415 97.4953 61.2208 97.7447 61.3795 97.892C61.5382 98.0393 61.7875 98.113 62.1275 98.113C62.4335 98.113 62.6658 98.0903 62.8245 98.045V99.915C62.4958 100.051 62.0708 100.119 61.5495 100.119C60.7335 100.119 60.0875 99.8923 59.6115 99.439C59.1355 98.9743 58.8975 98.3397 58.8975 97.535V93.642H57.3845V91.636H57.8095C58.2288 91.636 58.5462 91.517 58.7615 91.279C58.9882 91.0297 59.1015 90.7067 59.1015 90.31V89.137H61.1415ZM66.591 95.087V100H64.33V87.692H66.591V92.333C67.101 91.721 67.8547 91.415 68.852 91.415C69.872 91.415 70.6427 91.7267 71.164 92.35C71.6967 92.962 71.963 93.7553 71.963 94.73V100H69.702V95.121C69.702 94.6223 69.5717 94.22 69.311 93.914C69.0617 93.608 68.6764 93.455 68.155 93.455C67.6904 93.455 67.3164 93.608 67.033 93.914C66.761 94.22 66.6137 94.611 66.591 95.087ZM80.889 95.104L79.852 93.472L82.742 90.99H77.914V88.967H85.717V90.854L82.861 93.234C83.7336 93.268 84.4816 93.5967 85.105 94.22C85.7396 94.832 86.057 95.6253 86.057 96.6C86.057 97.5973 85.6716 98.4587 84.901 99.184C84.1303 99.898 83.1046 100.255 81.824 100.255C80.5886 100.255 79.5856 99.915 78.815 99.235C78.0443 98.5437 77.625 97.7107 77.557 96.736L79.818 96.294C79.8406 96.8607 80.0333 97.3253 80.396 97.688C80.77 98.0507 81.246 98.232 81.824 98.232C82.3906 98.232 82.844 98.0733 83.184 97.756C83.524 97.4387 83.694 97.042 83.694 96.566C83.694 96.056 83.524 95.6593 83.184 95.376C82.8553 95.0813 82.4246 94.934 81.892 94.934C81.5406 94.934 81.2063 94.9907 80.889 95.104ZM91.9064 100H89.5774V92.622H86.9254V91.041C87.7188 91.0297 88.3818 90.8313 88.9144 90.446C89.4471 90.0493 89.7701 89.5563 89.8834 88.967H91.9064V100ZM102.467 89.222L101.821 91.126C101.209 90.8653 100.603 90.735 100.002 90.735C99.039 90.735 98.2173 91.0127 97.5373 91.568C96.8686 92.112 96.472 92.8883 96.3473 93.897C96.574 93.557 96.914 93.268 97.3673 93.03C97.832 92.792 98.3646 92.673 98.9653 92.673C100.11 92.673 101.028 93.0073 101.719 93.676C102.422 94.3447 102.773 95.2457 102.773 96.379C102.773 97.501 102.365 98.4303 101.549 99.167C100.745 99.8923 99.7303 100.255 98.5063 100.255C97.237 100.255 96.1716 99.813 95.3103 98.929C94.4603 98.0337 94.0353 96.787 94.0353 95.189C94.0353 93.217 94.5963 91.6473 95.7183 90.48C96.8403 89.3013 98.3193 88.712 100.155 88.712C101.119 88.712 101.889 88.882 102.467 89.222ZM96.5513 96.43C96.5513 96.974 96.7383 97.4217 97.1123 97.773C97.4976 98.113 97.9566 98.283 98.4893 98.283C99.0446 98.283 99.5093 98.113 99.8833 97.773C100.257 97.433 100.444 96.9853 100.444 96.43C100.444 95.8747 100.257 95.4327 99.8833 95.104C99.5093 94.764 99.0446 94.594 98.4893 94.594C97.9453 94.594 97.4863 94.764 97.1123 95.104C96.7383 95.4327 96.5513 95.8747 96.5513 96.43Z" fill="white"/>
</svg>
