<svg width="27" height="27" viewBox="0 0 27 27" fill="none" xmlns="http://www.w3.org/2000/svg">
<circle cx="13.5" cy="13.5" r="13.5" fill="#78ABF8"/>
<g opacity="0.4">
<path d="M15.1309 14.7192H12.6309" stroke="white" stroke-width="0.75" stroke-miterlimit="10" stroke-linecap="round" stroke-linejoin="round"/>
<path d="M13.8809 13.499V15.999" stroke="white" stroke-width="0.75" stroke-miterlimit="10" stroke-linecap="round" stroke-linejoin="round"/>
</g>
<path d="M14.33 8.25905L14.315 8.29405L12.865 11.6591H11.44C11.1 11.6591 10.775 11.7291 10.48 11.8541L11.355 9.76405L11.375 9.71405L11.41 9.63405C11.42 9.60405 11.43 9.57405 11.445 9.54905C12.1 8.03405 12.84 7.68905 14.33 8.25905Z" stroke="white" stroke-width="0.75" stroke-linecap="round" stroke-linejoin="round"/>
<path d="M17.025 11.7591C16.8 11.6891 16.56 11.6591 16.32 11.6591H12.865L14.315 8.29406L14.33 8.25906C14.405 8.28406 14.475 8.31906 14.55 8.34906L15.655 8.81406C16.27 9.06906 16.7 9.33406 16.96 9.65406C17.01 9.71406 17.05 9.76906 17.085 9.83406C17.13 9.90406 17.165 9.97406 17.185 10.0491C17.205 10.0941 17.22 10.1391 17.23 10.1791C17.365 10.5991 17.285 11.1141 17.025 11.7591Z" stroke="white" stroke-width="0.75" stroke-linecap="round" stroke-linejoin="round"/>
<path d="M18.7609 14.0992V15.0742C18.7609 15.1742 18.7559 15.2742 18.7509 15.3742C18.6559 17.1192 17.6809 17.9992 15.8309 17.9992H11.9309C11.8109 17.9992 11.6909 17.9892 11.5759 17.9742C9.98586 17.8692 9.13586 17.0192 9.03086 15.4292C9.01586 15.3142 9.00586 15.1942 9.00586 15.0742V14.0992C9.00586 13.0942 9.61586 12.2292 10.4859 11.8542C10.7859 11.7292 11.1059 11.6592 11.4459 11.6592H16.3259C16.5709 11.6592 16.8109 11.6942 17.0309 11.7592C18.0259 12.0642 18.7609 12.9942 18.7609 14.0992Z" stroke="white" stroke-width="0.75" stroke-linecap="round" stroke-linejoin="round"/>
<path opacity="0.4" d="M11.355 9.76405L10.48 11.8541C9.61 12.2291 9 13.0941 9 14.0991V12.6341C9 11.2141 10.01 10.0291 11.355 9.76405Z" stroke="white" stroke-width="0.75" stroke-linecap="round" stroke-linejoin="round"/>
<path opacity="0.4" d="M18.7593 12.6338V14.0988C18.7593 12.9988 18.0293 12.0638 17.0293 11.7638C17.2893 11.1138 17.3643 10.6038 17.2393 10.1788C17.2293 10.1338 17.2143 10.0888 17.1943 10.0488C18.1243 10.5288 18.7593 11.5138 18.7593 12.6338Z" stroke="white" stroke-width="0.75" stroke-linecap="round" stroke-linejoin="round"/>
</svg>
