<svg width="100" height="43" viewBox="0 0 100 43" fill="none" xmlns="http://www.w3.org/2000/svg">
<path d="M4.10909 40V36.5192L1.32346 32.0342H2.50627L4.5967 35.4957L6.69195 32.0342H7.87476L5.08913 36.5192V40H4.10909ZM10.6297 40.1545C10.1115 40.1545 9.64643 40.0402 9.23446 39.8117C8.82249 39.5832 8.49742 39.2726 8.25925 38.88C8.02107 38.4841 7.90199 38.0383 7.90199 37.5427C7.90199 37.1757 7.96958 36.833 8.10476 36.5143C8.23993 36.1957 8.42822 35.9157 8.66961 35.6743C8.911 35.4297 9.19101 35.2398 9.50964 35.1046C9.82827 34.9695 10.1694 34.9019 10.5331 34.9019C11.0481 34.9019 11.4987 35.0081 11.8849 35.2205C12.2743 35.4329 12.5769 35.729 12.7925 36.1088C13.0114 36.4886 13.1208 36.9295 13.1208 37.4316C13.1208 37.4735 13.1192 37.5073 13.116 37.533C13.1128 37.5588 13.1063 37.5925 13.0967 37.6344H8.84823C8.84823 37.9788 8.92548 38.2829 9.07997 38.5468C9.23768 38.8108 9.45332 39.0184 9.72689 39.1696C10.0037 39.3177 10.3207 39.3917 10.678 39.3917C11.0159 39.3917 11.3184 39.3225 11.5856 39.1841C11.8527 39.0457 12.0845 38.8397 12.2808 38.5661L12.9663 38.9234C12.7314 39.3128 12.4079 39.6154 11.9959 39.831C11.5872 40.0467 11.1318 40.1545 10.6297 40.1545ZM8.89651 36.944H12.1794C12.1343 36.6898 12.0346 36.4677 11.8801 36.2778C11.7288 36.0847 11.5373 35.935 11.3056 35.8288C11.0771 35.7194 10.8244 35.6647 10.5476 35.6647C10.2579 35.6647 9.99564 35.7178 9.76068 35.824C9.52895 35.927 9.33745 36.075 9.18618 36.2681C9.03813 36.458 8.94157 36.6833 8.89651 36.944ZM16.7296 40.1545C16.2693 40.1545 15.8525 40.0418 15.4792 39.8165C15.1091 39.588 14.8146 39.2758 14.5957 38.88C14.3801 38.4841 14.2722 38.0319 14.2722 37.5233C14.2722 37.0213 14.3785 36.5739 14.5909 36.1812C14.8033 35.7853 15.0946 35.4732 15.4647 35.2446C15.8348 35.0161 16.2565 34.9019 16.7296 34.9019C17.148 34.9019 17.5294 34.9952 17.8738 35.1819C18.2214 35.3686 18.4901 35.6276 18.68 35.9591V35.0564H19.6166V40H18.68V39.0731C18.4644 39.4142 18.1876 39.6798 17.8496 39.8696C17.5117 40.0595 17.1383 40.1545 16.7296 40.1545ZM16.9806 39.3482C17.3186 39.3482 17.6163 39.271 17.8738 39.1165C18.1345 38.9588 18.3388 38.7432 18.4869 38.4696C18.6349 38.196 18.709 37.8822 18.709 37.5282C18.709 37.1741 18.6349 36.8603 18.4869 36.5868C18.3388 36.3132 18.1345 36.0992 17.8738 35.9447C17.6163 35.787 17.3186 35.7081 16.9806 35.7081C16.6459 35.7081 16.3482 35.787 16.0875 35.9447C15.8268 36.0992 15.6208 36.3132 15.4695 36.5868C15.3215 36.8603 15.2475 37.1741 15.2475 37.5282C15.2475 37.879 15.3215 38.1928 15.4695 38.4696C15.6208 38.7432 15.8268 38.9588 16.0875 39.1165C16.3482 39.271 16.6459 39.3482 16.9806 39.3482ZM21.5931 40V35.0564H22.5297V35.7805C22.6939 35.4941 22.9031 35.2768 23.1573 35.1288C23.4116 34.9775 23.6996 34.9019 24.0215 34.9019C24.176 34.9019 24.3321 34.9212 24.4898 34.9598C24.6507 34.9952 24.7891 35.0435 24.905 35.1046L24.5188 35.8964C24.419 35.8417 24.3031 35.7982 24.1712 35.766C24.0392 35.7339 23.9153 35.7178 23.7994 35.7178C23.5838 35.7178 23.3778 35.7741 23.1815 35.8867C22.9883 35.9962 22.8306 36.1394 22.7083 36.3164C22.5893 36.4934 22.5297 36.6833 22.5297 36.8861V40H21.5931ZM26.0626 40V31.6962H26.9992V40H26.0626ZM29.1417 42.5104L30.4694 39.7296L28.1182 35.0564H29.1852L31.0101 38.7979L32.6467 35.0564H33.7136L30.2038 42.5104H29.1417Z" fill="#494C54"/>
<circle cx="11.7237" cy="11.7237" r="11.7237" fill="#752CFB"/>
<path d="M11.4986 11.8993L10.8299 10.8172L13.0062 8.87196H9.41961V7.59538H14.8907V8.81117L12.7509 10.6835C13.3831 10.6997 13.9342 10.9226 14.4043 11.3522C14.8745 11.7817 15.1095 12.3572 15.1095 13.0786C15.1095 13.7919 14.842 14.3997 14.3071 14.9023C13.7721 15.4048 13.0548 15.6561 12.1551 15.6561C11.2798 15.6561 10.5706 15.417 10.0275 14.9387C9.49256 14.4524 9.20077 13.8607 9.15214 13.1637L10.5746 12.8719C10.5908 13.3258 10.7448 13.6946 11.0366 13.9783C11.3365 14.262 11.7053 14.4038 12.143 14.4038C12.605 14.4038 12.9697 14.2741 13.2372 14.0147C13.5047 13.7554 13.6384 13.4393 13.6384 13.0664C13.6384 12.645 13.4966 12.3248 13.2129 12.106C12.9373 11.879 12.6131 11.7655 12.2402 11.7655C11.9241 11.7655 11.6769 11.8101 11.4986 11.8993Z" fill="white"/>
<circle cx="29.9605" cy="11.7237" r="11.7237" fill="#FF7041"/>
<path d="M30.6878 15.4737H29.2531V10.0756H27.3443V9.07864C27.8955 9.07054 28.3575 8.92869 28.7303 8.65311C29.1032 8.36943 29.3342 8.01685 29.4233 7.59538H30.6878V15.4737Z" fill="white"/>
<circle cx="48.1974" cy="11.7237" r="11.7237" fill="#FBC12C"/>
<path d="M51.0937 7.80206L50.6803 8.99354C50.2913 8.7828 49.8414 8.67743 49.3308 8.67743C48.5851 8.67743 47.9651 8.90843 47.4706 9.37043C46.9843 9.82433 46.7088 10.4322 46.6439 11.1941C47.0492 10.57 47.7179 10.258 48.65 10.258C49.4443 10.258 50.0886 10.5011 50.5831 10.9874C51.0775 11.4737 51.3247 12.1181 51.3247 12.9205C51.3247 13.723 51.037 14.3795 50.4615 14.8901C49.886 15.4007 49.1768 15.6561 48.3339 15.6561C47.3612 15.6561 46.5912 15.3075 46.0239 14.6105C45.4646 13.9134 45.185 13.0421 45.185 11.9965C45.185 10.5943 45.5781 9.47985 46.3643 8.65311C47.1505 7.82638 48.1677 7.41301 49.4159 7.41301C50.1292 7.41301 50.6884 7.54269 51.0937 7.80206ZM46.802 12.9449C46.802 13.3825 46.9519 13.7392 47.2518 14.0147C47.5598 14.2822 47.9205 14.416 48.3339 14.416C48.7634 14.416 49.1241 14.2822 49.4159 14.0147C49.7158 13.7473 49.8658 13.3906 49.8658 12.9449C49.8658 12.4991 49.7158 12.1424 49.4159 11.875C49.1241 11.6075 48.7634 11.4737 48.3339 11.4737C47.9043 11.4737 47.5395 11.6075 47.2396 11.875C46.9479 12.1424 46.802 12.4991 46.802 12.9449Z" fill="white"/>
<path d="M67.9787 15.4737H66.4954V6.85375H67.9787V15.4737ZM71.3341 12.0573V15.4737H69.9238V9.5528H71.2977V10.3431C71.4841 10.0189 71.7313 9.77975 72.0393 9.62575C72.3554 9.46364 72.6918 9.38259 73.0484 9.38259C73.7455 9.38259 74.2764 9.60143 74.6411 10.0391C75.0058 10.4768 75.1882 11.0401 75.1882 11.7291V15.4737H73.7779V11.9722C73.7779 11.5751 73.6806 11.259 73.4861 11.0239C73.2916 10.7807 72.9836 10.6592 72.5621 10.6592C72.173 10.6592 71.8691 10.7929 71.6503 11.0604C71.4395 11.3197 71.3341 11.6521 71.3341 12.0573ZM82.1952 9.5528L79.8731 15.4737H78.4628L76.0555 9.5528H77.6117L79.1801 13.7837L80.712 9.5528H82.1952ZM84.0401 11.8628H86.9458C86.9296 11.49 86.7959 11.1779 86.5446 10.9266C86.3015 10.6754 85.9489 10.5497 85.4869 10.5497C85.0654 10.5497 84.725 10.6835 84.4656 10.951C84.2063 11.2103 84.0644 11.5143 84.0401 11.8628ZM87.1039 13.4069L88.2954 13.7837C88.1251 14.3268 87.805 14.7766 87.3349 15.1333C86.8729 15.4818 86.3015 15.6561 85.6206 15.6561C84.7777 15.6561 84.0604 15.3683 83.4687 14.7929C82.8851 14.2174 82.5933 13.4474 82.5933 12.4829C82.5933 11.5751 82.877 10.8294 83.4444 10.2458C84.0198 9.66222 84.6966 9.37043 85.4747 9.37043C86.3825 9.37043 87.0917 9.65006 87.6024 10.2093C88.113 10.7605 88.3683 11.5062 88.3683 12.4464C88.3683 12.6976 88.3561 12.8476 88.3318 12.8962H84.0036C84.0198 13.342 84.1819 13.7108 84.4899 14.0026C84.806 14.2944 85.1829 14.4403 85.6206 14.4403C86.3825 14.4403 86.8769 14.0958 87.1039 13.4069ZM89.1932 13.8689L90.4212 13.5284C90.4455 13.8121 90.563 14.0512 90.7738 14.2457C90.9845 14.4403 91.2682 14.5375 91.6248 14.5375C91.9004 14.5375 92.1152 14.4727 92.2692 14.343C92.4313 14.2133 92.5123 14.0512 92.5123 13.8567C92.5123 13.5163 92.2813 13.2974 91.8193 13.2002L90.944 13.0056C90.4333 12.8922 90.0402 12.6814 89.7647 12.3734C89.4891 12.0654 89.3513 11.7007 89.3513 11.2792C89.3513 10.7605 89.562 10.3147 89.9835 9.94185C90.405 9.5609 90.9197 9.37043 91.5276 9.37043C91.9166 9.37043 92.2611 9.42717 92.561 9.54064C92.8609 9.65411 93.0919 9.80406 93.254 9.99048C93.4242 10.1688 93.5539 10.3431 93.643 10.5133C93.7322 10.6835 93.7889 10.8537 93.8132 11.0239L92.6218 11.3643C92.5893 11.1374 92.484 10.9347 92.3057 10.7564C92.1354 10.57 91.8761 10.4768 91.5276 10.4768C91.2844 10.4768 91.0818 10.5457 90.9197 10.6835C90.7576 10.8132 90.6765 10.9712 90.6765 11.1576C90.6765 11.49 90.8751 11.6966 91.2722 11.7777L92.1719 11.9601C92.7231 12.0816 93.1446 12.3005 93.4363 12.6166C93.7281 12.9327 93.874 13.3136 93.874 13.7594C93.874 14.2539 93.6754 14.6956 93.2783 15.0846C92.8892 15.4656 92.3421 15.6561 91.637 15.6561C91.2317 15.6561 90.867 15.5953 90.5428 15.4737C90.2267 15.3521 89.9754 15.1981 89.789 15.0117C89.6107 14.8172 89.4688 14.6267 89.3634 14.4403C89.2662 14.2457 89.2094 14.0553 89.1932 13.8689ZM97.0598 7.74127V9.5528H98.2877V10.8051H97.0598V13.5527C97.0598 13.8121 97.1206 14.0026 97.2421 14.1242C97.3637 14.2376 97.5542 14.2944 97.8136 14.2944C97.9757 14.2944 98.1378 14.2782 98.2999 14.2457V15.4129C98.0891 15.5021 97.8014 15.5466 97.4367 15.5466C96.8855 15.5466 96.4519 15.3926 96.1358 15.0846C95.8197 14.7685 95.6616 14.3349 95.6616 13.7837V10.8051H94.5674V9.5528H94.8714C95.1712 9.5528 95.3982 9.46769 95.5522 9.29748C95.7062 9.12727 95.7832 8.90438 95.7832 8.6288V7.74127H97.0598Z" fill="black"/>
</svg>
