<svg width="19" height="19" viewBox="0 0 19 19" fill="none" xmlns="http://www.w3.org/2000/svg">
<path d="M4.75 7.91671V6.33337C4.75 3.71296 5.54167 1.58337 9.5 1.58337C13.4583 1.58337 14.25 3.71296 14.25 6.33337V7.91671" stroke="#5AAC4E" stroke-width="1.5" stroke-linecap="round" stroke-linejoin="round"/>
<path d="M9.50016 14.6458C10.5932 14.6458 11.4793 13.7597 11.4793 12.6667C11.4793 11.5736 10.5932 10.6875 9.50016 10.6875C8.4071 10.6875 7.521 11.5736 7.521 12.6667C7.521 13.7597 8.4071 14.6458 9.50016 14.6458Z" stroke="#5AAC4E" stroke-width="1.5" stroke-linecap="round" stroke-linejoin="round"/>
<path d="M13.4585 17.4166H5.54183C2.37516 17.4166 1.5835 16.625 1.5835 13.4583V11.875C1.5835 8.70829 2.37516 7.91663 5.54183 7.91663H13.4585C16.6252 7.91663 17.4168 8.70829 17.4168 11.875V13.4583C17.4168 16.625 16.6252 17.4166 13.4585 17.4166Z" stroke="#5AAC4E" stroke-width="1.5" stroke-linecap="round" stroke-linejoin="round"/>
</svg>
