<svg width="19" height="19" viewBox="0 0 19 19" fill="none" xmlns="http://www.w3.org/2000/svg">
<path d="M4.75 7.91665V6.33331C4.75 3.7129 5.54167 1.58331 9.5 1.58331C13.4583 1.58331 14.25 3.7129 14.25 6.33331V7.91665" stroke="#292D32" stroke-width="1.5" stroke-linecap="round" stroke-linejoin="round"/>
<path d="M9.50016 14.6458C10.5932 14.6458 11.4793 13.7597 11.4793 12.6667C11.4793 11.5736 10.5932 10.6875 9.50016 10.6875C8.4071 10.6875 7.521 11.5736 7.521 12.6667C7.521 13.7597 8.4071 14.6458 9.50016 14.6458Z" stroke="#292D32" stroke-width="1.5" stroke-linecap="round" stroke-linejoin="round"/>
<path d="M13.4585 17.4167H5.54183C2.37516 17.4167 1.5835 16.625 1.5835 13.4584V11.875C1.5835 8.70835 2.37516 7.91669 5.54183 7.91669H13.4585C16.6252 7.91669 17.4168 8.70835 17.4168 11.875V13.4584C17.4168 16.625 16.6252 17.4167 13.4585 17.4167Z" stroke="#292D32" stroke-width="1.5" stroke-linecap="round" stroke-linejoin="round"/>
</svg>
