<svg width="96" height="30" viewBox="0 0 96 30" fill="none" xmlns="http://www.w3.org/2000/svg">
<rect x="0.5" y="0.5" width="95" height="29" rx="4.5" fill="white" stroke="#EBF4EB"/>
<path d="M39.4752 19H37.8092V11.692L34.7152 19H33.2592L30.1932 11.72V19H28.5552V9.074H30.7952L34.0152 16.648L37.1932 9.074H39.4752V19ZM43.79 21.758H42.054L43.692 18.188L40.78 12.182H42.614L44.574 16.494L46.408 12.182H48.13L43.79 21.758ZM54.6122 13.638H56.3622C56.8942 13.638 57.3095 13.5027 57.6082 13.232C57.9162 12.952 58.0702 12.5787 58.0702 12.112C58.0702 11.636 57.9162 11.258 57.6082 10.978C57.3095 10.698 56.8942 10.558 56.3622 10.558H54.6122V13.638ZM56.6142 15.122H54.6122V19H52.9322V9.074H56.6142C57.5569 9.074 58.3175 9.35867 58.8962 9.928C59.4842 10.4973 59.7782 11.2207 59.7782 12.098C59.7782 12.9847 59.4842 13.7127 58.8962 14.282C58.3175 14.842 57.5569 15.122 56.6142 15.122ZM62.7287 19H61.1047V8.864H62.7287V19ZM64.3761 17.152C64.3761 16.5733 64.5628 16.1113 64.9361 15.766C65.3188 15.4113 65.8181 15.1873 66.4341 15.094L68.1841 14.828C68.5201 14.7813 68.6881 14.618 68.6881 14.338C68.6881 14.03 68.5808 13.7827 68.3661 13.596C68.1514 13.4 67.8294 13.302 67.4001 13.302C66.9894 13.302 66.6628 13.4187 66.4201 13.652C66.1774 13.876 66.0374 14.17 66.0001 14.534L64.5161 14.198C64.5814 13.582 64.8754 13.0593 65.3981 12.63C65.9208 12.1913 66.5834 11.972 67.3861 11.972C68.3754 11.972 69.1034 12.21 69.5701 12.686C70.0461 13.162 70.2841 13.7733 70.2841 14.52V17.908C70.2841 18.356 70.3121 18.72 70.3681 19H68.8561C68.8094 18.86 68.7861 18.5707 68.7861 18.132C68.3381 18.8507 67.6381 19.21 66.6861 19.21C65.9954 19.21 65.4354 19.0093 65.0061 18.608C64.5861 18.1973 64.3761 17.712 64.3761 17.152ZM66.9941 17.936C67.4981 17.936 67.9041 17.8007 68.2121 17.53C68.5294 17.25 68.6881 16.7973 68.6881 16.172V15.864L66.9101 16.13C66.3034 16.2327 66.0001 16.5407 66.0001 17.054C66.0001 17.2967 66.0888 17.5067 66.2661 17.684C66.4434 17.852 66.6861 17.936 66.9941 17.936ZM73.8713 15.066V19H72.2473V12.182H73.8293V13.092C74.0439 12.7187 74.3286 12.4433 74.6833 12.266C75.0473 12.0793 75.4346 11.986 75.8453 11.986C76.6479 11.986 77.2593 12.238 77.6793 12.742C78.0993 13.246 78.3093 13.8947 78.3093 14.688V19H76.6853V14.968C76.6853 14.5107 76.5733 14.1467 76.3493 13.876C76.1253 13.596 75.7706 13.456 75.2853 13.456C74.8373 13.456 74.4873 13.61 74.2353 13.918C73.9926 14.2167 73.8713 14.5993 73.8713 15.066ZM79.6843 17.152L81.0983 16.76C81.1263 17.0867 81.2617 17.362 81.5043 17.586C81.747 17.81 82.0737 17.922 82.4843 17.922C82.8017 17.922 83.049 17.8473 83.2263 17.698C83.413 17.5487 83.5063 17.362 83.5063 17.138C83.5063 16.746 83.2403 16.494 82.7083 16.382L81.7003 16.158C81.1123 16.0273 80.6597 15.7847 80.3423 15.43C80.025 15.0753 79.8663 14.6553 79.8663 14.17C79.8663 13.5727 80.109 13.0593 80.5943 12.63C81.0797 12.1913 81.6723 11.972 82.3723 11.972C82.8203 11.972 83.217 12.0373 83.5623 12.168C83.9077 12.2987 84.1737 12.4713 84.3603 12.686C84.5563 12.8913 84.7057 13.092 84.8083 13.288C84.911 13.484 84.9763 13.68 85.0043 13.876L83.6323 14.268C83.595 14.0067 83.4737 13.7733 83.2683 13.568C83.0723 13.3533 82.7737 13.246 82.3723 13.246C82.0923 13.246 81.859 13.3253 81.6723 13.484C81.4857 13.6333 81.3923 13.8153 81.3923 14.03C81.3923 14.4127 81.621 14.6507 82.0783 14.744L83.1143 14.954C83.749 15.094 84.2343 15.346 84.5703 15.71C84.9063 16.074 85.0743 16.5127 85.0743 17.026C85.0743 17.5953 84.8457 18.104 84.3883 18.552C83.9403 18.9907 83.3103 19.21 82.4983 19.21C82.0317 19.21 81.6117 19.14 81.2383 19C80.8743 18.86 80.585 18.6827 80.3703 18.468C80.165 18.244 80.0017 18.0247 79.8803 17.81C79.7683 17.586 79.703 17.3667 79.6843 17.152Z" fill="#5AAC4E"/>
<path d="M12.9259 19.4917C13.4042 18.9784 14.1334 19.0192 14.5534 19.5792L15.1425 20.3667C15.615 20.9909 16.3792 20.9909 16.8517 20.3667L17.4409 19.5792C17.8609 19.0192 18.59 18.9784 19.0684 19.4917C20.1067 20.6 20.9525 20.2325 20.9525 18.6809V12.1067C20.9584 9.75585 20.41 9.16669 18.205 9.16669H13.795C11.59 9.16669 11.0417 9.75585 11.0417 12.1067V18.675C11.0417 20.2325 11.8934 20.5942 12.9259 19.4917Z" stroke="#5AAC4E" stroke-width="0.875" stroke-linecap="round" stroke-linejoin="round"/>
<path d="M13.7227 14.4167H13.728" stroke="#5AAC4E" stroke-width="1.16667" stroke-linecap="round" stroke-linejoin="round"/>
<path d="M15.3574 14.4167H18.5658" stroke="#5AAC4E" stroke-width="0.875" stroke-linecap="round" stroke-linejoin="round"/>
<path d="M13.7227 12.0834H13.728" stroke="#5AAC4E" stroke-width="1.16667" stroke-linecap="round" stroke-linejoin="round"/>
<path d="M15.3574 12.0833H18.5658" stroke="#5AAC4E" stroke-width="0.875" stroke-linecap="round" stroke-linejoin="round"/>
</svg>
