<svg width="19" height="19" viewBox="0 0 19 19" fill="none" xmlns="http://www.w3.org/2000/svg">
<path d="M9.51572 2.30371C6.8953 2.30371 4.76572 4.43329 4.76572 7.05371V9.34163C4.76572 9.82454 4.55989 10.5608 4.31447 10.9725L3.40405 12.4845C2.84197 13.4187 3.22989 14.4558 4.25905 14.8041C7.67114 15.9441 11.3524 15.9441 14.7645 14.8041C15.7224 14.4875 16.142 13.3554 15.6195 12.4845L14.7091 10.9725C14.4716 10.5608 14.2657 9.82454 14.2657 9.34163V7.05371C14.2657 4.44121 12.1282 2.30371 9.51572 2.30371Z" stroke="#5AAC4E" stroke-width="1.5" stroke-miterlimit="10" stroke-linecap="round"/>
<path d="M10.9804 2.53339C10.735 2.46214 10.4817 2.40672 10.2204 2.37506C9.46044 2.28006 8.7321 2.33547 8.05127 2.53339C8.28085 1.94756 8.85085 1.53589 9.51585 1.53589C10.1809 1.53589 10.7509 1.94756 10.9804 2.53339Z" stroke="#5AAC4E" stroke-width="1.5" stroke-miterlimit="10" stroke-linecap="round" stroke-linejoin="round"/>
<path d="M11.8906 15.0891C11.8906 16.3954 10.8219 17.4641 9.51563 17.4641C8.86646 17.4641 8.26479 17.1949 7.83729 16.7674C7.40979 16.3399 7.14062 15.7383 7.14062 15.0891" stroke="#5AAC4E" stroke-width="1.5" stroke-miterlimit="10"/>
</svg>
