<svg width="51" height="27" viewBox="0 0 51 27" fill="none" xmlns="http://www.w3.org/2000/svg">
<path d="M36.0262 18V8.1H38.8342C39.4822 8.1 40.0462 8.212 40.5262 8.436C41.0062 8.66 41.3782 8.984 41.6422 9.408C41.9102 9.832 42.0442 10.348 42.0442 10.956C42.0442 11.556 41.9102 12.08 41.6422 12.528C41.3782 12.972 41.0062 13.316 40.5262 13.56C40.0462 13.804 39.4822 13.926 38.8342 13.926H37.2442V18H36.0262ZM37.2442 12.924H38.5042C38.9522 12.924 39.3462 12.848 39.6862 12.696C40.0302 12.544 40.2982 12.324 40.4902 12.036C40.6862 11.748 40.7842 11.398 40.7842 10.986C40.7842 10.57 40.6862 10.222 40.4902 9.942C40.2982 9.658 40.0302 9.444 39.6862 9.3C39.3462 9.156 38.9522 9.084 38.5042 9.084H37.2442V12.924ZM44.3231 18V8.1H49.4651V9.174H45.5411V12.504H49.3211V13.572H45.5411V16.926H49.4651V18H44.3231Z" fill="#494C54"/>
<circle cx="13.5" cy="13.5" r="13.5" fill="#24AFFE"/>
<path d="M15.3193 15.0058H12.4026" stroke="white" stroke-width="0.6" stroke-miterlimit="10" stroke-linecap="round" stroke-linejoin="round"/>
<path d="M13.861 13.5822V16.4989" stroke="white" stroke-width="0.6" stroke-miterlimit="10" stroke-linecap="round" stroke-linejoin="round"/>
<path d="M14.385 7.46893L14.3675 7.50977L12.6758 11.4356H11.0133C10.6166 11.4356 10.2375 11.5173 9.89331 11.6631L10.9141 9.22477L10.9375 9.16643L10.9783 9.0731C10.99 9.0381 11.0016 9.0031 11.0191 8.97393C11.7833 7.20643 12.6466 6.80393 14.385 7.46893Z" stroke="white" stroke-width="0.6" stroke-linecap="round" stroke-linejoin="round"/>
<path d="M17.5292 11.5523C17.2667 11.4706 16.9867 11.4356 16.7067 11.4356H12.6758L14.3675 7.50977L14.385 7.46893C14.4725 7.4981 14.5542 7.53893 14.6417 7.57393L15.9308 8.11643C16.6483 8.41393 17.15 8.7231 17.4533 9.09643C17.5117 9.16643 17.5583 9.2306 17.5992 9.30643C17.6517 9.3881 17.6925 9.46977 17.7158 9.55727C17.7392 9.60977 17.7567 9.66227 17.7683 9.70893C17.9258 10.1989 17.8325 10.7998 17.5292 11.5523Z" stroke="white" stroke-width="0.6" stroke-linecap="round" stroke-linejoin="round"/>
<path d="M19.5544 14.2824V15.4199C19.5544 15.5366 19.5485 15.6532 19.5427 15.7699C19.4319 17.8057 18.2944 18.8324 16.136 18.8324H11.586C11.446 18.8324 11.306 18.8207 11.1719 18.8032C9.31686 18.6807 8.32519 17.6891 8.20269 15.8341C8.18519 15.6999 8.17352 15.5599 8.17352 15.4199V14.2824C8.17352 13.1099 8.88519 12.1007 9.90019 11.6632C10.2502 11.5174 10.6235 11.4357 11.0202 11.4357H16.7135C16.9994 11.4357 17.2794 11.4766 17.536 11.5524C18.6969 11.9082 19.5544 12.9932 19.5544 14.2824Z" stroke="white" stroke-width="0.6" stroke-linecap="round" stroke-linejoin="round"/>
<path d="M10.9142 9.22473L9.89335 11.6631C8.87835 12.1006 8.16669 13.1097 8.16669 14.2822V12.5731C8.16669 10.9164 9.34502 9.5339 10.9142 9.22473Z" stroke="white" stroke-width="0.6" stroke-linecap="round" stroke-linejoin="round"/>
<path d="M19.5525 12.5728V14.2819C19.5525 12.9986 18.7008 11.9078 17.5342 11.5578C17.8375 10.7994 17.925 10.2044 17.7792 9.70861C17.7675 9.65611 17.75 9.60361 17.7267 9.55695C18.8117 10.1169 19.5525 11.2661 19.5525 12.5728Z" stroke="white" stroke-width="0.6" stroke-linecap="round" stroke-linejoin="round"/>
</svg>
