<svg width="78" height="27" viewBox="0 0 78 27" fill="none" xmlns="http://www.w3.org/2000/svg">
<path d="M38.827 18V8.1H41.635C42.283 8.1 42.847 8.212 43.327 8.436C43.807 8.66 44.179 8.984 44.443 9.408C44.711 9.832 44.845 10.348 44.845 10.956C44.845 11.556 44.711 12.08 44.443 12.528C44.179 12.972 43.807 13.316 43.327 13.56C42.847 13.804 42.283 13.926 41.635 13.926H40.045V18H38.827ZM40.045 12.924H41.305C41.753 12.924 42.147 12.848 42.487 12.696C42.831 12.544 43.099 12.324 43.291 12.036C43.487 11.748 43.585 11.398 43.585 10.986C43.585 10.57 43.487 10.222 43.291 9.942C43.099 9.658 42.831 9.444 42.487 9.3C42.147 9.156 41.753 9.084 41.305 9.084H40.045V12.924ZM49.2137 18.192C48.5617 18.192 47.9737 18.054 47.4497 17.778C46.9297 17.502 46.5157 17.118 46.2077 16.626C45.9037 16.134 45.7517 15.568 45.7517 14.928C45.7517 14.284 45.9037 13.718 46.2077 13.23C46.5157 12.738 46.9297 12.354 47.4497 12.078C47.9737 11.802 48.5617 11.664 49.2137 11.664C49.8657 11.664 50.4517 11.802 50.9717 12.078C51.4957 12.354 51.9097 12.738 52.2137 13.23C52.5217 13.718 52.6757 14.284 52.6757 14.928C52.6757 15.568 52.5217 16.134 52.2137 16.626C51.9097 17.118 51.4957 17.502 50.9717 17.778C50.4517 18.054 49.8657 18.192 49.2137 18.192ZM49.2197 17.178C49.6477 17.178 50.0317 17.082 50.3717 16.89C50.7117 16.698 50.9797 16.432 51.1757 16.092C51.3717 15.752 51.4697 15.364 51.4697 14.928C51.4697 14.488 51.3717 14.1 51.1757 13.764C50.9797 13.424 50.7117 13.158 50.3717 12.966C50.0317 12.774 49.6477 12.678 49.2197 12.678C48.7877 12.678 48.4017 12.774 48.0617 12.966C47.7217 13.158 47.4537 13.424 47.2577 13.764C47.0617 14.1 46.9637 14.488 46.9637 14.928C46.9637 15.364 47.0617 15.752 47.2577 16.092C47.4537 16.432 47.7217 16.698 48.0617 16.89C48.4017 17.082 48.7877 17.178 49.2197 17.178ZM57.286 18.192C56.298 18.192 55.59 17.98 55.162 17.556C54.734 17.128 54.52 16.418 54.52 15.426V11.856H55.684V15.186C55.684 15.922 55.806 16.446 56.05 16.758C56.294 17.07 56.706 17.226 57.286 17.226C57.87 17.226 58.284 17.07 58.528 16.758C58.772 16.446 58.894 15.922 58.894 15.186V11.856H60.058V15.426C60.058 16.418 59.844 17.128 59.416 17.556C58.988 17.98 58.278 18.192 57.286 18.192ZM62.3921 18V11.856H63.5561V12.648C63.7441 12.368 64.0141 12.134 64.3661 11.946C64.7181 11.758 65.1361 11.664 65.6201 11.664C66.0961 11.664 66.5081 11.764 66.8561 11.964C67.2041 12.16 67.4721 12.444 67.6601 12.816C67.8521 13.188 67.9481 13.632 67.9481 14.148V18H66.7841V14.382C66.7841 13.806 66.6461 13.364 66.3701 13.056C66.0941 12.748 65.7061 12.594 65.2061 12.594C64.8621 12.594 64.5661 12.664 64.3181 12.804C64.0741 12.94 63.8861 13.124 63.7541 13.356C63.6221 13.584 63.5561 13.834 63.5561 14.106V18H62.3921ZM72.8885 18.192C72.3205 18.192 71.8045 18.052 71.3405 17.772C70.8805 17.492 70.5145 17.106 70.2425 16.614C69.9745 16.122 69.8405 15.56 69.8405 14.928C69.8405 14.3 69.9725 13.742 70.2365 13.254C70.5045 12.762 70.8685 12.374 71.3285 12.09C71.7925 11.806 72.3205 11.664 72.9125 11.664C73.4245 11.664 73.8905 11.78 74.3105 12.012C74.7345 12.244 75.0705 12.566 75.3185 12.978V7.674H76.4825V18H75.3185V16.848C75.0545 17.268 74.7105 17.598 74.2865 17.838C73.8625 18.074 73.3965 18.192 72.8885 18.192ZM73.2005 17.19C73.6205 17.19 73.9925 17.094 74.3165 16.902C74.6405 16.706 74.8945 16.438 75.0785 16.098C75.2625 15.758 75.3545 15.37 75.3545 14.934C75.3545 14.494 75.2625 14.104 75.0785 13.764C74.8945 13.42 74.6405 13.152 74.3165 12.96C73.9925 12.764 73.6225 12.666 73.2065 12.666C72.7905 12.666 72.4205 12.764 72.0965 12.96C71.7725 13.152 71.5165 13.42 71.3285 13.764C71.1445 14.104 71.0525 14.494 71.0525 14.934C71.0525 15.37 71.1445 15.758 71.3285 16.098C71.5125 16.438 71.7665 16.706 72.0905 16.902C72.4145 17.094 72.7845 17.19 73.2005 17.19Z" fill="#494C54"/>
<circle cx="13.5" cy="13.5" r="13.5" fill="#752CFB"/>
<path d="M15.3131 19.18C14.9891 19.18 14.6871 19.132 14.4071 19.036C14.1271 18.944 13.8571 18.838 13.5971 18.718C13.3411 18.598 13.0891 18.492 12.8411 18.4C12.5931 18.304 12.3391 18.256 12.0791 18.256C11.8911 18.256 11.7131 18.286 11.5451 18.346C11.3811 18.406 11.2451 18.492 11.1371 18.604C11.0331 18.712 10.9711 18.844 10.9511 19H9.93108C9.93908 18.712 10.0171 18.448 10.1651 18.208C10.3171 17.964 10.5211 17.766 10.7771 17.614C11.0371 17.462 11.3291 17.378 11.6531 17.362C11.7171 17.222 11.7711 17.054 11.8151 16.858C11.8591 16.662 11.8811 16.466 11.8811 16.27C11.8811 16.07 11.8551 15.894 11.8031 15.742C11.7551 15.59 11.6931 15.45 11.6171 15.322H9.71508V14.632H11.2811C11.0611 14.292 10.8671 13.924 10.6991 13.528C10.5311 13.128 10.4471 12.668 10.4471 12.148C10.4471 11.492 10.5851 10.922 10.8611 10.438C11.1411 9.954 11.5251 9.58 12.0131 9.316C12.5051 9.048 13.0711 8.914 13.7111 8.914C14.2631 8.914 14.7631 9.014 15.2111 9.214C15.6631 9.41 16.0411 9.69 16.3451 10.054C16.6531 10.418 16.8671 10.85 16.9871 11.35L15.9791 11.806C15.9071 11.482 15.7791 11.178 15.5951 10.894C15.4151 10.606 15.1691 10.372 14.8571 10.192C14.5491 10.012 14.1651 9.922 13.7051 9.922C13.2691 9.922 12.8931 10.012 12.5771 10.192C12.2611 10.372 12.0171 10.626 11.8451 10.954C11.6771 11.278 11.5931 11.664 11.5931 12.112C11.5931 12.432 11.6331 12.734 11.7131 13.018C11.7931 13.302 11.8971 13.576 12.0251 13.84C12.1531 14.1 12.2851 14.364 12.4211 14.632H15.1991V15.322H12.6431C12.7191 15.466 12.7771 15.614 12.8171 15.766C12.8571 15.914 12.8771 16.082 12.8771 16.27C12.8771 16.446 12.8571 16.634 12.8171 16.834C12.7771 17.034 12.7091 17.238 12.6131 17.446C12.8291 17.458 13.0431 17.504 13.2551 17.584C13.4671 17.664 13.6771 17.752 13.8851 17.848C14.0971 17.944 14.3111 18.03 14.5271 18.106C14.7431 18.178 14.9651 18.214 15.1931 18.214C15.4811 18.214 15.7231 18.154 15.9191 18.034C16.1151 17.914 16.2671 17.756 16.3751 17.56C16.4871 17.36 16.5571 17.142 16.5851 16.906L17.5151 17.362C17.4551 17.71 17.3271 18.022 17.1311 18.298C16.9351 18.57 16.6831 18.786 16.3751 18.946C16.0671 19.102 15.7131 19.18 15.3131 19.18Z" fill="white"/>
</svg>
