<svg width="41" height="37" viewBox="0 0 41 37" fill="none" xmlns="http://www.w3.org/2000/svg">
<g opacity="0.4">
<path d="M30.2477 1.49998L24.0977 7.64998" stroke="white" stroke-width="1.5" stroke-linecap="round" stroke-linejoin="round"/>
<path d="M23.4971 4.62742V8.24992H27.1196" stroke="white" stroke-width="1.5" stroke-linecap="round" stroke-linejoin="round"/>
</g>
<path d="M21.9971 1.49998H20.4971C16.7471 1.49998 15.2471 2.99998 15.2471 6.74998V11.25C15.2471 15 16.7471 16.5 20.4971 16.5H24.9971C28.7471 16.5 30.2471 15 30.2471 11.25V9.74998" stroke="white" stroke-width="1.5" stroke-linecap="round" stroke-linejoin="round"/>
<path d="M5.05952 34L3.42052 30.92H2.45252V34H1.12152V26.201H4.11352C4.84686 26.201 5.43719 26.4283 5.88452 26.883C6.33186 27.3303 6.55552 27.8913 6.55552 28.566C6.55552 29.1233 6.39786 29.6 6.08252 29.996C5.76719 30.392 5.33819 30.656 4.79552 30.788L6.55552 34H5.05952ZM2.45252 29.754H3.87152C4.27486 29.754 4.59752 29.6476 4.83952 29.435C5.08886 29.215 5.21352 28.9253 5.21352 28.566C5.21352 28.1993 5.08886 27.9096 4.83952 27.697C4.59752 27.477 4.27486 27.367 3.87152 27.367H2.45252V29.754ZM8.56268 30.733H11.1917C11.177 30.3956 11.056 30.1133 10.8287 29.886C10.6087 29.6586 10.2897 29.545 9.87168 29.545C9.49035 29.545 9.18235 29.666 8.94768 29.908C8.71301 30.1426 8.58468 30.4176 8.56268 30.733ZM11.3347 32.13L12.4127 32.471C12.2587 32.9623 11.969 33.3693 11.5437 33.692C11.1257 34.0073 10.6087 34.165 9.99268 34.165C9.23001 34.165 8.58101 33.9046 8.04568 33.384C7.51768 32.8633 7.25368 32.1666 7.25368 31.294C7.25368 30.4726 7.51035 29.798 8.02368 29.27C8.54435 28.742 9.15668 28.478 9.86068 28.478C10.682 28.478 11.3237 28.731 11.7857 29.237C12.2477 29.7356 12.4787 30.4103 12.4787 31.261C12.4787 31.4883 12.4677 31.624 12.4457 31.668H8.52968C8.54435 32.0713 8.69101 32.405 8.96968 32.669C9.25568 32.933 9.59668 33.065 9.99268 33.065C10.682 33.065 11.1293 32.7533 11.3347 32.13ZM18.681 36.09H17.427V33.362C17.141 33.8753 16.6167 34.132 15.854 34.132C15.0987 34.132 14.479 33.8643 13.995 33.329C13.5184 32.7863 13.28 32.1116 13.28 31.305C13.28 30.513 13.511 29.8493 13.973 29.314C14.4424 28.7786 15.0584 28.511 15.821 28.511C16.2464 28.511 16.5984 28.5953 16.877 28.764C17.1557 28.9326 17.35 29.1306 17.46 29.358V28.643H18.681V36.09ZM14.963 30.095C14.699 30.3956 14.567 30.799 14.567 31.305C14.567 31.811 14.699 32.2216 14.963 32.537C15.2344 32.8523 15.579 33.01 15.997 33.01C16.415 33.01 16.7597 32.8523 17.031 32.537C17.3024 32.2216 17.438 31.811 17.438 31.305C17.438 30.799 17.3024 30.3956 17.031 30.095C16.767 29.7943 16.4224 29.644 15.997 29.644C15.5717 29.644 15.227 29.7943 14.963 30.095ZM23.7378 33.406C23.6131 33.6406 23.4078 33.824 23.1218 33.956C22.8431 34.088 22.5424 34.154 22.2198 34.154C21.5964 34.154 21.1014 33.9523 20.7348 33.549C20.3754 33.1456 20.1958 32.636 20.1958 32.02V28.643H21.4718V31.789C21.4718 32.1483 21.5598 32.4416 21.7358 32.669C21.9118 32.8963 22.1831 33.01 22.5498 33.01C22.9091 33.01 23.1841 32.9 23.3748 32.68C23.5728 32.46 23.6718 32.1703 23.6718 31.811V28.643H24.9478V33.021C24.9478 33.3436 24.9661 33.67 25.0028 34H23.7818C23.7524 33.8386 23.7378 33.6406 23.7378 33.406ZM27.4582 30.733H30.0872C30.0725 30.3956 29.9515 30.1133 29.7242 29.886C29.5042 29.6586 29.1852 29.545 28.7672 29.545C28.3859 29.545 28.0779 29.666 27.8432 29.908C27.6085 30.1426 27.4802 30.4176 27.4582 30.733ZM30.2302 32.13L31.3082 32.471C31.1542 32.9623 30.8645 33.3693 30.4392 33.692C30.0212 34.0073 29.5042 34.165 28.8882 34.165C28.1255 34.165 27.4765 33.9046 26.9412 33.384C26.4132 32.8633 26.1492 32.1666 26.1492 31.294C26.1492 30.4726 26.4059 29.798 26.9192 29.27C27.4399 28.742 28.0522 28.478 28.7562 28.478C29.5775 28.478 30.2192 28.731 30.6812 29.237C31.1432 29.7356 31.3742 30.4103 31.3742 31.261C31.3742 31.4883 31.3632 31.624 31.3412 31.668H27.4252C27.4399 32.0713 27.5865 32.405 27.8652 32.669C28.1512 32.933 28.4922 33.065 28.8882 33.065C29.5775 33.065 30.0249 32.7533 30.2302 32.13ZM32.1206 32.548L33.2316 32.24C33.2536 32.4966 33.3599 32.713 33.5506 32.889C33.7412 33.065 33.9979 33.153 34.3206 33.153C34.5699 33.153 34.7642 33.0943 34.9036 32.977C35.0502 32.8596 35.1236 32.713 35.1236 32.537C35.1236 32.229 34.9146 32.031 34.4966 31.943L33.7046 31.767C33.2426 31.6643 32.8869 31.4736 32.6376 31.195C32.3882 30.9163 32.2636 30.5863 32.2636 30.205C32.2636 29.7356 32.4542 29.3323 32.8356 28.995C33.2169 28.6503 33.6826 28.478 34.2326 28.478C34.5846 28.478 34.8962 28.5293 35.1676 28.632C35.4389 28.7346 35.6479 28.8703 35.7946 29.039C35.9486 29.2003 36.0659 29.358 36.1466 29.512C36.2272 29.666 36.2786 29.82 36.3006 29.974L35.2226 30.282C35.1932 30.0766 35.0979 29.8933 34.9366 29.732C34.7826 29.5633 34.5479 29.479 34.2326 29.479C34.0126 29.479 33.8292 29.5413 33.6826 29.666C33.5359 29.7833 33.4626 29.9263 33.4626 30.095C33.4626 30.3956 33.6422 30.5826 34.0016 30.656L34.8156 30.821C35.3142 30.931 35.6956 31.129 35.9596 31.415C36.2236 31.701 36.3556 32.0456 36.3556 32.449C36.3556 32.8963 36.1759 33.296 35.8166 33.648C35.4646 33.9926 34.9696 34.165 34.3316 34.165C33.9649 34.165 33.6349 34.11 33.3416 34C33.0556 33.89 32.8282 33.7506 32.6596 33.582C32.4982 33.406 32.3699 33.2336 32.2746 33.065C32.1866 32.889 32.1352 32.7166 32.1206 32.548ZM39.2379 27.004V28.643H40.3489V29.776H39.2379V32.262C39.2379 32.4966 39.2929 32.669 39.4029 32.779C39.5129 32.8816 39.6852 32.933 39.9199 32.933C40.0666 32.933 40.2132 32.9183 40.3599 32.889V33.945C40.1692 34.0256 39.9089 34.066 39.5789 34.066C39.0802 34.066 38.6879 33.9266 38.4019 33.648C38.1159 33.362 37.9729 32.9696 37.9729 32.471V29.776H36.9829V28.643H37.2579C37.5292 28.643 37.7346 28.566 37.8739 28.412C38.0132 28.258 38.0829 28.0563 38.0829 27.807V27.004H39.2379Z" fill="white"/>
</svg>
