<svg width="19" height="19" viewBox="0 0 19 19" fill="none" xmlns="http://www.w3.org/2000/svg">
<path d="M13.4545 3.16669H5.53782C2.50574 3.16669 1.65865 3.89502 1.5874 6.72919C3.11532 6.72919 4.35032 7.9721 4.35032 9.50002C4.35032 11.0279 3.11532 12.2629 1.5874 12.2709C1.65865 15.105 2.50574 15.8334 5.53782 15.8334H13.4545C16.6212 15.8334 17.4128 15.0417 17.4128 11.875V7.12502C17.4128 3.95835 16.6212 3.16669 13.4545 3.16669Z" stroke="#5AAC4E" stroke-width="1.5" stroke-linecap="round" stroke-linejoin="round"/>
<path d="M7.11963 3.16669V5.93752" stroke="#5AAC4E" stroke-width="1.5" stroke-linecap="round" stroke-linejoin="round"/>
<path d="M7.11963 13.0625V15.8333" stroke="#5AAC4E" stroke-width="1.5" stroke-linecap="round" stroke-linejoin="round"/>
<path d="M11.895 7.38627L12.3858 8.37586C12.4333 8.47086 12.5283 8.54211 12.6313 8.55794L13.7238 8.71627C13.9929 8.75586 14.1038 9.08836 13.9058 9.27836L13.1142 10.0463C13.035 10.1175 13.0033 10.2284 13.0192 10.3392L13.2092 11.4238C13.2567 11.6929 12.9717 11.8988 12.7342 11.7721L11.7604 11.2575C11.6654 11.21 11.5467 11.21 11.4517 11.2575L10.4779 11.7721C10.2325 11.8988 9.95542 11.6929 10.0029 11.4238L10.1929 10.3392C10.2088 10.2284 10.1771 10.1254 10.0979 10.0463L9.31418 9.27836C9.11626 9.08836 9.22709 8.75586 9.49626 8.71627L10.5888 8.55794C10.6996 8.54211 10.7867 8.47877 10.8342 8.37586L11.3171 7.38627C11.4279 7.14086 11.7763 7.14086 11.895 7.38627Z" stroke="#5AAC4E" stroke-width="1.5" stroke-linecap="round" stroke-linejoin="round"/>
</svg>
