<svg width="327" height="579" viewBox="0 0 327 579" fill="none" xmlns="http://www.w3.org/2000/svg">
<mask id="mask0_2899_8077" style="mask-type:alpha" maskUnits="userSpaceOnUse" x="0" y="0" width="327" height="579">
<path d="M0 25C0 11.1929 11.1929 0 25 0H302C315.807 0 327 11.1929 327 25V573C327 576.314 324.314 579 321 579H6C2.6863 579 0 576.314 0 573V25Z" fill="white"/>
</mask>
<g mask="url(#mask0_2899_8077)">
<path d="M55.0357 53.4534V53.4853C55.0357 53.5705 55.0304 53.6503 55.0197 53.7248C54.9665 53.9377 54.8867 54.1293 54.7803 54.2996C54.2374 53.2299 52.8484 52.3198 51.9384 51.793C49.7671 50.5636 45.5043 48.536 45.5522 46.8117C45.5522 46.5243 45.6639 46.2689 45.9194 45.9975C46.9731 47.4823 50.1822 49.0469 51.9703 50.0687C53.1358 50.7233 55.0517 52.0165 55.0357 53.4534Z" fill="url(#paint0_linear_2899_8077)"/>
<path d="M55.0357 53.4853L55.0038 55.1138L54.9878 55.3054C54.9878 55.3586 54.9825 55.4118 54.9719 55.465C54.6845 56.9019 52.5611 57.1734 51.3158 57.6843C49.6234 58.259 48.1546 59.2808 47.6756 60.5421C47.5692 60.7869 47.5106 61.0424 47.5 61.3084L47.5319 59.5842C47.6277 57.9716 49.3201 56.6305 51.3477 55.944C52.4174 55.5129 54.1257 55.2575 54.7803 54.2996C54.8867 54.1293 54.9666 53.9377 55.0198 53.7248C55.0304 53.6503 55.0357 53.5705 55.0357 53.4853Z" fill="url(#paint1_linear_2899_8077)"/>
<path d="M53.2477 67.9341V67.9501C53.2477 68.2535 53.1838 68.6047 53.0561 69.0038C52.609 70.2971 50.789 72.1012 50.2142 73.8254C50.1184 74.1288 50.0545 74.4321 50.0386 74.7195L50.0865 72.9952C50.1503 71.0315 52.5771 68.7963 53.088 67.2636C53.0986 67.2423 53.104 67.221 53.104 67.1997C53.1891 66.9443 53.2423 66.7048 53.2636 66.4813L53.2477 67.9341Z" fill="url(#paint2_linear_2899_8077)"/>
<path d="M53.2639 66.4813C53.2426 66.7048 53.1894 66.9443 53.1043 67.1997C52.5135 65.7149 50.1506 65.236 48.6818 63.847C47.8516 63.0327 47.5003 62.2344 47.4844 61.4841C47.4844 61.4308 47.4897 61.3723 47.5003 61.3084C47.511 61.0424 47.5695 60.7869 47.676 60.5421C47.8356 61.053 48.1709 61.5799 48.7137 62.1067C50.4859 63.7831 53.5194 64.1343 53.2639 66.4813Z" fill="url(#paint3_linear_2899_8077)"/>
<path d="M53.1196 40.3297V40.3776C53.1036 40.649 53.0398 40.9364 52.8641 41.2397C52.0659 39.723 49.1921 38.6373 48.2341 36.6416L48.2661 34.9174C49.3996 37.2483 53.1356 38.35 53.1196 40.3297V40.3297Z" fill="url(#paint4_linear_2899_8077)"/>
<path d="M53.1199 40.3776L53.088 42.1178C53.072 42.4371 52.9603 42.7724 52.7367 43.1396C51.9544 44.4648 48.2983 44.5127 46.4623 45.5983C46.2388 45.726 46.0578 45.8591 45.9195 45.9975C45.664 46.2689 45.5522 46.5243 45.5522 46.8117L45.5842 45.0715C45.6001 44.6404 45.8716 44.2412 46.5102 43.8581C48.3462 42.7884 52.0023 42.7245 52.7687 41.4153C52.8113 41.3621 52.8432 41.3036 52.8645 41.2397C53.0401 40.9364 53.104 40.649 53.1199 40.3776V40.3776Z" fill="url(#paint5_linear_2899_8077)"/>
<path d="M255.959 67.2006V70.8695V71.139C255.897 72.507 254.819 73.5642 253.451 74.9322V71.1183C254.239 70.3513 254.902 69.6673 255.358 68.9833C255.731 68.4236 255.959 67.8432 255.959 67.2006V67.2006Z" fill="url(#paint6_linear_2899_8077)"/>
<path d="M235.462 41.7666V41.7825C235.462 42.3094 235.303 42.8842 235.015 43.4749C233.483 41.7506 228.262 40.8885 228.166 38.334V38.1903C228.198 37.7592 228.342 37.2962 228.677 36.7694C228.688 36.7481 228.704 36.7215 228.725 36.6895C230.337 38.5575 234.919 39.3717 235.398 41.2078C235.441 41.3887 235.462 41.575 235.462 41.7666V41.7666Z" fill="url(#paint7_linear_2899_8077)"/>
<path d="M235.462 41.7826V44.5925V44.8639C235.382 46.5243 233.722 48.536 232.173 50.7871C231.072 52.3677 230.417 53.629 230.082 54.6508C229.89 55.2415 229.794 55.7365 229.794 56.1995V53.2299C229.81 51.9846 230.465 50.3082 232.173 47.8335C233.259 46.2529 234.408 44.7841 235.015 43.4749C235.303 42.8842 235.462 42.3094 235.462 41.7826V41.7826Z" fill="url(#paint8_linear_2899_8077)"/>
<path d="M234.552 61.0689C234.552 61.5639 234.377 62.0109 234.089 62.442C233.834 61.979 233.467 61.4521 232.956 60.8614C231.63 59.2808 229.826 58.4027 229.794 56.3272V56.1994C229.794 55.7364 229.89 55.2415 230.082 54.6508C230.641 55.8961 231.934 56.7103 232.956 57.9078C234.105 59.2648 234.552 60.2387 234.552 61.0689V61.0689Z" fill="url(#paint9_linear_2899_8077)"/>
<path d="M233.211 24.1406V27.0942C233.211 27.0942 232.254 31.0218 228.725 36.6895C228.704 36.7215 228.688 36.7481 228.677 36.7694C228.342 37.2962 228.198 37.7592 228.166 38.1903V35.3963C228.15 34.9333 228.31 34.4224 228.677 33.8317C232.238 28.116 233.211 24.1406 233.211 24.1406V24.1406Z" fill="url(#paint10_linear_2899_8077)"/>
<path d="M168.33 23.7398L168.321 24.8186V24.9438C168.224 26.2152 165.171 26.8124 164.343 27.9104C164.227 28.0742 164.16 28.2476 164.15 28.4306V27.3518C164.092 26.0129 167.319 25.4157 168.138 24.2695C168.253 24.1058 168.321 23.9324 168.33 23.7398Z" fill="url(#paint11_linear_2899_8077)"/>
<path d="M166.124 34.0942C165.286 34.7684 164.689 35.5005 164.468 36.2132C164.416 36.393 164.387 36.5696 164.381 36.743V35.8183L164.39 35.4619C164.477 34.6336 165.123 33.7474 166.124 32.948C166.789 32.4375 167.656 32.0715 168.06 31.6188C168.186 31.4839 168.263 31.3491 168.291 31.1949V32.11C168.436 32.9383 167.087 33.3621 166.124 34.0942V34.0942Z" fill="url(#paint12_linear_2899_8077)"/>
<path d="M168.291 31.195C168.263 31.3491 168.185 31.4839 168.06 31.6188C168.035 31.5803 168.006 31.5417 167.974 31.5032C167.193 30.6171 165.354 30.251 164.573 29.3553C164.285 29.0374 164.159 28.7581 164.15 28.498V28.4306C164.159 28.2476 164.227 28.0742 164.342 27.9105C164.407 28.0068 164.484 28.1063 164.573 28.2091C165.354 29.0952 167.193 29.4612 167.974 30.357C168.166 30.5785 168.263 30.7808 168.291 30.9542C168.304 31.0377 168.304 31.1179 168.291 31.195V31.195Z" fill="url(#paint13_linear_2899_8077)"/>
<path d="M168.33 23.7205V23.7398C168.32 23.9324 168.253 24.1058 168.137 24.2695C167.02 22.189 162.792 22.3239 162.05 20.5516C161.979 20.3782 161.944 20.2048 161.944 20.0315C161.944 19.8388 161.992 19.6365 162.069 19.4439C162.907 21.2451 167.396 21.0428 168.263 23.393C168.308 23.5086 168.33 23.6178 168.33 23.7205V23.7205Z" fill="url(#paint14_linear_2899_8077)"/>
<path d="M167.001 38.053V39.2088C165.103 38.6213 164.342 37.7255 164.381 36.743C164.387 36.5697 164.416 36.3931 164.468 36.2133C164.728 36.9453 165.518 37.5907 167.001 38.053V38.053Z" fill="url(#paint15_linear_2899_8077)"/>
<path d="M167.877 14.6568V15.8126C166.433 16.2364 162.792 17.7294 162.069 19.4439C161.992 19.6366 161.944 19.8388 161.944 20.0315V18.8853C161.944 16.93 166.269 15.1384 167.877 14.6568V14.6568Z" fill="url(#paint16_linear_2899_8077)"/>
<path d="M114.603 64.8528V67.7905C113.549 64.8368 112.448 65.0603 110.532 63.3999C109.271 62.2664 108.728 61.5479 108.856 60.2866V57.9876C108.888 58.3389 108.999 58.6422 109.175 58.9615C109.446 59.4405 109.893 59.9035 110.532 60.4623C112.448 62.1227 113.549 61.8992 114.603 64.8528Z" fill="url(#paint17_linear_2899_8077)"/>
<path d="M112.895 49.7334V52.6551C112.863 52.256 112.719 51.8249 112.448 51.3619C112.256 51.0106 111.969 50.6594 111.602 50.2603C110.388 49.0309 109.223 48.6956 109.175 47.5621V47.3066L109.207 44.6085C109.239 45.0555 109.431 45.3748 109.718 45.6781C110.165 46.1412 110.867 46.5722 111.602 47.3226C112.464 48.2326 112.847 49.015 112.895 49.7334V49.7334Z" fill="url(#paint18_linear_2899_8077)"/>
<path d="M112.895 41.0482C112.081 42.6607 110.548 44.1135 109.718 45.6782C109.43 45.3748 109.239 45.0555 109.207 44.6085C109.207 44.502 109.212 44.3903 109.223 44.2732C109.239 44.0018 109.319 43.6984 109.43 43.3472C110.053 41.5112 111.969 39.9465 112.895 38.1105C113.225 37.4825 113.47 36.8918 113.629 36.3383C113.736 36.6683 113.8 37.0142 113.821 37.3761C113.917 38.4298 113.645 39.6432 112.895 41.0482V41.0482Z" fill="url(#paint19_linear_2899_8077)"/>
<path d="M109.175 58.9615C108.999 58.6422 108.887 58.3388 108.856 57.9876C108.808 57.4927 108.887 56.9339 109.095 56.2154C109.75 54.2037 111.602 52.8467 112.448 51.3619C112.719 51.8249 112.863 52.2559 112.895 52.6551C113.038 54.8583 110.133 56.3591 109.175 58.9615Z" fill="url(#paint20_linear_2899_8077)"/>
<path d="M113.821 34.4384V37.376C113.799 37.0142 113.735 36.6682 113.629 36.3383C112.767 33.7199 109.526 32.1393 105.981 31.0058V28.0681C109.957 29.3454 113.565 31.1814 113.821 34.4384Z" fill="url(#paint21_linear_2899_8077)"/>
<path d="M273.748 44.9917V46.8437C273.748 47.7058 273.237 48.5679 272.471 49.2545C272.088 49.6057 271.641 49.909 271.178 50.1485C270.284 50.5956 269.278 50.8031 268.416 50.6275C268 50.5477 267.841 50.4199 267.841 50.2922V48.4402C267.841 48.5679 268.016 48.6957 268.416 48.7755C269.278 48.9511 270.284 48.7436 271.178 48.2965C272.231 47.7537 273.157 46.8916 273.541 45.9496C273.668 45.6303 273.748 45.311 273.748 44.9917V44.9917Z" fill="url(#paint22_linear_2899_8077)"/>
<path d="M273.748 44.9757V44.9916C273.748 45.311 273.668 45.6303 273.541 45.9496C273.349 45.5345 273.03 45.1513 272.535 44.8001V42.9481C273.381 43.5548 273.748 44.2732 273.748 44.9757Z" fill="url(#paint23_linear_2899_8077)"/>
<path d="M273.381 51.4737V53.3416C273.365 54.0441 273.061 54.7147 272.598 55.2735C272.327 55.5928 271.992 55.8802 271.624 56.1196C270.666 56.7583 269.405 57.0935 268.176 56.9019C267.569 56.8062 267.298 56.6146 267.282 56.3751V54.5231C267.298 54.7626 267.569 54.9542 268.176 55.0499C269.405 55.2415 270.666 54.9063 271.624 54.2676C272.375 53.7727 272.965 53.1021 273.221 52.3358C273.274 52.1974 273.311 52.0537 273.333 51.9047C273.365 51.7664 273.381 51.6227 273.381 51.4737V51.4737Z" fill="url(#paint24_linear_2899_8077)"/>
<path d="M273.62 58.3069C273.588 58.5198 273.546 58.722 273.492 58.9136C273.461 58.8284 273.429 58.7433 273.397 58.6581C272.95 57.4448 272.311 56.6305 271.625 56.1196C271.992 55.8801 272.327 55.5928 272.598 55.2735C272.902 55.6886 273.173 56.1995 273.397 56.8061C273.514 57.1042 273.583 57.3862 273.604 57.6523C273.636 57.8758 273.641 58.094 273.62 58.3069Z" fill="url(#paint25_linear_2899_8077)"/>
<path d="M273.381 51.3619V51.4737C273.381 51.6227 273.365 51.7664 273.333 51.9047C273.312 52.0537 273.274 52.1974 273.221 52.3358C273.136 52.0803 273.008 51.8249 272.838 51.5694C272.359 50.8829 271.784 50.4199 271.177 50.1485C271.64 49.909 272.088 49.6057 272.471 49.2544C272.598 49.3928 272.721 49.5471 272.838 49.7174C273.077 50.0687 273.221 50.4199 273.317 50.7712C273.359 50.9734 273.381 51.1703 273.381 51.3619V51.3619Z" fill="url(#paint26_linear_2899_8077)"/>
<path d="M271.178 48.2965C270.284 48.7435 269.278 48.9511 268.416 48.7755C268.016 48.6956 267.841 48.5679 267.841 48.4402C267.841 48.0251 269.565 47.5621 271.178 48.2965V48.2965Z" fill="url(#paint27_linear_2899_8077)"/>
<path d="M271.625 54.2676C270.667 54.9063 269.405 55.2415 268.176 55.0499C267.569 54.9542 267.298 54.7626 267.282 54.5231C267.202 53.7887 269.629 52.7509 271.625 54.2676V54.2676Z" fill="url(#paint28_linear_2899_8077)"/>
<path d="M273.62 60.0631C273.397 63.2083 268.272 65.1561 267.41 68.3812V66.5292C268.208 63.5436 272.63 61.6597 273.493 58.9136C273.546 58.722 273.588 58.5198 273.62 58.3069V59.6001V60.0631Z" fill="url(#paint29_linear_2899_8077)"/>
<path d="M156.775 42.928C157.169 42.6585 157.584 42.2647 157.936 41.5807C159.345 43.156 160.278 44.0473 161.999 45.3325C161.791 46.7005 161.356 47.2602 160.361 48.0893C159.221 45.975 158.433 44.6899 156.775 42.928V42.928Z" fill="url(#paint30_linear_2899_8077)"/>
<path d="M109.93 25.9931C109.784 25.2676 109.598 24.853 109.142 24.3763C111.173 23.2777 112.831 22.1584 114.013 20.7903C114.635 21.35 114.987 21.7024 115.091 22.3449C113.308 24.169 112.147 24.9567 109.93 25.9931V25.9931Z" fill="url(#paint31_linear_2899_8077)"/>
<path d="M223.022 23.3813C223.665 22.2827 224.142 21.6194 225.075 20.8732C225.883 21.6194 226.733 22.0547 228.287 22.3242C227.914 23.713 227.52 24.3763 226.608 25.2261C225.303 24.2934 224.391 23.7752 223.022 23.3813V23.3813Z" fill="url(#paint32_linear_2899_8077)"/>
<path d="M279.527 70.2684C281.393 70.1026 282.533 70.3513 284.357 71.0146C284.73 72.362 284.709 73.3777 284.357 74.4555C282.077 73.2326 280.937 73.1082 279.9 73.3984C280.046 72.0303 280.025 71.3048 279.527 70.2684Z" fill="url(#paint33_linear_2899_8077)"/>
<path d="M107.795 61.4797C106.53 61.915 105.888 62.3295 104.996 63.3038C104.437 62.9099 104.105 62.4539 103.815 61.6248C104.499 60.7542 105.431 60.236 106.654 59.7385C106.696 60.5262 107.048 60.9615 107.795 61.4797V61.4797Z" fill="url(#paint34_linear_2899_8077)"/>
<path d="M35.4326 17.308C34.0645 17.6189 33.0488 17.764 32.199 17.6811C31.8673 17.2251 31.7637 16.6862 31.7637 16.085C33.0281 16.0643 33.7328 15.9399 34.8936 15.5047C34.6656 16.1887 34.8522 16.624 35.4326 17.308Z" fill="url(#paint35_linear_2899_8077)"/>
<path d="M71.1057 36.523C71.2094 35.9633 71.3337 35.5695 71.8519 35.072C72.8676 35.4244 73.7796 35.5695 75.1684 35.6939C74.8161 36.2742 74.6502 36.7303 74.5673 37.2692C73.0956 37.1034 71.8312 36.8132 71.1057 36.523V36.523Z" fill="url(#paint36_linear_2899_8077)"/>
<path d="M27.0585 72.4034C26.8927 73.3569 26.8305 73.9166 27.0793 74.6628C26.7269 75.0981 26.2294 75.3054 25.5247 75.4919C24.9235 75.0359 24.6955 74.6213 24.6748 73.9373C25.7112 73.5227 26.2501 73.1082 27.0585 72.4034Z" fill="url(#paint37_linear_2899_8077)"/>
<path d="M324.922 52.5458C325.378 53.8932 325.71 54.515 326.497 55.0539C324.756 55.9867 323.823 56.7951 322.538 58.3912C321.44 57.6864 320.859 57.106 320.714 56.1732C322.041 54.5772 323.181 53.4993 324.922 52.5458V52.5458Z" fill="url(#paint38_linear_2899_8077)"/>
<path d="M51.9944 20.4379C52.2224 20.2721 52.4711 20.0234 52.6784 19.6088C53.5283 20.5416 54.1087 21.0598 55.1865 21.806C55.0829 22.6351 54.8134 22.9875 54.233 23.485C53.5283 22.2413 53.0101 21.4743 51.9944 20.4379V20.4379Z" fill="url(#paint39_linear_2899_8077)"/>
<path d="M108.707 38.4507C109.018 39.2176 109.287 39.6115 109.888 40.026C107.919 41.6428 106.364 43.1767 105.369 44.9179C104.602 44.4204 104.146 44.1302 103.898 43.4669C105.432 41.1246 106.53 40.0468 108.707 38.4507V38.4507Z" fill="url(#paint40_linear_2899_8077)"/>
<path d="M224.411 44.607C223.623 44.4826 223.126 44.3375 222.463 43.9644C222.732 43.3011 222.794 42.7 222.587 41.705C223.499 41.6014 223.997 41.705 224.701 42.0574C224.453 43.0316 224.349 43.6949 224.411 44.607V44.607Z" fill="url(#paint41_linear_2899_8077)"/>
<path d="M261.805 28.4183C262.323 28.439 262.572 28.5427 262.841 28.9158C262.758 29.7242 262.675 30.1595 262.364 30.7191C262.054 30.2424 261.763 30.0973 261.266 30.0558C261.639 29.5998 261.743 29.1023 261.805 28.4183Z" fill="url(#paint42_linear_2899_8077)"/>
<path d="M306.598 1.53388C305.914 2.48738 305.52 3.12995 305.479 4.10417C304.733 4.33218 303.924 4.39437 302.701 4.14563C303.116 2.63247 303.572 1.55461 304.608 0C305.106 0.829126 305.562 1.24369 306.598 1.53388V1.53388Z" fill="url(#paint43_linear_2899_8077)"/>
<path d="M235.957 51.9447C236.723 52.2349 237.179 52.38 237.843 52.2971C238.154 52.6702 238.278 53.1055 238.299 53.7273C237.822 54.1834 237.428 54.287 236.848 54.2041C236.682 53.2506 236.413 52.7531 235.957 51.9447Z" fill="url(#paint44_linear_2899_8077)"/>
<path d="M137.125 44.9386C137.436 45.9543 137.685 46.514 138.327 47.1151C138.203 47.7162 137.85 48.193 137.249 48.7319C136.42 48.6283 135.985 48.3381 135.612 47.6748C136.399 46.7213 136.69 46.058 137.125 44.9386V44.9386Z" fill="url(#paint45_linear_2899_8077)"/>
<path d="M260.312 6.71591C260.105 7.60722 260.084 8.06324 260.312 8.64363C259.048 8.56072 258.26 8.68508 256.995 9.12037C256.622 8.35343 256.519 7.83523 256.747 7.27557C258.032 6.86101 259.006 6.65372 260.312 6.71591V6.71591Z" fill="url(#paint46_linear_2899_8077)"/>
<path d="M149.873 11.3383C149.562 11.6078 149.251 12.0016 149.002 12.6235C147.614 11.4005 146.722 10.7372 145.085 9.7837C145.105 8.56074 145.437 8.04254 146.204 7.21341C147.427 8.93385 148.256 9.97026 149.873 11.3383Z" fill="url(#paint47_linear_2899_8077)"/>
<path d="M17.2747 69.8539C18.4769 69.8539 19.2438 69.9575 20.2802 70.3513C20.0522 71.367 20.0937 72.279 20.5912 73.6678C19.2853 74.0202 18.5598 73.9995 17.4198 73.6471C17.5856 72.1339 17.5856 71.1597 17.2747 69.8539Z" fill="url(#paint48_linear_2899_8077)"/>
<path d="M51.6216 46.4932C52.8031 46.0994 53.5493 45.975 54.6064 46.1616C54.4199 46.3896 54.3991 46.7005 54.4406 47.1565C53.4664 47.0529 52.886 47.2187 51.8081 47.6747C51.6423 47.3016 51.5801 46.9285 51.6216 46.4932Z" fill="url(#paint49_linear_2899_8077)"/>
<path d="M214.13 13.95C214.627 13.1002 215.063 12.5405 215.705 12.0431C216.41 12.3954 217.633 13.5977 218.69 14.9035C217.737 15.1316 217.135 15.3803 216.451 16.168C215.519 15.0072 214.938 14.3232 214.13 13.95V13.95Z" fill="url(#paint50_linear_2899_8077)"/>
<path d="M318.165 17.1629C317.025 16.9556 316.237 16.7069 315.449 16.1679C315.553 15.2559 316.403 13.4318 317.46 11.7529C318.082 12.7063 318.579 13.2867 319.719 13.722C318.786 15.2352 318.268 16.1265 318.165 17.1629V17.1629Z" fill="url(#paint51_linear_2899_8077)"/>
<path d="M231.086 34.3465C230.94 35.2171 230.982 35.7353 231.272 36.5644C230.858 36.7717 230.484 36.8132 229.904 36.7303C229.614 36.0462 229.593 35.3415 229.697 34.4502C230.194 34.6782 230.547 34.616 231.086 34.3465V34.3465Z" fill="url(#paint52_linear_2899_8077)"/>
<path d="M84.123 15.8985C83.8743 17.4324 83.9572 18.3444 84.4754 19.8368C83.7499 20.1892 83.0659 20.2928 82.0502 20.1063C81.5112 18.9248 81.4905 17.6604 81.6564 16.1058C82.5269 16.4996 83.1695 16.3545 84.123 15.8985Z" fill="url(#paint53_linear_2899_8077)"/>
<path d="M283.279 46.9907C282.864 47.8405 282.512 48.4417 282.118 48.8562C281.745 48.8355 281.413 48.6697 281.103 48.4002C281.621 47.7576 281.849 47.3223 282.097 46.5347C282.367 46.9285 282.678 47.0114 283.279 46.9907Z" fill="url(#paint54_linear_2899_8077)"/>
<path d="M249.575 20.9354C248.58 20.4172 247.896 19.9612 247.44 19.4845C247.481 19.0285 247.689 18.6553 248.02 18.303C248.767 18.9455 249.264 19.2357 250.176 19.5881C249.699 19.8576 249.575 20.2307 249.575 20.9354Z" fill="url(#paint55_linear_2899_8077)"/>
<path d="M269.412 64.4231C270.904 64.2573 271.568 63.9878 272.024 63.0343C272.48 64.1743 272.894 64.8584 273.62 65.8119C273.516 67.4494 272.625 68.7345 271.733 69.8124C271.008 67.553 270.469 65.8741 269.412 64.4231V64.4231Z" fill="url(#paint56_linear_2899_8077)"/>
<path d="M180.778 16.8935C179.41 16.9556 178.54 17.08 177.628 17.7433C176.861 17.2458 176.218 16.5618 175.555 15.2767C177.234 14.5305 178.54 14.1781 180.716 13.9501C180.322 15.0279 180.281 15.7534 180.778 16.8935V16.8935Z" fill="url(#paint57_linear_2899_8077)"/>
<path d="M227.168 5.22351C227.396 4.20783 227.479 3.58598 227.251 2.77759C227.665 2.32157 228.204 2.09356 228.992 1.92773C229.614 2.46667 229.842 2.92269 229.842 3.68963C228.681 4.06273 228.08 4.49802 227.168 5.22351Z" fill="url(#paint58_linear_2899_8077)"/>
<path d="M224.37 50.9912C223.748 51.5094 223.416 51.8411 223.167 52.4422C222.711 52.5251 222.297 52.4215 221.737 52.152C221.592 51.5302 221.675 51.1571 222.027 50.701C222.898 50.9912 223.458 51.012 224.37 50.9912Z" fill="url(#paint59_linear_2899_8077)"/>
<path d="M80.4954 65.8119C80.2881 66.9726 80.2881 67.5738 80.6405 68.2785C79.0029 68.2578 78.008 68.4651 76.4326 69.1076C75.9144 68.1541 75.7279 67.5116 75.9974 66.7653C77.5934 66.1435 78.8578 65.8119 80.4954 65.8119Z" fill="url(#paint60_linear_2899_8077)"/>
<path d="M217.799 75.6163C217.073 76.6112 216.824 77.1709 216.824 78C215.291 77.2538 214.254 77.005 212.472 76.9221C212.389 75.7821 212.513 75.0773 213.114 74.5177C214.897 74.6213 216.223 74.87 217.799 75.6163V75.6163Z" fill="url(#paint61_linear_2899_8077)"/>
<path d="M161.087 75.181C160.175 74.7665 159.719 74.3519 159.076 73.5642C159.242 72.8388 159.532 72.3827 159.967 71.9889C160.693 73.1497 161.19 73.5228 161.729 73.6471C161.315 74.2483 161.128 74.5799 161.087 75.181V75.181Z" fill="url(#paint62_linear_2899_8077)"/>
<path d="M41.4643 57.3755C43.2884 58.2254 44.2212 59.0752 45.527 60.6713C45.1539 62.1223 44.5943 63.0343 43.6822 63.822C42.2313 61.4797 41.257 60.7335 40.1584 60.4433C41.0083 59.2618 41.3814 58.5985 41.4643 57.3755V57.3755Z" fill="url(#paint63_linear_2899_8077)"/>
<path d="M3.11708 42.0989C2.93053 42.4098 2.64034 42.8036 1.93558 43.2389C0.836987 42.4512 0.111501 41.8709 -0.800537 40.7723C-0.282333 40.5442 -0.0335957 40.2333 0.132229 39.8395C1.065 40.9174 1.74903 41.5392 3.11708 42.0989Z" fill="url(#paint64_linear_2899_8077)"/>
<path d="M296.131 14.945C296.545 16.2301 296.711 17.1629 296.607 18.2615C295.612 18.6553 293.291 18.7797 291.011 18.6553C291.653 17.4738 291.964 16.6447 291.778 15.2559C293.809 15.3803 295.011 15.401 296.131 14.945Z" fill="url(#paint65_linear_2899_8077)"/>
<path d="M289.622 32.6883C290.244 33.8698 290.575 34.7818 290.658 35.9011C289.746 36.4401 287.466 36.979 285.165 37.2485C285.601 35.9633 285.766 35.0927 285.352 33.7454C287.383 33.5174 288.585 33.3309 289.622 32.6883Z" fill="url(#paint66_linear_2899_8077)"/>
<path d="M130.865 10.0739C130.057 9.80441 129.559 9.76296 128.73 9.88733C128.606 9.47276 128.606 9.09965 128.792 8.58145C129.476 8.3949 130.16 8.49854 130.969 8.72655C130.699 9.16184 130.699 9.51422 130.865 10.0739Z" fill="url(#paint67_linear_2899_8077)"/>
<path d="M146.743 25.9516C148.318 25.0189 149.562 24.4385 150.64 24.1897C151.241 24.6457 151.572 25.2469 151.821 26.0138C150.246 26.532 149.417 26.988 148.131 27.9622C148.152 27.0502 147.738 26.5735 146.743 25.9516Z" fill="url(#paint68_linear_2899_8077)"/>
<path d="M241.636 70.7037C241.035 71.6365 240.911 72.1547 241.242 72.8387C240.392 72.59 239.791 72.5278 238.921 72.507C238.029 71.7194 237.677 70.6208 237.449 69.6051C239.086 70.2269 240.309 70.6622 241.636 70.7037V70.7037Z" fill="url(#paint69_linear_2899_8077)"/>
<path d="M199.682 33.9942C200.802 33.932 201.61 33.9942 202.833 34.7818C202.605 36.8754 202.73 38.7202 203.123 41.4563C201.859 41.0417 200.885 40.8966 199.807 40.9796C199.475 38.0776 199.454 35.5073 199.682 33.9942V33.9942Z" fill="url(#paint70_linear_2899_8077)"/>
<path d="M127.714 64.962C127.507 65.418 127.3 65.7082 126.74 66.0192C125.994 65.501 125.247 65.1486 124.107 64.7547C124.522 64.3402 124.791 63.9878 124.978 63.5525C126.16 64.0293 127.175 64.5475 127.714 64.962Z" fill="url(#paint71_linear_2899_8077)"/>
</g>
<defs>
<linearGradient id="paint0_linear_2899_8077" x1="1434.02" y1="3704.73" x2="2733.48" y2="3958.23" gradientUnits="userSpaceOnUse">
<stop stop-color="#00EE98"/>
<stop offset="1" stop-color="#008A49"/>
</linearGradient>
<linearGradient id="paint1_linear_2899_8077" x1="1467.99" y1="3911.85" x2="1823.67" y2="3911.85" gradientUnits="userSpaceOnUse">
<stop stop-color="#00EE98"/>
<stop offset="1" stop-color="#008A49"/>
</linearGradient>
<linearGradient id="paint2_linear_2899_8077" x1="709.238" y1="4800.17" x2="774.384" y2="4800.17" gradientUnits="userSpaceOnUse">
<stop stop-color="#00EE98"/>
<stop offset="1" stop-color="#008A49"/>
</linearGradient>
<linearGradient id="paint3_linear_2899_8077" x1="999.552" y1="3600.4" x2="1590.75" y2="3717.82" gradientUnits="userSpaceOnUse">
<stop stop-color="#00EE98"/>
<stop offset="1" stop-color="#008A49"/>
</linearGradient>
<linearGradient id="paint4_linear_2899_8077" x1="818.191" y1="2415.29" x2="1266.7" y2="2419.06" gradientUnits="userSpaceOnUse">
<stop stop-color="#00EE98"/>
<stop offset="1" stop-color="#008A49"/>
</linearGradient>
<linearGradient id="paint5_linear_2899_8077" x1="1379.73" y1="2685.44" x2="1738.44" y2="2685.44" gradientUnits="userSpaceOnUse">
<stop stop-color="#00EE98"/>
<stop offset="1" stop-color="#008A49"/>
</linearGradient>
<linearGradient id="paint6_linear_2899_8077" x1="3634.37" y1="4247.68" x2="3664.72" y2="4247.68" gradientUnits="userSpaceOnUse">
<stop stop-color="#FDBF05"/>
<stop offset="1" stop-color="#FF6636"/>
</linearGradient>
<linearGradient id="paint7_linear_2899_8077" x1="9838.08" y1="2670.09" x2="10618.8" y2="2661.46" gradientUnits="userSpaceOnUse">
<stop stop-color="#FDBF05"/>
<stop offset="1" stop-color="#FF6636"/>
</linearGradient>
<linearGradient id="paint8_linear_2899_8077" x1="7769.63" y1="6095.44" x2="7970.84" y2="6095.44" gradientUnits="userSpaceOnUse">
<stop stop-color="#FDBF05"/>
<stop offset="1" stop-color="#FF6636"/>
</linearGradient>
<linearGradient id="paint9_linear_2899_8077" x1="6485.25" y1="3947.13" x2="6964.68" y2="3962.26" gradientUnits="userSpaceOnUse">
<stop stop-color="#FDBF05"/>
<stop offset="1" stop-color="#FF6636"/>
</linearGradient>
<linearGradient id="paint10_linear_2899_8077" x1="6890.16" y1="4371.11" x2="7049.11" y2="4371.11" gradientUnits="userSpaceOnUse">
<stop stop-color="#FDBF05"/>
<stop offset="1" stop-color="#FF6636"/>
</linearGradient>
<linearGradient id="paint11_linear_2899_8077" x1="4050.86" y1="1960.1" x2="4229.81" y2="1960.1" gradientUnits="userSpaceOnUse">
<stop stop-color="#FF5C5C"/>
<stop offset="1" stop-color="#D30000"/>
</linearGradient>
<linearGradient id="paint12_linear_2899_8077" x1="3816.68" y1="2750.84" x2="3971.18" y2="2750.84" gradientUnits="userSpaceOnUse">
<stop stop-color="#FF5C5C"/>
<stop offset="1" stop-color="#D30000"/>
</linearGradient>
<linearGradient id="paint13_linear_2899_8077" x1="4010.83" y1="1713.34" x2="4445.3" y2="1857.71" gradientUnits="userSpaceOnUse">
<stop stop-color="#FF5C5C"/>
<stop offset="1" stop-color="#D30000"/>
</linearGradient>
<linearGradient id="paint14_linear_2899_8077" x1="6004.52" y1="1804.45" x2="6656.64" y2="2029.47" gradientUnits="userSpaceOnUse">
<stop stop-color="#FF5C5C"/>
<stop offset="1" stop-color="#D30000"/>
</linearGradient>
<linearGradient id="paint15_linear_2899_8077" x1="2597.72" y1="1658.01" x2="2773.58" y2="1688.32" gradientUnits="userSpaceOnUse">
<stop stop-color="#FF5C5C"/>
<stop offset="1" stop-color="#D30000"/>
</linearGradient>
<linearGradient id="paint16_linear_2899_8077" x1="5538.13" y1="1726.49" x2="5903.62" y2="1726.49" gradientUnits="userSpaceOnUse">
<stop stop-color="#FF5C5C"/>
<stop offset="1" stop-color="#D30000"/>
</linearGradient>
<linearGradient id="paint17_linear_2899_8077" x1="3405.15" y1="5167.23" x2="3738.09" y2="5186" gradientUnits="userSpaceOnUse">
<stop stop-color="#4D8EFF"/>
<stop offset="1" stop-color="#2850FF"/>
</linearGradient>
<linearGradient id="paint18_linear_2899_8077" x1="2247.42" y1="3565.82" x2="2334.09" y2="3565.82" gradientUnits="userSpaceOnUse">
<stop stop-color="#4D8EFF"/>
<stop offset="1" stop-color="#2850FF"/>
</linearGradient>
<linearGradient id="paint19_linear_2899_8077" x1="2572.33" y1="3892.76" x2="3137.41" y2="3783.26" gradientUnits="userSpaceOnUse">
<stop stop-color="#4D8EFF"/>
<stop offset="1" stop-color="#2850FF"/>
</linearGradient>
<linearGradient id="paint20_linear_2899_8077" x1="2333.38" y1="3765.29" x2="2669.8" y2="3730.83" gradientUnits="userSpaceOnUse">
<stop stop-color="#4D8EFF"/>
<stop offset="1" stop-color="#2850FF"/>
</linearGradient>
<linearGradient id="paint21_linear_2899_8077" x1="4455.11" y1="3136.91" x2="4840.01" y2="3136.91" gradientUnits="userSpaceOnUse">
<stop stop-color="#4D8EFF"/>
<stop offset="1" stop-color="#2850FF"/>
</linearGradient>
<linearGradient id="paint22_linear_2899_8077" x1="9533.96" y1="2552.71" x2="9752.53" y2="2552.71" gradientUnits="userSpaceOnUse">
<stop stop-color="#4D8EFF"/>
<stop offset="1" stop-color="#2850FF"/>
</linearGradient>
<linearGradient id="paint23_linear_2899_8077" x1="2186.15" y1="1316.19" x2="2240.55" y2="1319.29" gradientUnits="userSpaceOnUse">
<stop stop-color="#4D8EFF"/>
<stop offset="1" stop-color="#2850FF"/>
</linearGradient>
<linearGradient id="paint24_linear_2899_8077" x1="9812.6" y1="2687.2" x2="10045.6" y2="2687.2" gradientUnits="userSpaceOnUse">
<stop stop-color="#4D8EFF"/>
<stop offset="1" stop-color="#2850FF"/>
</linearGradient>
<linearGradient id="paint25_linear_2899_8077" x1="3391.17" y1="1868.43" x2="3588.32" y2="1883.36" gradientUnits="userSpaceOnUse">
<stop stop-color="#4D8EFF"/>
<stop offset="1" stop-color="#2850FF"/>
</linearGradient>
<linearGradient id="paint26_linear_2899_8077" x1="3717.73" y1="1477.46" x2="3867.54" y2="1487.59" gradientUnits="userSpaceOnUse">
<stop stop-color="#4D8EFF"/>
<stop offset="1" stop-color="#2850FF"/>
</linearGradient>
<linearGradient id="paint27_linear_2899_8077" x1="5490.94" y1="473.886" x2="5692.52" y2="541.356" gradientUnits="userSpaceOnUse">
<stop stop-color="#4D8EFF"/>
<stop offset="1" stop-color="#2850FF"/>
</linearGradient>
<linearGradient id="paint28_linear_2899_8077" x1="7030.03" y1="847.753" x2="7387.53" y2="980.629" gradientUnits="userSpaceOnUse">
<stop stop-color="#4D8EFF"/>
<stop offset="1" stop-color="#2850FF"/>
</linearGradient>
<linearGradient id="paint29_linear_2899_8077" x1="9992.6" y1="5331.18" x2="10234.2" y2="5331.18" gradientUnits="userSpaceOnUse">
<stop stop-color="#4D8EFF"/>
<stop offset="1" stop-color="#2850FF"/>
</linearGradient>
<linearGradient id="paint30_linear_2899_8077" x1="4958.21" y1="2980.23" x2="4885.72" y2="3048.99" gradientUnits="userSpaceOnUse">
<stop stop-color="#00EE98"/>
<stop offset="1" stop-color="#008A49"/>
</linearGradient>
<linearGradient id="paint31_linear_2899_8077" x1="3959.32" y1="1881.82" x2="3924.19" y2="1808.64" gradientUnits="userSpaceOnUse">
<stop stop-color="#00EE98"/>
<stop offset="1" stop-color="#008A49"/>
</linearGradient>
<linearGradient id="paint32_linear_2899_8077" x1="6490.95" y1="1464.73" x2="6525.39" y2="1386.57" gradientUnits="userSpaceOnUse">
<stop stop-color="#00EE98"/>
<stop offset="1" stop-color="#008A49"/>
</linearGradient>
<linearGradient id="paint33_linear_2899_8077" x1="7732.17" y1="2532.67" x2="7744.92" y2="2429.44" gradientUnits="userSpaceOnUse">
<stop stop-color="#00EE98"/>
<stop offset="1" stop-color="#008A49"/>
</linearGradient>
<linearGradient id="paint34_linear_2899_8077" x1="2677.56" y1="1863.75" x2="2700.5" y2="1899.31" gradientUnits="userSpaceOnUse">
<stop stop-color="#00EE98"/>
<stop offset="1" stop-color="#008A49"/>
</linearGradient>
<linearGradient id="paint35_linear_2899_8077" x1="1146" y1="668.523" x2="1148.98" y2="692.9" gradientUnits="userSpaceOnUse">
<stop stop-color="#00EE98"/>
<stop offset="1" stop-color="#008A49"/>
</linearGradient>
<linearGradient id="paint36_linear_2899_8077" x1="2076.87" y1="902.958" x2="2073.17" y2="931.946" gradientUnits="userSpaceOnUse">
<stop stop-color="#00EE98"/>
<stop offset="1" stop-color="#008A49"/>
</linearGradient>
<linearGradient id="paint37_linear_2899_8077" x1="654.163" y1="1833.47" x2="674.763" y2="1862.07" gradientUnits="userSpaceOnUse">
<stop stop-color="#00EE98"/>
<stop offset="1" stop-color="#008A49"/>
</linearGradient>
<linearGradient id="paint38_linear_2899_8077" x1="9998.25" y1="3074.59" x2="9916.88" y2="2981.92" gradientUnits="userSpaceOnUse">
<stop stop-color="#00EE98"/>
<stop offset="1" stop-color="#008A49"/>
</linearGradient>
<linearGradient id="paint39_linear_2899_8077" x1="1325.97" y1="1316.18" x2="1300.24" y2="1342.27" gradientUnits="userSpaceOnUse">
<stop stop-color="#FF3EB9"/>
<stop offset="1" stop-color="#FFB9F2"/>
</linearGradient>
<linearGradient id="paint40_linear_2899_8077" x1="4040.22" y1="2624.68" x2="4110.16" y2="2702.18" gradientUnits="userSpaceOnUse">
<stop stop-color="#FF3EB9"/>
<stop offset="1" stop-color="#FFB9F2"/>
</linearGradient>
<linearGradient id="paint41_linear_2899_8077" x1="2924.51" y1="1356.52" x2="2897.7" y2="1353.94" gradientUnits="userSpaceOnUse">
<stop stop-color="#FF3EB9"/>
<stop offset="1" stop-color="#FFB9F2"/>
</linearGradient>
<linearGradient id="paint42_linear_2899_8077" x1="2451.33" y1="847.742" x2="2463.91" y2="850.844" gradientUnits="userSpaceOnUse">
<stop stop-color="#FF3EB9"/>
<stop offset="1" stop-color="#FFB9F2"/>
</linearGradient>
<linearGradient id="paint43_linear_2899_8077" x1="6516.7" y1="921.004" x2="6576.48" y2="941.202" gradientUnits="userSpaceOnUse">
<stop stop-color="#FF3EB9"/>
<stop offset="1" stop-color="#FFB9F2"/>
</linearGradient>
<linearGradient id="paint44_linear_2899_8077" x1="3190.52" y1="1125.17" x2="3214.06" y2="1117.29" gradientUnits="userSpaceOnUse">
<stop stop-color="#FF3EB9"/>
<stop offset="1" stop-color="#FFB9F2"/>
</linearGradient>
<linearGradient id="paint45_linear_2899_8077" x1="2282.66" y1="1693.49" x2="2318.98" y2="1709.99" gradientUnits="userSpaceOnUse">
<stop stop-color="#FF3EB9"/>
<stop offset="1" stop-color="#FFB9F2"/>
</linearGradient>
<linearGradient id="paint46_linear_2899_8077" x1="5260.74" y1="662.949" x2="5257.21" y2="630.33" gradientUnits="userSpaceOnUse">
<stop stop-color="#FF3EB9"/>
<stop offset="1" stop-color="#FFB9F2"/>
</linearGradient>
<linearGradient id="paint47_linear_2899_8077" x1="4040.28" y1="1445.2" x2="4086.56" y2="1382.77" gradientUnits="userSpaceOnUse">
<stop stop-color="#FC9512"/>
<stop offset="1" stop-color="#FFEB1C"/>
</linearGradient>
<linearGradient id="paint48_linear_2899_8077" x1="707.771" y1="2308.95" x2="766.827" y2="2307.33" gradientUnits="userSpaceOnUse">
<stop stop-color="#FC9512"/>
<stop offset="1" stop-color="#FFEB1C"/>
</linearGradient>
<linearGradient id="paint49_linear_2899_8077" x1="1237.94" y1="755.383" x2="1239.24" y2="770.051" gradientUnits="userSpaceOnUse">
<stop stop-color="#FC9512"/>
<stop offset="1" stop-color="#FFEB1C"/>
</linearGradient>
<linearGradient id="paint50_linear_2899_8077" x1="5460.63" y1="1187.23" x2="5511.78" y2="1133.42" gradientUnits="userSpaceOnUse">
<stop stop-color="#4D8EFF"/>
<stop offset="1" stop-color="#2850FF"/>
</linearGradient>
<linearGradient id="paint51_linear_2899_8077" x1="7384.42" y1="1735.93" x2="7301.98" y2="1702.67" gradientUnits="userSpaceOnUse">
<stop stop-color="#4D8EFF"/>
<stop offset="1" stop-color="#2850FF"/>
</linearGradient>
<linearGradient id="paint52_linear_2899_8077" x1="2240.39" y1="966.529" x2="2252.73" y2="965.532" gradientUnits="userSpaceOnUse">
<stop stop-color="#4D8EFF"/>
<stop offset="1" stop-color="#2850FF"/>
</linearGradient>
<linearGradient id="paint53_linear_2899_8077" x1="1585.1" y1="1268.68" x2="1623.57" y2="1265.3" gradientUnits="userSpaceOnUse">
<stop stop-color="#4D8EFF"/>
<stop offset="1" stop-color="#2850FF"/>
</linearGradient>
<linearGradient id="paint54_linear_2899_8077" x1="3522.06" y1="1074.29" x2="3537.23" y2="1081.4" gradientUnits="userSpaceOnUse">
<stop stop-color="#4D8EFF"/>
<stop offset="1" stop-color="#2850FF"/>
</linearGradient>
<linearGradient id="paint55_linear_2899_8077" x1="3912.45" y1="867.803" x2="3900.84" y2="888.725" gradientUnits="userSpaceOnUse">
<stop stop-color="#4D8EFF"/>
<stop offset="1" stop-color="#2850FF"/>
</linearGradient>
<linearGradient id="paint56_linear_2899_8077" x1="6225.59" y1="3633.06" x2="6314.26" y2="3599.09" gradientUnits="userSpaceOnUse">
<stop stop-color="#4D8EFF"/>
<stop offset="1" stop-color="#2850FF"/>
</linearGradient>
<linearGradient id="paint57_linear_2899_8077" x1="5433.53" y1="1090.48" x2="5450.58" y2="1160.95" gradientUnits="userSpaceOnUse">
<stop stop-color="#4D8EFF"/>
<stop offset="1" stop-color="#2850FF"/>
</linearGradient>
<linearGradient id="paint58_linear_2899_8077" x1="3474.93" y1="837.077" x2="3452.54" y2="801.338" gradientUnits="userSpaceOnUse">
<stop stop-color="#4D8EFF"/>
<stop offset="1" stop-color="#2850FF"/>
</linearGradient>
<linearGradient id="paint59_linear_2899_8077" x1="3498.11" y1="884.446" x2="3495.86" y2="902.149" gradientUnits="userSpaceOnUse">
<stop stop-color="#4D8EFF"/>
<stop offset="1" stop-color="#2850FF"/>
</linearGradient>
<linearGradient id="paint60_linear_2899_8077" x1="2374.01" y1="1922" x2="2365.38" y2="1863.97" gradientUnits="userSpaceOnUse">
<stop stop-color="#4D8EFF"/>
<stop offset="1" stop-color="#2850FF"/>
</linearGradient>
<linearGradient id="paint61_linear_2899_8077" x1="6306.3" y1="2148.24" x2="6316.12" y2="2083.98" gradientUnits="userSpaceOnUse">
<stop stop-color="#4D8EFF"/>
<stop offset="1" stop-color="#2850FF"/>
</linearGradient>
<linearGradient id="paint62_linear_2899_8077" x1="2581.71" y1="1931.73" x2="2554.56" y2="1960" gradientUnits="userSpaceOnUse">
<stop stop-color="#FF5C5C"/>
<stop offset="1" stop-color="#D30000"/>
</linearGradient>
<linearGradient id="paint63_linear_2899_8077" x1="1666.3" y1="3344.43" x2="1777.76" y2="3229.08" gradientUnits="userSpaceOnUse">
<stop stop-color="#FF5C5C"/>
<stop offset="1" stop-color="#D30000"/>
</linearGradient>
<linearGradient id="paint64_linear_2899_8077" x1="575.873" y1="1512.47" x2="553.905" y2="1543.07" gradientUnits="userSpaceOnUse">
<stop stop-color="#FF5C5C"/>
<stop offset="1" stop-color="#D30000"/>
</linearGradient>
<linearGradient id="paint65_linear_2899_8077" x1="9110.78" y1="1123.91" x2="9111.78" y2="1208.83" gradientUnits="userSpaceOnUse">
<stop stop-color="#FF5C5C"/>
<stop offset="1" stop-color="#D30000"/>
</linearGradient>
<linearGradient id="paint66_linear_2899_8077" x1="8723.45" y1="1757.81" x2="8740.69" y2="1863.01" gradientUnits="userSpaceOnUse">
<stop stop-color="#FF5C5C"/>
<stop offset="1" stop-color="#D30000"/>
</linearGradient>
<linearGradient id="paint67_linear_2899_8077" x1="1903.32" y1="431.587" x2="1903" y2="442.72" gradientUnits="userSpaceOnUse">
<stop stop-color="#FF5C5C"/>
<stop offset="1" stop-color="#D30000"/>
</linearGradient>
<linearGradient id="paint68_linear_2899_8077" x1="4353.18" y1="1406.82" x2="4330.63" y2="1352.01" gradientUnits="userSpaceOnUse">
<stop stop-color="#FF5C5C"/>
<stop offset="1" stop-color="#D30000"/>
</linearGradient>
<linearGradient id="paint69_linear_2899_8077" x1="5681.48" y1="1893.35" x2="5677.47" y2="1942.08" gradientUnits="userSpaceOnUse">
<stop stop-color="#FF5C5C"/>
<stop offset="1" stop-color="#D30000"/>
</linearGradient>
<linearGradient id="paint70_linear_2899_8077" x1="4190.36" y1="3302.05" x2="4099.47" y2="3302.22" gradientUnits="userSpaceOnUse">
<stop stop-color="#FF5C5C"/>
<stop offset="1" stop-color="#D30000"/>
</linearGradient>
<linearGradient id="paint71_linear_2899_8077" x1="2713.36" y1="1386.91" x2="2723.71" y2="1358.88" gradientUnits="userSpaceOnUse">
<stop stop-color="#FF5C5C"/>
<stop offset="1" stop-color="#D30000"/>
</linearGradient>
</defs>
</svg>
