<svg width="52" height="19" viewBox="0 0 52 19" fill="none" xmlns="http://www.w3.org/2000/svg">
<rect opacity="0.1" width="52" height="19" rx="9.5" fill="#5AAC4E"/>
<path d="M13.036 14L10.385 4.925H11.991L13.905 12.0475L16.0995 4.925H17.1885L19.3885 12.0475L21.3025 4.925H22.903L20.2575 14H18.6515L16.6495 7.7135L14.642 14H13.036ZM26.3426 14.176C25.734 14.176 25.184 14.0495 24.6926 13.7965C24.205 13.5435 23.8181 13.1915 23.5321 12.7405C23.2461 12.2895 23.1031 11.7707 23.1031 11.184C23.1031 10.5937 23.2461 10.0748 23.5321 9.6275C23.8181 9.1765 24.205 8.8245 24.6926 8.5715C25.1803 8.3185 25.7303 8.192 26.3426 8.192C26.9513 8.192 27.4995 8.3185 27.9871 8.5715C28.4785 8.8245 28.8653 9.1765 29.1476 9.6275C29.4336 10.0748 29.5766 10.5937 29.5766 11.184C29.5766 11.7707 29.4336 12.2895 29.1476 12.7405C28.8653 13.1915 28.4785 13.5435 27.9871 13.7965C27.4995 14.0495 26.9513 14.176 26.3426 14.176ZM26.3426 12.999C26.6873 12.999 26.9953 12.922 27.2666 12.768C27.5416 12.6103 27.758 12.3958 27.9156 12.1245C28.0733 11.8495 28.1521 11.536 28.1521 11.184C28.1521 10.8283 28.0733 10.5148 27.9156 10.2435C27.758 9.9685 27.5416 9.754 27.2666 9.6C26.9953 9.446 26.6873 9.369 26.3426 9.369C26.0016 9.369 25.6936 9.446 25.4186 9.6C25.1436 9.754 24.9273 9.9685 24.7696 10.2435C24.612 10.5148 24.5331 10.8283 24.5331 11.184C24.5331 11.536 24.612 11.8495 24.7696 12.1245C24.9273 12.3958 25.1436 12.6103 25.4186 12.768C25.6936 12.922 26.0016 12.999 26.3426 12.999ZM31.2138 14V8.368H32.5833V9.1875C32.7813 8.86483 33.0288 8.61917 33.3258 8.4505C33.6228 8.27817 33.9492 8.192 34.3048 8.192C34.4918 8.192 34.6825 8.21767 34.8768 8.269C35.0748 8.31667 35.2435 8.38083 35.3828 8.4615L34.8163 9.622C34.6953 9.54867 34.5542 9.49 34.3928 9.446C34.2352 9.402 34.0885 9.38 33.9528 9.38C33.7182 9.38 33.4963 9.4405 33.2873 9.5615C33.0783 9.6825 32.9078 9.83833 32.7758 10.029C32.6475 10.2197 32.5833 10.425 32.5833 10.645V14H31.2138ZM36.5205 14V4.54H37.89V10.5185L40.035 8.368H41.8115L39.122 11.0905L41.938 14H40.178L37.89 11.613V14H36.5205Z" fill="#5AAC4E"/>
</svg>
