<svg width="74" height="27" viewBox="0 0 74 27" fill="none" xmlns="http://www.w3.org/2000/svg">
<path d="M37.2139 18.192C36.6259 18.192 36.0959 18.086 35.6239 17.874C35.1559 17.662 34.7719 17.366 34.4719 16.986C34.1759 16.606 33.9899 16.164 33.9139 15.66L35.0659 15.192C35.0779 15.568 35.1759 15.9 35.3599 16.188C35.5439 16.476 35.7959 16.7 36.1159 16.86C36.4359 17.02 36.8019 17.1 37.2139 17.1C37.8099 17.1 38.2859 16.936 38.6419 16.608C38.9979 16.276 39.1759 15.844 39.1759 15.312C39.1759 14.932 39.0879 14.59 38.9119 14.286C38.7399 13.982 38.5079 13.742 38.2159 13.566C37.9239 13.386 37.5999 13.296 37.2439 13.296C37.0879 13.296 36.9559 13.314 36.8479 13.35V12.48H37.2139C37.5619 12.48 37.8759 12.396 38.1559 12.228C38.4359 12.06 38.6579 11.838 38.8219 11.562C38.9859 11.282 39.0679 10.98 39.0679 10.656C39.0679 10.332 38.9879 10.04 38.8279 9.78C38.6679 9.52 38.4539 9.314 38.1859 9.162C37.9179 9.01 37.6219 8.934 37.2979 8.934C36.9699 8.934 36.6679 9.012 36.3919 9.168C36.1199 9.324 35.8979 9.534 35.7259 9.798C35.5539 10.062 35.4579 10.36 35.4379 10.692L34.4359 10.296C34.4999 9.832 34.6659 9.422 34.9339 9.066C35.2019 8.706 35.5419 8.426 35.9539 8.226C36.3699 8.022 36.8239 7.92 37.3159 7.92C37.8639 7.92 38.3559 8.04 38.7919 8.28C39.2279 8.52 39.5719 8.844 39.8239 9.252C40.0759 9.66 40.2019 10.12 40.2019 10.632C40.2019 10.956 40.1439 11.262 40.0279 11.55C39.9159 11.838 39.7559 12.094 39.5479 12.318C39.3399 12.538 39.0959 12.712 38.8159 12.84C39.1239 12.956 39.3979 13.13 39.6379 13.362C39.8819 13.594 40.0719 13.874 40.2079 14.202C40.3479 14.526 40.4179 14.89 40.4179 15.294C40.4179 15.846 40.2859 16.342 40.0219 16.782C39.7619 17.218 39.3919 17.562 38.9119 17.814C38.4319 18.066 37.8659 18.192 37.2139 18.192ZM43.1407 18V9.3H42.0427V8.1H44.3587V18H43.1407ZM50.1981 18.192C49.6461 18.192 49.1461 18.102 48.6981 17.922C48.2541 17.738 47.8741 17.488 47.5581 17.172C47.2461 16.856 47.0061 16.494 46.8381 16.086C46.6701 15.678 46.5861 15.248 46.5861 14.796C46.5861 14.296 46.6941 13.776 46.9101 13.236C47.1301 12.692 47.4221 12.202 47.7861 11.766L50.8461 8.1H52.3281L49.3101 11.688C49.4941 11.592 49.6861 11.52 49.8861 11.472C50.0901 11.42 50.3021 11.394 50.5221 11.394C50.9661 11.394 51.3821 11.478 51.7701 11.646C52.1581 11.81 52.4981 12.044 52.7901 12.348C53.0821 12.652 53.3101 13.012 53.4741 13.428C53.6421 13.84 53.7261 14.296 53.7261 14.796C53.7261 15.46 53.5761 16.048 53.2761 16.56C52.9761 17.072 52.5601 17.472 52.0281 17.76C51.5001 18.048 50.8901 18.192 50.1981 18.192ZM50.1501 17.16C50.6061 17.16 51.0121 17.06 51.3681 16.86C51.7241 16.656 52.0041 16.378 52.2081 16.026C52.4121 15.674 52.5141 15.274 52.5141 14.826C52.5141 14.37 52.4101 13.964 52.2021 13.608C51.9981 13.248 51.7201 12.966 51.3681 12.762C51.0201 12.554 50.6321 12.45 50.2041 12.45C49.7681 12.45 49.3701 12.556 49.0101 12.768C48.6501 12.98 48.3621 13.268 48.1461 13.632C47.9341 13.996 47.8281 14.404 47.8281 14.856C47.8281 15.276 47.9241 15.662 48.1161 16.014C48.3081 16.362 48.5781 16.64 48.9261 16.848C49.2741 17.056 49.6821 17.16 50.1501 17.16ZM59.1317 18V8.1H61.9397C62.5957 8.1 63.1637 8.214 63.6437 8.442C64.1237 8.67 64.4937 8.998 64.7537 9.426C65.0177 9.85 65.1497 10.36 65.1497 10.956C65.1497 11.476 65.0477 11.938 64.8437 12.342C64.6397 12.746 64.3477 13.076 63.9677 13.332C63.5917 13.588 63.1417 13.756 62.6177 13.836L65.8937 18H64.3457L61.2797 13.962H60.3497V18H59.1317ZM60.3497 12.924H61.6097C62.0817 12.924 62.4877 12.846 62.8277 12.69C63.1677 12.534 63.4297 12.312 63.6137 12.024C63.7977 11.732 63.8897 11.386 63.8897 10.986C63.8897 10.39 63.6877 9.924 63.2837 9.588C62.8837 9.252 62.3257 9.084 61.6097 9.084H60.3497V12.924ZM67.7215 18V8.1H72.8935V9.174H68.5495L68.9395 8.856V13.044L68.5495 12.504H72.6235V13.572H68.5495L68.9395 13.032V18H67.7215Z" fill="#494C54"/>
<circle cx="13.5" cy="13.5" r="13.5" fill="#FF6F40"/>
<path d="M10.0133 16.5875V15.38" stroke="white" stroke-width="0.6" stroke-linecap="round"/>
<path d="M13 16.5875V14.1725" stroke="white" stroke-width="0.6" stroke-linecap="round"/>
<path d="M15.9867 16.5875V12.9592" stroke="white" stroke-width="0.6" stroke-linecap="round"/>
<path d="M15.9866 9.41248L15.7183 9.72748C14.2308 11.4658 12.2358 12.6966 10.0133 13.2508" stroke="white" stroke-width="0.6" stroke-linecap="round"/>
<path d="M14.2775 9.41248H15.9866V11.1158" stroke="white" stroke-width="0.6" stroke-linecap="round" stroke-linejoin="round"/>
<path d="M11.25 18.8334H14.75C17.6666 18.8334 18.8333 17.6667 18.8333 14.75V11.25C18.8333 8.33335 17.6666 7.16669 14.75 7.16669H11.25C8.33329 7.16669 7.16663 8.33335 7.16663 11.25V14.75C7.16663 17.6667 8.33329 18.8334 11.25 18.8334Z" stroke="white" stroke-width="0.6" stroke-linecap="round" stroke-linejoin="round"/>
</svg>
