<svg width="112" height="15" viewBox="0 0 112 15" fill="none" xmlns="http://www.w3.org/2000/svg">
<path d="M20.056 10.116L22.444 3.492H23.968L20.752 12H19.288L16.12 3.492H17.68L20.056 10.116ZM26.3659 12H24.9859V6.156H26.3659V12ZM25.0339 4.74C24.8579 4.564 24.7699 4.352 24.7699 4.104C24.7699 3.856 24.8579 3.644 25.0339 3.468C25.2099 3.284 25.4219 3.192 25.6699 3.192C25.9259 3.192 26.1419 3.28 26.3179 3.456C26.4939 3.632 26.5819 3.848 26.5819 4.104C26.5819 4.352 26.4939 4.564 26.3179 4.74C26.1419 4.916 25.9259 5.004 25.6699 5.004C25.4219 5.004 25.2099 4.916 25.0339 4.74ZM29.1337 8.436H32.0017C31.9857 8.068 31.8537 7.76 31.6057 7.512C31.3657 7.264 31.0177 7.14 30.5617 7.14C30.1457 7.14 29.8097 7.272 29.5537 7.536C29.2977 7.792 29.1577 8.092 29.1337 8.436ZM32.1577 9.96L33.3337 10.332C33.1657 10.868 32.8497 11.312 32.3857 11.664C31.9297 12.008 31.3657 12.18 30.6937 12.18C29.8617 12.18 29.1537 11.896 28.5697 11.328C27.9937 10.76 27.7057 10 27.7057 9.048C27.7057 8.152 27.9857 7.416 28.5457 6.84C29.1137 6.264 29.7817 5.976 30.5497 5.976C31.4457 5.976 32.1457 6.252 32.6497 6.804C33.1537 7.348 33.4057 8.084 33.4057 9.012C33.4057 9.26 33.3937 9.408 33.3697 9.456H29.0977C29.1137 9.896 29.2737 10.26 29.5777 10.548C29.8897 10.836 30.2617 10.98 30.6937 10.98C31.4457 10.98 31.9337 10.64 32.1577 9.96ZM37.9659 6.156H39.4059L40.7859 10.2L41.9499 6.156H43.3659L41.4939 12H40.1019L38.6499 7.8L37.2339 12H35.8059L33.9099 6.156H35.3979L36.5859 10.2L37.9659 6.156ZM53.3439 12L52.5399 9.864H48.9399L48.1479 12H46.6239L49.9359 3.492H51.6039L54.9159 12H53.3439ZM50.7399 5.052L49.4439 8.532H52.0359L50.7399 5.052ZM57.4179 4.368V6.156H58.6299V7.392H57.4179V10.104C57.4179 10.36 57.4779 10.548 57.5979 10.668C57.7179 10.78 57.9059 10.836 58.1619 10.836C58.3219 10.836 58.4819 10.82 58.6419 10.788V11.94C58.4339 12.028 58.1499 12.072 57.7899 12.072C57.2459 12.072 56.8179 11.92 56.5059 11.616C56.1939 11.304 56.0379 10.876 56.0379 10.332V7.392H54.9579V6.156H55.2579C55.5539 6.156 55.7779 6.072 55.9299 5.904C56.0819 5.736 56.1579 5.516 56.1579 5.244V4.368H57.4179ZM61.8007 4.368V6.156H63.0127V7.392H61.8007V10.104C61.8007 10.36 61.8607 10.548 61.9807 10.668C62.1007 10.78 62.2887 10.836 62.5447 10.836C62.7047 10.836 62.8647 10.82 63.0247 10.788V11.94C62.8167 12.028 62.5327 12.072 62.1727 12.072C61.6287 12.072 61.2007 11.92 60.8887 11.616C60.5767 11.304 60.4207 10.876 60.4207 10.332V7.392H59.3407V6.156H59.6407C59.9367 6.156 60.1607 6.072 60.3127 5.904C60.4647 5.736 60.5407 5.516 60.5407 5.244V4.368H61.8007ZM64.0947 10.416C64.0947 9.92 64.2547 9.524 64.5747 9.228C64.9027 8.924 65.3307 8.732 65.8587 8.652L67.3587 8.424C67.6467 8.384 67.7907 8.244 67.7907 8.004C67.7907 7.74 67.6987 7.528 67.5147 7.368C67.3307 7.2 67.0547 7.116 66.6867 7.116C66.3347 7.116 66.0547 7.216 65.8467 7.416C65.6387 7.608 65.5187 7.86 65.4867 8.172L64.2147 7.884C64.2707 7.356 64.5227 6.908 64.9707 6.54C65.4187 6.164 65.9867 5.976 66.6747 5.976C67.5227 5.976 68.1467 6.18 68.5467 6.588C68.9547 6.996 69.1587 7.52 69.1587 8.16V11.064C69.1587 11.448 69.1827 11.76 69.2307 12H67.9347C67.8947 11.88 67.8747 11.632 67.8747 11.256C67.4907 11.872 66.8907 12.18 66.0747 12.18C65.4827 12.18 65.0027 12.008 64.6347 11.664C64.2747 11.312 64.0947 10.896 64.0947 10.416ZM66.3387 11.088C66.7707 11.088 67.1187 10.972 67.3827 10.74C67.6547 10.5 67.7907 10.112 67.7907 9.576V9.312L66.2667 9.54C65.7467 9.628 65.4867 9.892 65.4867 10.332C65.4867 10.54 65.5627 10.72 65.7147 10.872C65.8667 11.016 66.0747 11.088 66.3387 11.088ZM73.3737 7.26C72.9257 7.26 72.5457 7.424 72.2337 7.752C71.9217 8.072 71.7657 8.512 71.7657 9.072C71.7657 9.64 71.9217 10.088 72.2337 10.416C72.5537 10.744 72.9417 10.908 73.3977 10.908C73.8057 10.908 74.1297 10.8 74.3697 10.584C74.6177 10.36 74.7817 10.108 74.8617 9.828L76.0857 10.272C75.9257 10.792 75.6137 11.24 75.1497 11.616C74.6937 11.992 74.1097 12.18 73.3977 12.18C72.5417 12.18 71.8217 11.884 71.2377 11.292C70.6617 10.7 70.3737 9.96 70.3737 9.072C70.3737 8.176 70.6577 7.436 71.2257 6.852C71.8017 6.268 72.5137 5.976 73.3617 5.976C74.0897 5.976 74.6817 6.164 75.1377 6.54C75.6017 6.916 75.9017 7.368 76.0377 7.896L74.7897 8.352C74.7097 8.048 74.5537 7.792 74.3217 7.584C74.0977 7.368 73.7817 7.26 73.3737 7.26ZM78.7139 8.568V12H77.3219V3.312H78.7139V6.72C79.0899 6.232 79.6459 5.988 80.3819 5.988C81.0699 5.988 81.5979 6.204 81.9659 6.636C82.3339 7.068 82.5179 7.624 82.5179 8.304V12H81.1259V8.544C81.1259 8.152 81.0299 7.84 80.8379 7.608C80.6459 7.368 80.3419 7.248 79.9259 7.248C79.5579 7.248 79.2659 7.372 79.0499 7.62C78.8419 7.868 78.7299 8.184 78.7139 8.568ZM85.5925 12H84.2125V6.156H85.5445V6.9C85.7045 6.612 85.9445 6.388 86.2645 6.228C86.5925 6.068 86.9285 5.988 87.2725 5.988C87.6645 5.988 88.0165 6.076 88.3285 6.252C88.6405 6.428 88.8725 6.684 89.0245 7.02C89.4325 6.332 90.0645 5.988 90.9205 5.988C91.4965 5.988 91.9845 6.176 92.3845 6.552C92.7845 6.928 92.9845 7.48 92.9845 8.208V12H91.6405V8.436C91.6405 8.076 91.5445 7.788 91.3525 7.572C91.1685 7.348 90.8885 7.236 90.5125 7.236C90.1525 7.236 89.8605 7.36 89.6365 7.608C89.4125 7.856 89.3005 8.164 89.3005 8.532V12H87.9325V8.436C87.9325 8.076 87.8365 7.788 87.6445 7.572C87.4605 7.348 87.1805 7.236 86.8045 7.236C86.4365 7.236 86.1405 7.36 85.9165 7.608C85.7005 7.848 85.5925 8.156 85.5925 8.532V12ZM95.6611 8.436H98.5291C98.5131 8.068 98.3811 7.76 98.1331 7.512C97.8931 7.264 97.5451 7.14 97.0891 7.14C96.6731 7.14 96.3371 7.272 96.0811 7.536C95.8251 7.792 95.6851 8.092 95.6611 8.436ZM98.6851 9.96L99.8611 10.332C99.6931 10.868 99.3771 11.312 98.9131 11.664C98.4571 12.008 97.8931 12.18 97.2211 12.18C96.3891 12.18 95.6811 11.896 95.0971 11.328C94.5211 10.76 94.2331 10 94.2331 9.048C94.2331 8.152 94.5131 7.416 95.0731 6.84C95.6411 6.264 96.3091 5.976 97.0771 5.976C97.9731 5.976 98.6731 6.252 99.1771 6.804C99.6811 7.348 99.9331 8.084 99.9331 9.012C99.9331 9.26 99.9211 9.408 99.8971 9.456H95.6251C95.6411 9.896 95.8011 10.26 96.1051 10.548C96.4171 10.836 96.7891 10.98 97.2211 10.98C97.9731 10.98 98.4611 10.64 98.6851 9.96ZM102.655 8.628V12H101.263V6.156H102.619V6.936C102.803 6.616 103.047 6.38 103.351 6.228C103.663 6.068 103.995 5.988 104.347 5.988C105.035 5.988 105.559 6.204 105.919 6.636C106.279 7.068 106.459 7.624 106.459 8.304V12H105.067V8.544C105.067 8.152 104.971 7.84 104.779 7.608C104.587 7.368 104.283 7.248 103.867 7.248C103.483 7.248 103.183 7.38 102.967 7.644C102.759 7.9 102.655 8.228 102.655 8.628ZM109.918 4.368V6.156H111.13V7.392H109.918V10.104C109.918 10.36 109.978 10.548 110.098 10.668C110.218 10.78 110.406 10.836 110.662 10.836C110.822 10.836 110.982 10.82 111.142 10.788V11.94C110.934 12.028 110.65 12.072 110.29 12.072C109.746 12.072 109.318 11.92 109.006 11.616C108.694 11.304 108.538 10.876 108.538 10.332V7.392H107.458V6.156H107.758C108.054 6.156 108.278 6.072 108.43 5.904C108.582 5.736 108.658 5.516 108.658 5.244V4.368H109.918Z" fill="#5AAC4E"/>
<path d="M9.08829 7.99995C9.08829 9.15495 8.15495 10.0883 6.99995 10.0883C5.84495 10.0883 4.91162 9.15495 4.91162 7.99995C4.91162 6.84495 5.84495 5.91162 6.99995 5.91162C8.15495 5.91162 9.08829 6.84495 9.08829 7.99995Z" stroke="#5AAC4E" stroke-width="1.5" stroke-linecap="round" stroke-linejoin="round"/>
<path d="M6.99991 12.8242C9.05908 12.8242 10.9782 11.6109 12.3141 9.51088C12.8391 8.68838 12.8391 7.30588 12.3141 6.48338C10.9782 4.38338 9.05908 3.17004 6.99991 3.17004C4.94074 3.17004 3.02158 4.38338 1.68574 6.48338C1.16074 7.30588 1.16074 8.68838 1.68574 9.51088C3.02158 11.6109 4.94074 12.8242 6.99991 12.8242Z" stroke="#5AAC4E" stroke-width="1.5" stroke-linecap="round" stroke-linejoin="round"/>
</svg>
