<svg width="19" height="19" viewBox="0 0 19 19" fill="none" xmlns="http://www.w3.org/2000/svg">
<path d="M8.51151 13.3478V14.9549C8.51151 16.3166 7.24484 17.417 5.68525 17.417C4.12567 17.417 2.85107 16.3166 2.85107 14.9549V13.3478C2.85107 14.7094 4.11775 15.6753 5.68525 15.6753C7.24484 15.6753 8.51151 14.7015 8.51151 13.3478Z" stroke="#5AAC4E" stroke-width="1.5" stroke-linecap="round" stroke-linejoin="round"/>
<path d="M8.5106 11.1705C8.5106 11.5663 8.39976 11.9304 8.20976 12.2471C7.74268 13.015 6.78475 13.498 5.67642 13.498C4.56808 13.498 3.61016 13.0071 3.14307 12.2471C2.95307 11.9304 2.84229 11.5663 2.84229 11.1705C2.84229 10.4896 3.15893 9.88004 3.6656 9.4367C4.18018 8.98545 4.88474 8.71631 5.66849 8.71631C6.45224 8.71631 7.15685 8.99337 7.67143 9.4367C8.19393 9.87212 8.5106 10.4896 8.5106 11.1705Z" stroke="#5AAC4E" stroke-width="1.5" stroke-linecap="round" stroke-linejoin="round"/>
<path d="M8.51151 11.1704V13.3475C8.51151 14.7092 7.24484 15.675 5.68525 15.675C4.12567 15.675 2.85107 14.7013 2.85107 13.3475V11.1704C2.85107 9.80878 4.11775 8.70837 5.68525 8.70837C6.469 8.70837 7.17361 8.98544 7.68819 9.42877C8.19486 9.8721 8.51151 10.4896 8.51151 11.1704Z" stroke="#5AAC4E" stroke-width="1.5" stroke-linecap="round" stroke-linejoin="round"/>
<path d="M17.4165 8.68454V10.3154C17.4165 10.7508 17.0682 11.1071 16.6248 11.1229H15.0732C14.2182 11.1229 13.4344 10.4975 13.3632 9.64248C13.3157 9.14373 13.5057 8.67664 13.8382 8.35206C14.1311 8.05122 14.5348 7.87708 14.9782 7.87708H16.6248C17.0682 7.89291 17.4165 8.24913 17.4165 8.68454Z" stroke="#5AAC4E" stroke-width="1.5" stroke-linecap="round" stroke-linejoin="round"/>
<path d="M1.5835 8.31254V6.72921C1.5835 4.57587 2.88183 3.07171 4.90058 2.81837C5.10642 2.78671 5.32016 2.77087 5.54183 2.77087H12.6668C12.8727 2.77087 13.0706 2.77878 13.2606 2.81045C15.3031 3.04795 16.6252 4.56004 16.6252 6.72921V7.87713H14.9785C14.5352 7.87713 14.1314 8.05128 13.8385 8.35211C13.506 8.6767 13.316 9.14379 13.3635 9.64254C13.4348 10.4975 14.2185 11.1229 15.0735 11.1229H16.6252V12.2709C16.6252 14.6459 15.0418 16.2292 12.6668 16.2292H10.6877" stroke="#5AAC4E" stroke-width="1.5" stroke-linecap="round" stroke-linejoin="round"/>
</svg>
