<svg width="85" height="87" viewBox="0 0 85 87" fill="none" xmlns="http://www.w3.org/2000/svg">
<g filter="url(#filter0_d_1192_3245)">
<circle cx="42.5" cy="26.571" r="26.5" fill="#5AAC4E"/>
</g>
<path d="M28.5783 31.8482L25.8383 29.1081C24.7206 27.9904 24.7206 26.1517 25.8383 25.034L28.5783 22.2938C29.047 21.8251 29.4256 20.9058 29.4256 20.2568V16.3809C29.4256 14.7946 30.7236 13.4967 32.31 13.4967H36.1858C36.8347 13.4967 37.7541 13.1181 38.2228 12.6494L40.9629 9.9093C42.0806 8.79163 43.9194 8.79163 45.037 9.9093L47.7772 12.6494C48.2459 13.1181 49.1652 13.4967 49.8142 13.4967H53.69C55.2764 13.4967 56.5743 14.7946 56.5743 16.3809V20.2568C56.5743 20.9058 56.9529 21.8251 57.4216 22.2938L60.1617 25.034C61.2794 26.1517 61.2794 27.9904 60.1617 29.1081L57.4216 31.8482C56.9529 32.3169 56.5743 33.2363 56.5743 33.8853V37.7609C56.5743 39.3473 55.2764 40.6454 53.69 40.6454H49.8142C49.1652 40.6454 48.2459 41.0239 47.7772 41.4926L45.037 44.2328C43.9194 45.3505 42.0806 45.3505 40.9629 44.2328L38.2228 41.4926C37.7541 41.0239 36.8347 40.6454 36.1858 40.6454H32.31C30.7236 40.6454 29.4256 39.3473 29.4256 37.7609V33.8853C29.4256 33.2183 29.047 32.2989 28.5783 31.8482Z" stroke="white" stroke-width="1.5" stroke-linecap="round" stroke-linejoin="round"/>
<path d="M36.7665 32.247C36.2275 32.247 35.7361 32.1517 35.2925 31.961C34.8525 31.7704 34.4858 31.5045 34.1925 31.1635C33.9028 30.8189 33.7085 30.4155 33.6095 29.9535L34.9625 29.354C34.9771 29.6767 35.0615 29.9609 35.2155 30.2065C35.3695 30.4485 35.5803 30.6392 35.848 30.7785C36.1156 30.9142 36.4236 30.982 36.772 30.982C37.2633 30.982 37.6556 30.8464 37.949 30.575C38.246 30.3 38.3945 29.9389 38.3945 29.4915C38.3945 29.1762 38.3211 28.892 38.1745 28.639C38.0315 28.386 37.839 28.1862 37.597 28.0395C37.355 27.8929 37.0855 27.8195 36.7885 27.8195C36.6381 27.8195 36.5116 27.8379 36.409 27.8745V26.89H36.783C37.0616 26.89 37.3128 26.8222 37.5365 26.6865C37.7638 26.5472 37.9435 26.3639 38.0755 26.1365C38.2075 25.9092 38.2735 25.6635 38.2735 25.3995C38.2735 25.1392 38.2075 24.9045 38.0755 24.6955C37.9471 24.4829 37.7711 24.316 37.5475 24.195C37.3275 24.0704 37.0836 24.008 36.816 24.008C36.5446 24.008 36.2935 24.0722 36.0625 24.2005C35.8315 24.3252 35.6426 24.4975 35.496 24.7175C35.3493 24.9339 35.2631 25.1795 35.2375 25.4545L34.077 24.9485C34.1576 24.5305 34.3263 24.162 34.583 23.843C34.8433 23.524 35.1678 23.2765 35.5565 23.1005C35.9488 22.9209 36.376 22.831 36.838 22.831C37.366 22.831 37.8371 22.9429 38.2515 23.1665C38.6695 23.3902 38.9976 23.6927 39.236 24.074C39.478 24.4554 39.599 24.888 39.599 25.372C39.599 25.6507 39.5531 25.9129 39.4615 26.1585C39.3735 26.4005 39.2451 26.6187 39.0765 26.813C38.9115 27.0074 38.7153 27.1669 38.488 27.2915C38.7593 27.4125 38.9958 27.5794 39.1975 27.792C39.4028 28.001 39.5623 28.2485 39.676 28.5345C39.7933 28.8169 39.852 29.1322 39.852 29.4805C39.852 30.0085 39.7236 30.4815 39.467 30.8995C39.2103 31.3175 38.851 31.6475 38.389 31.8895C37.927 32.1279 37.3861 32.247 36.7665 32.247ZM42.2321 32.071V24.4095H41.0606V22.996H43.6731V32.071H42.2321ZM48.932 32.247C48.415 32.247 47.9456 32.1645 47.524 31.9995C47.106 31.8309 46.7466 31.6017 46.446 31.312C46.149 31.0224 45.9198 30.6869 45.7585 30.3055C45.5971 29.9242 45.5165 29.5172 45.5165 29.0845C45.5165 28.6042 45.6265 28.0964 45.8465 27.561C46.0665 27.0257 46.3653 26.5307 46.743 26.076L49.306 22.996H51.0495L48.3325 26.2245C48.4755 26.1512 48.6276 26.0962 48.789 26.0595C48.9503 26.0229 49.1226 26.0045 49.306 26.0045C49.713 26.0045 50.0925 26.0815 50.4445 26.2355C50.7965 26.3859 51.1045 26.6004 51.3685 26.879C51.6325 27.1577 51.8378 27.4877 51.9845 27.869C52.1348 28.2467 52.21 28.6629 52.21 29.1175C52.21 29.7335 52.0706 30.278 51.792 30.751C51.517 31.2204 51.132 31.587 50.637 31.851C50.1456 32.115 49.5773 32.247 48.932 32.247ZM48.866 31.037C49.2326 31.037 49.559 30.9564 49.845 30.795C50.1346 30.6337 50.3601 30.4119 50.5215 30.1295C50.6865 29.8435 50.769 29.5209 50.769 29.1615C50.769 28.7912 50.6865 28.463 50.5215 28.177C50.3565 27.8874 50.1328 27.66 49.8505 27.495C49.5681 27.3264 49.2528 27.242 48.9045 27.242C48.5525 27.242 48.2316 27.3282 47.942 27.5005C47.6523 27.6692 47.4213 27.9002 47.249 28.1935C47.0803 28.4869 46.996 28.815 46.996 29.178C46.996 29.5227 47.073 29.8362 47.227 30.1185C47.3846 30.4009 47.6028 30.6245 47.8815 30.7895C48.1638 30.9545 48.492 31.037 48.866 31.037Z" fill="white"/>
<defs>
<filter id="filter0_d_1192_3245" x="0" y="0.0710449" width="85" height="86" filterUnits="userSpaceOnUse" color-interpolation-filters="sRGB">
<feFlood flood-opacity="0" result="BackgroundImageFix"/>
<feColorMatrix in="SourceAlpha" type="matrix" values="0 0 0 0 0 0 0 0 0 0 0 0 0 0 0 0 0 0 127 0" result="hardAlpha"/>
<feOffset dy="17"/>
<feGaussianBlur stdDeviation="8"/>
<feComposite in2="hardAlpha" operator="out"/>
<feColorMatrix type="matrix" values="0 0 0 0 0.352941 0 0 0 0 0.67451 0 0 0 0 0.305882 0 0 0 0.28 0"/>
<feBlend mode="normal" in2="BackgroundImageFix" result="effect1_dropShadow_1192_3245"/>
<feBlend mode="normal" in="SourceGraphic" in2="effect1_dropShadow_1192_3245" result="shape"/>
</filter>
</defs>
</svg>
