<svg width="335" height="119" viewBox="0 0 335 119" fill="none" xmlns="http://www.w3.org/2000/svg">
<g clip-path="url(#clip0_131_9784)">
<rect width="335" height="119" rx="12.0986" fill="white"/>
<rect x="23" y="80" width="75" height="22" rx="11" fill="#262C26"/>
<path d="M37.2995 94H36.0795V86.91H37.2995V94ZM40.0594 91.19V94H38.8994V89.13H40.0294V89.78C40.1827 89.5133 40.3861 89.3167 40.6394 89.19C40.8994 89.0567 41.1761 88.99 41.4694 88.99C42.0427 88.99 42.4794 89.17 42.7794 89.53C43.0794 89.89 43.2294 90.3533 43.2294 90.92V94H42.0694V91.12C42.0694 90.7933 41.9894 90.5333 41.8294 90.34C41.6694 90.14 41.4161 90.04 41.0694 90.04C40.7494 90.04 40.4994 90.15 40.3194 90.37C40.1461 90.5833 40.0594 90.8567 40.0594 91.19ZM48.9928 89.13L47.0828 94H45.9228L43.9428 89.13H45.2228L46.5128 92.61L47.7728 89.13H48.9928ZM50.9967 94H49.8467V89.13H50.9967V94ZM49.8867 87.95C49.74 87.8033 49.6667 87.6267 49.6667 87.42C49.6667 87.2133 49.74 87.0367 49.8867 86.89C50.0333 86.7367 50.21 86.66 50.4167 86.66C50.63 86.66 50.81 86.7333 50.9567 86.88C51.1033 87.0267 51.1767 87.2067 51.1767 87.42C51.1767 87.6267 51.1033 87.8033 50.9567 87.95C50.81 88.0967 50.63 88.17 50.4167 88.17C50.21 88.17 50.0333 88.0967 49.8867 87.95ZM53.9632 87.64V89.13H54.9732V90.16H53.9632V92.42C53.9632 92.6333 54.0132 92.79 54.1132 92.89C54.2132 92.9833 54.3698 93.03 54.5832 93.03C54.7165 93.03 54.8498 93.0167 54.9832 92.99V93.95C54.8098 94.0233 54.5732 94.06 54.2732 94.06C53.8198 94.06 53.4632 93.9333 53.2032 93.68C52.9432 93.42 52.8132 93.0633 52.8132 92.61V90.16H51.9132V89.13H52.1632C52.4098 89.13 52.5965 89.06 52.7232 88.92C52.8498 88.78 52.9132 88.5967 52.9132 88.37V87.64H53.9632ZM56.9262 91.03H59.3162C59.3029 90.7233 59.1929 90.4667 58.9862 90.26C58.7862 90.0533 58.4962 89.95 58.1162 89.95C57.7695 89.95 57.4895 90.06 57.2762 90.28C57.0629 90.4933 56.9462 90.7433 56.9262 91.03ZM59.4462 92.3L60.4262 92.61C60.2862 93.0567 60.0229 93.4267 59.6362 93.72C59.2562 94.0067 58.7862 94.15 58.2262 94.15C57.5329 94.15 56.9429 93.9133 56.4562 93.44C55.9762 92.9667 55.7362 92.3333 55.7362 91.54C55.7362 90.7933 55.9695 90.18 56.4362 89.7C56.9095 89.22 57.4662 88.98 58.1062 88.98C58.8529 88.98 59.4362 89.21 59.8562 89.67C60.2762 90.1233 60.4862 90.7367 60.4862 91.51C60.4862 91.7167 60.4762 91.84 60.4562 91.88H56.8962C56.9095 92.2467 57.0429 92.55 57.2962 92.79C57.5562 93.03 57.8662 93.15 58.2262 93.15C58.8529 93.15 59.2595 92.8667 59.4462 92.3ZM70.1252 94H68.8752L65.3752 88.63V94H64.1752V86.91H65.7052L68.9252 91.94V86.91H70.1252V94ZM72.8721 92.7C73.1388 92.9733 73.4621 93.11 73.8421 93.11C74.2221 93.11 74.5421 92.9733 74.8021 92.7C75.0688 92.4267 75.2021 92.0467 75.2021 91.56C75.2021 91.08 75.0688 90.7067 74.8021 90.44C74.5421 90.1667 74.2221 90.03 73.8421 90.03C73.4621 90.03 73.1388 90.1667 72.8721 90.44C72.6121 90.7067 72.4821 91.08 72.4821 91.56C72.4821 92.04 72.6121 92.42 72.8721 92.7ZM73.8421 88.98C74.5755 88.98 75.1788 89.2233 75.6521 89.71C76.1321 90.1967 76.3721 90.8133 76.3721 91.56C76.3721 92.3067 76.1321 92.9267 75.6521 93.42C75.1788 93.9067 74.5755 94.15 73.8421 94.15C73.1155 94.15 72.5121 93.9067 72.0321 93.42C71.5588 92.9267 71.3221 92.3067 71.3221 91.56C71.3221 90.8133 71.5588 90.1967 72.0321 89.71C72.5121 89.2233 73.1155 88.98 73.8421 88.98ZM80.136 89.13H81.336L82.486 92.5L83.456 89.13H84.636L83.076 94H81.916L80.706 90.5L79.526 94H78.336L76.756 89.13H77.996L78.986 92.5L80.136 89.13Z" fill="white"/>
<path d="M28.316 29L26.528 25.64H25.472V29H24.02V20.492H27.284C28.084 20.492 28.728 20.74 29.216 21.236C29.704 21.724 29.948 22.336 29.948 23.072C29.948 23.68 29.776 24.2 29.432 24.632C29.088 25.064 28.62 25.352 28.028 25.496L29.948 29H28.316ZM25.472 24.368H27.02C27.46 24.368 27.812 24.252 28.076 24.02C28.348 23.78 28.484 23.464 28.484 23.072C28.484 22.672 28.348 22.356 28.076 22.124C27.812 21.884 27.46 21.764 27.02 21.764H25.472V24.368ZM32.1376 25.436H35.0056C34.9896 25.068 34.8576 24.76 34.6096 24.512C34.3696 24.264 34.0216 24.14 33.5656 24.14C33.1496 24.14 32.8136 24.272 32.5576 24.536C32.3016 24.792 32.1616 25.092 32.1376 25.436ZM35.1616 26.96L36.3376 27.332C36.1696 27.868 35.8536 28.312 35.3896 28.664C34.9336 29.008 34.3696 29.18 33.6976 29.18C32.8656 29.18 32.1576 28.896 31.5736 28.328C30.9976 27.76 30.7096 27 30.7096 26.048C30.7096 25.152 30.9896 24.416 31.5496 23.84C32.1176 23.264 32.7856 22.976 33.5536 22.976C34.4496 22.976 35.1496 23.252 35.6536 23.804C36.1576 24.348 36.4096 25.084 36.4096 26.012C36.4096 26.26 36.3976 26.408 36.3736 26.456H32.1016C32.1176 26.896 32.2776 27.26 32.5816 27.548C32.8936 27.836 33.2656 27.98 33.6976 27.98C34.4496 27.98 34.9376 27.64 35.1616 26.96ZM40.3318 21.5C40.0998 21.5 39.8958 21.568 39.7198 21.704C39.5518 21.832 39.4678 22.06 39.4678 22.388V23.156H40.8238V24.368H39.4678V29H38.0638V24.368H37.0438V23.156H38.0638V22.352C38.0638 21.704 38.2518 21.192 38.6278 20.816C39.0038 20.44 39.4958 20.252 40.1038 20.252C40.4318 20.252 40.6758 20.292 40.8358 20.372V21.56C40.6998 21.52 40.5318 21.5 40.3318 21.5ZM42.7314 25.436H45.5994C45.5834 25.068 45.4514 24.76 45.2034 24.512C44.9634 24.264 44.6154 24.14 44.1594 24.14C43.7434 24.14 43.4074 24.272 43.1514 24.536C42.8954 24.792 42.7554 25.092 42.7314 25.436ZM45.7554 26.96L46.9314 27.332C46.7634 27.868 46.4474 28.312 45.9834 28.664C45.5274 29.008 44.9634 29.18 44.2914 29.18C43.4594 29.18 42.7514 28.896 42.1674 28.328C41.5914 27.76 41.3034 27 41.3034 26.048C41.3034 25.152 41.5834 24.416 42.1434 23.84C42.7114 23.264 43.3794 22.976 44.1474 22.976C45.0434 22.976 45.7434 23.252 46.2474 23.804C46.7514 24.348 47.0034 25.084 47.0034 26.012C47.0034 26.26 46.9914 26.408 46.9674 26.456H42.6954C42.7114 26.896 42.8714 27.26 43.1754 27.548C43.4874 27.836 43.8594 27.98 44.2914 27.98C45.0434 27.98 45.5314 27.64 45.7554 26.96ZM51.7536 23.12V24.536C51.5936 24.512 51.4416 24.5 51.2976 24.5C50.2496 24.5 49.7256 25.072 49.7256 26.216V29H48.3336V23.156H49.6896V24.092C49.8256 23.78 50.0456 23.536 50.3496 23.36C50.6536 23.176 50.9976 23.084 51.3816 23.084C51.5096 23.084 51.6336 23.096 51.7536 23.12ZM57.4288 29H55.9888V20.492H61.2808V21.848H57.4288V24.236H60.8848V25.568H57.4288V29ZM65.6052 23.12V24.536C65.4452 24.512 65.2932 24.5 65.1492 24.5C64.1012 24.5 63.5772 25.072 63.5772 26.216V29H62.1852V23.156H63.5412V24.092C63.6772 23.78 63.8972 23.536 64.2012 23.36C64.5052 23.176 64.8492 23.084 65.2332 23.084C65.3612 23.084 65.4852 23.096 65.6052 23.12ZM68.1472 29H66.7672V23.156H68.1472V29ZM66.8152 21.74C66.6392 21.564 66.5512 21.352 66.5512 21.104C66.5512 20.856 66.6392 20.644 66.8152 20.468C66.9912 20.284 67.2032 20.192 67.4512 20.192C67.7072 20.192 67.9232 20.28 68.0992 20.456C68.2752 20.632 68.3632 20.848 68.3632 21.104C68.3632 21.352 68.2752 21.564 68.0992 21.74C67.9232 21.916 67.7072 22.004 67.4512 22.004C67.2032 22.004 66.9912 21.916 66.8152 21.74ZM70.915 25.436H73.783C73.767 25.068 73.635 24.76 73.387 24.512C73.147 24.264 72.799 24.14 72.343 24.14C71.927 24.14 71.591 24.272 71.335 24.536C71.079 24.792 70.939 25.092 70.915 25.436ZM73.939 26.96L75.115 27.332C74.947 27.868 74.631 28.312 74.167 28.664C73.711 29.008 73.147 29.18 72.475 29.18C71.643 29.18 70.935 28.896 70.351 28.328C69.775 27.76 69.487 27 69.487 26.048C69.487 25.152 69.767 24.416 70.327 23.84C70.895 23.264 71.563 22.976 72.331 22.976C73.227 22.976 73.927 23.252 74.431 23.804C74.935 24.348 75.187 25.084 75.187 26.012C75.187 26.26 75.175 26.408 75.151 26.456H70.879C70.895 26.896 71.055 27.26 71.359 27.548C71.671 27.836 72.043 27.98 72.475 27.98C73.227 27.98 73.715 27.64 73.939 26.96ZM77.9092 25.628V29H76.5172V23.156H77.8732V23.936C78.0572 23.616 78.3012 23.38 78.6052 23.228C78.9172 23.068 79.2492 22.988 79.6012 22.988C80.2892 22.988 80.8132 23.204 81.1732 23.636C81.5332 24.068 81.7132 24.624 81.7132 25.304V29H80.3212V25.544C80.3212 25.152 80.2252 24.84 80.0332 24.608C79.8412 24.368 79.5372 24.248 79.1212 24.248C78.7372 24.248 78.4372 24.38 78.2212 24.644C78.0132 24.9 77.9092 25.228 77.9092 25.628ZM84.3438 26.06C84.3438 26.62 84.4878 27.072 84.7758 27.416C85.0638 27.752 85.4438 27.92 85.9158 27.92C86.3718 27.92 86.7438 27.748 87.0318 27.404C87.3198 27.06 87.4638 26.608 87.4638 26.048C87.4638 25.496 87.3238 25.056 87.0438 24.728C86.7638 24.4 86.3918 24.236 85.9278 24.236C85.4638 24.236 85.0838 24.404 84.7878 24.74C84.4918 25.068 84.3438 25.508 84.3438 26.06ZM88.8078 20.312V27.932C88.8078 28.324 88.8278 28.68 88.8678 29H87.5358C87.4958 28.776 87.4758 28.524 87.4758 28.244C87.3318 28.508 87.1078 28.724 86.8038 28.892C86.4998 29.06 86.1518 29.144 85.7598 29.144C84.9278 29.144 84.2518 28.852 83.7318 28.268C83.2118 27.684 82.9518 26.948 82.9518 26.06C82.9518 25.204 83.2118 24.48 83.7318 23.888C84.2598 23.296 84.9278 23 85.7358 23C86.1998 23 86.5718 23.084 86.8518 23.252C87.1398 23.42 87.3398 23.616 87.4518 23.84V20.312H88.8078ZM90.1106 27.416L91.3226 27.08C91.3466 27.36 91.4626 27.596 91.6706 27.788C91.8786 27.98 92.1586 28.076 92.5106 28.076C92.7826 28.076 92.9946 28.012 93.1466 27.884C93.3066 27.756 93.3866 27.596 93.3866 27.404C93.3866 27.068 93.1586 26.852 92.7026 26.756L91.8386 26.564C91.3346 26.452 90.9466 26.244 90.6746 25.94C90.4026 25.636 90.2666 25.276 90.2666 24.86C90.2666 24.348 90.4746 23.908 90.8906 23.54C91.3066 23.164 91.8146 22.976 92.4146 22.976C92.7986 22.976 93.1386 23.032 93.4346 23.144C93.7306 23.256 93.9586 23.404 94.1186 23.588C94.2866 23.764 94.4146 23.936 94.5026 24.104C94.5906 24.272 94.6466 24.44 94.6706 24.608L93.4946 24.944C93.4626 24.72 93.3586 24.52 93.1826 24.344C93.0146 24.16 92.7586 24.068 92.4146 24.068C92.1746 24.068 91.9746 24.136 91.8146 24.272C91.6546 24.4 91.5746 24.556 91.5746 24.74C91.5746 25.068 91.7706 25.272 92.1626 25.352L93.0506 25.532C93.5946 25.652 94.0106 25.868 94.2986 26.18C94.5866 26.492 94.7306 26.868 94.7306 27.308C94.7306 27.796 94.5346 28.232 94.1426 28.616C93.7586 28.992 93.2186 29.18 92.5226 29.18C92.1226 29.18 91.7626 29.12 91.4426 29C91.1306 28.88 90.8826 28.728 90.6986 28.544C90.5226 28.352 90.3826 28.164 90.2786 27.98C90.1826 27.788 90.1266 27.6 90.1106 27.416ZM105.028 29L104.224 26.864H100.624L99.8315 29H98.3075L101.62 20.492H103.288L106.6 29H105.028ZM102.424 22.052L101.128 25.532H103.72L102.424 22.052ZM108.976 25.628V29H107.584V23.156H108.94V23.936C109.124 23.616 109.368 23.38 109.672 23.228C109.984 23.068 110.316 22.988 110.668 22.988C111.356 22.988 111.88 23.204 112.24 23.636C112.6 24.068 112.78 24.624 112.78 25.304V29H111.388V25.544C111.388 25.152 111.292 24.84 111.1 24.608C110.908 24.368 110.604 24.248 110.188 24.248C109.804 24.248 109.504 24.38 109.288 24.644C109.08 24.9 108.976 25.228 108.976 25.628ZM115.41 26.06C115.41 26.62 115.554 27.072 115.842 27.416C116.13 27.752 116.51 27.92 116.982 27.92C117.438 27.92 117.81 27.748 118.098 27.404C118.386 27.06 118.53 26.608 118.53 26.048C118.53 25.496 118.39 25.056 118.11 24.728C117.83 24.4 117.458 24.236 116.994 24.236C116.53 24.236 116.15 24.404 115.854 24.74C115.558 25.068 115.41 25.508 115.41 26.06ZM119.874 20.312V27.932C119.874 28.324 119.894 28.68 119.934 29H118.602C118.562 28.776 118.542 28.524 118.542 28.244C118.398 28.508 118.174 28.724 117.87 28.892C117.566 29.06 117.218 29.144 116.826 29.144C115.994 29.144 115.318 28.852 114.798 28.268C114.278 27.684 114.018 26.948 114.018 26.06C114.018 25.204 114.278 24.48 114.798 23.888C115.326 23.296 115.994 23 116.802 23C117.266 23 117.638 23.084 117.918 23.252C118.206 23.42 118.406 23.616 118.518 23.84V20.312H119.874ZM130.046 29H124.79V20.492H130.046V21.836H126.23V24.092H129.686V25.4H126.23V27.656H130.046V29ZM131.177 27.416C131.177 26.92 131.337 26.524 131.657 26.228C131.985 25.924 132.413 25.732 132.941 25.652L134.441 25.424C134.729 25.384 134.873 25.244 134.873 25.004C134.873 24.74 134.781 24.528 134.597 24.368C134.413 24.2 134.137 24.116 133.769 24.116C133.417 24.116 133.137 24.216 132.929 24.416C132.721 24.608 132.601 24.86 132.569 25.172L131.297 24.884C131.353 24.356 131.605 23.908 132.053 23.54C132.501 23.164 133.069 22.976 133.757 22.976C134.605 22.976 135.229 23.18 135.629 23.588C136.037 23.996 136.241 24.52 136.241 25.16V28.064C136.241 28.448 136.265 28.76 136.313 29H135.017C134.977 28.88 134.957 28.632 134.957 28.256C134.573 28.872 133.973 29.18 133.157 29.18C132.565 29.18 132.085 29.008 131.717 28.664C131.357 28.312 131.177 27.896 131.177 27.416ZM133.421 28.088C133.853 28.088 134.201 27.972 134.465 27.74C134.737 27.5 134.873 27.112 134.873 26.576V26.312L133.349 26.54C132.829 26.628 132.569 26.892 132.569 27.332C132.569 27.54 132.645 27.72 132.797 27.872C132.949 28.016 133.157 28.088 133.421 28.088ZM141.343 23.12V24.536C141.183 24.512 141.031 24.5 140.887 24.5C139.839 24.5 139.315 25.072 139.315 26.216V29H137.923V23.156H139.279V24.092C139.415 23.78 139.635 23.536 139.939 23.36C140.243 23.176 140.587 23.084 140.971 23.084C141.099 23.084 141.223 23.096 141.343 23.12ZM143.897 25.628V29H142.505V23.156H143.861V23.936C144.045 23.616 144.289 23.38 144.593 23.228C144.905 23.068 145.237 22.988 145.589 22.988C146.277 22.988 146.801 23.204 147.161 23.636C147.521 24.068 147.701 24.624 147.701 25.304V29H146.309V25.544C146.309 25.152 146.213 24.84 146.021 24.608C145.829 24.368 145.525 24.248 145.109 24.248C144.725 24.248 144.425 24.38 144.209 24.644C144.001 24.9 143.897 25.228 143.897 25.628ZM27.8 46.18C26.608 46.18 25.592 45.776 24.752 44.968C23.92 44.16 23.504 43.088 23.504 41.752C23.504 40.424 23.928 39.352 24.776 38.536C25.624 37.72 26.628 37.312 27.788 37.312C28.812 37.312 29.652 37.572 30.308 38.092C30.972 38.612 31.408 39.272 31.616 40.072L30.26 40.528C30.124 39.976 29.848 39.528 29.432 39.184C29.016 38.84 28.468 38.668 27.788 38.668C27.028 38.668 26.368 38.94 25.808 39.484C25.256 40.02 24.98 40.776 24.98 41.752C24.98 42.704 25.256 43.452 25.808 43.996C26.36 44.532 27.024 44.8 27.8 44.8C28.464 44.8 29.012 44.62 29.444 44.26C29.876 43.9 30.172 43.456 30.332 42.928L31.652 43.36C31.444 44.152 31.004 44.82 30.332 45.364C29.668 45.908 28.824 46.18 27.8 46.18ZM32.4345 44.416C32.4345 43.92 32.5945 43.524 32.9145 43.228C33.2425 42.924 33.6705 42.732 34.1985 42.652L35.6985 42.424C35.9865 42.384 36.1305 42.244 36.1305 42.004C36.1305 41.74 36.0385 41.528 35.8545 41.368C35.6705 41.2 35.3945 41.116 35.0265 41.116C34.6745 41.116 34.3945 41.216 34.1865 41.416C33.9785 41.608 33.8585 41.86 33.8265 42.172L32.5545 41.884C32.6105 41.356 32.8625 40.908 33.3105 40.54C33.7585 40.164 34.3265 39.976 35.0145 39.976C35.8625 39.976 36.4865 40.18 36.8865 40.588C37.2945 40.996 37.4985 41.52 37.4985 42.16V45.064C37.4985 45.448 37.5225 45.76 37.5705 46H36.2745C36.2345 45.88 36.2145 45.632 36.2145 45.256C35.8305 45.872 35.2305 46.18 34.4145 46.18C33.8225 46.18 33.3425 46.008 32.9745 45.664C32.6145 45.312 32.4345 44.896 32.4345 44.416ZM34.6785 45.088C35.1105 45.088 35.4585 44.972 35.7225 44.74C35.9945 44.5 36.1305 44.112 36.1305 43.576V43.312L34.6065 43.54C34.0865 43.628 33.8265 43.892 33.8265 44.332C33.8265 44.54 33.9025 44.72 34.0545 44.872C34.2065 45.016 34.4145 45.088 34.6785 45.088ZM38.6653 44.416L39.8773 44.08C39.9013 44.36 40.0173 44.596 40.2253 44.788C40.4333 44.98 40.7133 45.076 41.0653 45.076C41.3373 45.076 41.5493 45.012 41.7013 44.884C41.8613 44.756 41.9413 44.596 41.9413 44.404C41.9413 44.068 41.7133 43.852 41.2573 43.756L40.3933 43.564C39.8893 43.452 39.5013 43.244 39.2293 42.94C38.9573 42.636 38.8213 42.276 38.8213 41.86C38.8213 41.348 39.0293 40.908 39.4453 40.54C39.8613 40.164 40.3693 39.976 40.9693 39.976C41.3533 39.976 41.6933 40.032 41.9893 40.144C42.2853 40.256 42.5133 40.404 42.6733 40.588C42.8413 40.764 42.9693 40.936 43.0573 41.104C43.1453 41.272 43.2013 41.44 43.2253 41.608L42.0493 41.944C42.0173 41.72 41.9133 41.52 41.7373 41.344C41.5693 41.16 41.3133 41.068 40.9693 41.068C40.7293 41.068 40.5293 41.136 40.3693 41.272C40.2093 41.4 40.1293 41.556 40.1293 41.74C40.1293 42.068 40.3253 42.272 40.7173 42.352L41.6053 42.532C42.1493 42.652 42.5653 42.868 42.8533 43.18C43.1413 43.492 43.2853 43.868 43.2853 44.308C43.2853 44.796 43.0893 45.232 42.6973 45.616C42.3133 45.992 41.7733 46.18 41.0773 46.18C40.6773 46.18 40.3173 46.12 39.9973 46C39.6853 45.88 39.4373 45.728 39.2533 45.544C39.0773 45.352 38.9373 45.164 38.8333 44.98C38.7373 44.788 38.6813 44.6 38.6653 44.416ZM46.0576 42.568V46H44.6656V37.312H46.0576V40.72C46.4336 40.232 46.9896 39.988 47.7256 39.988C48.4136 39.988 48.9416 40.204 49.3096 40.636C49.6776 41.068 49.8616 41.624 49.8616 42.304V46H48.4696V42.544C48.4696 42.152 48.3736 41.84 48.1816 41.608C47.9896 41.368 47.6856 41.248 47.2696 41.248C46.9016 41.248 46.6096 41.372 46.3936 41.62C46.1856 41.868 46.0736 42.184 46.0576 42.568ZM52.9123 46H51.5563V37.312H52.9243V40.876C53.0683 40.628 53.3043 40.42 53.6323 40.252C53.9603 40.084 54.3363 40 54.7603 40C55.6083 40 56.2683 40.288 56.7403 40.864C57.2203 41.432 57.4603 42.16 57.4603 43.048C57.4603 43.952 57.2083 44.696 56.7043 45.28C56.2083 45.856 55.5443 46.144 54.7123 46.144C53.8803 46.144 53.2803 45.836 52.9123 45.22V46ZM55.6123 44.416C55.9083 44.08 56.0563 43.628 56.0563 43.06C56.0563 42.492 55.9123 42.048 55.6243 41.728C55.3363 41.4 54.9563 41.236 54.4843 41.236C54.0283 41.236 53.6523 41.4 53.3563 41.728C53.0603 42.048 52.9123 42.492 52.9123 43.06C52.9123 43.62 53.0603 44.068 53.3563 44.404C53.6523 44.74 54.0283 44.908 54.4843 44.908C54.9483 44.908 55.3243 44.744 55.6123 44.416ZM58.4384 44.416C58.4384 43.92 58.5984 43.524 58.9184 43.228C59.2464 42.924 59.6744 42.732 60.2024 42.652L61.7024 42.424C61.9904 42.384 62.1344 42.244 62.1344 42.004C62.1344 41.74 62.0424 41.528 61.8584 41.368C61.6744 41.2 61.3984 41.116 61.0304 41.116C60.6784 41.116 60.3984 41.216 60.1904 41.416C59.9824 41.608 59.8624 41.86 59.8304 42.172L58.5584 41.884C58.6144 41.356 58.8664 40.908 59.3144 40.54C59.7624 40.164 60.3304 39.976 61.0184 39.976C61.8664 39.976 62.4904 40.18 62.8904 40.588C63.2984 40.996 63.5024 41.52 63.5024 42.16V45.064C63.5024 45.448 63.5264 45.76 63.5744 46H62.2784C62.2384 45.88 62.2184 45.632 62.2184 45.256C61.8344 45.872 61.2344 46.18 60.4184 46.18C59.8264 46.18 59.3464 46.008 58.9784 45.664C58.6184 45.312 58.4384 44.896 58.4384 44.416ZM60.6824 45.088C61.1144 45.088 61.4624 44.972 61.7264 44.74C61.9984 44.5 62.1344 44.112 62.1344 43.576V43.312L60.6104 43.54C60.0904 43.628 59.8304 43.892 59.8304 44.332C59.8304 44.54 59.9064 44.72 60.0584 44.872C60.2104 45.016 60.4184 45.088 60.6824 45.088ZM67.7174 41.26C67.2694 41.26 66.8894 41.424 66.5774 41.752C66.2654 42.072 66.1094 42.512 66.1094 43.072C66.1094 43.64 66.2654 44.088 66.5774 44.416C66.8974 44.744 67.2854 44.908 67.7414 44.908C68.1494 44.908 68.4734 44.8 68.7134 44.584C68.9614 44.36 69.1254 44.108 69.2054 43.828L70.4294 44.272C70.2694 44.792 69.9574 45.24 69.4934 45.616C69.0374 45.992 68.4534 46.18 67.7414 46.18C66.8854 46.18 66.1654 45.884 65.5814 45.292C65.0054 44.7 64.7174 43.96 64.7174 43.072C64.7174 42.176 65.0014 41.436 65.5694 40.852C66.1454 40.268 66.8574 39.976 67.7054 39.976C68.4334 39.976 69.0254 40.164 69.4814 40.54C69.9454 40.916 70.2454 41.368 70.3814 41.896L69.1334 42.352C69.0534 42.048 68.8974 41.792 68.6654 41.584C68.4414 41.368 68.1254 41.26 67.7174 41.26ZM77.1376 40.156L74.7376 42.628L77.1856 46H75.4816L73.7656 43.612L73.0456 44.368V46H71.6656V37.312H73.0456V42.52L75.2896 40.156H77.1376ZM89.1615 43.756L90.8295 37.492H92.3175L89.9295 46H88.4415L86.3775 39.568L84.3135 46H82.8375L80.4255 37.492H81.9375L83.6415 43.708L85.6335 37.492H87.1335L89.1615 43.756ZM94.7608 42.568V46H93.3688V37.312H94.7608V40.72C95.1368 40.232 95.6928 39.988 96.4288 39.988C97.1168 39.988 97.6448 40.204 98.0128 40.636C98.3808 41.068 98.5648 41.624 98.5648 42.304V46H97.1728V42.544C97.1728 42.152 97.0768 41.84 96.8848 41.608C96.6928 41.368 96.3888 41.248 95.9728 41.248C95.6048 41.248 95.3128 41.372 95.0968 41.62C94.8888 41.868 94.7768 42.184 94.7608 42.568ZM101.639 46H100.259V40.156H101.639V46ZM100.307 38.74C100.131 38.564 100.043 38.352 100.043 38.104C100.043 37.856 100.131 37.644 100.307 37.468C100.483 37.284 100.695 37.192 100.943 37.192C101.199 37.192 101.415 37.28 101.591 37.456C101.767 37.632 101.855 37.848 101.855 38.104C101.855 38.352 101.767 38.564 101.591 38.74C101.415 38.916 101.199 39.004 100.943 39.004C100.695 39.004 100.483 38.916 100.307 38.74ZM104.827 46H103.435V37.312H104.827V46ZM107.595 42.436H110.463C110.447 42.068 110.315 41.76 110.067 41.512C109.827 41.264 109.479 41.14 109.023 41.14C108.607 41.14 108.271 41.272 108.015 41.536C107.759 41.792 107.619 42.092 107.595 42.436ZM110.619 43.96L111.795 44.332C111.627 44.868 111.311 45.312 110.847 45.664C110.391 46.008 109.827 46.18 109.155 46.18C108.323 46.18 107.615 45.896 107.031 45.328C106.455 44.76 106.167 44 106.167 43.048C106.167 42.152 106.447 41.416 107.007 40.84C107.575 40.264 108.243 39.976 109.011 39.976C109.907 39.976 110.607 40.252 111.111 40.804C111.615 41.348 111.867 42.084 111.867 43.012C111.867 43.26 111.855 43.408 111.831 43.456H107.559C107.575 43.896 107.735 44.26 108.039 44.548C108.351 44.836 108.723 44.98 109.155 44.98C109.907 44.98 110.395 44.64 110.619 43.96ZM122.401 38.848H119.629V46H118.189V38.848H115.429V37.492H122.401V38.848ZM124.878 42.568V46H123.486V37.312H124.878V40.72C125.254 40.232 125.81 39.988 126.546 39.988C127.234 39.988 127.762 40.204 128.13 40.636C128.498 41.068 128.682 41.624 128.682 42.304V46H127.29V42.544C127.29 42.152 127.194 41.84 127.002 41.608C126.81 41.368 126.506 41.248 126.09 41.248C125.722 41.248 125.43 41.372 125.214 41.62C125.006 41.868 124.894 42.184 124.878 42.568ZM131.349 42.436H134.217C134.201 42.068 134.069 41.76 133.821 41.512C133.581 41.264 133.233 41.14 132.777 41.14C132.361 41.14 132.025 41.272 131.769 41.536C131.513 41.792 131.373 42.092 131.349 42.436ZM134.373 43.96L135.549 44.332C135.381 44.868 135.065 45.312 134.601 45.664C134.145 46.008 133.581 46.18 132.909 46.18C132.077 46.18 131.369 45.896 130.785 45.328C130.209 44.76 129.921 44 129.921 43.048C129.921 42.152 130.201 41.416 130.761 40.84C131.329 40.264 131.997 39.976 132.765 39.976C133.661 39.976 134.361 40.252 134.865 40.804C135.369 41.348 135.621 42.084 135.621 43.012C135.621 43.26 135.609 43.408 135.585 43.456H131.313C131.329 43.896 131.489 44.26 131.793 44.548C132.105 44.836 132.477 44.98 132.909 44.98C133.661 44.98 134.149 44.64 134.373 43.96ZM138.633 48.364H137.145L138.549 45.304L136.053 40.156H137.625L139.305 43.852L140.877 40.156H142.353L138.633 48.364ZM152.061 39.484L150.765 39.892C150.709 39.564 150.545 39.264 150.273 38.992C150.001 38.72 149.609 38.584 149.097 38.584C148.673 38.584 148.321 38.704 148.041 38.944C147.769 39.184 147.633 39.472 147.633 39.808C147.633 40.392 147.965 40.756 148.629 40.9L149.853 41.152C150.589 41.296 151.157 41.588 151.557 42.028C151.957 42.468 152.157 42.992 152.157 43.6C152.157 44.304 151.885 44.912 151.341 45.424C150.805 45.928 150.073 46.18 149.145 46.18C148.145 46.18 147.365 45.92 146.805 45.4C146.245 44.872 145.929 44.26 145.857 43.564L147.201 43.18C147.249 43.66 147.441 44.064 147.777 44.392C148.113 44.72 148.569 44.884 149.145 44.884C149.641 44.884 150.021 44.776 150.285 44.56C150.557 44.336 150.693 44.052 150.693 43.708C150.693 43.428 150.593 43.188 150.393 42.988C150.193 42.78 149.913 42.636 149.553 42.556L148.353 42.304C147.689 42.168 147.161 41.892 146.769 41.476C146.385 41.06 146.193 40.54 146.193 39.916C146.193 39.204 146.477 38.592 147.045 38.08C147.613 37.568 148.293 37.312 149.085 37.312C149.989 37.312 150.681 37.532 151.161 37.972C151.641 38.404 151.941 38.908 152.061 39.484ZM154.423 42.436H157.291C157.275 42.068 157.143 41.76 156.895 41.512C156.655 41.264 156.307 41.14 155.851 41.14C155.435 41.14 155.099 41.272 154.843 41.536C154.587 41.792 154.447 42.092 154.423 42.436ZM157.447 43.96L158.623 44.332C158.455 44.868 158.139 45.312 157.675 45.664C157.219 46.008 156.655 46.18 155.983 46.18C155.151 46.18 154.443 45.896 153.859 45.328C153.283 44.76 152.995 44 152.995 43.048C152.995 42.152 153.275 41.416 153.835 40.84C154.403 40.264 155.071 39.976 155.839 39.976C156.735 39.976 157.435 40.252 157.939 40.804C158.443 41.348 158.695 42.084 158.695 43.012C158.695 43.26 158.683 43.408 158.659 43.456H154.387C154.403 43.896 154.563 44.26 154.867 44.548C155.179 44.836 155.551 44.98 155.983 44.98C156.735 44.98 157.223 44.64 157.447 43.96ZM161.417 42.628V46H160.025V40.156H161.381V40.936C161.565 40.616 161.809 40.38 162.113 40.228C162.425 40.068 162.757 39.988 163.109 39.988C163.797 39.988 164.321 40.204 164.681 40.636C165.041 41.068 165.221 41.624 165.221 42.304V46H163.829V42.544C163.829 42.152 163.733 41.84 163.541 41.608C163.349 41.368 163.045 41.248 162.629 41.248C162.245 41.248 161.945 41.38 161.729 41.644C161.521 41.9 161.417 42.228 161.417 42.628ZM167.852 43.06C167.852 43.62 167.996 44.072 168.284 44.416C168.572 44.752 168.952 44.92 169.424 44.92C169.88 44.92 170.252 44.748 170.54 44.404C170.828 44.06 170.972 43.608 170.972 43.048C170.972 42.496 170.832 42.056 170.552 41.728C170.272 41.4 169.9 41.236 169.436 41.236C168.972 41.236 168.592 41.404 168.296 41.74C168 42.068 167.852 42.508 167.852 43.06ZM172.316 37.312V44.932C172.316 45.324 172.336 45.68 172.376 46H171.044C171.004 45.776 170.984 45.524 170.984 45.244C170.84 45.508 170.616 45.724 170.312 45.892C170.008 46.06 169.66 46.144 169.268 46.144C168.436 46.144 167.76 45.852 167.24 45.268C166.72 44.684 166.46 43.948 166.46 43.06C166.46 42.204 166.72 41.48 167.24 40.888C167.768 40.296 168.436 40 169.244 40C169.708 40 170.08 40.084 170.36 40.252C170.648 40.42 170.848 40.616 170.96 40.84V37.312H172.316ZM30.128 55.848H27.356V63H25.916V55.848H23.156V54.492H30.128V55.848ZM32.6045 59.568V63H31.2125V54.312H32.6045V57.72C32.9805 57.232 33.5365 56.988 34.2725 56.988C34.9605 56.988 35.4885 57.204 35.8565 57.636C36.2245 58.068 36.4085 58.624 36.4085 59.304V63H35.0165V59.544C35.0165 59.152 34.9205 58.84 34.7285 58.608C34.5365 58.368 34.2325 58.248 33.8165 58.248C33.4485 58.248 33.1565 58.372 32.9405 58.62C32.7325 58.868 32.6205 59.184 32.6045 59.568ZM39.0751 59.436H41.9431C41.9271 59.068 41.7951 58.76 41.5471 58.512C41.3071 58.264 40.9591 58.14 40.5031 58.14C40.0871 58.14 39.7511 58.272 39.4951 58.536C39.2391 58.792 39.0991 59.092 39.0751 59.436ZM42.0991 60.96L43.2751 61.332C43.1071 61.868 42.7911 62.312 42.3271 62.664C41.8711 63.008 41.3071 63.18 40.6351 63.18C39.8031 63.18 39.0951 62.896 38.5111 62.328C37.9351 61.76 37.6471 61 37.6471 60.048C37.6471 59.152 37.9271 58.416 38.4871 57.84C39.0551 57.264 39.7231 56.976 40.4911 56.976C41.3871 56.976 42.0871 57.252 42.5911 57.804C43.0951 58.348 43.3471 59.084 43.3471 60.012C43.3471 60.26 43.3351 60.408 43.3111 60.456H39.0391C39.0551 60.896 39.2151 61.26 39.5191 61.548C39.8311 61.836 40.2031 61.98 40.6351 61.98C41.3871 61.98 41.8751 61.64 42.0991 60.96ZM46.0573 63H44.6773V57.156H46.0573V63ZM44.7253 55.74C44.5493 55.564 44.4613 55.352 44.4613 55.104C44.4613 54.856 44.5493 54.644 44.7253 54.468C44.9013 54.284 45.1133 54.192 45.3613 54.192C45.6173 54.192 45.8333 54.28 46.0093 54.456C46.1853 54.632 46.2733 54.848 46.2733 55.104C46.2733 55.352 46.1853 55.564 46.0093 55.74C45.8333 55.916 45.6173 56.004 45.3613 56.004C45.1133 56.004 44.9013 55.916 44.7253 55.74ZM51.2731 57.12V58.536C51.1131 58.512 50.9611 58.5 50.8171 58.5C49.7691 58.5 49.2451 59.072 49.2451 60.216V63H47.8531V57.156H49.2091V58.092C49.3451 57.78 49.5651 57.536 49.8691 57.36C50.1731 57.176 50.5171 57.084 50.9011 57.084C51.0291 57.084 51.1531 57.096 51.2731 57.12ZM56.9483 63H55.5083V54.492H60.8003V55.848H56.9483V58.236H60.4043V59.568H56.9483V63ZM63.4128 63H62.0328V57.156H63.4128V63ZM62.0808 55.74C61.9048 55.564 61.8168 55.352 61.8168 55.104C61.8168 54.856 61.9048 54.644 62.0808 54.468C62.2568 54.284 62.4688 54.192 62.7168 54.192C62.9728 54.192 63.1888 54.28 63.3648 54.456C63.5408 54.632 63.6288 54.848 63.6288 55.104C63.6288 55.352 63.5408 55.564 63.3648 55.74C63.1888 55.916 62.9728 56.004 62.7168 56.004C62.4688 56.004 62.2568 55.916 62.0808 55.74ZM68.6286 57.12V58.536C68.4686 58.512 68.3166 58.5 68.1726 58.5C67.1246 58.5 66.6006 59.072 66.6006 60.216V63H65.2086V57.156H66.5646V58.092C66.7006 57.78 66.9206 57.536 67.2246 57.36C67.5286 57.176 67.8726 57.084 68.2566 57.084C68.3846 57.084 68.5086 57.096 68.6286 57.12ZM69.2863 61.416L70.4983 61.08C70.5223 61.36 70.6383 61.596 70.8463 61.788C71.0543 61.98 71.3343 62.076 71.6863 62.076C71.9583 62.076 72.1703 62.012 72.3223 61.884C72.4823 61.756 72.5623 61.596 72.5623 61.404C72.5623 61.068 72.3343 60.852 71.8783 60.756L71.0143 60.564C70.5103 60.452 70.1223 60.244 69.8503 59.94C69.5783 59.636 69.4423 59.276 69.4423 58.86C69.4423 58.348 69.6503 57.908 70.0663 57.54C70.4823 57.164 70.9903 56.976 71.5903 56.976C71.9743 56.976 72.3143 57.032 72.6103 57.144C72.9063 57.256 73.1343 57.404 73.2943 57.588C73.4623 57.764 73.5903 57.936 73.6783 58.104C73.7663 58.272 73.8223 58.44 73.8463 58.608L72.6703 58.944C72.6383 58.72 72.5343 58.52 72.3583 58.344C72.1903 58.16 71.9343 58.068 71.5903 58.068C71.3503 58.068 71.1503 58.136 70.9903 58.272C70.8303 58.4 70.7503 58.556 70.7503 58.74C70.7503 59.068 70.9463 59.272 71.3383 59.352L72.2263 59.532C72.7703 59.652 73.1863 59.868 73.4743 60.18C73.7623 60.492 73.9063 60.868 73.9063 61.308C73.9063 61.796 73.7103 62.232 73.3183 62.616C72.9343 62.992 72.3943 63.18 71.6983 63.18C71.2983 63.18 70.9383 63.12 70.6183 63C70.3063 62.88 70.0583 62.728 69.8743 62.544C69.6983 62.352 69.5583 62.164 69.4543 61.98C69.3583 61.788 69.3023 61.6 69.2863 61.416ZM77.0507 55.368V57.156H78.2627V58.392H77.0507V61.104C77.0507 61.36 77.1107 61.548 77.2307 61.668C77.3507 61.78 77.5387 61.836 77.7947 61.836C77.9547 61.836 78.1147 61.82 78.2747 61.788V62.94C78.0667 63.028 77.7827 63.072 77.4227 63.072C76.8787 63.072 76.4507 62.92 76.1387 62.616C75.8267 62.304 75.6707 61.876 75.6707 61.332V58.392H74.5907V57.156H74.8907C75.1867 57.156 75.4107 57.072 75.5627 56.904C75.7147 56.736 75.7907 56.516 75.7907 56.244V55.368H77.0507ZM84.2061 58.404H85.7061C86.1621 58.404 86.5181 58.288 86.7741 58.056C87.0381 57.816 87.1701 57.496 87.1701 57.096C87.1701 56.688 87.0381 56.364 86.7741 56.124C86.5181 55.884 86.1621 55.764 85.7061 55.764H84.2061V58.404ZM85.9221 59.676H84.2061V63H82.7661V54.492H85.9221C86.7301 54.492 87.3821 54.736 87.8781 55.224C88.3821 55.712 88.6341 56.332 88.6341 57.084C88.6341 57.844 88.3821 58.468 87.8781 58.956C87.3821 59.436 86.7301 59.676 85.9221 59.676ZM89.2236 61.416C89.2236 60.92 89.3836 60.524 89.7036 60.228C90.0316 59.924 90.4596 59.732 90.9876 59.652L92.4876 59.424C92.7756 59.384 92.9196 59.244 92.9196 59.004C92.9196 58.74 92.8276 58.528 92.6436 58.368C92.4596 58.2 92.1836 58.116 91.8156 58.116C91.4636 58.116 91.1836 58.216 90.9756 58.416C90.7676 58.608 90.6476 58.86 90.6156 59.172L89.3436 58.884C89.3996 58.356 89.6516 57.908 90.0996 57.54C90.5476 57.164 91.1156 56.976 91.8036 56.976C92.6516 56.976 93.2756 57.18 93.6756 57.588C94.0836 57.996 94.2876 58.52 94.2876 59.16V62.064C94.2876 62.448 94.3116 62.76 94.3596 63H93.0636C93.0236 62.88 93.0036 62.632 93.0036 62.256C92.6196 62.872 92.0196 63.18 91.2036 63.18C90.6116 63.18 90.1316 63.008 89.7636 62.664C89.4036 62.312 89.2236 61.896 89.2236 61.416ZM91.4676 62.088C91.8996 62.088 92.2476 61.972 92.5116 61.74C92.7836 61.5 92.9196 61.112 92.9196 60.576V60.312L91.3956 60.54C90.8756 60.628 90.6156 60.892 90.6156 61.332C90.6156 61.54 90.6916 61.72 90.8436 61.872C90.9956 62.016 91.2036 62.088 91.4676 62.088ZM97.6057 65.364H96.1177L97.5217 62.304L95.0257 57.156H96.5977L98.2777 60.852L99.8497 57.156H101.326L97.6057 65.364ZM103.725 63H102.345V57.156H103.677V57.9C103.837 57.612 104.077 57.388 104.397 57.228C104.725 57.068 105.061 56.988 105.405 56.988C105.797 56.988 106.149 57.076 106.461 57.252C106.773 57.428 107.005 57.684 107.157 58.02C107.565 57.332 108.197 56.988 109.053 56.988C109.629 56.988 110.117 57.176 110.517 57.552C110.917 57.928 111.117 58.48 111.117 59.208V63H109.773V59.436C109.773 59.076 109.677 58.788 109.485 58.572C109.301 58.348 109.021 58.236 108.645 58.236C108.285 58.236 107.993 58.36 107.769 58.608C107.545 58.856 107.433 59.164 107.433 59.532V63H106.065V59.436C106.065 59.076 105.969 58.788 105.777 58.572C105.593 58.348 105.313 58.236 104.937 58.236C104.569 58.236 104.273 58.36 104.049 58.608C103.833 58.848 103.725 59.156 103.725 59.532V63ZM113.794 59.436H116.662C116.646 59.068 116.514 58.76 116.266 58.512C116.026 58.264 115.678 58.14 115.222 58.14C114.806 58.14 114.47 58.272 114.214 58.536C113.958 58.792 113.818 59.092 113.794 59.436ZM116.818 60.96L117.994 61.332C117.826 61.868 117.51 62.312 117.046 62.664C116.59 63.008 116.026 63.18 115.354 63.18C114.522 63.18 113.814 62.896 113.23 62.328C112.654 61.76 112.366 61 112.366 60.048C112.366 59.152 112.646 58.416 113.206 57.84C113.774 57.264 114.442 56.976 115.21 56.976C116.106 56.976 116.806 57.252 117.31 57.804C117.814 58.348 118.066 59.084 118.066 60.012C118.066 60.26 118.054 60.408 118.03 60.456H113.758C113.774 60.896 113.934 61.26 114.238 61.548C114.55 61.836 114.922 61.98 115.354 61.98C116.106 61.98 116.594 61.64 116.818 60.96ZM120.788 59.628V63H119.396V57.156H120.752V57.936C120.936 57.616 121.18 57.38 121.484 57.228C121.796 57.068 122.128 56.988 122.48 56.988C123.168 56.988 123.692 57.204 124.052 57.636C124.412 58.068 124.592 58.624 124.592 59.304V63H123.2V59.544C123.2 59.152 123.104 58.84 122.912 58.608C122.72 58.368 122.416 58.248 122 58.248C121.616 58.248 121.316 58.38 121.1 58.644C120.892 58.9 120.788 59.228 120.788 59.628ZM128.051 55.368V57.156H129.263V58.392H128.051V61.104C128.051 61.36 128.111 61.548 128.231 61.668C128.351 61.78 128.539 61.836 128.795 61.836C128.955 61.836 129.115 61.82 129.275 61.788V62.94C129.067 63.028 128.783 63.072 128.423 63.072C127.879 63.072 127.451 62.92 127.139 62.616C126.827 62.304 126.671 61.876 126.671 61.332V58.392H125.591V57.156H125.891C126.187 57.156 126.411 57.072 126.563 56.904C126.715 56.736 126.791 56.516 126.791 56.244V55.368H128.051Z" fill="#3C434A"/>
<g opacity="0.7">
<g opacity="0.5">
<path d="M353.842 82.6121C351.186 88.4814 344.346 93.6746 346.871 99.9898C350.017 107.887 347.91 112.692 345.212 118.705H337.722H207.449H203.985C199.67 112.764 196.611 109.139 196.279 97.4579C195.947 85.7338 209.238 70.3269 211.057 65.292C212.846 60.3434 207.16 51.1223 207.723 45.886C208.964 34.3345 219.311 25.6313 231.939 23.3152C243.066 21.2869 255.073 23.8043 265.535 28.4796C273.242 31.9034 280.674 36.593 289.131 37.2691C294.918 37.7439 300.532 36.2478 306.189 35.4134C319.697 33.3994 335.11 35.586 345.298 44.2605C351.836 49.8276 355.617 57.6246 356.396 65.3927C356.973 71.0894 356.194 77.3758 353.842 82.6121Z" fill="#E6F4E9"/>
</g>
</g>
<g opacity="0.4">
<path opacity="0.4" d="M181.27 66.5724C178.571 61.3073 180.664 54.877 185.946 52.2013C191.213 49.5112 201.33 49.727 204.028 54.9921C206.713 60.2427 198.602 64.731 195.283 69.6221C190.665 76.4408 183.954 71.823 181.27 66.5724Z" fill="#E6F4E9"/>
</g>
<path d="M189.481 110.146C190.247 110.146 190.867 109.528 190.867 108.765C190.867 108.002 190.247 107.384 189.481 107.384C188.716 107.384 188.096 108.002 188.096 108.765C188.096 109.528 188.716 110.146 189.481 110.146Z" fill="#17014C"/>
<path d="M279.736 57.9986C288.894 57.9986 296.318 50.5984 296.318 41.4697C296.318 32.341 288.894 24.9408 279.736 24.9408C270.578 24.9408 263.154 32.341 263.154 41.4697C263.154 50.5984 270.578 57.9986 279.736 57.9986Z" fill="#1B1B25"/>
<path d="M277.975 56.2436C287.133 56.2436 294.557 48.8433 294.557 39.7147C294.557 30.586 287.133 23.1858 277.975 23.1858C268.817 23.1858 261.394 30.586 261.394 39.7147C261.394 48.8433 268.817 56.2436 277.975 56.2436Z" fill="#FFB54A"/>
<path fill-rule="evenodd" clip-rule="evenodd" d="M277.975 53.0644C270.615 53.0644 264.626 47.0944 264.626 39.7578C264.626 32.4068 270.615 26.4369 277.975 26.4369C285.35 26.4369 291.339 32.4068 291.339 39.7578C291.339 47.0944 285.35 53.0644 277.975 53.0644ZM277.975 27.3C271.092 27.3 265.492 32.8816 265.492 39.7578C265.492 46.6197 271.092 52.2013 277.975 52.2013C284.874 52.2013 290.473 46.6197 290.473 39.7578C290.473 32.8816 284.874 27.3 277.975 27.3Z" fill="#FCF0E3"/>
<path fill-rule="evenodd" clip-rule="evenodd" d="M277.008 45.7278C276.171 45.6223 275.368 45.4113 274.598 45.0948C273.819 44.7879 273.107 44.3899 272.463 43.9008L273.963 41.7142C274.493 42.1074 275.002 42.4383 275.493 42.7068C275.984 42.9658 276.518 43.1528 277.095 43.2679V40.2181C276.402 40.0263 275.796 39.8154 275.277 39.5852C274.767 39.355 274.339 39.0817 273.992 38.7652C273.656 38.4487 273.401 38.0747 273.227 37.6431C273.054 37.2116 272.968 36.7177 272.968 36.1614V36.1183C272.968 35.5812 273.064 35.0969 273.256 34.6654C273.449 34.2338 273.723 33.855 274.079 33.5289C274.425 33.2124 274.849 32.9535 275.349 32.7521C275.849 32.5603 276.402 32.4308 277.008 32.3637V31.256H279V32.4068C279.693 32.5027 280.332 32.6706 280.919 32.9103C281.497 33.1501 282.05 33.4522 282.579 33.8166L281.295 36.0607C280.91 35.8114 280.52 35.586 280.126 35.3846C279.722 35.1832 279.317 35.0346 278.913 34.9387V37.8302C280.366 38.2234 281.424 38.7412 282.088 39.3838C282.752 40.0167 283.084 40.8703 283.084 41.9444V41.9876C283.084 42.5246 282.983 43.0089 282.781 43.4405C282.579 43.8721 282.305 44.2509 281.958 44.5769C281.602 44.8934 281.174 45.1524 280.674 45.3538C280.174 45.5647 279.616 45.699 279 45.7566V47.6554H277.008V45.7278ZM277.095 34.7661C276.633 34.8332 276.296 34.9722 276.085 35.1832C275.873 35.3942 275.767 35.6532 275.767 35.96V35.9888C275.767 36.2861 275.859 36.5403 276.042 36.7512C276.224 36.9622 276.575 37.1636 277.095 37.3554V34.7661ZM278.913 43.3686C279.818 43.2343 280.27 42.8267 280.27 42.1458V42.1026C280.27 41.7766 280.174 41.508 279.981 41.2971C279.789 41.0861 279.433 40.8847 278.913 40.6929V43.3686Z" fill="#1B1B25"/>
<path d="M279.736 57.9986C288.894 57.9986 296.318 50.5984 296.318 41.4697C296.318 32.341 288.894 24.9408 279.736 24.9408C270.578 24.9408 263.154 32.341 263.154 41.4697C263.154 50.5984 270.578 57.9986 279.736 57.9986Z" fill="#1B1B25"/>
<path d="M277.975 56.2436C287.133 56.2436 294.557 48.8433 294.557 39.7147C294.557 30.586 287.133 23.1858 277.975 23.1858C268.817 23.1858 261.394 30.586 261.394 39.7147C261.394 48.8433 268.817 56.2436 277.975 56.2436Z" fill="#FFB54A"/>
<path fill-rule="evenodd" clip-rule="evenodd" d="M277.975 53.0644C270.615 53.0644 264.626 47.0944 264.626 39.7578C264.626 32.4068 270.615 26.4369 277.975 26.4369C285.35 26.4369 291.339 32.4068 291.339 39.7578C291.339 47.0944 285.35 53.0644 277.975 53.0644ZM277.975 27.3C271.092 27.3 265.492 32.8816 265.492 39.7578C265.492 46.6197 271.092 52.2013 277.975 52.2013C284.874 52.2013 290.473 46.6197 290.473 39.7578C290.473 32.8816 284.874 27.3 277.975 27.3Z" fill="#FCF0E3"/>
<path d="M261.451 39.542C265.596 39.542 268.956 36.1929 268.956 32.0616C268.956 27.9303 265.596 24.5811 261.451 24.5811C257.307 24.5811 253.947 27.9303 253.947 32.0616C253.947 36.1929 257.307 39.542 261.451 39.542Z" fill="#1B1B25"/>
<path d="M260.658 38.7652C264.802 38.7652 268.162 35.4161 268.162 31.2848C268.162 27.1534 264.802 23.8043 260.658 23.8043C256.513 23.8043 253.153 27.1534 253.153 31.2848C253.153 35.4161 256.513 38.7652 260.658 38.7652Z" fill="#FFB54A"/>
<path fill-rule="evenodd" clip-rule="evenodd" d="M260.658 37.3123C257.324 37.3123 254.611 34.6222 254.611 31.2992C254.611 27.9761 257.324 25.2716 260.658 25.2716C263.991 25.2716 266.704 27.9761 266.704 31.2992C266.704 34.6222 263.991 37.3123 260.658 37.3123ZM260.658 25.6601C257.54 25.6601 255.015 28.1919 255.015 31.2992C255.015 34.4064 257.54 36.9239 260.658 36.9239C263.775 36.9239 266.315 34.4064 266.315 31.2992C266.315 28.1919 263.775 25.6601 260.658 25.6601Z" fill="#FCF0E3"/>
<path fill-rule="evenodd" clip-rule="evenodd" d="M260.225 33.9892C259.849 33.9509 259.484 33.8598 259.128 33.7159C258.781 33.5721 258.459 33.3899 258.161 33.1693L258.839 32.1767C259.08 32.3589 259.311 32.5075 259.532 32.6226C259.763 32.7473 260.008 32.8336 260.268 32.8816V31.5006C259.95 31.4142 259.676 31.3183 259.445 31.2129C259.205 31.1169 259.008 30.9971 258.854 30.8532C258.7 30.6998 258.584 30.5271 258.507 30.3353C258.43 30.1435 258.392 29.923 258.392 29.6736V29.6448C258.392 29.4051 258.435 29.1893 258.522 28.9975C258.608 28.7961 258.733 28.6235 258.897 28.4796C259.051 28.3358 259.243 28.2207 259.474 28.1344C259.695 28.0385 259.946 27.9761 260.225 27.9473V27.4439H261.119V27.9617C261.437 28.0097 261.725 28.0864 261.985 28.1919C262.255 28.307 262.51 28.446 262.75 28.6091L262.158 29.6304C261.985 29.5058 261.807 29.4003 261.624 29.314C261.451 29.2277 261.268 29.1605 261.076 29.1126V30.4216C261.74 30.6039 262.221 30.8388 262.519 31.1265C262.817 31.4142 262.967 31.8027 262.967 32.2918V32.3061C262.967 32.5459 262.923 32.7665 262.837 32.9679C262.75 33.1597 262.625 33.3275 262.461 33.4714C262.298 33.6152 262.106 33.7351 261.884 33.831C261.653 33.9269 261.398 33.9892 261.119 34.018V34.8668H260.225V33.9892ZM260.268 29.0263C260.056 29.055 259.902 29.1174 259.806 29.2133C259.71 29.3092 259.662 29.4291 259.662 29.5729V29.5873C259.662 29.7216 259.705 29.8366 259.792 29.9325C259.869 30.0284 260.027 30.1196 260.268 30.2059V29.0263ZM261.076 32.9103C261.49 32.8528 261.697 32.6706 261.697 32.3637V32.3493C261.697 32.1959 261.653 32.0712 261.567 31.9753C261.48 31.8794 261.317 31.7883 261.076 31.702V32.9103Z" fill="#1B1B25"/>
<path d="M252.186 44.7064C252.186 42.9226 250.729 41.4697 248.925 41.4697C250.729 41.4697 252.186 40.0024 252.186 38.2186C252.186 40.0024 253.644 41.4697 255.448 41.4697C253.644 41.4697 252.186 42.9226 252.186 44.7064Z" fill="white"/>
<path d="M290.473 61.0483C290.473 59.7249 289.405 58.6603 288.077 58.6603C289.405 58.6603 290.473 57.5958 290.473 56.2723C290.473 57.5958 291.541 58.6603 292.869 58.6603C291.541 58.6603 290.473 59.7249 290.473 61.0483Z" fill="white"/>
<path d="M274.829 72.5423C274.829 70.1112 272.852 68.1547 270.428 68.1547C272.852 68.1547 274.829 66.1839 274.829 63.7672C274.829 66.1839 276.806 68.1547 279.231 68.1547C276.806 68.1547 274.829 70.1112 274.829 72.5423Z" fill="white"/>
<path d="M290.026 38.6933C290.026 36.4204 288.178 34.5791 285.898 34.5791C288.178 34.5791 290.026 32.7377 290.026 30.4648C290.026 32.7377 291.873 34.5791 294.153 34.5791C291.873 34.5791 290.026 36.4204 290.026 38.6933Z" fill="#FCF0E3"/>
<path d="M303.808 41.4697C303.808 40.2182 302.798 39.1968 301.542 39.1968C302.798 39.1968 303.808 38.1754 303.808 36.9239C303.808 38.1754 304.832 39.1968 306.088 39.1968C304.832 39.1968 303.808 40.2182 303.808 41.4697Z" fill="white"/>
<path d="M238.808 38.607C238.808 41.1964 236.701 43.311 234.089 43.311H232.516V45.9148L229.63 43.311H208.748C206.15 43.311 204.028 41.1964 204.028 38.607C204.028 36.0032 206.15 33.9029 208.748 33.9029H234.089C236.701 33.9029 238.808 36.0032 238.808 38.607Z" fill="#5AAC4E"/>
<path d="M212.86 40.549C212.86 42.0739 207.304 42.0739 207.304 40.549C207.304 39.355 208.069 38.348 209.123 37.9596C208.791 37.6719 208.589 37.2691 208.589 36.8088C208.589 35.9744 209.253 35.3127 210.075 35.3127C210.912 35.3127 211.576 35.9744 211.576 36.8088C211.576 37.2691 211.374 37.6719 211.042 37.9596C212.096 38.348 212.86 39.355 212.86 40.549Z" fill="#FFB54A"/>
<path d="M234.407 36.4204H216.252C216.18 36.4204 216.108 36.3629 216.108 36.2765C216.108 36.2046 216.18 36.1327 216.252 36.1327H234.407C234.493 36.1327 234.551 36.2046 234.551 36.2765C234.551 36.3629 234.493 36.4204 234.407 36.4204Z" fill="white"/>
<path d="M231.593 40.6785H216.252C216.18 40.6785 216.108 40.6066 216.108 40.5346C216.108 40.4483 216.18 40.3908 216.252 40.3908H231.593C231.679 40.3908 231.737 40.4483 231.737 40.5346C231.737 40.6066 231.679 40.6785 231.593 40.6785Z" fill="white"/>
<path d="M227.422 38.6789H216.252C216.18 38.6789 216.108 38.6214 216.108 38.5351C216.108 38.4631 216.18 38.3912 216.252 38.3912H227.422C227.494 38.3912 227.566 38.4631 227.566 38.5351C227.566 38.6214 227.494 38.6789 227.422 38.6789Z" fill="white"/>
<path d="M234.407 38.6789H228.807C228.735 38.6789 228.663 38.6214 228.663 38.5351C228.663 38.4631 228.735 38.3912 228.807 38.3912H234.407C234.493 38.3912 234.551 38.4631 234.551 38.5351C234.551 38.6214 234.493 38.6789 234.407 38.6789Z" fill="white"/>
<path d="M211.879 40.1175C211.764 40.1175 211.663 40.0743 211.576 39.988L210.479 38.9091C210.321 38.7365 210.321 38.4631 210.479 38.2905C210.652 38.1323 210.927 38.1323 211.1 38.2905L211.879 39.0817L213.972 36.9814C214.145 36.8088 214.419 36.8088 214.592 36.9814C214.765 37.1541 214.765 37.4274 214.592 37.6L212.182 39.988C212.096 40.0743 211.995 40.1175 211.879 40.1175Z" fill="white"/>
<path d="M310.749 93.689H282.464C282.377 93.689 282.319 93.6314 282.319 93.5451C282.319 93.4732 282.377 93.4013 282.464 93.4013H310.749C310.836 93.4013 310.894 93.4732 310.894 93.5451C310.894 93.6314 310.836 93.689 310.749 93.689Z" fill="white"/>
<path d="M310.749 100.306H286.851C286.764 100.306 286.706 100.249 286.706 100.162C286.706 100.09 286.764 100.019 286.851 100.019H310.749C310.836 100.019 310.894 100.09 310.894 100.162C310.894 100.249 310.836 100.306 310.749 100.306Z" fill="white"/>
<path d="M310.749 97.2134H293.359C293.273 97.2134 293.215 97.1415 293.215 97.0695C293.215 96.9832 293.273 96.9257 293.359 96.9257H310.749C310.836 96.9257 310.894 96.9832 310.894 97.0695C310.894 97.1415 310.836 97.2134 310.749 97.2134Z" fill="white"/>
<path d="M291.195 97.2134H282.464C282.377 97.2134 282.319 97.1415 282.319 97.0695C282.319 96.9832 282.377 96.9257 282.464 96.9257H291.195C291.267 96.9257 291.339 96.9832 291.339 97.0695C291.339 97.1415 291.267 97.2134 291.195 97.2134Z" fill="white"/>
<path d="M278.755 104.19H250.454C250.382 104.19 250.31 104.133 250.31 104.047C250.31 103.975 250.382 103.903 250.454 103.903H278.755C278.827 103.903 278.899 103.975 278.899 104.047C278.899 104.133 278.827 104.19 278.755 104.19Z" fill="white"/>
<path d="M274.367 110.808H250.454C250.382 110.808 250.31 110.75 250.31 110.664C250.31 110.592 250.382 110.52 250.454 110.52H274.367C274.44 110.52 274.512 110.592 274.512 110.664C274.512 110.75 274.44 110.808 274.367 110.808Z" fill="white"/>
<path d="M267.844 107.715H250.454C250.382 107.715 250.31 107.643 250.31 107.571C250.31 107.485 250.382 107.427 250.454 107.427H267.844C267.931 107.427 267.989 107.485 267.989 107.571C267.989 107.643 267.931 107.715 267.844 107.715Z" fill="white"/>
<path d="M278.755 107.715H270.024C269.937 107.715 269.879 107.643 269.879 107.571C269.879 107.485 269.937 107.427 270.024 107.427H278.755C278.827 107.427 278.899 107.485 278.899 107.571C278.899 107.643 278.827 107.715 278.755 107.715Z" fill="white"/>
<path fill-rule="evenodd" clip-rule="evenodd" d="M320.332 77.5485L315.425 89.1575H292.681C291.527 89.1575 290.459 88.8554 289.521 88.3232C289.482 88.304 289.439 88.28 289.391 88.2513C286.23 86.7264 284.975 82.8855 286.605 79.7926L298.165 58.4158L299.536 55.2078C302.73 47.8041 305.626 45.1907 308.224 47.3677C308.224 47.3869 308.219 47.4157 308.209 47.454C308.339 47.2958 308.498 47.1663 308.671 47.08C308.945 46.9505 309.248 46.9362 309.508 47.0656C310.042 47.3102 310.244 48.0295 309.941 48.6624L306.622 55.7257C306.795 55.4668 307.387 55.0783 307.56 54.9345C307.921 54.6324 308.31 54.3591 308.743 54.1577C309.479 53.8268 310.374 53.9275 310.865 54.6468C310.951 54.7763 311.009 54.9201 310.98 55.064C310.951 55.1934 310.85 55.2941 310.749 55.3804C309.811 56.2436 308.772 57.006 307.849 57.8979C307.714 59.2214 307.074 60.2811 305.929 61.0771C304.933 61.7676 304.443 62.5588 304.255 62.9184L304.27 62.9328L300.099 77.4334L300.084 77.4621L320.332 77.5485Z" fill="#FEC29E"/>
<path opacity="0.2" d="M296.188 89.1575C295.452 89.1288 295.899 89.1432 296.188 89.1575V89.1575Z" fill="#FF887C"/>
<path opacity="0.2" d="M304.558 77.4765L296.375 89.1575C296.76 88.1122 297.179 86.9038 297.631 85.5324C297.795 85.2159 297.934 84.8803 298.05 84.5254L298.843 81.749C299.06 81.0441 299.262 80.368 299.435 79.7207L300.099 77.4334C302.062 77.4334 302.523 77.4765 304.558 77.4765Z" fill="#FF887C"/>
<path d="M303.389 56.4594C303.36 56.4594 303.331 56.4498 303.303 56.4306C303.245 56.3874 303.23 56.2867 303.274 56.2292C304.731 54.2584 306.68 55.3229 306.694 55.3373C306.766 55.3805 306.795 55.4668 306.752 55.5243C306.708 55.5962 306.622 55.625 306.55 55.5818C306.478 55.5531 304.803 54.6468 303.505 56.4018C303.476 56.4306 303.432 56.4594 303.389 56.4594Z" fill="#FB8E77"/>
<path d="M308.296 47.4253C307.69 48.1733 307.141 48.9645 306.636 49.7845C306.391 50.2017 306.175 50.6332 305.987 51.0648C305.799 51.4964 305.655 51.9711 305.669 52.4027V52.417C305.684 52.489 305.612 52.5609 305.54 52.5609C305.453 52.5753 305.395 52.5034 305.381 52.4314C305.366 51.8848 305.554 51.4101 305.742 50.9641C305.944 50.5182 306.189 50.0866 306.449 49.6694C306.968 48.8494 307.546 48.0582 308.166 47.3102C308.195 47.2814 308.238 47.267 308.282 47.2958C308.325 47.3246 308.325 47.3821 308.296 47.4253Z" fill="#FB8E77"/>
<path d="M307.286 47.0081C306.911 47.267 306.564 47.6123 306.261 47.9719C305.958 48.3459 305.684 48.7344 305.438 49.1371C305.208 49.5495 305.001 49.9811 304.818 50.4318C304.731 50.6476 304.659 50.8778 304.573 51.0936L304.371 51.7841H304.356C304.342 51.856 304.255 51.8992 304.183 51.8848C304.111 51.856 304.067 51.7841 304.082 51.6978L304.313 51.0073C304.399 50.7771 304.472 50.5469 304.573 50.3311C304.765 49.8804 304.986 49.444 305.236 49.0221C305.496 48.6049 305.785 48.2165 306.102 47.8425C306.434 47.4828 306.781 47.1376 307.199 46.8642C307.242 46.8355 307.3 46.8355 307.315 46.8786C307.343 46.9218 307.343 46.9793 307.3 47.0081H307.286Z" fill="#FB8E77"/>
<path d="M305.713 47.1232C305.164 47.6986 304.645 48.3172 304.197 48.9789C303.981 49.3098 303.779 49.655 303.606 50.0147C303.447 50.3743 303.303 50.7339 303.245 51.1223C303.231 51.1943 303.158 51.2518 303.086 51.2374C303 51.223 302.942 51.1511 302.956 51.0792C303.043 50.662 303.187 50.2736 303.375 49.8996C303.562 49.5256 303.779 49.1947 304.01 48.8494C304.486 48.1877 305.02 47.5691 305.597 47.0081C305.626 46.9649 305.684 46.9649 305.713 47.0081C305.756 47.0369 305.756 47.08 305.713 47.1232Z" fill="#FB8E77"/>
<path d="M347.304 99.213L347.521 119.827L308.844 119.612L311.658 89.1575H306.203V77.4909L323.766 77.419L339.367 77.5485C343.177 77.5485 346.352 80.0659 347.016 83.389L352.601 98.5656L347.304 99.213Z" fill="#5AAC4E"/>
<g opacity="0.1">
<path opacity="0.1" d="M311.687 88.8554L311.658 89.1575H306.203V77.4909L323.767 77.419L323.738 77.5485C317.056 77.6779 311.687 82.6841 311.687 88.8554Z" fill="#1B1B25"/>
</g>
<path opacity="0.2" d="M304.27 62.9328C303.182 66.7114 302.62 68.6678 302.581 68.8021C302.543 68.9364 302.196 66.2223 301.542 60.6599L304.27 62.9328Z" fill="#FF887C"/>
<path d="M323.579 104.392L321.241 104.852L317.878 105.514C317.2 105.643 316.536 105.212 316.406 104.536L315.844 101.716L314.934 97.1559L313.794 91.3873C313.65 90.7256 314.097 90.0638 314.776 89.92L320.476 88.7979C321.154 88.6684 321.818 89.1 321.948 89.7761L323.088 95.5015L324.56 102.924C324.69 103.586 324.257 104.248 323.579 104.392Z" fill="#1B1B25"/>
<path d="M350.176 117.296C348.964 117.569 347.737 117.411 346.684 116.936C346.482 116.859 346.28 116.773 346.077 116.677L324.315 106.003L321.573 104.982C321.563 104.972 321.554 104.967 321.544 104.967C321.544 104.967 321.539 104.967 321.53 104.967C321.52 104.958 321.501 104.948 321.472 104.938C321.462 104.938 321.448 104.934 321.429 104.924C321.409 104.914 321.39 104.905 321.371 104.895C321.352 104.886 321.328 104.876 321.299 104.866C321.284 104.866 321.27 104.852 321.241 104.852C319.639 104.19 312.625 101.054 314.256 97.6162C314.4 97.2997 314.747 97.1271 315.093 97.1415C316.233 97.2422 318.99 97.458 320.678 97.5874C321.587 97.6594 322.496 97.458 323.305 97.0408L323.391 96.9976L323.088 95.5015C323.406 95.8899 323.723 96.2783 324.069 96.638C325.262 96.6668 326.215 97.2086 326.927 98.2635C327.504 99.1267 328.168 99.5438 328.514 99.7165L328.529 99.7021L341.228 102.838L341.301 102.853L340.651 100.019L352.341 98.5944L354.91 109.758C355.689 113.138 353.567 116.519 350.176 117.296Z" fill="#FEC29E"/>
<path d="M339.107 50.2304L336.986 61.4655C336.683 63.1342 335.081 64.2275 333.407 63.911L320.534 61.5086C318.86 61.2065 317.763 59.5954 318.081 57.941L319.163 52.1581C318.196 51.3093 317.532 50.1154 317.388 48.7487C317.056 45.8285 319.163 43.1816 322.092 42.8507C323.16 42.7356 324.199 42.937 325.094 43.383C325.715 42.7932 326.523 42.376 327.447 42.2753C329.077 42.0883 330.578 42.8939 331.372 44.1885C331.906 43.8721 332.512 43.6707 333.176 43.5987C335.658 43.311 337.895 45.0517 338.241 47.4972C338.948 48.1877 339.295 49.1947 339.107 50.2304Z" fill="#1B1B25"/>
<path d="M319.466 50.662C319.423 50.662 319.379 50.6332 319.351 50.5901C317.041 46.9649 320.216 44.6345 320.245 44.6201C320.317 44.5626 320.404 44.577 320.447 44.6489C320.491 44.7064 320.476 44.8071 320.418 44.8503C320.289 44.9366 317.446 47.0369 319.596 50.4318C319.639 50.5038 319.61 50.5901 319.553 50.6332C319.524 50.6524 319.495 50.662 319.466 50.662Z" fill="#FCF0E3"/>
<path d="M338.631 62.4437L338.602 62.6019C338.285 64.2707 336.668 65.3783 334.994 65.0762L334.706 65.0187L334.345 66.9464C334.143 68.0684 333.623 69.0466 332.902 69.8234V77.7355C332.902 80.1522 330.924 82.1374 328.486 82.1374H327.1C324.676 82.1374 322.684 80.1522 322.684 77.7355V70.7729C320.736 70.3269 319.221 68.9603 318.528 67.2197C317.821 66.0401 317.518 64.6159 317.792 63.163L319.769 52.6184C320.779 53.2658 322.006 53.5966 323.305 53.4528C324.43 53.3233 325.426 52.8486 326.22 52.1581C326.941 52.8054 327.923 53.1651 328.947 53.05C329.813 52.9493 330.564 52.5465 331.112 51.9567C331.675 52.3451 332.339 52.5897 333.031 52.6904L335.874 58.7898L336.163 58.8473C337.837 59.1494 338.948 60.775 338.631 62.4437Z" fill="#FEC29E"/>
<path opacity="0.3" d="M334.706 65.0187L334.345 66.9464C334.128 68.126 333.565 69.1617 332.786 69.9673C332.324 71.9094 330.578 73.3623 328.486 73.3623H327.086C325.339 73.3623 323.824 72.3409 323.103 70.8592L322.929 70.8304C320.866 70.442 319.249 69.0323 318.528 67.2197C319.35 68.6151 320.75 69.6508 322.468 69.9673L326.956 70.8161C330.145 71.4059 333.205 69.32 333.796 66.1408L334.056 64.7742L334.706 65.0187Z" fill="#FF887C"/>
<path d="M329.265 57.6246C329.048 57.6102 328.832 57.4807 328.601 57.3656C328.385 57.2506 328.154 57.1355 327.952 57.0348C327.75 56.9485 327.519 56.8478 327.288 56.7614C327.057 56.6608 326.812 56.5744 326.667 56.4162C326.523 56.258 326.552 56.0134 326.884 55.8552C327.187 55.6969 327.807 55.6682 328.471 55.9702C329.135 56.2723 329.51 56.7758 329.568 57.1067C329.64 57.452 329.467 57.6246 329.265 57.6246Z" fill="#1B1B25"/>
<path d="M320.087 56.3011C320.332 56.0853 320.895 55.8983 321.616 55.999C322.352 56.0997 322.857 56.445 323.031 56.7183C323.218 56.9916 323.117 57.1786 322.915 57.2218C322.713 57.2793 322.468 57.2218 322.222 57.1786C321.963 57.1211 321.717 57.0779 321.501 57.0492C321.284 57.0204 321.025 56.9916 320.779 56.9772C320.534 56.9485 320.274 56.9341 320.087 56.8334C319.899 56.7327 319.841 56.5169 320.087 56.3011Z" fill="#1B1B25"/>
<path d="M326.855 59.6673L326.941 59.207C326.985 59.02 327.172 58.8905 327.36 58.9193H327.374C327.576 58.9624 327.706 59.1494 327.663 59.3365L327.576 59.7968C327.548 59.9838 327.36 60.1133 327.158 60.0845H327.143C326.956 60.0413 326.826 59.8543 326.855 59.6673Z" fill="#1B1B25"/>
<path d="M320.635 58.6603L320.721 58.2C320.765 58.013 320.952 57.8835 321.14 57.9123H321.154C321.356 57.9554 321.486 58.1425 321.443 58.3295L321.356 58.7898C321.328 58.9768 321.14 59.1063 320.938 59.0775H320.923C320.736 59.0344 320.606 58.8474 320.635 58.6603Z" fill="#1B1B25"/>
<path opacity="0.2" d="M327.014 61.2353V61.2209C327.042 60.9764 327.259 60.8038 327.504 60.8325L328.774 60.9764C329.02 60.9908 329.193 61.221 329.164 61.4511V61.4799C329.135 61.7245 328.918 61.8971 328.673 61.8683L327.403 61.7244C327.158 61.6957 326.985 61.4799 327.014 61.2353Z" fill="#FF887C"/>
<path opacity="0.2" d="M318.586 59.9119V59.8975C318.614 59.6529 318.831 59.4803 319.076 59.5091L320.361 59.6529C320.592 59.6673 320.779 59.8975 320.75 60.1277L320.736 60.1564C320.721 60.401 320.491 60.5736 320.26 60.5448L318.975 60.401C318.73 60.3722 318.557 60.1564 318.586 59.9119Z" fill="#FF887C"/>
<path d="M322.698 66.9176C322.655 66.9176 322.612 66.9032 322.583 66.86C322.54 66.7881 322.554 66.7018 322.612 66.6587C323.218 66.2127 323.896 66.4573 324.171 66.6587C324.228 66.7018 324.257 66.7881 324.199 66.86C324.156 66.9176 324.069 66.932 323.997 66.8888C323.983 66.8744 323.377 66.4573 322.785 66.8888C322.756 66.908 322.727 66.9176 322.698 66.9176Z" fill="#FB8E77"/>
<path d="M323.68 62.8321L327.057 62.343L326.682 63.5226C326.451 64.2707 325.744 64.7742 324.964 64.7742C324.344 64.7742 323.839 64.3138 323.767 63.7096L323.68 62.8321Z" fill="white"/>
<path d="M324.546 61.6381C324.536 61.6381 324.526 61.6333 324.517 61.6237L323.463 61.3648C323.016 61.2497 322.655 60.9332 322.482 60.5161C322.294 60.0989 322.323 59.6242 322.554 59.2214L324.142 56.373C324.185 56.3011 324.272 56.2723 324.344 56.3155C324.401 56.3443 324.43 56.4306 324.387 56.5025L322.8 59.3652C322.626 59.6817 322.597 60.0701 322.742 60.401C322.886 60.7462 323.175 60.9908 323.536 61.0771L324.589 61.3504C324.661 61.3792 324.704 61.4511 324.69 61.523C324.676 61.595 324.618 61.6381 324.546 61.6381Z" fill="#FB8E77"/>
<path d="M272.751 90.7975C272.703 90.8167 272.66 90.8359 272.621 90.855C271.683 91.3873 270.615 91.6894 269.461 91.6894H255.938V80.0803L262.057 79.994L257.858 65.4647L257.887 65.4503C257.699 65.0906 257.208 64.2994 256.213 63.6089C255.058 62.8129 254.414 61.7532 254.279 60.4298C253.355 59.5379 252.331 58.7898 251.378 57.9123C251.292 57.826 251.19 57.7253 251.162 57.5958C251.118 57.452 251.19 57.3081 251.277 57.1786C251.753 56.4594 252.648 56.3587 253.399 56.6895C253.831 56.8909 254.221 57.1642 254.582 57.4663C254.755 57.6102 255.332 57.9986 255.52 58.2719L252.201 51.1943C251.898 50.5613 252.085 49.842 252.619 49.5975C252.893 49.468 253.196 49.4968 253.456 49.6119C253.629 49.6982 253.788 49.8277 253.918 49.9859C253.918 49.9475 253.913 49.9188 253.904 49.8996C256.501 47.7226 259.402 50.3359 262.606 57.7397L263.962 60.9476L275.536 82.3244C277.167 85.4173 275.912 89.2583 272.751 90.7975Z" fill="#FEC29E"/>
<path opacity="0.2" d="M257.598 80.0515C259.676 80.0515 259.994 79.9652 262.072 79.9652C262.437 82.1614 263.664 86.0695 265.752 91.6894C266.647 91.6606 266.647 91.6606 265.752 91.6894L257.598 80.0515Z" fill="#FF887C"/>
<path d="M258.753 58.9912C258.709 58.9912 258.666 58.9624 258.637 58.9337C257.338 57.1786 255.65 58.0849 255.578 58.1137C255.506 58.1568 255.419 58.1281 255.39 58.0705C255.347 57.9986 255.376 57.9123 255.433 57.8691C255.462 57.8547 257.411 56.7902 258.868 58.761C258.911 58.8186 258.897 58.9193 258.839 58.9624C258.81 58.9816 258.782 58.9912 258.753 58.9912Z" fill="#FB8E77"/>
<path d="M253.976 49.842C254.322 50.1873 254.64 50.5613 254.943 50.9497C255.246 51.3237 255.52 51.7265 255.78 52.1581C256.025 52.5753 256.242 53.0212 256.429 53.4816C256.588 53.9563 256.703 54.4454 256.747 54.9489C256.761 55.0208 256.703 55.0927 256.617 55.0927C256.53 55.1071 256.472 55.0496 256.458 54.9633C256.429 54.4885 256.328 54.0282 256.184 53.5679C256.025 53.1219 255.809 52.6904 255.578 52.2732C255.347 51.856 255.073 51.4532 254.784 51.0648C254.495 50.6764 254.178 50.3024 253.846 49.9571C253.817 49.9284 253.817 49.8708 253.846 49.842C253.889 49.7989 253.932 49.8133 253.976 49.842Z" fill="#FB8E77"/>
<path d="M254.943 49.281C255.419 49.5256 255.765 49.8852 256.083 50.2736C256.4 50.6476 256.675 51.0648 256.92 51.4964C257.165 51.9279 257.367 52.3883 257.555 52.8342L257.815 53.5247L258.046 54.2296C258.074 54.3015 258.031 54.3879 257.959 54.4166C257.887 54.431 257.8 54.4022 257.771 54.3159L257.555 53.6254L257.309 52.9349C257.136 52.489 256.934 52.043 256.703 51.6115C256.487 51.1799 256.227 50.7771 255.924 50.4031C255.621 50.0291 255.275 49.6694 254.871 49.4536L254.856 49.4393C254.813 49.4249 254.798 49.3673 254.827 49.3242C254.842 49.281 254.899 49.2666 254.943 49.281Z" fill="#FB8E77"/>
<path d="M256.53 49.5256C256.848 49.7845 257.136 50.0722 257.411 50.3887C257.68 50.6956 257.925 51.0216 258.147 51.3669C258.377 51.6978 258.579 52.0574 258.753 52.4314C258.926 52.8054 259.056 53.1938 259.171 53.5966C259.2 53.6686 259.157 53.7549 259.07 53.7693C258.998 53.798 258.926 53.7549 258.897 53.6686C258.796 53.2802 258.681 52.9061 258.507 52.5465C258.363 52.1725 258.175 51.8272 257.959 51.482C257.747 51.1463 257.516 50.825 257.266 50.5182C257.006 50.2017 256.732 49.914 256.429 49.655C256.386 49.6263 256.386 49.5687 256.415 49.5399C256.444 49.5112 256.501 49.4968 256.53 49.5256Z" fill="#FB8E77"/>
<path opacity="0.2" d="M257.338 64.6447L261.812 64.098L259.041 69.5789C258.493 66.8648 257.925 65.2201 257.338 64.6447Z" fill="#FF887C"/>
<path d="M255.78 80.0227V91.6894H250.498L248.232 119.899H217.897V101.774L212.312 101.097L218.33 84.7843C218.33 84.7747 218.33 84.7652 218.33 84.7556L218.359 84.698C219.384 81.9936 221.996 80.0803 225.055 80.0803H239.184C239.251 80.0803 239.318 80.0803 239.386 80.0803L255.78 80.0227Z" fill="white"/>
<g opacity="0.1">
<path opacity="0.1" d="M255.938 91.6894H250.657L250.685 91.3873C250.685 85.3022 245.865 80.3392 239.818 80.0947V80.0803L255.938 80.0227V91.6894Z" fill="#1B1B25"/>
</g>
<path d="M251.292 93.9335L250.137 99.6877L249.228 104.248L248.679 107.067C248.535 107.744 247.871 108.175 247.207 108.046L243.83 107.384L241.507 106.924C240.829 106.78 240.381 106.132 240.511 105.456L241.998 98.0334L243.138 92.308C243.268 91.6462 243.931 91.2003 244.61 91.3298L250.31 92.4662C250.974 92.5957 251.421 93.2574 251.292 93.9335Z" fill="#1B1B25"/>
<path d="M243.787 107.37L243.83 107.384C243.696 107.441 243.59 107.485 243.513 107.513L240.598 108.607L219.08 119.151C218.878 119.247 218.676 119.334 218.474 119.41C217.421 119.885 216.194 120.043 214.982 119.77C211.591 118.993 209.469 115.612 210.248 112.232L212.817 101.069L224.507 102.478L223.857 105.327L223.915 105.312L236.629 102.176L236.644 102.191C236.773 102.133 236.932 102.047 237.12 101.903C237.437 101.659 237.813 101.313 238.159 100.795C238.433 100.393 238.751 100.091 239.068 99.8603C239.948 99.1986 240.901 99.1267 241.06 99.1123C241.392 98.767 241.695 98.4074 241.998 98.0334L241.709 99.4432L241.853 99.5151C242.661 99.9466 243.571 100.134 244.48 100.062C246.168 99.9323 248.925 99.7165 250.065 99.6158C250.171 99.6158 250.277 99.6302 250.382 99.6589C250.44 99.6493 250.483 99.6446 250.512 99.6446C250.541 99.6733 250.556 99.7165 250.584 99.7453C250.714 99.8316 250.83 99.9466 250.902 100.091C252.59 103.615 245.129 106.837 243.787 107.37Z" fill="#FEC29E"/>
<path opacity="0.2" d="M210.898 109.139C210.888 109.197 210.883 109.235 210.883 109.254C210.883 109.24 210.898 109.197 210.898 109.139Z" fill="#FF887C"/>
<path opacity="0.2" d="M214.693 107.643C214.51 107.691 214.332 107.744 214.159 107.801C212.937 108.127 211.884 108.424 210.999 108.693L224.434 102.536C224.03 104.277 224.103 104.176 223.843 105.37L214.693 107.643Z" fill="#FF887C"/>
<path opacity="0.2" d="M210.941 108.981C210.931 109.038 210.917 109.091 210.898 109.139C210.907 109.101 210.922 109.048 210.941 108.981Z" fill="#FF887C"/>
<path opacity="0.2" d="M210.999 108.693C210.97 108.808 210.955 108.894 210.941 108.981C210.96 108.885 210.98 108.789 210.999 108.693Z" fill="#FF887C"/>
<path opacity="0.3" d="M225.517 102.68C225.507 102.68 225.498 102.68 225.488 102.68L222.948 102.363C222.862 102.363 222.804 102.292 222.818 102.205C222.833 102.133 222.905 102.076 222.977 102.076L225.387 102.378L226.729 93.8328C226.744 93.7609 226.816 93.7033 226.902 93.7177C226.975 93.7321 227.032 93.8041 227.018 93.876L225.661 102.565C225.647 102.637 225.589 102.68 225.517 102.68Z" fill="#1B1B25"/>
<path opacity="0.1" d="M236.846 102.148C237.033 103.212 235.33 104.176 234.248 104.032L228.49 104.176L236.846 102.148Z" fill="#FF887C"/>
<path d="M245.634 77.7786L232.256 79.7494C226.368 80.6126 220.884 76.5415 220.019 70.6722L218.878 62.9184C218.013 57.0348 222.082 51.5827 227.985 50.7195C229.226 50.5325 230.453 50.5182 231.65 50.6332C239.742 48.9166 244.037 51.6546 244.538 58.8473L243.47 59.02C244.061 60.2859 244.494 61.6525 244.711 63.1054L246.659 76.3976C246.76 77.0737 246.298 77.6923 245.634 77.7786Z" fill="#1B1B25"/>
<path d="M238.606 58.4158C238.549 58.4158 238.476 58.3726 238.476 58.3007C238.462 58.2144 238.52 58.1425 238.592 58.1425L242.503 57.6102C242.532 57.6006 242.556 57.5814 242.575 57.5527C242.589 57.5383 242.604 57.5095 242.589 57.4807C241.969 53.9707 238.722 52.3451 238.693 52.3307C238.621 52.302 238.592 52.2156 238.621 52.1437C238.664 52.0718 238.751 52.043 238.823 52.0718C238.852 52.1006 242.214 53.7693 242.878 57.4232C242.892 57.5239 242.878 57.639 242.806 57.7253C242.748 57.8116 242.647 57.8691 242.532 57.8835L238.635 58.4158C238.625 58.4158 238.616 58.4158 238.606 58.4158Z" fill="#FCF0E3"/>
<path d="M243.657 66.0545C244.033 68.0253 243.628 69.9673 242.676 71.5497C242.676 71.5593 242.676 71.5641 242.676 71.5641C241.882 73.2616 240.511 74.6714 238.751 75.477V80.8715C238.751 83.2883 236.773 85.2735 234.335 85.2735C231.91 85.2735 229.933 83.2883 229.933 80.8715V74.0528C228.807 72.9883 227.985 71.6073 227.609 70.0105L227.407 70.0536C225.748 70.3701 224.117 69.2481 223.8 67.5937C223.497 65.925 224.608 64.2994 226.267 63.9974L226.368 63.9686C226.407 64.0261 226.436 64.0693 226.455 64.098C228.552 62.2663 229.433 59.9263 229.096 57.0779L231.694 60.9045L242.373 59.1926L243.657 66.0545Z" fill="#FEC29E"/>
<path opacity="0.3" d="M242.676 71.5497C241.824 73.4198 240.251 74.9303 238.245 75.6927C237.509 77.0881 236.037 78.0663 234.335 78.0663C232.054 78.0663 230.149 76.2969 229.947 74.0672C228.822 73.0314 227.999 71.6504 227.624 70.068C227.609 69.9961 228.302 69.8378 228.345 69.9673C229.558 73.6788 233.382 76.0092 237.336 75.2756C239.66 74.844 241.55 73.4342 242.676 71.5497Z" fill="#FF887C"/>
<path d="M225.95 68.0253C225.907 68.0253 225.863 68.0109 225.834 67.9677C225.791 67.9102 225.806 67.8239 225.863 67.7663L226.816 67.0327L225.604 65.8818C225.546 65.8243 225.531 65.738 225.589 65.6804C225.647 65.6229 225.733 65.6085 225.791 65.6661L227.148 66.932C227.177 66.9608 227.191 67.0039 227.191 67.0471C227.191 67.0902 227.162 67.1334 227.133 67.1478L226.036 67.9965C226.008 68.0157 225.979 68.0253 225.95 68.0253Z" fill="#FB8E77"/>
<path d="M233.454 62.4869C233.498 62.2855 233.714 61.9834 234.104 61.8108C234.493 61.6237 234.869 61.6381 235.056 61.7388C235.244 61.8395 235.258 61.9834 235.186 62.0697C235.099 62.156 234.955 62.2135 234.811 62.2711C234.667 62.3286 234.537 62.3862 234.421 62.4437C234.291 62.5013 234.161 62.5588 234.032 62.6307C233.902 62.7027 233.772 62.7746 233.642 62.789C233.512 62.789 233.411 62.6883 233.454 62.4869Z" fill="#1B1B25"/>
<path d="M241.29 61.4511C241.175 61.4943 241.016 61.4511 240.872 61.4223C240.728 61.3936 240.583 61.3648 240.453 61.336C240.324 61.3216 240.165 61.3073 240.021 61.2929C239.876 61.2641 239.717 61.2641 239.616 61.1922C239.515 61.1346 239.487 60.9908 239.645 60.8469C239.79 60.7031 240.136 60.5736 240.569 60.6455C241.002 60.7174 241.29 60.9332 241.377 61.1203C241.478 61.3073 241.42 61.4223 241.29 61.4511Z" fill="#1B1B25"/>
<path d="M236.976 68.7302C235.778 68.7302 234.998 67.8095 234.984 67.7951C234.941 67.7376 234.941 67.6513 234.998 67.5937C235.071 67.5506 235.157 67.5506 235.2 67.6081C235.258 67.6656 236.341 68.9459 237.885 68.2411C237.957 68.2123 238.029 68.2411 238.072 68.313C238.101 68.3849 238.072 68.4712 238 68.5C237.625 68.6726 237.293 68.7302 236.976 68.7302Z" fill="#FB8E77"/>
<path d="M237.827 66.7306C237.769 66.7306 237.697 66.6874 237.683 66.6155C237.668 66.5292 237.726 66.4573 237.798 66.4429L238.823 66.2415C239.443 66.1264 239.862 65.5078 239.732 64.8749C239.689 64.6591 239.472 64.5008 239.241 64.544C238.707 64.6591 238.188 64.2995 238.087 63.7816L237.841 62.53C237.827 62.4581 237.87 62.3862 237.957 62.3718C238.029 62.343 238.101 62.4006 238.116 62.4725L238.361 63.724C238.448 64.0981 238.808 64.3426 239.184 64.2707C239.371 64.2275 239.559 64.2707 239.717 64.3714C239.876 64.4721 239.977 64.6447 240.021 64.8173C240.179 65.6085 239.66 66.371 238.88 66.5292L237.856 66.7306C237.846 66.7306 237.837 66.7306 237.827 66.7306Z" fill="#FB8E77"/>
<path d="M234.955 65.2057C234.767 65.2489 234.58 65.1194 234.537 64.9324L234.464 64.5008C234.421 64.3138 234.551 64.1268 234.739 64.0837C234.941 64.0549 235.128 64.1844 235.157 64.3714L235.244 64.8029C235.273 64.9899 235.143 65.1769 234.955 65.2057Z" fill="#1B1B25"/>
<path d="M241.002 64.2275C240.814 64.2707 240.627 64.1412 240.598 63.9542L240.511 63.5226C240.468 63.3356 240.598 63.1486 240.8 63.1054C240.987 63.0767 241.175 63.2061 241.218 63.3932L241.291 63.8103C241.334 64.0117 241.204 64.1987 241.002 64.2275Z" fill="#1B1B25"/>
<path opacity="0.2" d="M234.71 66.8169L233.483 66.9464C233.238 66.9751 233.021 66.8025 232.992 66.558C232.964 66.3278 233.137 66.0976 233.382 66.0689L234.609 65.9394C234.84 65.9106 235.071 66.0832 235.099 66.3278C235.114 66.5723 234.941 66.7881 234.71 66.8169Z" fill="#FF887C"/>
<path opacity="0.2" d="M242.892 65.5222L241.68 65.6661C241.435 65.6948 241.218 65.5222 241.19 65.2777C241.161 65.0331 241.334 64.8173 241.579 64.7885L242.806 64.6591C243.037 64.6303 243.268 64.8029 243.282 65.0475C243.311 65.2777 243.138 65.5078 242.892 65.5222Z" fill="#FF887C"/>
<path d="M239.285 71.8662C239.256 71.8662 239.227 71.8566 239.198 71.8375C238.635 71.4203 238.043 71.8231 238.015 71.8375C237.957 71.8806 237.87 71.8662 237.827 71.8087C237.769 71.7367 237.784 71.6504 237.856 71.6073C238.116 71.4203 238.779 71.1757 239.371 71.6073C239.443 71.6504 239.458 71.7511 239.4 71.8087C239.371 71.8518 239.328 71.8662 239.285 71.8662Z" fill="#FB8E77"/>
</g>
<defs>
<clipPath id="clip0_131_9784">
<rect width="335" height="119" rx="12.0986" fill="white"/>
</clipPath>
</defs>
</svg>
