<svg width="26" height="37" viewBox="0 0 26 37" fill="none" xmlns="http://www.w3.org/2000/svg">
<g opacity="0.4">
<path d="M13.6465 8.24983L19.7965 2.09983" stroke="white" stroke-width="1.5" stroke-linecap="round" stroke-linejoin="round"/>
<path d="M20.3959 5.09998V1.49998H16.7959" stroke="white" stroke-width="1.5" stroke-linecap="round" stroke-linejoin="round"/>
</g>
<path d="M12.1465 1.49998H10.6465C6.89648 1.49998 5.39648 2.99998 5.39648 6.74998V11.25C5.39648 15 6.89648 16.5 10.6465 16.5H15.1465C18.8965 16.5 20.3965 15 20.3965 11.25V9.74998" stroke="white" stroke-width="1.5" stroke-linecap="round" stroke-linejoin="round"/>
<path d="M6.32614 28.027L5.13814 28.401C5.0868 28.1003 4.93647 27.8253 4.68714 27.576C4.4378 27.3266 4.07847 27.202 3.60914 27.202C3.22047 27.202 2.8978 27.312 2.64114 27.532C2.3918 27.752 2.26714 28.016 2.26714 28.324C2.26714 28.8593 2.57147 29.193 3.18014 29.325L4.30214 29.556C4.9768 29.688 5.49747 29.9556 5.86414 30.359C6.2308 30.7623 6.41414 31.2426 6.41414 31.8C6.41414 32.4453 6.1648 33.0026 5.66614 33.472C5.1748 33.934 4.5038 34.165 3.65314 34.165C2.73647 34.165 2.02147 33.9266 1.50814 33.45C0.994803 32.966 0.705137 32.405 0.639137 31.767L1.87114 31.415C1.91514 31.855 2.09114 32.2253 2.39914 32.526C2.70714 32.8266 3.12514 32.977 3.65314 32.977C4.1078 32.977 4.45614 32.878 4.69814 32.68C4.94747 32.4746 5.07214 32.2143 5.07214 31.899C5.07214 31.6423 4.98047 31.4223 4.79714 31.239C4.6138 31.0483 4.35714 30.9163 4.02714 30.843L2.92714 30.612C2.31847 30.4873 1.83447 30.2343 1.47514 29.853C1.12314 29.4716 0.947137 28.995 0.947137 28.423C0.947137 27.7703 1.20747 27.2093 1.72814 26.74C2.2488 26.2706 2.87214 26.036 3.59814 26.036C4.4268 26.036 5.06114 26.2376 5.50114 26.641C5.94114 27.037 6.21614 27.499 6.32614 28.027ZM8.4909 30.733H11.1199C11.1052 30.3956 10.9842 30.1133 10.7569 29.886C10.5369 29.6586 10.2179 29.545 9.7999 29.545C9.41857 29.545 9.11057 29.666 8.8759 29.908C8.64124 30.1426 8.5129 30.4176 8.4909 30.733ZM11.2629 32.13L12.3409 32.471C12.1869 32.9623 11.8972 33.3693 11.4719 33.692C11.0539 34.0073 10.5369 34.165 9.9209 34.165C9.15824 34.165 8.50924 33.9046 7.9739 33.384C7.4459 32.8633 7.1819 32.1666 7.1819 31.294C7.1819 30.4726 7.43857 29.798 7.9519 29.27C8.47257 28.742 9.0849 28.478 9.7889 28.478C10.6102 28.478 11.2519 28.731 11.7139 29.237C12.1759 29.7356 12.4069 30.4103 12.4069 31.261C12.4069 31.4883 12.3959 31.624 12.3739 31.668H8.4579C8.47257 32.0713 8.61924 32.405 8.8979 32.669C9.1839 32.933 9.5249 33.065 9.9209 33.065C10.6102 33.065 11.0576 32.7533 11.2629 32.13ZM14.9023 30.909V34H13.6263V28.643H14.8693V29.358C15.0379 29.0646 15.2616 28.8483 15.5403 28.709C15.8263 28.5623 16.1306 28.489 16.4533 28.489C17.0839 28.489 17.5643 28.687 17.8943 29.083C18.2243 29.479 18.3893 29.9886 18.3893 30.612V34H17.1133V30.832C17.1133 30.4726 17.0253 30.1866 16.8493 29.974C16.6733 29.754 16.3946 29.644 16.0133 29.644C15.6613 29.644 15.3863 29.765 15.1883 30.007C14.9976 30.2416 14.9023 30.5423 14.9023 30.909ZM20.8007 31.305C20.8007 31.8183 20.9327 32.2326 21.1967 32.548C21.4607 32.856 21.809 33.01 22.2417 33.01C22.6597 33.01 23.0007 32.8523 23.2647 32.537C23.5287 32.2216 23.6607 31.8073 23.6607 31.294C23.6607 30.788 23.5323 30.3846 23.2757 30.084C23.019 29.7833 22.678 29.633 22.2527 29.633C21.8273 29.633 21.479 29.787 21.2077 30.095C20.9363 30.3956 20.8007 30.799 20.8007 31.305ZM24.8927 26.036V33.021C24.8927 33.3803 24.911 33.7066 24.9477 34H23.7267C23.69 33.7946 23.6717 33.5636 23.6717 33.307C23.5397 33.549 23.3343 33.747 23.0557 33.901C22.777 34.055 22.458 34.132 22.0987 34.132C21.336 34.132 20.7163 33.8643 20.2397 33.329C19.763 32.7936 19.5247 32.119 19.5247 31.305C19.5247 30.5203 19.763 29.8566 20.2397 29.314C20.7237 28.7713 21.336 28.5 22.0767 28.5C22.502 28.5 22.843 28.577 23.0997 28.731C23.3637 28.885 23.547 29.0646 23.6497 29.27V26.036H24.8927Z" fill="white"/>
</svg>
