<svg width="44" height="71" viewBox="0 0 44 71" fill="none" xmlns="http://www.w3.org/2000/svg">
<path d="M1.492 52L5.41 42.1H6.544L10.462 52H9.148L8.05 49.114H3.904L2.8 52H1.492ZM4.318 48.04H7.636L5.974 43.726L4.318 48.04ZM14.7772 52.192C14.2092 52.192 13.6932 52.052 13.2292 51.772C12.7692 51.492 12.4032 51.106 12.1312 50.614C11.8632 50.122 11.7292 49.56 11.7292 48.928C11.7292 48.3 11.8612 47.742 12.1252 47.254C12.3932 46.762 12.7572 46.374 13.2172 46.09C13.6812 45.806 14.2092 45.664 14.8012 45.664C15.3132 45.664 15.7792 45.78 16.1992 46.012C16.6232 46.244 16.9592 46.566 17.2072 46.978V41.674H18.3712V52H17.2072V50.848C16.9432 51.268 16.5992 51.598 16.1752 51.838C15.7512 52.074 15.2852 52.192 14.7772 52.192ZM15.0892 51.19C15.5092 51.19 15.8812 51.094 16.2052 50.902C16.5292 50.706 16.7832 50.438 16.9672 50.098C17.1512 49.758 17.2432 49.37 17.2432 48.934C17.2432 48.494 17.1512 48.104 16.9672 47.764C16.7832 47.42 16.5292 47.152 16.2052 46.96C15.8812 46.764 15.5112 46.666 15.0952 46.666C14.6792 46.666 14.3092 46.764 13.9852 46.96C13.6612 47.152 13.4052 47.42 13.2172 47.764C13.0332 48.104 12.9412 48.494 12.9412 48.934C12.9412 49.37 13.0332 49.758 13.2172 50.098C13.4012 50.438 13.6552 50.706 13.9792 50.902C14.3032 51.094 14.6732 51.19 15.0892 51.19ZM23.4257 52.192C22.8577 52.192 22.3417 52.052 21.8777 51.772C21.4177 51.492 21.0517 51.106 20.7797 50.614C20.5117 50.122 20.3777 49.56 20.3777 48.928C20.3777 48.3 20.5097 47.742 20.7737 47.254C21.0417 46.762 21.4057 46.374 21.8657 46.09C22.3297 45.806 22.8577 45.664 23.4497 45.664C23.9617 45.664 24.4277 45.78 24.8477 46.012C25.2717 46.244 25.6077 46.566 25.8557 46.978V41.674H27.0197V52H25.8557V50.848C25.5917 51.268 25.2477 51.598 24.8237 51.838C24.3997 52.074 23.9337 52.192 23.4257 52.192ZM23.7377 51.19C24.1577 51.19 24.5297 51.094 24.8537 50.902C25.1777 50.706 25.4317 50.438 25.6157 50.098C25.7997 49.758 25.8917 49.37 25.8917 48.934C25.8917 48.494 25.7997 48.104 25.6157 47.764C25.4317 47.42 25.1777 47.152 24.8537 46.96C24.5297 46.764 24.1597 46.666 23.7437 46.666C23.3277 46.666 22.9577 46.764 22.6337 46.96C22.3097 47.152 22.0537 47.42 21.8657 47.764C21.6817 48.104 21.5897 48.494 21.5897 48.934C21.5897 49.37 21.6817 49.758 21.8657 50.098C22.0497 50.438 22.3037 50.706 22.6277 50.902C22.9517 51.094 23.3217 51.19 23.7377 51.19ZM4.498 67L1.582 57.1H2.938L5.236 65.374L7.9 57.1H8.83L11.5 65.374L13.792 57.1H15.148L12.232 67H10.87L8.368 59.476L5.866 67H4.498ZM18.7442 67.192C18.1722 67.192 17.6542 67.052 17.1902 66.772C16.7302 66.488 16.3642 66.1 16.0922 65.608C15.8242 65.116 15.6902 64.554 15.6902 63.922C15.6902 63.298 15.8222 62.742 16.0862 62.254C16.3502 61.762 16.7122 61.374 17.1722 61.09C17.6322 60.806 18.1562 60.664 18.7442 60.664C19.2642 60.664 19.7382 60.78 20.1662 61.012C20.5982 61.244 20.9322 61.566 21.1682 61.978V60.856H22.3322V67H21.1682V65.848C20.9002 66.272 20.5562 66.602 20.1362 66.838C19.7162 67.074 19.2522 67.192 18.7442 67.192ZM19.0562 66.19C19.4762 66.19 19.8462 66.094 20.1662 65.902C20.4902 65.706 20.7442 65.438 20.9282 65.098C21.1122 64.758 21.2042 64.368 21.2042 63.928C21.2042 63.488 21.1122 63.098 20.9282 62.758C20.7442 62.418 20.4902 62.152 20.1662 61.96C19.8462 61.764 19.4762 61.666 19.0562 61.666C18.6402 61.666 18.2702 61.764 17.9462 61.96C17.6222 62.152 17.3662 62.418 17.1782 62.758C16.9942 63.098 16.9022 63.488 16.9022 63.928C16.9022 64.364 16.9942 64.754 17.1782 65.098C17.3662 65.438 17.6222 65.706 17.9462 65.902C18.2702 66.094 18.6402 66.19 19.0562 66.19ZM24.7886 67V56.68H25.9526V67H24.7886ZM28.4097 67V56.68H29.5737V67H28.4097ZM34.9288 67.192C34.2848 67.192 33.7068 67.05 33.1948 66.766C32.6828 66.482 32.2788 66.096 31.9828 65.608C31.6868 65.116 31.5388 64.562 31.5388 63.946C31.5388 63.49 31.6228 63.064 31.7908 62.668C31.9588 62.272 32.1928 61.924 32.4928 61.624C32.7928 61.32 33.1408 61.084 33.5368 60.916C33.9328 60.748 34.3568 60.664 34.8088 60.664C35.4488 60.664 36.0088 60.796 36.4888 61.06C36.9728 61.324 37.3488 61.692 37.6168 62.164C37.8888 62.636 38.0248 63.184 38.0248 63.808C38.0248 63.86 38.0228 63.902 38.0188 63.934C38.0148 63.966 38.0068 64.008 37.9948 64.06H32.7148C32.7148 64.488 32.8108 64.866 33.0028 65.194C33.1988 65.522 33.4668 65.78 33.8068 65.968C34.1508 66.152 34.5448 66.244 34.9888 66.244C35.4088 66.244 35.7848 66.158 36.1168 65.986C36.4488 65.814 36.7368 65.558 36.9808 65.218L37.8328 65.662C37.5408 66.146 37.1388 66.522 36.6268 66.79C36.1188 67.058 35.5528 67.192 34.9288 67.192ZM32.7748 63.202H36.8548C36.7988 62.886 36.6748 62.61 36.4828 62.374C36.2948 62.134 36.0568 61.948 35.7688 61.816C35.4848 61.68 35.1708 61.612 34.8268 61.612C34.4668 61.612 34.1408 61.678 33.8488 61.81C33.5608 61.938 33.3228 62.122 33.1348 62.362C32.9508 62.598 32.8308 62.878 32.7748 63.202ZM41.6098 67.192C41.1058 67.192 40.7138 67.026 40.4338 66.694C40.1538 66.358 40.0138 65.888 40.0138 65.284V61.738H39.3298V60.856H40.0138V58.558H41.1778V60.856H42.6538V61.738H41.1778V65.212C41.1778 65.516 41.2378 65.75 41.3578 65.914C41.4778 66.078 41.6498 66.16 41.8738 66.16C42.0978 66.16 42.2978 66.094 42.4738 65.962L42.7678 66.892C42.6118 66.984 42.4298 67.056 42.2218 67.108C42.0178 67.164 41.8138 67.192 41.6098 67.192Z" fill="white"/>
<circle cx="13.5" cy="13.5" r="13.5" fill="#64B857"/>
<path d="M8.16667 10.9583H14.875" stroke="white" stroke-miterlimit="10" stroke-linecap="round" stroke-linejoin="round"/>
<path opacity="0.4" d="M10.5 15.625H11.6667" stroke="white" stroke-miterlimit="10" stroke-linecap="round" stroke-linejoin="round"/>
<path opacity="0.4" d="M13.125 15.625H15.4583" stroke="white" stroke-miterlimit="10" stroke-linecap="round" stroke-linejoin="round"/>
<path d="M19.8333 13.0175V15.3975C19.8333 17.445 19.3142 17.9584 17.2433 17.9584H10.7567C8.68584 17.9584 8.16667 17.445 8.16667 15.3975V10.6025C8.16667 8.55502 8.68584 8.04169 10.7567 8.04169H14.875" stroke="white" stroke-linecap="round" stroke-linejoin="round"/>
<g opacity="0.4">
<path d="M16.625 9.64581H19.8333" stroke="white" stroke-linecap="round"/>
<path d="M18.2292 11.25V8.04169" stroke="white" stroke-linecap="round"/>
</g>
</svg>
