<svg width="76" height="40" viewBox="0 0 76 40" fill="none" xmlns="http://www.w3.org/2000/svg">
<rect width="24" height="24" rx="4" fill="#5AAC4E"/>
<path d="M6.64431 12.4625L6.08019 11.5105L8.32492 9.4421H4.68165V8.38437H9.85275V9.41859L7.67854 11.4283C8.2975 11.4283 8.84203 11.632 9.31213 12.0394C9.79007 12.4468 10.029 13.0149 10.029 13.7435C10.029 14.4173 9.78223 14.9932 9.28863 15.4711C8.79502 15.9491 8.12121 16.188 7.2672 16.188C6.42885 16.188 5.75504 15.9569 5.24577 15.4946C4.74433 15.0245 4.47402 14.4565 4.43484 13.7905L5.56308 13.532C5.58659 14.0256 5.75504 14.4252 6.06844 14.7307C6.38968 15.0285 6.78534 15.1773 7.25545 15.1773C7.75689 15.1773 8.14864 15.0441 8.4307 14.7777C8.72059 14.5035 8.86554 14.1666 8.86554 13.767C8.86554 13.3048 8.71276 12.9522 8.40719 12.7093C8.10163 12.4664 7.7373 12.345 7.31421 12.345C7.08699 12.345 6.86369 12.3841 6.64431 12.4625ZM12.5292 16H11.4362V10.347H12.4939V11.0992C12.6663 10.8015 12.9092 10.5743 13.2226 10.4176C13.536 10.2609 13.8651 10.1825 14.2098 10.1825C14.5781 10.1825 14.915 10.2726 15.2205 10.4528C15.5261 10.633 15.7533 10.8994 15.9022 11.252C16.2939 10.539 16.9246 10.1825 17.7943 10.1825C18.3349 10.1825 18.7933 10.3666 19.1694 10.7349C19.5533 11.1031 19.7452 11.6359 19.7452 12.3332V16H18.6523V12.4507C18.6523 12.059 18.5504 11.7456 18.3467 11.5105C18.1508 11.2755 17.8531 11.158 17.4535 11.158C17.0696 11.158 16.7562 11.2951 16.5133 11.5693C16.2704 11.8357 16.149 12.1726 16.149 12.58V16H15.0442V12.4507C15.0442 12.059 14.9424 11.7456 14.7387 11.5105C14.5428 11.2755 14.2451 11.158 13.8455 11.158C13.4537 11.158 13.1364 11.2912 12.8935 11.5576C12.6506 11.8239 12.5292 12.1687 12.5292 12.5918V16Z" fill="white"/>
<rect x="26.5" y="0.5" width="23" height="23" rx="3.5" fill="#EFF5EF" stroke="#DFEEDF"/>
<path d="M36.1701 8.63118L35.8175 9.57138C35.4414 9.352 34.987 9.24231 34.4542 9.24231C33.6785 9.24231 33.0478 9.49694 32.562 10.0062C32.0841 10.5155 31.8216 11.1697 31.7746 11.9689C31.947 11.6868 32.2056 11.4518 32.5503 11.2637C32.9029 11.0757 33.3142 10.9817 33.7843 10.9817C34.56 10.9817 35.1868 11.2128 35.6647 11.6751C36.1505 12.1373 36.3934 12.772 36.3934 13.579C36.3934 14.3703 36.1191 15.001 35.5707 15.4711C35.0222 15.9412 34.3563 16.1763 33.5728 16.1763C32.7579 16.1763 32.0567 15.8825 31.4691 15.2948C30.8893 14.6994 30.5994 13.818 30.5994 12.6505C30.5994 11.2716 30.9676 10.1864 31.7041 9.39509C32.4406 8.60375 33.3808 8.20809 34.5247 8.20809C35.222 8.20809 35.7705 8.34912 36.1701 8.63118ZM31.9392 13.579C31.9392 14.0569 32.1037 14.4448 32.4328 14.7425C32.7618 15.0324 33.1458 15.1773 33.5845 15.1773C34.0468 15.1773 34.4346 15.0324 34.748 14.7425C35.0692 14.4526 35.2299 14.0648 35.2299 13.579C35.2299 13.0854 35.0692 12.6936 34.748 12.4037C34.4346 12.1138 34.0468 11.9689 33.5845 11.9689C33.1223 11.9689 32.7305 12.1138 32.4093 12.4037C32.0959 12.6936 31.9392 13.0854 31.9392 13.579ZM38.8506 16H37.7576V10.347H38.8153V11.0992C38.9877 10.8015 39.2306 10.5743 39.544 10.4176C39.8574 10.2609 40.1864 10.1825 40.5312 10.1825C40.8994 10.1825 41.2363 10.2726 41.5419 10.4528C41.8474 10.633 42.0747 10.8994 42.2235 11.252C42.6153 10.539 43.246 10.1825 44.1157 10.1825C44.6563 10.1825 45.1146 10.3666 45.4907 10.7349C45.8746 11.1031 46.0666 11.6359 46.0666 12.3332V16H44.9736V12.4507C44.9736 12.059 44.8718 11.7456 44.668 11.5105C44.4722 11.2755 44.1744 11.158 43.7749 11.158C43.3909 11.158 43.0775 11.2951 42.8347 11.5693C42.5918 11.8357 42.4703 12.1726 42.4703 12.58V16H41.3656V12.4507C41.3656 12.059 41.2637 11.7456 41.06 11.5105C40.8642 11.2755 40.5664 11.158 40.1668 11.158C39.7751 11.158 39.4578 11.2912 39.2149 11.5576C38.972 11.8239 38.8506 12.1687 38.8506 12.5918V16Z" fill="#90949E"/>
<rect x="52.5" y="0.5" width="23" height="23" rx="3.5" fill="#EFF5EF" stroke="#DFEEDF"/>
<path d="M63.2672 16H62.139V10.6291H60.2938V9.81818C60.8109 9.81035 61.2458 9.67715 61.5983 9.41859C61.9509 9.1522 62.1703 8.80746 62.2565 8.38437H63.2672V16ZM66.4937 18.3623H65.2832L66.6935 15.3771L64.2607 10.347H65.53L67.2929 14.2489L68.9853 10.347H70.1723L66.4937 18.3623Z" fill="#90949E"/>
<path d="M18.3936 38V37.6672C19.1123 37.1047 19.731 36.6063 20.2497 36.172C20.7685 35.7345 21.2028 35.347 21.5528 35.0095C21.9028 34.672 22.1809 34.3689 22.3871 34.1002C22.5934 33.8315 22.7402 33.583 22.8277 33.3549C22.9152 33.1268 22.959 32.9018 22.959 32.68C22.959 32.33 22.8746 32.0128 22.7058 31.7285C22.5402 31.4441 22.3168 31.2175 22.0356 31.0488C21.7543 30.8801 21.4419 30.7957 21.0981 30.7957C20.7544 30.7957 20.4419 30.8801 20.1607 31.0488C19.8794 31.2175 19.6482 31.4488 19.467 31.7425C19.2857 32.0363 19.1779 32.3737 19.1435 32.755L18.5014 32.5393C18.5358 32.1956 18.6248 31.8769 18.7686 31.5831C18.9154 31.2894 19.106 31.0332 19.3404 30.8144C19.5779 30.5957 19.8482 30.4254 20.1513 30.3035C20.4544 30.1817 20.781 30.1207 21.1309 30.1207C21.6153 30.1207 22.0543 30.2332 22.4481 30.4582C22.8418 30.6801 23.1543 30.9832 23.3855 31.3675C23.6167 31.7519 23.7324 32.1862 23.7324 32.6706C23.7324 32.9206 23.6949 33.1659 23.6199 33.4065C23.5449 33.6471 23.4183 33.8987 23.2402 34.1611C23.0652 34.4236 22.8293 34.7095 22.5324 35.0189C22.2356 35.3251 21.8653 35.6673 21.4215 36.0454C20.9809 36.4235 20.4544 36.8516 19.8419 37.3297H23.873V38H18.3936ZM28.5702 38.15C27.939 38.15 27.3859 37.9828 26.9109 37.6485C26.4391 37.311 26.0719 36.8407 25.8094 36.2376C25.5469 35.6345 25.4157 34.9345 25.4157 34.1377C25.4157 33.3377 25.5469 32.6378 25.8094 32.0378C26.0719 31.4347 26.4391 30.966 26.9109 30.6316C27.3859 30.2942 27.939 30.1254 28.5702 30.1254C29.2014 30.1254 29.7529 30.2942 30.2248 30.6316C30.6966 30.966 31.0638 31.4347 31.3263 32.0378C31.5919 32.6378 31.7247 33.3377 31.7247 34.1377C31.7247 34.9345 31.5919 35.6345 31.3263 36.2376C31.0638 36.8407 30.6966 37.311 30.2248 37.6485C29.7529 37.9828 29.2014 38.15 28.5702 38.15ZM28.5702 37.5078C29.0514 37.5078 29.4717 37.3688 29.8311 37.0907C30.1904 36.8126 30.4701 36.4204 30.6701 35.9142C30.8701 35.4079 30.9701 34.8158 30.9701 34.1377C30.9701 33.4565 30.8701 32.8643 30.6701 32.3612C30.4701 31.855 30.1904 31.4628 29.8311 31.1847C29.4717 30.9066 29.0514 30.7676 28.5702 30.7676C28.089 30.7676 27.6671 30.9066 27.3046 31.1847C26.9453 31.4628 26.6656 31.855 26.4656 32.3612C26.2687 32.8643 26.1703 33.4565 26.1703 34.1377C26.1703 34.8158 26.2687 35.4079 26.4656 35.9142C26.6656 36.4204 26.9453 36.8126 27.3046 37.0907C27.6671 37.3688 28.089 37.5078 28.5702 37.5078ZM33.1145 38V37.6672C33.8332 37.1047 34.4519 36.6063 34.9706 36.172C35.4894 35.7345 35.9237 35.347 36.2737 35.0095C36.6237 34.672 36.9018 34.3689 37.108 34.1002C37.3143 33.8315 37.4611 33.583 37.5486 33.3549C37.6361 33.1268 37.6799 32.9018 37.6799 32.68C37.6799 32.33 37.5955 32.0128 37.4268 31.7285C37.2611 31.4441 37.0377 31.2175 36.7565 31.0488C36.4752 30.8801 36.1628 30.7957 35.819 30.7957C35.4753 30.7957 35.1628 30.8801 34.8816 31.0488C34.6003 31.2175 34.3691 31.4488 34.1879 31.7425C34.0066 32.0363 33.8988 32.3737 33.8644 32.755L33.2223 32.5393C33.2567 32.1956 33.3457 31.8769 33.4895 31.5831C33.6363 31.2894 33.8269 31.0332 34.0613 30.8144C34.2988 30.5957 34.5691 30.4254 34.8722 30.3035C35.1753 30.1817 35.5019 30.1207 35.8518 30.1207C36.3362 30.1207 36.7752 30.2332 37.169 30.4582C37.5627 30.6801 37.8752 30.9832 38.1064 31.3675C38.3376 31.7519 38.4533 32.1862 38.4533 32.6706C38.4533 32.9206 38.4158 33.1659 38.3408 33.4065C38.2658 33.6471 38.1392 33.8987 37.9611 34.1611C37.7861 34.4236 37.5502 34.7095 37.2533 35.0189C36.9565 35.3251 36.5862 35.6673 36.1424 36.0454C35.7018 36.4235 35.1753 36.8516 34.5628 37.3297H38.5939V38H33.1145ZM40.699 38V30.9691H39.9678V30.266H41.4115V38H40.699ZM43.6294 35.5767V34.9908H46.648V35.5767H43.6294ZM48.2474 38V37.6672C48.9661 37.1047 49.5848 36.6063 50.1035 36.172C50.6222 35.7345 51.0566 35.347 51.4066 35.0095C51.7565 34.672 52.0347 34.3689 52.2409 34.1002C52.4471 33.8315 52.594 33.583 52.6815 33.3549C52.769 33.1268 52.8127 32.9018 52.8127 32.68C52.8127 32.33 52.7284 32.0128 52.5596 31.7285C52.394 31.4441 52.1706 31.2175 51.8894 31.0488C51.6081 30.8801 51.2956 30.7957 50.9519 30.7957C50.6082 30.7957 50.2957 30.8801 50.0145 31.0488C49.7332 31.2175 49.502 31.4488 49.3207 31.7425C49.1395 32.0363 49.0317 32.3737 48.9973 32.755L48.3552 32.5393C48.3895 32.1956 48.4786 31.8769 48.6223 31.5831C48.7692 31.2894 48.9598 31.0332 49.1942 30.8144C49.4317 30.5957 49.702 30.4254 50.0051 30.3035C50.3082 30.1817 50.6347 30.1207 50.9847 30.1207C51.4691 30.1207 51.9081 30.2332 52.3018 30.4582C52.6956 30.6801 53.008 30.9832 53.2393 31.3675C53.4705 31.7519 53.5861 32.1862 53.5861 32.6706C53.5861 32.9206 53.5486 33.1659 53.4736 33.4065C53.3986 33.6471 53.2721 33.8987 53.094 34.1611C52.919 34.4236 52.6831 34.7095 52.3862 35.0189C52.0893 35.3251 51.719 35.6673 51.2753 36.0454C50.8347 36.4235 50.3082 36.8516 49.6957 37.3297H53.7268V38H48.2474ZM58.424 38.15C57.7928 38.15 57.2397 37.9828 56.7647 37.6485C56.2928 37.311 55.9257 36.8407 55.6632 36.2376C55.4007 35.6345 55.2694 34.9345 55.2694 34.1377C55.2694 33.3377 55.4007 32.6378 55.6632 32.0378C55.9257 31.4347 56.2928 30.966 56.7647 30.6316C57.2397 30.2942 57.7928 30.1254 58.424 30.1254C59.0552 30.1254 59.6067 30.2942 60.0786 30.6316C60.5504 30.966 60.9176 31.4347 61.1801 32.0378C61.4457 32.6378 61.5785 33.3377 61.5785 34.1377C61.5785 34.9345 61.4457 35.6345 61.1801 36.2376C60.9176 36.8407 60.5504 37.311 60.0786 37.6485C59.6067 37.9828 59.0552 38.15 58.424 38.15ZM58.424 37.5078C58.9052 37.5078 59.3255 37.3688 59.6848 37.0907C60.0442 36.8126 60.3239 36.4204 60.5239 35.9142C60.7238 35.4079 60.8238 34.8158 60.8238 34.1377C60.8238 33.4565 60.7238 32.8643 60.5239 32.3612C60.3239 31.855 60.0442 31.4628 59.6848 31.1847C59.3255 30.9066 58.9052 30.7676 58.424 30.7676C57.9427 30.7676 57.5209 30.9066 57.1584 31.1847C56.7991 31.4628 56.5194 31.855 56.3194 32.3612C56.1225 32.8643 56.0241 33.4565 56.0241 34.1377C56.0241 34.8158 56.1225 35.4079 56.3194 35.9142C56.5194 36.4204 56.7991 36.8126 57.1584 37.0907C57.5209 37.3688 57.9427 37.5078 58.424 37.5078ZM62.9683 38V37.6672C63.687 37.1047 64.3057 36.6063 64.8244 36.172C65.3431 35.7345 65.7775 35.347 66.1275 35.0095C66.4775 34.672 66.7556 34.3689 66.9618 34.1002C67.168 33.8315 67.3149 33.583 67.4024 33.3549C67.4899 33.1268 67.5336 32.9018 67.5336 32.68C67.5336 32.33 67.4493 32.0128 67.2805 31.7285C67.1149 31.4441 66.8915 31.2175 66.6103 31.0488C66.329 30.8801 66.0165 30.7957 65.6728 30.7957C65.3291 30.7957 65.0166 30.8801 64.7354 31.0488C64.4541 31.2175 64.2229 31.4488 64.0416 31.7425C63.8604 32.0363 63.7526 32.3737 63.7182 32.755L63.0761 32.5393C63.1104 32.1956 63.1995 31.8769 63.3432 31.5831C63.4901 31.2894 63.6807 31.0332 63.9151 30.8144C64.1526 30.5957 64.4229 30.4254 64.726 30.3035C65.0291 30.1817 65.3556 30.1207 65.7056 30.1207C66.19 30.1207 66.629 30.2332 67.0227 30.4582C67.4165 30.6801 67.7289 30.9832 67.9602 31.3675C68.1914 31.7519 68.307 32.1862 68.307 32.6706C68.307 32.9206 68.2695 33.1659 68.1945 33.4065C68.1196 33.6471 67.993 33.8987 67.8149 34.1611C67.6399 34.4236 67.404 34.7095 67.1071 35.0189C66.8102 35.3251 66.44 35.6673 65.9962 36.0454C65.5556 36.4235 65.0291 36.8516 64.4166 37.3297H68.4477V38H62.9683ZM69.7794 38V37.6672C70.4981 37.1047 71.1169 36.6063 71.6356 36.172C72.1543 35.7345 72.5887 35.347 72.9386 35.0095C73.2886 34.672 73.5667 34.3689 73.773 34.1002C73.9792 33.8315 74.1261 33.583 74.2136 33.3549C74.3011 33.1268 74.3448 32.9018 74.3448 32.68C74.3448 32.33 74.2604 32.0128 74.0917 31.7285C73.9261 31.4441 73.7027 31.2175 73.4214 31.0488C73.1402 30.8801 72.8277 30.7957 72.484 30.7957C72.1402 30.7957 71.8278 30.8801 71.5465 31.0488C71.2653 31.2175 71.0341 31.4488 70.8528 31.7425C70.6716 32.0363 70.5638 32.3737 70.5294 32.755L69.8872 32.5393C69.9216 32.1956 70.0107 31.8769 70.1544 31.5831C70.3013 31.2894 70.4919 31.0332 70.7263 30.8144C70.9637 30.5957 71.234 30.4254 71.5371 30.3035C71.8403 30.1817 72.1668 30.1207 72.5168 30.1207C73.0011 30.1207 73.4402 30.2332 73.8339 30.4582C74.2276 30.6801 74.5401 30.9832 74.7714 31.3675C75.0026 31.7519 75.1182 32.1862 75.1182 32.6706C75.1182 32.9206 75.0807 33.1659 75.0057 33.4065C74.9307 33.6471 74.8042 33.8987 74.6261 34.1611C74.4511 34.4236 74.2151 34.7095 73.9183 35.0189C73.6214 35.3251 73.2511 35.6673 72.8074 36.0454C72.3668 36.4235 71.8403 36.8516 71.2278 37.3297H75.2588V38H69.7794Z" fill="#B1B2B3"/>
</svg>
