<svg width="19" height="19" viewBox="0 0 19 19" fill="none" xmlns="http://www.w3.org/2000/svg">
<path d="M16.2293 8.94587V5.57338C16.2293 2.38296 15.4852 1.58337 12.4927 1.58337H6.50766C3.51516 1.58337 2.771 2.38296 2.771 5.57338V14.4875C2.771 16.5934 3.92684 17.0921 5.32809 15.588L5.33599 15.58C5.98516 14.8913 6.97474 14.9467 7.53682 15.6988L8.33641 16.7675" stroke="#5AAC4E" stroke-width="1.5" stroke-linecap="round" stroke-linejoin="round"/>
<path d="M6.3335 5.54163H12.6668" stroke="#5AAC4E" stroke-width="1.5" stroke-linecap="round" stroke-linejoin="round"/>
<path d="M7.125 8.70837H11.875" stroke="#5AAC4E" stroke-width="1.5" stroke-linecap="round" stroke-linejoin="round"/>
<path d="M14.4169 11.6931L11.6144 14.4956C11.5036 14.6065 11.4006 14.8123 11.3769 14.9627L11.2265 16.0315C11.1711 16.4194 11.4402 16.6886 11.8281 16.6332L12.8969 16.4827C13.0473 16.459 13.2611 16.3561 13.364 16.2452L16.1665 13.4427C16.6494 12.9598 16.879 12.3977 16.1665 11.6852C15.4619 10.9807 14.8998 11.2102 14.4169 11.6931Z" stroke="#5AAC4E" stroke-width="1.5" stroke-miterlimit="10" stroke-linecap="round" stroke-linejoin="round"/>
<path d="M14.0117 12.0969C14.2492 12.9519 14.9142 13.6169 15.7692 13.8544" stroke="#5AAC4E" stroke-width="1.5" stroke-miterlimit="10" stroke-linecap="round" stroke-linejoin="round"/>
</svg>
