<svg width="78" height="27" viewBox="0 0 78 27" fill="none" xmlns="http://www.w3.org/2000/svg">
<path d="M32.868 18V8.1H35.676C36.332 8.1 36.9 8.214 37.38 8.442C37.86 8.67 38.23 8.998 38.49 9.426C38.754 9.85 38.886 10.36 38.886 10.956C38.886 11.476 38.784 11.938 38.58 12.342C38.376 12.746 38.084 13.076 37.704 13.332C37.328 13.588 36.878 13.756 36.354 13.836L39.63 18H38.082L35.016 13.962H34.086V18H32.868ZM34.086 12.924H35.346C35.818 12.924 36.224 12.846 36.564 12.69C36.904 12.534 37.166 12.312 37.35 12.024C37.534 11.732 37.626 11.386 37.626 10.986C37.626 10.39 37.424 9.924 37.02 9.588C36.62 9.252 36.062 9.084 35.346 9.084H34.086V12.924ZM43.7569 18.192C43.1129 18.192 42.5349 18.05 42.0229 17.766C41.5109 17.482 41.1069 17.096 40.8109 16.608C40.5149 16.116 40.3669 15.562 40.3669 14.946C40.3669 14.49 40.4509 14.064 40.6189 13.668C40.7869 13.272 41.0209 12.924 41.3209 12.624C41.6209 12.32 41.9689 12.084 42.3649 11.916C42.7609 11.748 43.1849 11.664 43.6369 11.664C44.2769 11.664 44.8369 11.796 45.3169 12.06C45.8009 12.324 46.1769 12.692 46.4449 13.164C46.7169 13.636 46.8529 14.184 46.8529 14.808C46.8529 14.86 46.8509 14.902 46.8469 14.934C46.8429 14.966 46.8349 15.008 46.8229 15.06H41.5429C41.5429 15.488 41.6389 15.866 41.8309 16.194C42.0269 16.522 42.2949 16.78 42.6349 16.968C42.9789 17.152 43.3729 17.244 43.8169 17.244C44.2369 17.244 44.6129 17.158 44.9449 16.986C45.2769 16.814 45.5649 16.558 45.8089 16.218L46.6609 16.662C46.3689 17.146 45.9669 17.522 45.4549 17.79C44.9469 18.058 44.3809 18.192 43.7569 18.192ZM41.6029 14.202H45.6829C45.6269 13.886 45.5029 13.61 45.3109 13.374C45.1229 13.134 44.8849 12.948 44.5969 12.816C44.3129 12.68 43.9989 12.612 43.6549 12.612C43.2949 12.612 42.9689 12.678 42.6769 12.81C42.3889 12.938 42.1509 13.122 41.9629 13.362C41.7789 13.598 41.6589 13.878 41.6029 14.202ZM48.9019 18V12.738H48.2239V11.856H48.9019V9.858C48.9019 9.362 48.9739 8.938 49.1179 8.586C49.2659 8.234 49.4779 7.966 49.7539 7.782C50.0339 7.594 50.3739 7.5 50.7739 7.5C51.0219 7.5 51.2559 7.536 51.4759 7.608C51.6999 7.676 51.8939 7.774 52.0579 7.902L51.6499 8.73C51.4659 8.594 51.2399 8.526 50.9719 8.526C50.7519 8.526 50.5759 8.58 50.4439 8.688C50.3119 8.796 50.2159 8.95 50.1559 9.15C50.0959 9.346 50.0659 9.58 50.0659 9.852V11.856H51.5959V12.738H50.0659V18H48.9019ZM56.1553 18.192C55.5113 18.192 54.9333 18.05 54.4213 17.766C53.9093 17.482 53.5053 17.096 53.2093 16.608C52.9133 16.116 52.7653 15.562 52.7653 14.946C52.7653 14.49 52.8493 14.064 53.0173 13.668C53.1853 13.272 53.4193 12.924 53.7193 12.624C54.0193 12.32 54.3673 12.084 54.7633 11.916C55.1593 11.748 55.5833 11.664 56.0353 11.664C56.6753 11.664 57.2353 11.796 57.7153 12.06C58.1993 12.324 58.5753 12.692 58.8433 13.164C59.1153 13.636 59.2513 14.184 59.2513 14.808C59.2513 14.86 59.2493 14.902 59.2453 14.934C59.2413 14.966 59.2333 15.008 59.2213 15.06H53.9413C53.9413 15.488 54.0373 15.866 54.2293 16.194C54.4253 16.522 54.6933 16.78 55.0333 16.968C55.3773 17.152 55.7713 17.244 56.2153 17.244C56.6353 17.244 57.0113 17.158 57.3433 16.986C57.6753 16.814 57.9633 16.558 58.2073 16.218L59.0593 16.662C58.7673 17.146 58.3653 17.522 57.8533 17.79C57.3453 18.058 56.7793 18.192 56.1553 18.192ZM54.0013 14.202H58.0813C58.0253 13.886 57.9013 13.61 57.7093 13.374C57.5213 13.134 57.2833 12.948 56.9953 12.816C56.7113 12.68 56.3973 12.612 56.0533 12.612C55.6933 12.612 55.3673 12.678 55.0753 12.81C54.7873 12.938 54.5493 13.122 54.3613 13.362C54.1773 13.598 54.0573 13.878 54.0013 14.202ZM61.1675 18V11.856H62.3315V12.756C62.5355 12.4 62.7955 12.13 63.1115 11.946C63.4275 11.758 63.7855 11.664 64.1855 11.664C64.3775 11.664 64.5715 11.688 64.7675 11.736C64.9675 11.78 65.1395 11.84 65.2835 11.916L64.8035 12.9C64.6795 12.832 64.5355 12.778 64.3715 12.738C64.2075 12.698 64.0535 12.678 63.9095 12.678C63.6415 12.678 63.3855 12.748 63.1415 12.888C62.9015 13.024 62.7055 13.202 62.5535 13.422C62.4055 13.642 62.3315 13.878 62.3315 14.13V18H61.1675ZM69.2324 18.192C68.6604 18.192 68.1424 18.052 67.6784 17.772C67.2184 17.488 66.8524 17.1 66.5804 16.608C66.3124 16.116 66.1784 15.554 66.1784 14.922C66.1784 14.298 66.3104 13.742 66.5744 13.254C66.8384 12.762 67.2004 12.374 67.6604 12.09C68.1204 11.806 68.6444 11.664 69.2324 11.664C69.7524 11.664 70.2264 11.78 70.6544 12.012C71.0864 12.244 71.4204 12.566 71.6564 12.978V11.856H72.8204V18H71.6564V16.848C71.3884 17.272 71.0444 17.602 70.6244 17.838C70.2044 18.074 69.7404 18.192 69.2324 18.192ZM69.5444 17.19C69.9644 17.19 70.3344 17.094 70.6544 16.902C70.9784 16.706 71.2324 16.438 71.4164 16.098C71.6004 15.758 71.6924 15.368 71.6924 14.928C71.6924 14.488 71.6004 14.098 71.4164 13.758C71.2324 13.418 70.9784 13.152 70.6544 12.96C70.3344 12.764 69.9644 12.666 69.5444 12.666C69.1284 12.666 68.7584 12.764 68.4344 12.96C68.1104 13.152 67.8544 13.418 67.6664 13.758C67.4824 14.098 67.3904 14.488 67.3904 14.928C67.3904 15.364 67.4824 15.754 67.6664 16.098C67.8544 16.438 68.1104 16.706 68.4344 16.902C68.7584 17.094 69.1284 17.19 69.5444 17.19ZM75.2769 18V7.68H76.4409V18H75.2769Z" fill="#494C54"/>
<circle cx="13.5" cy="13.5" r="13.5" fill="#752CFB"/>
<path d="M13.0875 16.625V17.85" stroke="white" stroke-width="0.6" stroke-linecap="round" stroke-linejoin="round"/>
<path d="M10.1708 19.8333H16.0041V19.25C16.0041 18.6083 15.4791 18.0833 14.8374 18.0833H11.3374C10.6958 18.0833 10.1708 18.6083 10.1708 19.25V19.8333V19.8333Z" stroke="white" stroke-width="0.6" stroke-miterlimit="10"/>
<path d="M9.58752 19.8333H16.5875" stroke="white" stroke-width="0.6" stroke-linecap="round" stroke-linejoin="round"/>
<path d="M13 16.3334C10.7425 16.3334 8.91663 14.5075 8.91663 12.25V10.5C8.91663 9.21085 9.96079 8.16669 11.25 8.16669H14.75C16.0391 8.16669 17.0833 9.21085 17.0833 10.5V12.25C17.0833 14.5075 15.2575 16.3334 13 16.3334Z" stroke="white" stroke-width="0.6" stroke-linecap="round" stroke-linejoin="round"/>
<path d="M9.19077 13.7958C8.75327 13.6558 8.36827 13.3991 8.06494 13.0958C7.53994 12.5125 7.18994 11.8125 7.18994 10.9958C7.18994 10.1791 7.83161 9.53748 8.64827 9.53748H9.02744C8.91077 9.80581 8.85244 10.1033 8.85244 10.4125V12.1625C8.85244 12.7458 8.97494 13.2941 9.19077 13.7958Z" stroke="white" stroke-width="0.6" stroke-linecap="round" stroke-linejoin="round"/>
<path d="M16.8092 13.7958C17.2467 13.6558 17.6317 13.3991 17.935 13.0958C18.46 12.5125 18.81 11.8125 18.81 10.9958C18.81 10.1791 18.1684 9.53748 17.3517 9.53748H16.9725C17.0892 9.80581 17.1475 10.1033 17.1475 10.4125V12.1625C17.1475 12.7458 17.025 13.2941 16.8092 13.7958Z" stroke="white" stroke-width="0.6" stroke-linecap="round" stroke-linejoin="round"/>
</svg>
