<svg width="52" height="19" viewBox="0 0 52 19" fill="none" xmlns="http://www.w3.org/2000/svg">
<rect opacity="0.1" width="52" height="19" rx="9.5" fill="#5AAC4E"/>
<path d="M14.2745 14.176C13.6402 14.176 13.0462 14.055 12.4925 13.813C11.9388 13.571 11.453 13.2355 11.035 12.8065C10.617 12.3738 10.2888 11.8733 10.0505 11.305C9.81583 10.733 9.6985 10.1207 9.6985 9.468C9.6985 8.81167 9.81583 8.19933 10.0505 7.631C10.2888 7.06267 10.617 6.564 11.035 6.135C11.453 5.70233 11.9388 5.365 12.4925 5.123C13.0462 4.881 13.6402 4.76 14.2745 4.76C14.9088 4.76 15.5028 4.881 16.0565 5.123C16.6102 5.365 17.096 5.70233 17.514 6.135C17.932 6.564 18.2583 7.06267 18.493 7.631C18.7313 8.19933 18.8505 8.81167 18.8505 9.468C18.8505 10.1207 18.7313 10.733 18.493 11.305C18.2583 11.8733 17.932 12.3738 17.514 12.8065C17.096 13.2355 16.6102 13.571 16.0565 13.813C15.5028 14.055 14.9088 14.176 14.2745 14.176ZM14.2745 12.79C14.7072 12.79 15.1068 12.7075 15.4735 12.5425C15.8438 12.3738 16.1647 12.141 16.436 11.844C16.711 11.5433 16.9237 11.1913 17.074 10.788C17.2243 10.3847 17.2995 9.94467 17.2995 9.468C17.2995 8.99133 17.2243 8.55133 17.074 8.148C16.9237 7.74467 16.711 7.3945 16.436 7.0975C16.1647 6.79683 15.8438 6.564 15.4735 6.399C15.1068 6.23033 14.7072 6.146 14.2745 6.146C13.8455 6.146 13.4458 6.23033 13.0755 6.399C12.7088 6.564 12.388 6.79683 12.113 7.0975C11.8417 7.3945 11.6308 7.74467 11.4805 8.148C11.3302 8.55133 11.255 8.99133 11.255 9.468C11.255 9.94467 11.3302 10.3847 11.4805 10.788C11.6308 11.1913 11.8417 11.5433 12.113 11.844C12.388 12.141 12.7088 12.3738 13.0755 12.5425C13.4458 12.7075 13.8455 12.79 14.2745 12.79ZM22.3701 14.176C21.8604 14.176 21.4626 14.011 21.1766 13.681C20.8942 13.351 20.7531 12.8872 20.7531 12.2895V9.4075H20.0656V8.368H20.7531V6.2615H22.1226V8.368H23.4206V9.4075H22.1226V12.196C22.1226 12.4417 22.1721 12.6305 22.2711 12.7625C22.3701 12.8908 22.5112 12.955 22.6946 12.955C22.8852 12.955 23.0594 12.8963 23.2171 12.779L23.5636 13.8735C23.3986 13.9688 23.2097 14.0422 22.9971 14.0935C22.7844 14.1485 22.5754 14.176 22.3701 14.176ZM25.1328 14V4.5345H26.5023V9.0445C26.6966 8.79517 26.9551 8.59167 27.2778 8.434C27.6041 8.27267 27.9763 8.192 28.3943 8.192C28.827 8.192 29.2046 8.2855 29.5273 8.4725C29.8536 8.65583 30.1066 8.91617 30.2863 9.2535C30.466 9.59083 30.5558 9.9905 30.5558 10.4525V14H29.1863V10.7385C29.1863 10.2692 29.069 9.908 28.8343 9.655C28.6033 9.39833 28.2825 9.27 27.8718 9.27C27.5895 9.27 27.3456 9.32867 27.1403 9.446C26.935 9.55967 26.7773 9.71367 26.6673 9.908C26.5573 10.0987 26.5023 10.3113 26.5023 10.546V14H25.1328ZM35.2611 14.176C34.6598 14.176 34.1208 14.0458 33.6441 13.7855C33.1711 13.5252 32.7953 13.1695 32.5166 12.7185C32.2416 12.2675 32.1041 11.7597 32.1041 11.195C32.1041 10.777 32.183 10.3865 32.3406 10.0235C32.4983 9.6605 32.7165 9.3415 32.9951 9.0665C33.2738 8.7915 33.5983 8.577 33.9686 8.423C34.339 8.269 34.7386 8.192 35.1676 8.192C35.7543 8.192 36.2676 8.313 36.7076 8.555C37.1513 8.797 37.496 9.13433 37.7416 9.567C37.991 9.99967 38.1156 10.5038 38.1156 11.0795C38.1156 11.1272 38.1138 11.1675 38.1101 11.2005C38.1065 11.2298 38.0991 11.2812 38.0881 11.3545H33.5011C33.5011 11.6955 33.5781 11.9962 33.7321 12.2565C33.8861 12.5132 34.1006 12.7148 34.3756 12.8615C34.6543 13.0045 34.9733 13.076 35.3326 13.076C35.6736 13.076 35.9761 13.0082 36.2401 12.8725C36.5078 12.7332 36.7498 12.5223 36.9661 12.24L37.9616 12.7515C37.694 13.1988 37.3218 13.549 36.8451 13.802C36.3721 14.0513 35.8441 14.176 35.2611 14.176ZM33.5616 10.4965H36.7571C36.7095 10.2398 36.6123 10.018 36.4656 9.831C36.319 9.644 36.1338 9.49917 35.9101 9.3965C35.6865 9.29017 35.4371 9.237 35.1621 9.237C34.8725 9.237 34.614 9.28833 34.3866 9.391C34.1593 9.49367 33.9741 9.6385 33.8311 9.8255C33.6881 10.0125 33.5983 10.2362 33.5616 10.4965ZM39.7529 14V8.368H41.1224V9.1875C41.3204 8.86483 41.5679 8.61917 41.8649 8.4505C42.1619 8.27817 42.4882 8.192 42.8439 8.192C43.0309 8.192 43.2216 8.21767 43.4159 8.269C43.6139 8.31667 43.7826 8.38083 43.9219 8.4615L43.3554 9.622C43.2344 9.54867 43.0932 9.49 42.9319 9.446C42.7742 9.402 42.6276 9.38 42.4919 9.38C42.2572 9.38 42.0354 9.4405 41.8264 9.5615C41.6174 9.6825 41.4469 9.83833 41.3149 10.029C41.1866 10.2197 41.1224 10.425 41.1224 10.645V14H39.7529Z" fill="#5AAC4E"/>
</svg>
