<svg width="100" height="26" viewBox="0 0 100 26" fill="none" xmlns="http://www.w3.org/2000/svg">
<circle cx="10.3696" cy="12.8043" r="9.86957" fill="#F2F9F4" stroke="white"/>
<path d="M9.58358 13.1515L8.86363 11.9865L11.2067 9.89213H7.34519V8.51768H13.2357V9.82668L10.9318 11.8425C11.6125 11.86 12.2059 12.1 12.7121 12.5625C13.2182 13.025 13.4713 13.6446 13.4713 14.4213C13.4713 15.1892 13.1833 15.8437 12.6074 16.3848C12.0314 16.9258 11.2591 17.1964 10.2904 17.1964C9.34796 17.1964 8.58437 16.9389 7.99969 16.424C7.42373 15.9004 7.10957 15.2634 7.05721 14.5129L8.58874 14.1987C8.60619 14.6874 8.772 15.0845 9.08616 15.3899C9.40904 15.6954 9.80611 15.8481 10.2773 15.8481C10.7748 15.8481 11.1675 15.7085 11.4554 15.4292C11.7434 15.1499 11.8874 14.8096 11.8874 14.4082C11.8874 13.9544 11.7347 13.6097 11.4293 13.3741C11.1326 13.1297 10.7835 13.0075 10.3821 13.0075C10.0417 13.0075 9.77556 13.0555 9.58358 13.1515Z" fill="black"/>
<g filter="url(#filter0_d_712_46727)">
<circle cx="26.5" cy="12.8043" r="10.3696" fill="#F2F9F4"/>
<circle cx="26.5" cy="12.8043" r="9.86957" stroke="white"/>
</g>
<path d="M27.1769 17H25.6323V11.188H23.5772V10.1147C24.1706 10.1059 24.668 9.95322 25.0694 9.65651C25.4709 9.35108 25.7196 8.97147 25.8156 8.51768H27.1769V17Z" fill="black"/>
<g filter="url(#filter1_d_712_46727)">
<circle cx="42.6305" cy="12.8043" r="10.3696" fill="#F2F9F4"/>
<circle cx="42.6305" cy="12.8043" r="9.86957" stroke="white"/>
</g>
<path d="M44.859 8.74021L44.414 10.023C43.9951 9.79614 43.5108 9.68269 42.961 9.68269C42.1581 9.68269 41.4905 9.9314 40.9582 10.4288C40.4346 10.9175 40.1379 11.572 40.0681 12.3923C40.5044 11.7204 41.2244 11.3844 42.228 11.3844C43.0832 11.3844 43.7769 11.6462 44.3093 12.1698C44.8416 12.6934 45.1078 13.3872 45.1078 14.2511C45.1078 15.115 44.798 15.8219 44.1784 16.3717C43.5588 16.9215 42.7952 17.1964 41.8876 17.1964C40.8404 17.1964 40.0114 16.8211 39.4005 16.0706C38.7984 15.3201 38.4973 14.382 38.4973 13.2563C38.4973 11.7465 38.9205 10.5466 39.767 9.65651C40.6135 8.76639 41.7087 8.32133 43.0526 8.32133C43.8206 8.32133 44.4227 8.46096 44.859 8.74021ZM40.2383 14.2773C40.2383 14.7485 40.3997 15.1325 40.7226 15.4292C41.0542 15.7172 41.4426 15.8612 41.8876 15.8612C42.3501 15.8612 42.7385 15.7172 43.0526 15.4292C43.3755 15.1412 43.537 14.7572 43.537 14.2773C43.537 13.7973 43.3755 13.4133 43.0526 13.1254C42.7385 12.8374 42.3501 12.6934 41.8876 12.6934C41.4251 12.6934 41.0324 12.8374 40.7095 13.1254C40.3954 13.4133 40.2383 13.7973 40.2383 14.2773Z" fill="black"/>
<path d="M55.6918 17V5.417H57.5311V17H55.6918ZM60.5787 17V9.81152H62.3267V10.675C62.5747 10.3567 62.9047 10.097 63.3165 9.89576C63.733 9.68984 64.2081 9.58688 64.7416 9.58688C65.2938 9.58688 65.7759 9.70622 66.1877 9.9449C66.6042 10.1789 66.9271 10.5112 67.1565 10.9417C67.3858 11.3723 67.5004 11.8824 67.5004 12.4721V17H65.7525V12.8371C65.7525 12.2381 65.6027 11.7771 65.3032 11.4542C65.0083 11.1266 64.5988 10.9628 64.0747 10.9628C63.7143 10.9628 63.4031 11.0377 63.141 11.1874C62.8789 11.3325 62.6777 11.5291 62.5373 11.7771C62.3969 12.0205 62.3267 12.2919 62.3267 12.5914V17H60.5787ZM72.5023 17L68.8238 9.81152H70.8877L73.085 14.6483L75.2822 9.81152H77.3461L73.6676 17H72.5023ZM82.1852 17.2246C81.4177 17.2246 80.7297 17.0585 80.1213 16.7262C79.5176 16.3939 79.0379 15.94 78.6822 15.3643C78.3312 14.7887 78.1557 14.1405 78.1557 13.4198C78.1557 12.8863 78.2563 12.3879 78.4576 11.9245C78.6588 11.4612 78.9373 11.0541 79.2929 10.7031C79.6486 10.3521 80.0628 10.0783 80.5355 9.88172C81.0082 9.68516 81.5183 9.58688 82.0658 9.58688C82.8146 9.58688 83.4699 9.74132 84.0315 10.0502C84.5977 10.3591 85.0377 10.7896 85.3512 11.3419C85.6695 11.8941 85.8286 12.5376 85.8286 13.2724C85.8286 13.3332 85.8262 13.3847 85.8215 13.4268C85.8169 13.4643 85.8075 13.5298 85.7935 13.6234H79.9388C79.9388 14.0586 80.0371 14.4424 80.2336 14.7747C80.4302 15.1023 80.704 15.3597 81.055 15.5469C81.4106 15.7294 81.8178 15.8206 82.2764 15.8206C82.7117 15.8206 83.0978 15.7341 83.4347 15.5609C83.7764 15.3831 84.0853 15.114 84.3614 14.7536L85.632 15.4065C85.2904 15.9774 84.8154 16.4244 84.2069 16.7473C83.6032 17.0655 82.9293 17.2246 82.1852 17.2246ZM80.016 12.5283H84.0946C84.0338 12.2007 83.9098 11.9175 83.7226 11.6788C83.5354 11.4402 83.299 11.2553 83.0135 11.1243C82.7281 10.9885 82.4098 10.9207 82.0588 10.9207C81.6891 10.9207 81.3592 10.9862 81.069 11.1172C80.7788 11.2483 80.5425 11.4331 80.36 11.6718C80.1775 11.9105 80.0628 12.196 80.016 12.5283ZM89.8706 17.2246C89.2668 17.2246 88.7286 17.1123 88.256 16.8877C87.788 16.6584 87.4065 16.3308 87.1117 15.9049L87.8839 14.7676C88.16 15.1327 88.4666 15.4158 88.8035 15.6171C89.1452 15.8183 89.4985 15.9189 89.8635 15.9189C90.0882 15.9189 90.2871 15.8791 90.4602 15.7996C90.6334 15.7153 90.7715 15.596 90.8744 15.4416C90.9774 15.2824 91.0289 15.0952 91.0289 14.88C91.0289 14.6553 90.9704 14.4798 90.8534 14.3535C90.7364 14.2271 90.5609 14.1124 90.3269 14.0095C90.0929 13.9065 89.798 13.7848 89.4423 13.6444C89.1428 13.5181 88.8573 13.3777 88.5859 13.2232C88.3145 13.0688 88.0898 12.8746 87.912 12.6406C87.7388 12.4019 87.6522 12.1 87.6522 11.735C87.6522 11.3185 87.7669 10.9488 87.9962 10.6258C88.2302 10.3029 88.5485 10.0502 88.9509 9.86768C89.3581 9.68516 89.8214 9.5939 90.3409 9.5939C90.7153 9.5939 91.092 9.66176 91.4711 9.79748C91.8502 9.92852 92.2293 10.1204 92.6084 10.3731L91.9766 11.4753C91.429 11.0213 90.8885 10.7943 90.3549 10.7943C90.0414 10.7943 89.7887 10.8692 89.5968 11.019C89.4096 11.1687 89.316 11.3606 89.316 11.5946C89.316 11.7865 89.3979 11.9503 89.5617 12.086C89.7255 12.2217 89.9291 12.3411 90.1724 12.444C90.4158 12.547 90.6591 12.6453 90.9025 12.7389C91.2863 12.8793 91.6232 13.029 91.9134 13.1881C92.2035 13.3473 92.4305 13.5532 92.5943 13.8059C92.7581 14.0586 92.84 14.3956 92.84 14.8168C92.84 15.3222 92.7183 15.7551 92.475 16.1155C92.2363 16.4758 91.8947 16.752 91.4501 16.9438C91.0055 17.131 90.479 17.2246 89.8706 17.2246ZM97.1021 17.2246C96.4516 17.2246 95.9438 17.014 95.5788 16.5928C95.2184 16.1716 95.0383 15.5796 95.0383 14.8168V11.1383H94.1608V9.81152H95.0383V7.12286H96.7862V9.81152H98.443V11.1383H96.7862V14.6974C96.7862 15.011 96.8494 15.252 96.9758 15.4205C97.1021 15.5843 97.2823 15.6662 97.5163 15.6662C97.7597 15.6662 97.982 15.5913 98.1832 15.4416L98.6255 16.8385C98.4149 16.9602 98.1739 17.0538 97.9024 17.1193C97.631 17.1895 97.3642 17.2246 97.1021 17.2246Z" fill="black"/>
<defs>
<filter id="filter0_d_712_46727" x="11.1304" y="0.434753" width="25.7391" height="24.7391" filterUnits="userSpaceOnUse" color-interpolation-filters="sRGB">
<feFlood flood-opacity="0" result="BackgroundImageFix"/>
<feColorMatrix in="SourceAlpha" type="matrix" values="0 0 0 0 0 0 0 0 0 0 0 0 0 0 0 0 0 0 127 0" result="hardAlpha"/>
<feOffset dx="-3"/>
<feGaussianBlur stdDeviation="1"/>
<feComposite in2="hardAlpha" operator="out"/>
<feColorMatrix type="matrix" values="0 0 0 0 0.870833 0 0 0 0 0.859948 0 0 0 0 0.859948 0 0 0 0.25 0"/>
<feBlend mode="normal" in2="BackgroundImageFix" result="effect1_dropShadow_712_46727"/>
<feBlend mode="normal" in="SourceGraphic" in2="effect1_dropShadow_712_46727" result="shape"/>
</filter>
<filter id="filter1_d_712_46727" x="27.2609" y="0.434753" width="25.7391" height="24.7391" filterUnits="userSpaceOnUse" color-interpolation-filters="sRGB">
<feFlood flood-opacity="0" result="BackgroundImageFix"/>
<feColorMatrix in="SourceAlpha" type="matrix" values="0 0 0 0 0 0 0 0 0 0 0 0 0 0 0 0 0 0 127 0" result="hardAlpha"/>
<feOffset dx="-3"/>
<feGaussianBlur stdDeviation="1"/>
<feComposite in2="hardAlpha" operator="out"/>
<feColorMatrix type="matrix" values="0 0 0 0 0.870833 0 0 0 0 0.859948 0 0 0 0 0.859948 0 0 0 0.25 0"/>
<feBlend mode="normal" in2="BackgroundImageFix" result="effect1_dropShadow_712_46727"/>
<feBlend mode="normal" in="SourceGraphic" in2="effect1_dropShadow_712_46727" result="shape"/>
</filter>
</defs>
</svg>
