<svg width="27" height="27" viewBox="0 0 27 27" fill="none" xmlns="http://www.w3.org/2000/svg">
<circle cx="13.5" cy="13.5" r="13.5" fill="#BD5BFA"/>
<path d="M9 14.645V9.85498C9 9.18998 9.385 9.02998 9.855 9.49998L11.15 10.795C11.345 10.99 11.665 10.99 11.855 10.795L13.645 8.99998C13.84 8.80498 14.16 8.80498 14.35 8.99998L16.145 10.795C16.34 10.99 16.66 10.99 16.85 10.795L18.145 9.49998C18.615 9.02998 19 9.18998 19 9.85498V14.65C19 16.15 18 17.15 16.5 17.15H11.5C10.12 17.145 9 16.025 9 14.645Z" stroke="white" stroke-width="0.75" stroke-linecap="round" stroke-linejoin="round"/>
<path d="M11.9 13.796L11.708 13.472L12.472 12.768H11.232V12.408H12.992V12.76L12.252 13.444C12.4627 13.444 12.648 13.5133 12.808 13.652C12.9707 13.7907 13.052 13.984 13.052 14.232C13.052 14.4613 12.968 14.6573 12.8 14.82C12.632 14.9827 12.4027 15.064 12.112 15.064C11.8267 15.064 11.5973 14.9853 11.424 14.828C11.2533 14.668 11.1613 14.4747 11.148 14.248L11.532 14.16C11.54 14.328 11.5973 14.464 11.704 14.568C11.8133 14.6693 11.948 14.72 12.108 14.72C12.2787 14.72 12.412 14.6747 12.508 14.584C12.6067 14.4907 12.656 14.376 12.656 14.24C12.656 14.0827 12.604 13.9627 12.5 13.88C12.396 13.7973 12.272 13.756 12.128 13.756C12.0507 13.756 11.9747 13.7693 11.9 13.796ZM14.3034 15H13.9194V13.172H13.2914V12.896C13.4674 12.8933 13.6154 12.848 13.7354 12.76C13.8554 12.6693 13.9301 12.552 13.9594 12.408H14.3034V15ZM16.7211 12.492L16.6011 12.812C16.4731 12.7373 16.3184 12.7 16.1371 12.7C15.8731 12.7 15.6584 12.7867 15.4931 12.96C15.3304 13.1333 15.2411 13.356 15.2251 13.628C15.2838 13.532 15.3718 13.452 15.4891 13.388C15.6091 13.324 15.7491 13.292 15.9091 13.292C16.1731 13.292 16.3864 13.3707 16.5491 13.528C16.7144 13.6853 16.7971 13.9013 16.7971 14.176C16.7971 14.4453 16.7038 14.66 16.5171 14.82C16.3304 14.98 16.1038 15.06 15.8371 15.06C15.5598 15.06 15.3211 14.96 15.1211 14.76C14.9238 14.5573 14.8251 14.2573 14.8251 13.86C14.8251 13.3907 14.9504 13.0213 15.2011 12.752C15.4518 12.4827 15.7718 12.348 16.1611 12.348C16.3984 12.348 16.5851 12.396 16.7211 12.492ZM15.2811 14.176C15.2811 14.3387 15.3371 14.4707 15.4491 14.572C15.5611 14.6707 15.6918 14.72 15.8411 14.72C15.9984 14.72 16.1304 14.6707 16.2371 14.572C16.3464 14.4733 16.4011 14.3413 16.4011 14.176C16.4011 14.008 16.3464 13.8747 16.2371 13.776C16.1304 13.6773 15.9984 13.628 15.8411 13.628C15.6838 13.628 15.5504 13.6773 15.4411 13.776C15.3344 13.8747 15.2811 14.008 15.2811 14.176Z" fill="white"/>
</svg>
