<svg width="19" height="19" viewBox="0 0 19 19" fill="none" xmlns="http://www.w3.org/2000/svg">
<path d="M1.50293 7.94061H17.3363" stroke="#5AAC4E" stroke-width="1.5" stroke-miterlimit="10" stroke-linecap="round" stroke-linejoin="round"/>
<path d="M9.07126 16.253H5.02581C2.21539 16.253 1.50293 15.5563 1.50293 12.7776V6.27005C1.50293 3.75256 2.08874 2.94505 4.29749 2.81839C4.51915 2.81047 4.76456 2.80255 5.02581 2.80255H13.8213C16.6317 2.80255 17.3441 3.49922 17.3441 6.27797V9.76922" stroke="#5AAC4E" stroke-width="1.5" stroke-linecap="round" stroke-linejoin="round"/>
<path d="M14.1696 17.4406C15.9185 17.4406 17.3363 16.0229 17.3363 14.274C17.3363 12.5251 15.9185 11.1073 14.1696 11.1073C12.4207 11.1073 11.0029 12.5251 11.0029 14.274C11.0029 16.0229 12.4207 17.4406 14.1696 17.4406Z" stroke="#5AAC4E" stroke-width="1.5" stroke-miterlimit="10" stroke-linecap="round" stroke-linejoin="round"/>
<path d="M15.0176 15.1606L13.3472 13.4823" stroke="#5AAC4E" stroke-width="1.5" stroke-miterlimit="10" stroke-linecap="round" stroke-linejoin="round"/>
<path d="M15.0006 13.506L13.3223 15.1765" stroke="#5AAC4E" stroke-width="1.5" stroke-miterlimit="10" stroke-linecap="round" stroke-linejoin="round"/>
<path d="M4.66943 12.6906H7.8361" stroke="#5AAC4E" stroke-width="1.5" stroke-miterlimit="10" stroke-linecap="round" stroke-linejoin="round"/>
</svg>
