<svg width="19" height="19" viewBox="0 0 19 19" fill="none" xmlns="http://www.w3.org/2000/svg">
<path d="M9.62653 8.60546C9.54736 8.59754 9.45236 8.59754 9.36528 8.60546C7.48111 8.54213 5.98486 6.99838 5.98486 5.09837C5.98486 3.15879 7.55236 1.58337 9.49986 1.58337C11.4394 1.58337 13.0149 3.15879 13.0149 5.09837C13.0069 6.99838 11.5107 8.54213 9.62653 8.60546Z" stroke="#5AAC4E" stroke-width="1.5" stroke-linecap="round" stroke-linejoin="round"/>
<path d="M5.66832 11.5266C3.75249 12.8091 3.75249 14.8991 5.66832 16.1737C7.8454 17.6304 11.4158 17.6304 13.5929 16.1737C15.5087 14.8912 15.5087 12.8012 13.5929 11.5266C11.4237 10.0779 7.85332 10.0779 5.66832 11.5266Z" stroke="#5AAC4E" stroke-width="1.5" stroke-linecap="round" stroke-linejoin="round"/>
</svg>
