<svg width="68" height="19" viewBox="0 0 68 19" fill="none" xmlns="http://www.w3.org/2000/svg">
<rect opacity="0.1" width="68" height="19" rx="9.5" fill="#5AAC4E"/>
<path d="M10.3255 14V4.925H11.7665V8.819H15.721V4.925H17.1565V14H15.721V10.084H11.7665V14H10.3255ZM22.3134 14.176C21.7047 14.176 21.1547 14.0495 20.6634 13.7965C20.1757 13.5435 19.7889 13.1915 19.5029 12.7405C19.2169 12.2895 19.0739 11.7707 19.0739 11.184C19.0739 10.5937 19.2169 10.0748 19.5029 9.6275C19.7889 9.1765 20.1757 8.8245 20.6634 8.5715C21.151 8.3185 21.701 8.192 22.3134 8.192C22.922 8.192 23.4702 8.3185 23.9579 8.5715C24.4492 8.8245 24.836 9.1765 25.1184 9.6275C25.4044 10.0748 25.5474 10.5937 25.5474 11.184C25.5474 11.7707 25.4044 12.2895 25.1184 12.7405C24.836 13.1915 24.4492 13.5435 23.9579 13.7965C23.4702 14.0495 22.922 14.176 22.3134 14.176ZM22.3134 12.999C22.658 12.999 22.966 12.922 23.2374 12.768C23.5124 12.6103 23.7287 12.3958 23.8864 12.1245C24.044 11.8495 24.1229 11.536 24.1229 11.184C24.1229 10.8283 24.044 10.5148 23.8864 10.2435C23.7287 9.9685 23.5124 9.754 23.2374 9.6C22.966 9.446 22.658 9.369 22.3134 9.369C21.9724 9.369 21.6644 9.446 21.3894 9.6C21.1144 9.754 20.898 9.9685 20.7404 10.2435C20.5827 10.5148 20.5039 10.8283 20.5039 11.184C20.5039 11.536 20.5827 11.8495 20.7404 12.1245C20.898 12.3958 21.1144 12.6103 21.3894 12.768C21.6644 12.922 21.9724 12.999 22.3134 12.999ZM27.1845 14V8.368H28.554V9.0445C28.8144 8.75483 29.0875 8.54033 29.3735 8.401C29.6632 8.26167 29.9804 8.192 30.325 8.192C30.7687 8.192 31.1629 8.29283 31.5075 8.4945C31.8559 8.69617 32.1015 8.9675 32.2445 9.3085C32.4975 8.94917 32.7854 8.67417 33.108 8.4835C33.4307 8.28917 33.8047 8.192 34.23 8.192C34.6334 8.192 34.9909 8.27633 35.3025 8.445C35.6179 8.61 35.8654 8.84833 36.045 9.16C36.2284 9.468 36.32 9.84017 36.32 10.2765V14H34.9505V10.6505C34.9505 10.2325 34.8405 9.9025 34.6205 9.6605C34.4042 9.41483 34.1127 9.292 33.746 9.292C33.4967 9.292 33.273 9.34517 33.075 9.4515C32.877 9.55783 32.7212 9.699 32.6075 9.875C32.4939 10.051 32.437 10.2398 32.437 10.4415V14H31.0675V10.5955C31.0675 10.1995 30.9612 9.88417 30.7485 9.6495C30.5359 9.41117 30.2462 9.292 29.8795 9.292C29.6265 9.292 29.3992 9.34517 29.1975 9.4515C28.9995 9.55783 28.8419 9.699 28.7245 9.875C28.6109 10.0473 28.554 10.2343 28.554 10.436V14H27.1845ZM41.0297 14.176C40.4283 14.176 39.8893 14.0458 39.4127 13.7855C38.9397 13.5252 38.5638 13.1695 38.2852 12.7185C38.0102 12.2675 37.8727 11.7597 37.8727 11.195C37.8727 10.777 37.9515 10.3865 38.1092 10.0235C38.2668 9.6605 38.485 9.3415 38.7637 9.0665C39.0423 8.7915 39.3668 8.577 39.7372 8.423C40.1075 8.269 40.5072 8.192 40.9362 8.192C41.5228 8.192 42.0362 8.313 42.4762 8.555C42.9198 8.797 43.2645 9.13433 43.5102 9.567C43.7595 9.99967 43.8842 10.5038 43.8842 11.0795C43.8842 11.1272 43.8823 11.1675 43.8787 11.2005C43.875 11.2298 43.8677 11.2812 43.8567 11.3545H39.2697C39.2697 11.6955 39.3467 11.9962 39.5007 12.2565C39.6547 12.5132 39.8692 12.7148 40.1442 12.8615C40.4228 13.0045 40.7418 13.076 41.1012 13.076C41.4422 13.076 41.7447 13.0082 42.0087 12.8725C42.2763 12.7332 42.5183 12.5223 42.7347 12.24L43.7302 12.7515C43.4625 13.1988 43.0903 13.549 42.6137 13.802C42.1407 14.0513 41.6127 14.176 41.0297 14.176ZM39.3302 10.4965H42.5257C42.478 10.2398 42.3808 10.018 42.2342 9.831C42.0875 9.644 41.9023 9.49917 41.6787 9.3965C41.455 9.29017 41.2057 9.237 40.9307 9.237C40.641 9.237 40.3825 9.28833 40.1552 9.391C39.9278 9.49367 39.7427 9.6385 39.5997 9.8255C39.4567 10.0125 39.3668 10.2362 39.3302 10.4965ZM47.8711 14V13.2795C48.6337 12.6892 49.2956 12.1593 49.8566 11.69C50.4212 11.2207 50.8979 10.799 51.2866 10.425C51.6752 10.051 51.9869 9.71183 52.2216 9.4075C52.4599 9.10317 52.6322 8.82267 52.7386 8.566C52.8449 8.30567 52.8981 8.05633 52.8981 7.818C52.8981 7.49533 52.8211 7.20017 52.6671 6.9325C52.5131 6.66483 52.3041 6.45217 52.0401 6.2945C51.7797 6.13683 51.4846 6.058 51.1546 6.058C50.8356 6.058 50.5441 6.13683 50.2801 6.2945C50.0161 6.45217 49.7887 6.6795 49.5981 6.9765C49.4111 7.2735 49.2754 7.62733 49.1911 8.038L47.9591 7.499C48.0471 7.08833 48.1882 6.71433 48.3826 6.377C48.5769 6.03967 48.8171 5.75 49.1031 5.508C49.3891 5.266 49.7117 5.08083 50.0711 4.9525C50.4304 4.8205 50.8191 4.7545 51.2371 4.7545C51.8531 4.7545 52.4031 4.8865 52.8871 5.1505C53.3747 5.41083 53.7579 5.77017 54.0366 6.2285C54.3152 6.68317 54.4546 7.20017 54.4546 7.7795C54.4546 8.07283 54.4124 8.36067 54.3281 8.643C54.2474 8.92533 54.1136 9.215 53.9266 9.512C53.7432 9.809 53.4994 10.1188 53.1951 10.4415C52.8944 10.7642 52.5259 11.1125 52.0896 11.4865C51.6569 11.8568 51.1472 12.262 50.5606 12.702H54.6196V14H47.8711Z" fill="#5AAC4E"/>
</svg>
